<?xml version="1.0" encoding="UTF-8"?>
<svg width="52.649mm" height="88.465mm" version="1.1" viewBox="0 0 52.649487 88.464745" xmlns="http://www.w3.org/2000/svg">
 <g transform="translate(-57.586 -93.262)">
  <path transform="scale(.26458)" d="m288.27 488.12a70.726 68.181 22.173 0 0 -65.746 41.828 70.726 68.181 22.173 0 0 16.41 74.561c2.7864 5.3652 15.703 30.819 13.184 37.002-2.8188 6.9164-8.5401 9.962-11.217 18.729-2.6766 8.7665-2.3925 12.466-3.8164 18.158-1.4239 5.6926-1.5957 8.3125-1.5957 8.3125s5.467-11.214 6.9199-21.375 5.7797-11.982 9.8223-17.504c4.0425-5.5214 5.2514-7.9407 8.5254-13.775 3.274-5.8346 29.121-8.7383 29.121-8.7383 1e-3 -0.0654-8e-3 -0.13272-0.0117-0.19922a70.726 68.181 22.173 0 0 63.648 -41.785 70.726 68.181 22.173 0 0 -39.762 -89.832 70.726 68.181 22.173 0 0 -25.482 -5.3809z" fill="#a00"/>
  <path d="m64.248 133.24s3.4084 3.2394 6.6505 4.8691 11.219 4.5058 13.752 5.6046c4.7772 2.0727 10.616 0.75056 9.8753 0.32189-0.21929-0.12684 0.67503 4.908 0.13166 4.8872 0 0-2.3342-2.5961-3.4639-2.8509-1.1297-0.25482-5.1914-0.88222-7.4638-2.1167s-7.1028-3.1554-10.26-4.2366c-3.1572-1.0811-7.6304-4.416-8.8483-4.7068-1.2179-0.29075-2.5612 0.31747-2.5612 0.31747z" fill="#800000" fill-rule="evenodd"/>
  <path d="m59.348 139.21c2.3316 3.3822 5.3876 4.9277 9.9263 7.351-6.7055-1.9949-8.6175-3.8313-10.82-5.2223z" fill="#800000" fill-rule="evenodd"/>
  <path d="m92.843 155.86c-2.5328 1.1917-5.9891 0.0958-8.9022-0.82818 3.845 2.167 5.1263 2.2431 8.2058 2.0323z" fill="#800000" fill-rule="evenodd"/>
  <path d="m72.037 144.13c0.93303 0.52563 4.4548 2.2517 6.3039 2.9326 1.8491 0.68091 4.6185 1.3008 4.6185 1.3008s-3.6544-0.50806-5.7406-1.431c-2.0862-0.92293-5.1817-2.8024-5.1817-2.8024z" fill="#800000" fill-rule="evenodd"/>
  <path d="m74.83 155.45c0.9572 0.4802 4.5578 2.0351 6.4375 2.6265 1.8797 0.59128 4.6756 1.0774 4.6756 1.0774s-3.6746-0.33191-5.8027-1.1536c-2.1282-0.82165-5.3104-2.5502-5.3104-2.5502z" fill="#800000" fill-rule="evenodd"/>
  <path d="m61.479 136.26c0.72535 0.55957 3.4964 2.417 4.9803 3.1696 1.4839 0.75268 3.7578 1.4851 3.7578 1.4851s-3.0404-0.66042-4.6948-1.6624c-1.6543-1.002-4.0434-2.9923-4.0434-2.9923z" fill="#800000" fill-rule="evenodd"/>
  <path d="m60.408 151.02c0.72535 0.55957 3.4964 2.417 4.9803 3.1696 1.4839 0.75268 3.7578 1.485 3.7578 1.485s-3.0404-0.66041-4.6948-1.6624c-1.6543-1.002-4.0434-2.9923-4.0434-2.9923z" fill="#800000" fill-rule="evenodd"/>
  <path d="m63.401 176c-0.05818-4e-3 -0.21913 1.0119-0.26143 1.2648-0.14513 0.97949-0.26993 1.7436-0.51347 2.7402-0.15833 0.613-0.32497 1.7248-0.32497 1.7248s0.19756-0.52005 0.33682-0.82645c0.12162-0.26757 0.33218-0.75553 0.54124-1.3411 0.25989-0.50772 0.59822-1.8979 0.72025-2.3663 0.05696-0.21863 0.29872-1.4249 0.27486-1.4942-0.27165 0.29204-0.40752 0.36297-0.77328 0.29824z" fill="#d35f5f" fill-rule="evenodd"/>
  <path d="m73.609 134.48c0.24483 0.40817 2.442 2.3316 4.2933 3.0861s3.3043 0.2159 4.3262 0.73518 4.4729 2.6453 5.1815 2.4201c0.70856-0.2252 1.0415 0.21889 1.0415 0.21889s-1.3682 1.0871-2.6253 1.3972c-1.2571 0.31004-2.2138 0.6397-2.2138 0.6397s-0.43112 1.0578 0.92711 1.5086c1.3582 0.45075 2.7361 0.60111 1.9916 0.91448-0.74449 0.31336-2.8798-0.24851-4.0488 0.0975-1.169 0.34596-2.1942 0.3393-2.1942 0.3393l0.85858 1.1723-1.7534 0.51894s-0.40484-0.2678 1.1427 0.97967 1.3842 1.9005 0.67562 2.1257c-0.70856 0.2252-1.6653 0.55486-1.6653 0.55486s5.7074 0.37293 5.42 1.0782c-0.28742 0.70523-2.3575 0.99231-3.435 0.86157-1.0775-0.13073-1.3127 0.69858-1.8123 1.4201-0.49965 0.72153-1.2245 0.7345-1.9331 0.95971-0.70856 0.2252-1.0449 0.29373-1.7764 1.332-0.73151 1.0382-1.1201 0.98266-1.8286 1.2079-0.70856 0.22521-1.0678 1.1068-1.2997 1.4234-0.23186 0.31668-2.6716 5.7985-3.9057 5.2955-1.2342-0.50297 0.32036-3.0561 0.17033-4.4536-0.15002-1.3975-1.0153-1.5445-2.1024-2.9128s-0.89451-1.0841-0.20558-1.009c0.68893 0.0752 1.6064 0.3463 0.21889-1.0415-1.3875-1.3878-1.3842-1.9005-0.2904-1.5575 1.0938 0.34297 4.3655 0.1344 3.275-0.72119-1.0904-0.8556-2.4746-2.7561-1.5572-2.485 0.91747 0.27112 3.7939 1.0322 2.1779-0.55154s-1.6812-2.4327-1.6812-2.4327 2.8928 0.97336 2.1712 0.47371c-0.72153-0.49966-3.418-4.4769-3.418-4.4769s-0.17631-0.0719 0.86524 0.14704c1.0415 0.21889 1.453-0.53856 1.9786 0.18962 0.5256 0.72819 2.968 0.28443 2.968 0.28443s-2.0275-0.82633-2.5531-1.5545c-0.5256-0.72819-0.0489-0.63671 1.0808-0.38189s2.5664-0.49598 2.5664-0.49598-1.3549-0.96338-1.5638-1.4597c-0.20891-0.49633 2.5109-0.10745 0.96338-1.3549-1.5475-1.2475-1.3453 0.27411-1.8086-1.8679s-0.59711-3.3272-0.59711-3.3272z" fill="#d35f5f" fill-rule="evenodd" opacity=".488"/>
  <path d="m80.072 129.67-1.1419-24.538 2.0021 0.26359 0.73861 24.919z" fill="#800000" fill-rule="evenodd"/>
  <path d="m85.102 131.93 18.318-16.366-1.59-1.2448-18.308 16.921z" fill="#800000" fill-rule="evenodd"/>
  <path d="m84.715 131.19 15.943-18.688-1.7434-1.0189-15.858 19.236z" fill="#800000" fill-rule="evenodd"/>
  <path d="m81.195 130.12 1.6617-24.508 1.959 0.49001-2.1058 24.841z" fill="#800000" fill-rule="evenodd"/>
  <path d="m84.023 131.06 11.459-21.728-1.9244-0.61199-11.256 22.244z" fill="#800000" fill-rule="evenodd"/>
  <path d="m83.579 130.47 7.8823-23.265-1.9969-0.3003-7.6002 23.743z" fill="#800000" fill-rule="evenodd"/>
  <path d="m77.758 96.088c1.0174-0.55829 2.3989-0.79667 2.9588-0.37868 0.55993 0.41802-0.60978 1.5562-0.60978 1.5562s1.2091-0.66058 1.8864-0.33631c0.67731 0.32427 1.488 1.3564 0.52543 1.6674-0.9627 0.31099-1.8277 0.28938-1.8277 0.28938s3.1783 0.15869 2.6738 1.0199c-0.50447 0.86119-1.9093 1.4236-2.571 1.1377-0.66161-0.28587 0.10973 0.26866 0.10973 0.26866s1.7891 0.75952 1.1436 1.2753c-0.64556 0.51576-2.3013 0.4641-2.3013 0.4641s3.3001 1.0286 2.3338 1.9024c-0.96634 0.87384-2.0388 0.91616-2.5633 0.77529-1.086 1.2058-2.8004 0.72276-1.1781-0.0259 0 0-2.4697 0.2423-2.4387-0.44417 0.03094-0.68649 0.7549-1.0103 0.7549-1.0103s-2.1879 0.16996-1.8008-0.59748c0.38711-0.76741 1.0954-1.1296 1.0954-1.1296s-3.104-0.16718-2.0592-0.84914c1.0447-0.68193 1.7883-0.767 1.7883-0.767s-2.8185-0.80244-1.7815-1.1219c1.0371-0.31949 1.679-0.27237 1.679-0.27237s-2.1999-0.43131-1.2883-1.0578c0.91167-0.62654 1.6983-0.79688 1.6983-0.79688s-1.9298-0.34168-1.1669-0.95121c0.76294-0.60953 1.3932-0.40041 1.3932-0.40041s-1.9079-1.4-0.0048-1.7269c2.1282-0.36562 1.5507 1.5099 1.5507 1.5099z" fill="#050" fill-rule="evenodd"/>
  <path d="m92.89 98.96c1.1538-0.1246 2.5209 0.18606 2.8772 0.78706 0.35637 0.60105-1.1608 1.2025-1.1608 1.2025s1.3701-0.14539 1.8709 0.41419c0.50076 0.55959 0.85277 1.824-0.15544 1.7413-1.0083-0.0827-1.7987-0.43498-1.7987-0.43498s2.8735 1.3675 2.0769 1.9688-2.3097 0.58087-2.8107 0.0628c-0.50102-0.51811-0.0019 0.29019-0.0019 0.29019s1.3601 1.3886 0.56591 1.6167-2.303-0.45557-2.303-0.45557 2.6517 2.2174 1.4238 2.653c-1.2279 0.43554-2.2343 0.0626-2.6645-0.26895-1.4659 0.69608-2.8631-0.40852-1.0778-0.47649 0 0-2.3732-0.72508-2.0809-1.347s1.0851-0.64281 1.0851-0.64281-2.0853-0.68358-1.4331-1.2434c0.65222-0.55981 1.4453-0.62216 1.4453-0.62216s-2.8015-1.3468-1.575-1.5751c1.2265-0.22826 1.9457-0.0211 1.9457-0.0211s-2.294-1.8236-1.2138-1.7202c1.0802 0.10344 1.6548 0.39356 1.6548 0.39356s-1.8654-1.2434-0.78303-1.4716c1.0824-0.22823 1.8741-0.0833 1.8741-0.0833s-1.6505-1.0568-0.71193-1.3265c0.93855-0.26966 1.4401 0.16554 1.4401 0.16554s-1.2236-2.0255 0.65901-1.5962c2.1053 0.48002 0.85168 1.9898 0.85168 1.9898z" fill="#050" fill-rule="evenodd"/>
  <path d="m101.41 103.74c1.1538-0.12461 2.5209 0.18605 2.8772 0.78706 0.35637 0.60105-1.1608 1.2025-1.1608 1.2025s1.3701-0.14538 1.8708 0.4142 0.85277 1.824-0.15544 1.7413c-1.0083-0.0827-1.7987-0.43498-1.7987-0.43498s2.8734 1.3675 2.0768 1.9688c-0.79659 0.60131-2.3097 0.58088-2.8107 0.0628-0.50102-0.5181-2e-3 0.2902-2e-3 0.2902s1.3601 1.3886 0.56591 1.6167c-0.79416 0.22818-2.303-0.45557-2.303-0.45557s2.6517 2.2174 1.4238 2.653c-1.2279 0.43555-2.2343 0.0626-2.6645-0.26894-1.4659 0.69608-2.8631-0.40852-1.0778-0.4765 0 0-2.3732-0.72507-2.0809-1.347s1.0851-0.64281 1.0851-0.64281-2.0853-0.68358-1.4331-1.2434c0.65221-0.55981 1.4453-0.62216 1.4453-0.62216s-2.8015-1.3468-1.575-1.5751c1.2265-0.22827 1.9458-0.0211 1.9458-0.0211s-2.294-1.8237-1.2138-1.7202c1.0802 0.10343 1.6548 0.39355 1.6548 0.39355s-1.8654-1.2434-0.78303-1.4716c1.0824-0.22823 1.8741-0.0833 1.8741-0.0833s-1.6505-1.0568-0.71193-1.3265c0.93855-0.26966 1.4401 0.16554 1.4401 0.16554s-1.2236-2.0255 0.65901-1.5962c2.1053 0.48002 0.85168 1.9898 0.85168 1.9898z" fill="#050" fill-rule="evenodd"/>
  <path transform="scale(.26458)" d="m379 392.23c-1.6117 0.5946-6.4371 0.40495-3.4863 3.0469 2.121 0.54085 3.6631 1.5745 3.6426 3.9785 0.80818 0.69884 1.7792 2.1576-0.15039 1.498-1.7426 0.1886-2.7225-0.46862-3.709-1.8906-3.0402 0.23622-0.9252 3.6147-1.2109 4.8867-2.6598 0.96397 0.17189 3.2843-0.0781 4.2559-2.8663 0.77197-2.6078-2.8803-5.4336-2.6621-0.0996-0.038-0.20035-0.0628-0.30078-0.0898 0.3032 0.24993 0.75391 0.62695 0.75391 0.62695s-1.0977-0.31326-3.0762-0.32422c-1.0222 0.62595-1.4215 1.8711-0.0957 3.1152 0.80645 0.57418 0.72349 1.6101 0.4961 2.5879 0.64904 0.33734 1.2754 0.65234 1.2754 0.65234s-0.62819 0.0603-1.5274 0.3086c-0.14529 0.52913-0.25544 0.99328-0.15039 1.2226-0.63295-0.22662-1.463-0.30602-2.2539-0.22851-0.51325 0.28782-1.0324 0.62061-1.5312 1.0488-2.465 2.116 5.416 4.7012 5.416 4.7012s-2.9968 0.0771-4.1016 2.4277c-1.1048 2.3504 7.8652 5.0918 7.8652 5.0918-6.7478 0.25693-1.466 4.4316 4.0742 1.8008 0.65403 0.50405 1.6738 1.0235 2.9453 1.3691 0.49983 0.034 0.9956 0.1313 1.4902 0.28516 0.56605 0.0718 1.1651 0.10143 1.7969 0.082 1.1582-0.31483 1.9949-1.3223 2.5469-2.2012 0.68209-0.0326 1.6064 0.0108 2.5156-0.0391 0.0191-1.7356-2.243-4.3324-4.1309-6.209-1.3238 0.15521-2.5865 0.29841-2.7324-0.70703 0.56508-0.11498 1.1042-0.22822 1.6524-0.3418-0.77995-0.7228-1.3945-1.248-1.3945-1.248s1.1326 0.50212 2.6309 0.99024c0.89938-0.1986 1.78-0.41209 2.6426-0.66016 1.7109 2.2857 3.8242 0.0304 3.4707-2.0117-0.90894-1.4106-2.1797-2.707-2.1797-2.707s-1.8858-3.0558 8e-3 -1.0976c0.79299 0.81999 2.2592 1.3058 3.9141 1.4316 1.1451-0.28986 2.3453-0.58407 2.8106-1.6953-0.38358-2.9066-5.1066-0.83672-5.7812-3.541-0.53934-1.6974-2.4416-2.4708-1.377-4.3555-2.7473-0.83917-3.0142 3.3687-1.1797 4.5391 1.4717 2.2286-4.032 1.0834-2.1191 4.1094 0.91578 0.86861 1.7277 2.0532-0.15234 0.8789-2.4437-1.6465-4.974 0.81306-3.123 2.5703-2.1899-0.33941-4.0712 1.4769-4.7441 3.4199-1.4699-1.1898-3.2958-1.8805-5.248-1.1738-1.1712-1.3172-2.7354-2.9775-0.81836-4.2285-0.90725-1.8995-1.2184-5.2534 1.3086-5.584 1.7775-0.46655 4.3155 2.0659 6.4492 0.53516 1.0121-1.6524 4.3328-0.721 3.9258-3.7168-0.0491-2.4957 3.6846-2.8537 3.6074-5.5-0.33449-1.7502-2.2174-3.0209-1.2266-4.8789-0.96121-1.8374-3.2434-2.127-3.9258-4.3691zm-0.50976 13.754c-0.14811 1.473-2.2521-0.26284-0.18945 0.0371l0.14648-0.0312zm-2.7891 6.6816c-1.067-0.057-1.8875 1.642-2.1211 2.1875 0.95626 1.3522 4.7804-0.63702 2.1211-2.1875zm-2.1211 2.1875c-2e-3 -3e-3 -6e-3 -5e-3 -8e-3 -8e-3 -0.099 0.27504-0.0791 0.2107 8e-3 8e-3zm-1.9356 7.0684c1.1029 0.0205 0.54566 2.3125-0.24218 0.0273 0.0887-0.0209 0.16866-0.0287 0.24218-0.0273z" color="#000000" color-rendering="auto" image-rendering="auto" opacity=".133" shape-rendering="auto" solid-color="#000000" style="isolation:auto;mix-blend-mode:normal"/>
  <path d="m107.81 109.62c1.1076 0.34638 2.237 1.177 2.3238 1.8703 0.0868 0.69334-1.5444 0.63908-1.5444 0.63908s1.3142 0.41369 1.5499 1.1267 0.0537 2.0127-0.83769 1.5344c-0.89144-0.47839-1.4754-1.1169-1.4754-1.1169s2.0886 2.401 1.1182 2.6342-2.3496-0.38954-2.6021-1.0646c-0.25251-0.67505-0.11759 0.26531-0.11759 0.26531s0.69261 1.8161-0.1266 1.7082c-0.81922-0.10785-1.9296-1.3371-1.9296-1.3371s1.5459 3.0917 0.24629 3.0008c-1.2997-0.0909-2.0735-0.83458-2.3356-1.3103-1.6219 0.053-2.462-1.5176-0.79792-0.86716 0 0-1.8864-1.6122-1.3702-2.0657 0.51628-0.45351 1.2515-0.15614 1.2515-0.15614s-1.639-1.4592-0.8175-1.7122c0.82148-0.25288 1.5735 7e-3 1.5735 7e-3s-2.0309-2.3533-0.81524-2.0729c1.2157 0.28038 1.7924 0.75744 1.7924 0.75744s-1.3752-2.5878-0.42605-2.0618c0.94911 0.52609 1.3601 1.0215 1.3601 1.0215s-1.2139-1.8847-0.13042-1.6618c1.0835 0.22289 1.7515 0.67184 1.7515 0.67184s-1.0913-1.6279-0.12316-1.5004c0.96817 0.12747 1.2543 0.72672 1.2543 0.72672s-0.31323-2.3456 1.2415-1.2004c1.7386 1.2806-0.0135 2.1643-0.0135 2.1643z" fill="#006700" fill-rule="evenodd"/>
  <path transform="scale(.26458)" d="m345.9 375.71c-1.4992 0.0121-1.9674 0.41106-1.3145 1.8965-1.1604 1.6806-5.5842-1.252-6.0098 1.6621 1.3342 1.9272 4.5225 2.3166 5.0371 4.9356-1.1231 0.0609-2.4762-0.1214-3.2539 0.65821-1.6284 0.36881-3.5465 0.78874-4.5137 2.1445 0.47634 0.39806 0.97656 0.81054 0.97656 0.81054s-0.52556-0.11281-1.3086-0.20703c-0.0141 0.0334-0.0357 0.0595-0.0488 0.0937-0.0433-0.0452-0.0915-0.0751-0.13672-0.11523-0.71808-0.0758-1.6082-0.13051-2.8242-0.0625-0.7988 0.62076-0.97613 1.7088 0.63672 2.4707 0.75438 0.53432 0.39935 1.6817 0.0527 2.6856 1.2264 0.67557 2.2285 1.168 2.2285 1.168s-1.4822 0.131-3.2148 0.93164c-0.79168 1.0987-0.71117 2.843-1.3281 4.0332 1.7424 1.1781 4.4961 2.0859 4.4961 2.0859s-2.9948 0.0791-4.0996 2.4297c-0.57084 1.2144 1.5452 2.5267 3.7266 3.5176 0.67265 0.13451 1.2883 0.29937 1.6504 0.69336 1.3741 0.53386 2.4863 0.88086 2.4863 0.88086-6.7478 0.2569-1.466 4.4316 4.0742 1.8008 0.81352 0.627 2.1722 1.2928 3.9082 1.5957 0.14164-0.27774 0.20057-0.67181 0.13086-1.2207-0.47916-1.6826-3.4026-2.6519-3.168-4.0801 2.3791-0.67906 0.96873-3.7297 1.4863-5.2695 1.2747-1.7783-3.2038-1.1138-1.793-2.4414 1.7248 0.73383 2.8315-1.1654 4.4902-0.28125 2.9904-0.3394 0.61468-3.0508-0.5664-4.0078-4.7806-11.744 0.65399 0.41549 5.4453-3.4414 0.48759-1.865-3.0381-1.3279-2.2363-3.4473-1.502-1.8254 0.24898-2.7486 1.6211-1.2305 2.7314 2.0919 2.9632-2.3693 2.0039-3.5078 2.025 0.62944 3.9377-1.831 1.9219-3.125-2.5453 1.1359-4.2439-1.5156-5.7715-2.3906-0.28722 0.21845-0.0126 0.97312 0.13086 1.5137-0.0273-0.0435-0.0763-0.0588-0.084 0.0859 0.0857 0.0349 0.0979-5e-3 0.0918-0.0469 0.0888 0.34644 0.12925 0.61282-0.13867 0.49219-0.3578-1.3373-0.94328-2.0415-0.63476-0.20899 0.8074 1.2481 3.7504 2.3542 1.0605 3.5938-2.2506 0.4153-5.1044 1.3301-3.2617 4.0801-0.3063 1.1401-4.3582-0.59418-1.7793-1.7734 2.1374-1.3808-4.0419-4.9894-0.29688-4.3809 2.959-0.52706 0.65779-3.5779 0.12696-5.0215zm5.7695 2.7754c0.13171 0.0575-0.12231 0.23358 0 0zm-9.3535 2.0566c1.3436 0.0609-0.92597 1.8603 0 0zm1.5664 6.9336c-0.24378 2.4034-4.8162 0.99293-4.4336 3.7578 1.1684 1.0761 1.0721 2.7556 1.8418 4.291-2.0793 1.3176-0.81355 5.0067-3.6445 4.9102-0.61209 2.6509-2.4765-1.425-2.8281-2.6699 1.0305-1.594 1.2422-3.8466 2.8633-5.1348 0.0689-1.8806 0.025-4.4278 2.6523-3.8125 1.3951 0.0113 2.5176-0.79694 3.5488-1.3418zm-3.2656 11.791c0.053-0.0151 0.11887-0.0162 0.18555 0.0137-0.3884 0.19843-0.34443 0.0315-0.18555-0.0137zm0.89063 2.3887c2.1226 0.81566-2.1469 1.1004 0 0zm-7.541 0.13086c0.0196-0.014 0.0675-0.019 0.16016 0-0.0213 0.16895-0.2189 0.0421-0.16016 0z" color="#000000" color-rendering="auto" image-rendering="auto" opacity=".133" shape-rendering="auto" solid-color="#000000" style="isolation:auto;mix-blend-mode:normal"/>
  <path d="m98.066 101.49c1.1334 0.2493 2.3304 0.97914 2.4768 1.6623 0.14641 0.68325-1.4833 0.77024-1.4833 0.77024s1.3451 0.29849 1.6415 0.98841c0.29649 0.68992 0.22754 2.0006-0.70185 1.6011-0.92947-0.39951-1.5665-0.98512-1.5665-0.98512s2.2884 2.2114 1.3418 2.5277c-0.94661 0.31632-2.3745-0.18489-2.6844-0.83559-0.30994-0.65068-0.09422 0.27448-0.09422 0.27448s0.84707 1.7494 0.02159 1.7128c-0.82547-0.0366-2.038-1.1652-2.038-1.1652s1.8075 2.9464 0.50487 2.9683c-1.3027 0.0219-2.1379-0.65214-2.4401-1.1034-1.6112 0.19304-2.584-1.299-0.86993-0.79491 0 0-2.0188-1.4431-1.5437-1.9395 0.47513-0.49646 1.2333-0.26378 1.2333-0.26378s-1.759-1.312-0.96249-1.6351c0.79653-0.32296 1.5682-0.12951 1.5682-0.12951s-2.2268-2.1688-0.99143-1.9946c1.2353 0.1742 1.8512 0.5996 1.8512 0.5996s-1.5938-2.4592-0.60275-2.0172c0.99106 0.44205 1.4433 0.90004 1.4433 0.90004s-1.3724-1.7727-0.27364-1.6443c1.0987 0.12835 1.8031 0.51785 1.8031 0.51785s-1.228-1.5274-0.25244-1.4842c0.97557 0.0433 1.3124 0.61552 1.3124 0.61552s-0.5149-2.3097 1.133-1.3033c1.8429 1.1255 0.1737 2.1574 0.1737 2.1574z" fill="#006400" fill-rule="evenodd"/>
  <path d="m86.692 95.588c1.3575-0.10192 2.9808 0.2881 3.4205 0.96935 0.43979 0.6813-1.3313 1.303-1.3313 1.303s1.6121-0.11816 2.221 0.52155c0.60885 0.6397 1.0647 2.0602-0.12766 1.9357-1.1925-0.12448-2.1364-0.5424-2.1364-0.5424s3.4346 1.6162 2.5139 2.2608-2.707 0.57343-3.3148-0.0201c-0.60782-0.59349 7e-3 0.32337 7e-3 0.32337s1.6494 1.5912 0.71958 1.82c-0.92984 0.22888-2.7322-0.5815-2.7322-0.5815s3.2002 2.5563 1.7652 3.0024-2.6346-2e-3 -3.1528-0.38508c-1.7075 0.72885-3.3918-0.547-1.2871-0.56558 0 0-2.8238-0.88412-2.4987-1.5679 0.32501-0.68379 1.2599-0.68167 1.2599-0.68167s-2.4826-0.82865-1.7309-1.4317c0.75172-0.60303 1.6856-0.64712 1.6856-0.64712s-3.3491-1.5908-1.909-1.8059c1.44-0.21513 2.2954 0.03877 2.2954 0.03877s-2.7654-2.106-1.4874-1.9561c1.278 0.14988 1.9654 0.49162 1.9654 0.49162s-2.2411-1.4455-0.97115-1.6652c1.27-0.2197 2.2089-0.03282 2.2089-0.03282s-1.9815-1.2307-0.8826-1.5012c1.0989-0.27048 1.7047 0.23062 1.7047 0.23062s-1.5088-2.2967 0.72655-1.7579c2.4998 0.60241 1.0688 2.2449 1.0688 2.2449z" fill="#006900" fill-rule="evenodd"/>
  <path d="m80.137 129.69c1.5919-0.0146 3.6216 1.3485 5.4835 2.1834 1.1344 0.7601 2.9307 1.9824 3.9749 3.136-3.7025 1.62-13.622-2.6445-14.585-5.8142 1.2541-0.1557 3.9668 0.23847 5.1264 0.49485z" fill="#800000" fill-opacity=".86082" fill-rule="evenodd"/>
  <path transform="scale(.26458)" d="m338.83 510.39s-0.60698 5.6755 1.1444 13.771c1.7514 8.0957 0.98706 2.3457 6.8359 7.0605 5.8489 4.7148-4.4302 3.2452-3.6406 5.1211 0.78955 1.8758 5.9102 5.5156 5.9102 5.5156s-5.4295 2.8381-9.6992 1.875-6.0724-1.3088-4.0859 1.4434 9.6504 5.875 9.6504 5.875-9.2303 1.678-11.217-1.0742c-1.9865-2.7522-3.542 0.11051-7.4785-0.71679-3.9366-0.82749-3.2715-0.55665-3.2715-0.55665s10.193 15.033 12.92 16.922c2.727 1.8884-8.207-1.791-8.207-1.791s0.2476 3.2094 6.3555 9.1953-4.7648 3.1087-8.2324 2.084 1.7634 6.1588 5.8848 9.3926c4.1214 3.2337-8.243 4.0209-12.377 2.7246-0.31372-0.0984-0.59558-0.17133-0.86133-0.23242-0.33432-0.40656-0.28906-0.27539-0.28906-0.27539s-0.0276 0.19718-0.0293 0.20898c-2.1573-0.4001-2.3988 0.65963-0.44336 3.166-0.72948 5.3405-2.0015 15.463-1.4688 17.826 0.72963 3.2358-4.8301-6.873-4.8301-6.873s-1.9885 2.5299-1.543 11.07c0.44552 8.5404-5.6114-0.93597-7.4707-4.0371s-2.8691 5.7285-2.0234 10.898c0.84568 5.1699-8.7909-2.6191-10.957-6.3711-2.1662-3.752-3.4866-2.3345-3.1758 5.0762 0.31084 7.4107-1.5488 4.3113-3.2734 2.3398-1.7246-1.9714-1.535-3.2557-2.0098 3.332-0.0893 1.2388-0.0779 2.3031-0.041 3.2988 5.0039-0.88825 8.9648-1.3379 8.9648-1.3379 1e-3 -0.0654-8e-3 -0.13272-0.0117-0.19922 28.231-6e-3 53.292-16.458 63.648-41.785 9.6391-23.666 4.7424-50.936-12.686-70.646z" fill-rule="evenodd" opacity=".133"/>
  <path d="m80.1 129.63c0.84426-4.367 0.811-8.2325 1.1432-12.307l0.25314 12.034c1.2917-5.3278 1.8348-10.656 2.6873-15.983-0.6622 5.5065-0.63162 11.359-1.9867 16.519l6.5563-14.818c-1.9384 5.0222-2.863 9.8996-5.8578 15.073 4.7542-6.1398 7.5814-12.9 11.526-19.242-3.6803 6.4828-6.3101 13.652-10.733 19.695 5.6906-4.8556 9.7606-10.541 14.778-15.696-4.8009 5.2955-8.7655 10.93-13.782 16.158 5.7269-4.3629 10.776-9.0876 16.427-13.59l-15.849 14.221c-1.8033 0.78745-4.9174-0.85626-5.1625-2.0628z" fill-rule="evenodd" opacity=".133"/>
  <path transform="scale(.26458)" d="m297.67 379.17c-0.70374-0.0227-1.8586 0.88577-1.5898 1.8106-0.31426 0.14589-0.52591 0.52228-0.47851 1.2383 0.0555 0.10431 0.1162 0.18468 0.17773 0.26367 1.373 0.56451-0.81095 1.4559-1.0918 2.3262-1.0369-0.12775-2.1855 8e-3 -2.8945 0.41406-0.19771 0.55699 3.701 0.56707 0.39062 3.1113-0.5336 0.46023-0.80214 1.1162-0.49219 2.0274 3.5576-2.102 4.9769 1.5074 7.1426 2.4316 0.91271 0.13152 2.212 0.17218 3.1816-0.20313-0.51481 1.2703-1.9241 1.1553-2.1523 2.5566-3.0811 3.4995-6.2912 3.3198-9.2656 3.8438-0.15481 0.034-0.29465 0.0796-0.42578 0.13477-0.29033 0.0757-0.5043 0.19603-0.65625 0.34179 2.7238 0.41716 6.5684 0.0449 6.5684 0.0449-2.5442 1.1741-2.8997 2.1653-2.1719 2.6094 1.6006-0.22491 3.1901-0.53805 4.7578-0.94531 0.64108-0.4066 1.2795-0.91388 1.8672-1.5664 1.579 0.42406 4.4722 0.40341 7.4297-1.2891 0.0524-0.11157 0.0958-0.23001 0.13282-0.35547 1.5731-1.0989 0.83782-3.6596-1.2383-3.5156-0.38428-0.0302-0.76816-0.0479-1.1504-0.0547-0.0433-0.12662-0.11026-0.24731-0.1914-0.36524 1.4464-0.85801 2.0952-1.436 2.248-1.8613-2.7662-1.5521-6.3633-2.6797-6.3633-2.6797s0.7638 0.0175 1.832-0.0312c-0.30816-0.82021-0.9391-1.0906-1.5391-1.0254-0.4994-0.24945-1.0031-0.25534-1.3457 0.16797-2.4341 2.0444-2.1213-0.4626-2.9453-1.125-0.34405-0.0639-3.0891-0.21314 0.041-2.7871-1.1873-0.63863-0.69031 0.0624 0.14258-0.875 0.72206-0.59161-0.8502-2.1676 0.34961-1.8906 0.36813-0.61924 0.4462-1.3402-0.18359-1.5996-1.5201 0.14778-0.58727-0.52442 0.40429-0.40234 0.0716-0.52173-0.15818-0.73931-0.49023-0.75z" color="#000000" color-rendering="auto" image-rendering="auto" opacity=".133" shape-rendering="auto" solid-color="#000000" style="isolation:auto;mix-blend-mode:normal"/>
  <path transform="scale(.26458)" d="m324.51 374.37c0.85903 1.9792 0.78561 5.3366 0.0527 7.9395 1.2813 2.4377-0.7826 4.8412-2.668 5.3164-0.49543 2.9374-1.1204 3.8451-2.1445 3.7695-3.6447-0.29933-1.7296-5.5987-4.5547-5.627-2.5145 3.0414 1.809 5.6332 2.9531 8.1113-0.24918 4.0766-10.361-0.86518-12.693 0.11523-0.10691 0.0337-0.18645 0.0762-0.2539 0.12305 0.86169 2.4217 9.4668 5.1191 9.4668 5.1191-7.9546 0.0702-1.5883 4.8914 4.8652 2.1367 0.35307 0.26098 0.81565 0.52553 1.3262 0.78125 0.82281 0.19754 1.6194 0.5386 2.4141 0.89453 2.2161 0.5854 5.0369 0.75507 8.1758-0.2207 1.5772-0.49034 1.6497-1.6628 0.99219-3.0684-0.0809-0.0618-0.1435-0.12377-0.23437-0.18555-7e-3 -0.0956-2e-3 -0.1893 2e-3 -0.2832-1.8975-3.384-7.4316-7.8106-7.4316-7.8106s5.9398 2.6691 9.5879 2.3184c-0.0208-0.14898-0.0536-0.29902-0.10547-0.45312-5.1914-2.0949-7.5115-6.9741-5.6016-7.8633-1.049-1.3268-1.8467-2.1855-0.1582-3.4609-3.3793-1.2731-1.5781-5.4656-3.9902-7.6524zm-8.25 12.148c0.37429 0.67026-0.69355 0.63477 0 0zm6.8047 7.5195c0.82634 0.68013 3.3405 3.1403 1.4023 3.9082-2.9995-0.58678-2.775-1.9586-1.4023-3.9082zm5.4766 5.3125c1.7455 0.17877-0.3549 1.9525 0 0zm2.6738 1.9707c0.0615 9e-3 0.15021 0.0324 0.27344 0.0723 0.20438 0.42867-0.70365-0.13765-0.27344-0.0723z" color="#000000" color-rendering="auto" image-rendering="auto" opacity=".133" shape-rendering="auto" solid-color="#000000" style="isolation:auto;mix-blend-mode:normal"/>
  <path transform="scale(.26458)" d="m345.72 390.35c-1.903-1.4092-1.2361 0.53421-0.94922 1.3965 1.1601 2.1202 4.1965 5.1323 4.5469 5.4766 0.12163-0.0161 0.24511-0.0397 0.37305-0.0762 1.0999-0.82908-0.0246-1.9384-1.084-1.6602-0.1033-1.0591-1.4527-3.1266-1.9336-4.6016l-0.25976-0.28711-0.30078-0.24414c-0.14306-0.0102-0.27396-0.011-0.39258-4e-3zm9.2559 3.0605c-1.2869-0.13153-1.615 1.9061-2.9238 2.1934 0.99008 1.5438 0.35491 3.6702-1.2188 5.7383 0.0707 1.5114-0.7959 3.2813-1.2266 4.8848-0.36809 0.67718 0.59608 2.3142-0.89454 1.1055-2.051 0.44753-2.6361-1.8573-4.1992-2.7324-0.12159-0.21638-0.27761-0.37474-0.45313-0.48438-0.5312 0.18043-1.0562 0.47713-1.5137 0.95508-1.7958 1.8763 5.834 7.3301 5.834 7.3301-1.7212-0.50619-2.7078-0.46982-3.1406-0.17188-0.0425 0.3305-0.0678 0.66278-0.0742 1.0039 0.68378 1.1262 3.2362 2.5651 6.502 2.1738 1.0501 1.5682 3.8073 3.8416 8.0703 4.1348 0.75922-0.0888 1.5101-0.21804 2.2324-0.45312 1.3622-1.3335-0.82067-2.714-1.9238-2.5898-1.2502-0.95338-2.5934-1.1047-3.3223-2.543-1.035-0.25285-3.5121-1.5373-1.2461-2.1035 1.5022-0.83536 1.1687-2.8064-0.11914-2.8574 0.84089-0.36148 0.43811-1.6134-0.75977-0.85938-0.29835 0.64883-0.71223 3.2676-0.79687 1.2871-1.1394-1.0466-0.8786-3.4062-0.55664-4.1953 0.89128-0.95274 1.635-0.99002 2.5391-0.30078 1.8974 0.33297 2.6306-1.6234 3.8633-2.6562-0.19468 0.33562-3.2824-0.16473-2.9766-0.46289-1.0351 0.78931-2.4052-0.0619-3.5254 0.22265-0.83323-1.809 1.5403-2.6247 1.7852-4.2988-0.55844-0.33638-0.3941-2.4837 0.66016-4.1192-0.22863-0.11874-0.43139-0.18238-0.61523-0.20117zm-11.051 4.6016c-0.27764-0.0116-0.50659 0.0235-0.70118 0.0879-2.0286 1.4824 3.9824 5.9746 3.9824 5.9746s-0.98752-0.29062-2.1621-0.16406c1.2063 0.641 2.6458 0.69189 3.1875-0.67383 0.1008-1.6216-2.3756-1.3745-2.8809-2.9824-0.78133-0.58696-0.37112-2.1214-1.4258-2.2422zm3.9766 5.832 0.0527 8e-3zm11.439 3.3789c-1.6616 0.76357-0.84063 1.8081 0.26953 2.2402-0.27012-0.47281-0.6289-1.1055-0.6289-1.1055s1.9012 1.7583 4.0859 3.0547c0.30923 6e-3 0.6063-0.10049 0.87891-0.36914 0.33544 0.40822 0.48755 1.0152 0.73047 1.1973 0.0359 0.0151 0.0716 0.0343 0.10742 0.0488 0.16254 0.0287 0.36748-0.11345 0.68164-0.5918 0.13123-2.388-3.5072-1.9167-4.3535-3.9238-0.53062-0.33448-1.154-0.48811-1.7715-0.55078zm-8.9121 0.45508c0.33434 1.0487-1.5834 0.10858-0.0879 0.22461zm13.518 2.9102c0.0108-6e-3 0.0494-5e-3 0.13281 8e-3 0.0466 0.0791-0.16518 0.01-0.13281-8e-3z" color="#000000" color-rendering="auto" image-rendering="auto" opacity=".133" shape-rendering="auto" solid-color="#000000" style="isolation:auto;mix-blend-mode:normal"/>
  <path transform="scale(.26458)" d="m381.43 425.82c-0.68123 0.0462-1.4124 0.1585-2.1602 0.38867-3.1048 0.95596 3.0898 6.4727 3.0898 6.4727s-2.7772-1.1242-4.7285 0.58984c-1.9513 1.7139 5.1777 7.8066 5.1777 7.8066-6.2894-2.4584-3.1143 3.4777 3.0156 3.2774 0.85777 1.5572 3.169 3.8716 6.9629 4.6875 0.75691-0.13129 1.3711-0.53807 1.4356-1.4512 0.21959-2.029-2.4333-2.1316-3.3223-2.4551-0.84173-1.0132-2.3669-1.1281-2.7637-2.4629-2.2804-0.88165-0.88955-3.9377 0.24805-5.3926 1.108-1.4089 1.8665-3.66 3.5078-4.2715 1.5054 1.0335 2.8249-1.2403 4.0137-2.0645 1.1873-0.20825 0.98178-1.4475 0.94727-1.8164 0.27893 0.87825 1.07 1.5256 0.82227 0.12304-1.079-1.8017-3.1082 0.32574-4.1074 1.1621-1.9249-0.72971-4.1781-0.66519-5.1914 1.4121-0.58651 0.55975-2.168 0.72655-2.3926 1.1152-0.90365-1.3602-0.99794-3.1574-2.084-4.3887-1.326-0.11157-1.5475-1.8629-2.4707-2.7324zm15.611 4.5938c-0.0153-7e-3 -0.0804-5e-3 -0.23438 0.0117-0.13067 0.0944 0.28016 8e-3 0.23438-0.0117zm-4.8106 1.7324c0.55355-0.11603-8e-3 0.3481 0 0zm0.0937 0.36914c0.0267 0.0214-0.0944 0.14502-0.0859 0.0254 0.0522-0.0283 0.077-0.0325 0.0859-0.0254zm0.33399 2e-3c0.16988 0.0294-0.0875 0.20041-0.32813 0.0351 0.16832-0.0395 0.2715-0.045 0.32813-0.0351z" color="#000000" color-rendering="auto" image-rendering="auto" opacity=".133" shape-rendering="auto" solid-color="#000000" style="isolation:auto;mix-blend-mode:normal"/>
 </g>
</svg>
