<?xml version="1.0" encoding="utf-8"?>
<!-- Generator: Adobe Illustrator 23.0.3, SVG Export Plug-In . SVG Version: 6.00 Build 0)  -->
<svg version="1.1" id="Layer_1" xmlns="http://www.w3.org/2000/svg" xmlns:xlink="http://www.w3.org/1999/xlink" x="0px" y="0px"
	 viewBox="0 0 612 792" style="enable-background:new 0 0 612 792;" xml:space="preserve">
<style type="text/css">
	.st0{fill:none;}
	.st1{fill:#1D1D1B;}
	.st2{fill:#FFFFFF;}
	.st3{fill:#A48063;}
	.st4{fill:#DFD8B4;}
	.st5{fill-rule:evenodd;clip-rule:evenodd;fill:#DFD8B4;}
	.st6{fill-rule:evenodd;clip-rule:evenodd;fill:#ABA179;}
	.st7{fill:#ABA179;}
	.st8{fill:#D0BCA9;}
	.st9{fill:#C19B78;}
	.st10{fill:#101010;}
</style>
<path class="st0" d="M159.84,320.99c0.44-0.22,0.93-0.39,1.47-0.5l-3.52-0.47l-24.59-4.75c-1.28,1.58-2.71,3.04-4.3,4.31
	c-0.38,0.32-1.05-0.08-0.73-0.56c3.14-4.6,5.91-8.97,7.75-14.28c0.91-2.62,1.46-5.53,2.46-8.19c-6.67,3.67-16.92,4.1-23.2,7.97
	c-3.57,2.91-5.86,5.88-5.41,11.41c0.03,0.55-0.83,0.8-1.06,0.28c-2.26-5.13-0.32-9.28,3.62-12.6c-5.61-2.89-10.59-2.76-20.55-1.23
	c-9.96,1.51-18.21,4.96-19.72,7.39c-0.98,1.84-2.92,3.64-3.32,6.03c-0.43,2.67-2.69,7.12-1.59,12.92
	c1.71,10.34-1.51,31.3-17.6,41.33c-6.69,4.5-7.7,6.34-7.21,11.49c0.7,7.31,7.97,11.51,19.97,11.51c4.5,0,8.52-0.12,12.05-0.23
	c2.92-0.08,5.66-0.17,8.2-0.17c4.6,0,8.6,0.3,12.44,1.18c3.67-0.58,7.19-1.25,10.56-3.42c4.13-2.64,7.51-6.21,10.31-10.21
	c2.46-3.5,8.88-14.2,14.26-12.2c0.12,0.03,0.12,0.18,0,0.23c-8.97,3.39-12.09,13.43-18.7,19.63c-2.67,2.5-5.96,4.75-9.52,6.22
	c3.96-0.67,7.74-1.56,11.59-3.67c0.43-0.24,0.8,0.39,0.39,0.66c-3.71,2.44-8.14,4.25-12.67,4.82c1.06,0.45,2.13,0.95,3.22,1.53
	c0.22,0.1,0.43,0.21,0.65,0.35c1.49,0.83,3.02,1.79,4.62,2.89c0.38,0.27,0.76,0.55,1.16,0.83c1.61,1.16,3.29,2.49,5.05,3.98
	c0.06-0.08,0.11-0.16,0.17-0.24c-0.11-0.16-0.21-0.33-0.31-0.5c-3.53-3.2-2.84-10.23,2.47-11.27c4.39-10.39,13.87-18.66,21.12-26.99
	c4.61-5.3,8.41-11.61,10.34-18.39c1.56-5.47,2.24-11.17,2.97-16.83c-1.12-2.83-0.44-6.39,2.14-8.04c1.22-1.3,3.02-2.15,4.68-2.21
	C159.61,321,159.72,321,159.84,320.99z M69.49,375.84c-0.22,1.44-1.56,1.82-2.95,1.71c-1.01-0.1-2.86-0.7-2.77-1.97
	c0-0.17,0.28-1.05-1.18-0.5c-1.35,0.9-2.44,2.26-4.12,2.59c-0.12,0.03-0.22-0.12-0.12-0.21c2.24-2.46,4.83-5.13,8.45-4.28
	c0.93,0.22,2.23,0.65,2.56,1.68C69.44,375.1,69.51,375.78,69.49,375.84z M70.44,346.8c-2.67,5.03-4.81,10.4-7.6,15.36
	c-2.08,3.7-4.7,7.11-8.77,8.68c-0.38,0.15-0.53-0.4-0.27-0.61c4.85-3.65,7.54-7.59,9.88-13.12c1.61-3.78,3.19-7.84,6.26-10.68
	C70.21,346.19,70.6,346.49,70.44,346.8z M94.02,342.34c-1.33,1.84-4.28,2.44-6.28,1.38c-0.51-0.27-0.71-0.71-0.71-1.18
	c-1.1,0.9-2.16,1.88-3.39,2.72c-0.08,0.05-0.17-0.05-0.12-0.12c1.33-2.02,2.82-4.08,5.05-5.25c1.28-0.67,3.34-1.79,4.85-1.29
	C94.99,339.12,94.85,341.16,94.02,342.34z M95.63,331.63c-5.35-2.01-10.98,1.88-14.98,4.88c-0.37,0.27-0.95-0.1-0.91-0.53
	c0.18-3.35,3.9-5.33,6.81-6.08c3.4-0.88,6.34-0.86,9.5,0.73C96.59,330.92,96.21,331.84,95.63,331.63z M117.4,314.07
	c1.38-1.34,2.97-2.51,4.95-2.66c0.5-0.04,0.48,0.71,0,0.77c-3.72,0.41-5.58,4.75-7.72,7.26c-0.13,0.15-0.44,0.04-0.41-0.17
	c0.1-0.78,0.39-1.53,0.79-2.23c-0.19-7.77,12.04-13.29,18.54-12.75c0.36,0.03,0.41,0.48,0.08,0.61
	c-6.39,2.47-15.14,3.46-17.53,10.57C116.52,314.97,116.96,314.49,117.4,314.07z"/>
<path class="st0" d="M119.23,413.31c-0.06-0.19-0.11-0.39-0.19-0.57c-2.06-1.94-4-3.67-5.83-5.2c-0.01,0-0.01,0-0.02,0
	C115.35,409.31,117.22,411.35,119.23,413.31z"/>
<path class="st0" d="M90.78,340.31c-0.6,0.22-1.15,0.5-1.66,0.81c1.44,0.28,3.55,1.23,4-0.5C93.45,339.32,91.48,340.06,90.78,340.31
	z"/>
<path class="st0" d="M530.18,462.08c-0.84-5.25-1.94-10.46-2.96-15.68c-0.64,0.98-1.36,2.03-1.48,2.87
	c-0.48,3.28,2.35,8.1,3.6,11.06c0.26,0.61,0.41,1.2,0.49,1.76c0.1,0.15,0.2,0.3,0.3,0.45C530.15,462.4,530.17,462.25,530.18,462.08z
	"/>
<path class="st0" d="M553.36,358.94c-2.16-5.74-4.55-11.14-6.99-15.46c-8.72-15.84-25.6-24.76-50.17-26.52
	c-1.51-0.11-3.11-0.21-4.75-0.31c0.81,0.37,1.49,0.9,2.03,1.53c13.56,2.39,27.37,9.53,34.73,21.04c4.52,7.07-6.49,13.99-10.99,6.95
	c-6.02-9.43-19.37-15.24-30.28-15.84c-7.19-0.39-8.52-10.18-3.34-12.51c-1.2-0.25-2.41-0.47-3.63-0.66
	c-1.06-0.17-2.13-0.28-3.22-0.38c-10.14,5.1-5.88,20.16-13.7,27.58c-7.65,7.24-20.55,10.84-30.92,10.66
	c-11.51-0.2-18.1-7.14-23.26-16.75c-3.24-5.99-6.21-12.9-12.25-16.59c-4.58-2.79-9.73-4.02-14.68-5.88c-0.43,0-0.88,0.02-1.31,0.02
	c-2.33,0.03-4.65,0.06-6.96,0.12h-0.83c-3.7,0.06-7.37,0.12-11.04,0.18c-1.24,0.03-2.49,0.05-3.74,0.06
	c-1.69,0.03-3.39,0.07-5.08,0.1c-3.25,0.05-6.49,0.12-9.7,0.18c-0.55,0.02-1.1,0.02-1.63,0.03c-1.83,0.03-3.65,0.07-5.44,0.12h-0.27
	c-1.79,0.03-3.57,0.07-5.33,0.12c-0.55,0-1.1,0.02-1.64,0.03c-1.18,0.02-2.34,0.05-3.49,0.08c-2.32,0.03-4.6,0.1-6.84,0.15
	c-0.56,0.02-1.11,0.02-1.66,0.03c-1.11,0.03-2.22,0.05-3.3,0.08c-3.01,0.07-5.93,0.13-8.78,0.2c-0.78,0.02-1.58,0.05-2.34,0.06
	c-1.03,0.02-2.04,0.03-3.04,0.07c-0.86,0.03-1.73,0.05-2.59,0.07c-3.45,0.08-6.76,0.16-9.88,0.25c-2.72,0.07-5.31,0.13-7.75,0.2
	c-1.21,0.03-2.39,0.07-3.54,0.1c-1.08,0.02-2.14,0.05-3.14,0.08c-0.6,0.02-1.16,0.03-1.73,0.05c-0.43,0-0.85,0.02-1.26,0.03h-0.23
	c-0.98,0.03-1.91,0.05-2.79,0.08c-0.2,0-0.38,0-0.57,0.02c-0.68,0.02-1.33,0.03-1.96,0.05c-0.43,0.02-0.85,0.03-1.24,0.03
	c-0.47,0.02-0.9,0.03-1.31,0.05c-0.43,0-0.85,0.02-1.25,0.03c-0.2,0-0.4,0-0.58,0.02c-0.38,0-0.73,0.02-1.06,0.03
	c-0.48,0.02-0.93,0.02-1.31,0.03c-1.33,0.03-2.08,0.06-2.16,0.06l-0.12,0.02l-4.85-0.53c-2.32,0.02-44.66,0.43-61.57,3.15
	c-1.59,0.25-3.9,0.38-6.84,0.38c-0.57,0-1.11,0-1.64-0.02c-2.84-0.02-5.28-0.13-7.94-0.3c-0.48-0.02-0.98-0.05-1.48-0.08
	c-0.01,0.1-0.06,0.32-0.14,0.6c4.66,2.09,5.02,9.39,0.71,11.71c-0.01,0.01-0.03,0.02-0.04,0.03c-1.32,1.47-3.27,2.4-5.68,2.15
	c-0.24,0.63-0.48,1.26-0.72,1.89c-0.57,4.33-1.22,8.64-2.36,12.84c-2.04,7.49-5.68,14.41-10.27,20.64c-3.9,5.3-8.68,9.9-13.04,14.82
	v11.38c0,3.52-2.65,6.6-6.27,6.72c-0.81,0.03-1.61-0.12-2.36-0.4v0c0.08,0.64,0.07,1.29-0.01,1.92c-0.01,0.04-0.01,0.07-0.02,0.11
	c-0.03,0.17-0.05,0.33-0.09,0.5c-0.01,0.06-0.03,0.11-0.04,0.17c-0.04,0.14-0.07,0.28-0.12,0.42c-0.02,0.07-0.05,0.13-0.07,0.2
	c-0.05,0.13-0.09,0.25-0.15,0.38c-0.03,0.07-0.06,0.14-0.1,0.21c-0.05,0.12-0.11,0.23-0.17,0.34c-0.04,0.07-0.08,0.14-0.12,0.21
	c-0.06,0.1-0.13,0.21-0.2,0.31c-0.05,0.07-0.1,0.14-0.15,0.2c-0.07,0.09-0.15,0.19-0.23,0.28c-0.06,0.07-0.12,0.13-0.18,0.19
	c-0.08,0.08-0.17,0.17-0.25,0.24c-0.07,0.06-0.13,0.12-0.2,0.18c-0.09,0.07-0.19,0.15-0.28,0.21c-0.07,0.05-0.15,0.11-0.23,0.16
	c-0.1,0.07-0.21,0.12-0.32,0.18c-0.08,0.04-0.16,0.09-0.25,0.13c-0.11,0.05-0.23,0.1-0.35,0.15c-0.09,0.04-0.17,0.07-0.27,0.1
	c-0.13,0.04-0.26,0.08-0.4,0.11c-0.09,0.02-0.18,0.05-0.27,0.07c-0.15,0.03-0.32,0.06-0.48,0.08c-0.08,0.01-0.16,0.03-0.25,0.04
	c-0.25,0.03-0.51,0.04-0.78,0.04c-0.26,0-0.51-0.01-0.75-0.04c-0.11-0.01-0.22-0.03-0.33-0.05c-0.13-0.02-0.26-0.03-0.38-0.06
	c-0.15-0.03-0.29-0.07-0.44-0.11c-0.07-0.02-0.15-0.04-0.22-0.06c-0.17-0.05-0.33-0.12-0.5-0.19c-0.04-0.02-0.08-0.03-0.12-0.04
	c-0.18-0.08-0.35-0.17-0.52-0.26c-0.02-0.01-0.03-0.02-0.05-0.02c-0.18-0.1-0.34-0.21-0.5-0.33c0,0-0.01-0.01-0.02-0.01
	c-0.33-0.24-0.63-0.51-0.91-0.81c-0.02,0.02-0.03,0.04-0.05,0.05c1.68,1.54,3.42,3.21,5.28,5.03c0.63,0.61,1.84,1.89,1.84,1.89
	l4.23,4.78l22.27,35.65l2.09,4.23c4.07,9.26,15.24,33.89,18.41,37.46c4.07,4.57,14.03,7.07,19.6,8.15
	c-5.13-3.87-9.14-9.51-12.7-14.87c-3.25-4.9-6.94-9.48-9.95-14.52c-2.98-4.99-5.47-10.24-7.99-15.47
	c-5.25-10.91-10.74-21.14-20.49-28.69c-6.62-5.13,2.3-14.6,8.87-9.51c16.04,12.43,21.15,31.48,31.41,48.06
	c2.44,3.94,5.37,7.52,7.94,11.38c2.58,3.86,4.99,8,8.3,11.28c3.17,3.13,7.68,4.74,10.44,3.37c0.69-3.42,1.61-6.78,3.11-10.06
	c2.94-6.42,11.46-2.94,12.22,2.86c0.68,5.2-0.69,10.17-3.51,13.98c-0.15,1.03-0.28,2.07-0.42,3.1
	c-0.66,21.34-1.22,44.84-12.91,63.37c-1.25,1.98-3.06,2.99-4.92,3.21c-0.01,0.56-0.8,0.64-0.96,0.13c-0.01-0.03-0.01-0.06-0.02-0.08
	c-3.03-0.11-5.91-2.32-6.32-6.11c-1.36-12.78,2.9-27.08,6.38-39.3c1.64-5.76,3.63-11.45,4.93-17.3c-0.23,0-0.45,0-0.68-0.01
	c-1.23-0.06-2.41-0.24-3.55-0.48c-0.13,0.19-0.27,0.38-0.39,0.57l0.05,0.05l-0.18,0.9c-0.07,0.31-9.78,46.82-6.62,65.78
	c2.26,18.98-6.49,29.85-14.21,37.99c-5.79,6.11-10.84,13.08-11.41,21.68c4.78,0.13,9.9-0.93,14.08-0.43
	c3.55,0.43,6.57,0.81,7.8,0.65c10.97-2.52,13.2-24.26,14.99-40.4c0.76-6.87,12.1-49.55,14.25-56.93
	c3.79-13.13,5.94-20.01,7.79-23.28c0.46-1.25,0.96-2.47,1.38-3.7c1.1-3.27,2.21-6.59,2.94-9.95c0.07-0.31,0.58-0.25,0.55,0.07
	c-0.22,2.27-0.58,4.76-1.11,7.27c4.88-8.14,13-14.71,17.72-22.73c0.48-0.81,0.91-1.64,1.32-2.49c-2.9-1.71-4.29-5.57-2.52-8.7
	c7.36-13.03,3.82-30.02,3.73-44.26c-0.05-8.36,12.94-8.83,12.99-0.45c0.01,1.89,0.07,3.8,0.14,5.73
	c4.39-20.97,28.75-24.77,44.91-13.47c7.63,5.34,12.14,12.96,12.73,22.33c0.36,5.73-1.4,11.59-5.24,15.37
	c0.84,3.37,0.94,6.97,0.03,10.85c-0.91,3.89-2.61,7.08-4.83,9.57c0.81-0.04,1.59-0.07,2.33-0.08c8.37-0.06,8.83,12.93,0.45,12.99
	c-10.97,0.08-25.55,2.28-34.6-5.5c-3.05-2.63-4.48-6.21-4.93-10.15c-4.3-4.27-7.92-9.4-10.66-14.65c-0.04-0.08-0.08-0.16-0.13-0.25
	c-0.4,3.63-1.09,7.2-2.22,10.66c3.22,0.9,6.4,1.9,9.52,3.16c5.89,2.38,3.43,12.63-2.86,12.22c-3.05-0.2-5.74-0.9-8.44-1.86
	c-1.36,0.26-2.72,0.47-4.08,0.6c1.13,0.52,2.31,0.96,3.47,1.44c0.98,0.42,1.99,0.83,3.02,1.25c1.31,0.03,2.69,0.57,3.92,0.95
	c0.78,0.25,1.68,0.51,2.36,1.01c10.63,3.17,63.13,18.31,92.3,18.31c2.81,0,5.35-0.15,7.54-0.42c9.65-1.23,23.03-4.23,37.19-7.42
	c0.53-0.12,1.06-0.23,1.59-0.35c0.3-0.07,0.58-0.13,0.86-0.2c0.13,0,2.75-0.83,3.17-1.05c0.45-0.23,0.93-0.47,1.4-0.61
	c-3.12-2.11-6.01-4.52-8.35-7.36c-2.08-2.56-5.86-8.04-4.48-11.82c-0.13,0.01-0.26,0.02-0.38,0.03c-0.65,0.47-1.41,0.8-2.21,0.99
	c-0.8,0.52-1.71,0.88-2.64,1.06c-1.5,2-3.94,3.01-6.67,2.49c-3.3-0.63-5.81-4.58-4.82-7.83c0.43-1.42,0.97-2.69,1.81-3.91
	c0.48-0.71,1-1.4,1.52-2.08c0.26-0.34,1.47-2,0.28-0.3c1.54-2.21,3.58-3.6,6.36-3.33c0.5,0.05,1.03,0.19,1.56,0.38
	c1.99-0.63,3.98-0.55,5.84,0.79c2.18,1.56,3.07,4.15,2.57,6.75c-0.2,1.02-0.66,1.95-1.28,2.77c0.68,0.09,1.37,0.18,2.07,0.24
	c16.4-2.76,32.17-8.34,47.47-15.04c-7.38-3.79-14.29-8.36-20.93-13.32c-0.64-0.14-1.28-0.32-1.91-0.52
	c-1.37,4.08-6.56,6.9-10.46,2.97c-4.29-4.32-8.69-9.03-11.35-14.56c-1.52-3.18-1.23-6.91,2.02-8.97c2.72-1.72,7.45-1.15,8.97,2.02
	c2.21,4.62,5.64,8.4,9.22,12.01c1.23,1.24,1.82,2.64,1.92,4.03c2.97,2.27,5.97,4.51,9.05,6.62c7.97,5.45,16.3,9.33,25.06,13.28
	c5.18,2.32,9.38,5.46,11.11,11.12c1.48,4.8,2.14,9.88,3.17,14.81c1.05,5.01,2.36,8.53,2.79,15.97c0.07,1.11,0.07,2.52,0.03,4.17
	c-0.02,0.55-0.03,1.13-0.07,1.75c-0.05,1.21-0.12,2.52-0.22,3.9c-0.02,0.4-0.05,0.81-0.08,1.23c2.66-3.58,6.61-6.34,10.69-5.84
	c0.08,0,0.15,0.03,0.22,0.07c4.42-0.76,8.35,1.94,9.51,7.09c1.88,8.35-5.58,16.34-8.98,23.23c-2.34,4.73-7.16,31.1-16.69,21.87
	c-0.03,0.33-0.05,0.66-0.08,0.98c-0.23,3.22-0.25,5.63-0.03,7.24l0.02,0.22c0.07,25.88-10.38,35.41-19.61,43.83
	c-6.59,5.99-12.32,11.22-12.87,21.8h24.39c6.56,0,21.02-40.06,31.18-78.78l0.1-0.25l2.08-4.71c0.33-0.68,6.74-16.9,9.86-19.84
	c3.12-2.94,7.41-6.16,8.77-7.17c9.36-8.72,19.92-17.93,21.04-30.62c-0.45-1.07-0.91-2.18-1.38-3.31c-0.96-2.32-1.21-3.12-1.38-3.7
	c-0.17-0.53-0.27-0.86-1.15-2.67c-4.43-11.36-6.97-19.64-7.64-24.76c-0.07-0.5-0.07-1.18-0.02-1.99c-0.15-0.14-0.29-0.3-0.44-0.45
	c-2.11,4.16-9.95,5.01-12.42-0.82c-1.8-4.25-3.71-8.79-4.1-13.44c-0.22-2.57,0.32-4.81,1.35-7.17c0.88-2.01,2.71-4.16,2.88-6.4
	c0.2-2.54,1.23-4.74,3.42-5.93c-0.02-1.29-0.01-2.6,0.01-3.92c0.11-8.35,13.1-8.83,12.99-0.45c-0.04,3.04-0.32,6.06,0.56,9
	c1.39,4.59-1.98,7.78-5.62,8.2c-0.03,0.06-0.06,0.13-0.08,0.19c0.98,4.03,1.99,8.05,2.84,12.09c4.62-22.99,18.88-71.03,20.95-77.97
	c0.02-0.08,0.05-0.27,0.08-0.51c-0.08-0.05-0.16-0.13-0.15-0.27c0.18-1.89,0.46-3.75,0.7-5.61l0.36-5.03c0-0.21,0.04-0.43,0.04-0.65
	C553.14,363.87,553.06,361.4,553.36,358.94z M204.19,450.97c-0.1,8.13-0.25,16.95-7.02,22.55c-4.22,3.47-9.33,2.03-12.73-1.78
	c-4.28-4.8-6.94-10.89-9.18-16.85c-1.39-3.67-2.64-7.3-4.68-10.69c-2.39-3.95-5.16-7.7-7.29-11.8c-3.87-7.49-4.78-15.66,0.22-22.89
	c4-5.76,11.81-8.9,18.63-7.39c0.2-0.08,0.43-0.13,0.71-0.1c4.33,0.62,8.3,1.98,11.89,4.53C209.11,416.8,204.41,436.16,204.19,450.97
	z M253.8,340.42c-13.73-0.13-27.77-0.7-41.35,1.64c-3.44,0.59-7.03-0.53-8.15-4.26c-0.91-3.04,0.77-7.55,4.26-8.15
	c14.26-2.45,28.52-2.3,42.94-2.22c14.81,0.08,29.46,3.07,44.28,2.57c8.37-0.28,8.81,12.71,0.45,12.99
	C282.01,343.47,267.99,340.56,253.8,340.42z M414.08,405.78c-5.75,5.99-13.15,10.11-17.25,17.63c-3.06,5.58-4.3,12.44-9.31,16.74
	c-2.92,2.49-6.99,3.72-10.73,4.3c-5.41,0.83-10.87,1.91-15.69,4.67c-3.69,2.13-10.08,10.31-14.33,5.1
	c-5.05-6.16-4.86-15.69-8.18-22.73c-2.08-4.38-5.26-7.9-9.37-10.51c-3.25-2.08-6.89-3.82-9.84-6.31c-2.81-2.39-4.63-5.46-5.78-8.93
	c-1.11-3.42-2.19-8.1-5.03-10.53c-9.1-7.8-21.57-4.17-32.31-5.68c-6.13-0.85-13.08-3.95-14.94-10.46
	c-1.54-5.4,0.23-11.13,3.22-15.69c6.26-9.56,19.05-19.19,31.06-15.09c0.32,0.1,0.43,0.35,0.43,0.61
	c20.21,4.86,37.99,27.31,59.27,16.7c7.6-3.79,14.69-10.66,23.56-11.24c8.78-0.6,17.73,3.02,24.19,8.92
	c6.81,6.19,11.64,14.31,14.03,23.2C418.92,393.31,419.29,400.35,414.08,405.78z M524.54,407.79c-1.55,4.47-5.18,7.85-7.89,11.59
	c-3.69,5.08-4.65,10.14-4.55,16.37c0.16,8.95-1.03,18.88-9.08,24.44c-5.8,3.98-12.22,3.07-16.7-2.34
	c-7.3-8.82-6.28-21.65-8.13-32.23c-1.43-8.15-6.09-15.44-7.22-23.58c-0.95-6.81,1.86-11.61,8.15-14.39
	c4.85-2.16,13.3-2.77,17.75,0.95c0.08,0,0.17,0,0.23,0.05c0.3,0.15,0.53,0.35,0.8,0.53c0-0.17,0.05-0.33,0.17-0.52
	c5.06-8.72,15.19-7.16,21.35-0.33C524.19,393.61,526.95,400.78,524.54,407.79z"/>
<path class="st1" d="M498.06,388.66c-0.12,0.18-0.17,0.35-0.17,0.52c-0.26-0.18-0.5-0.38-0.8-0.53c-0.07-0.05-0.15-0.05-0.23-0.05
	c-4.45-3.72-12.9-3.1-17.75-0.95c-6.29,2.79-9.1,7.59-8.15,14.39c1.13,8.14,5.79,15.43,7.22,23.58c1.86,10.58,0.83,23.41,8.13,32.23
	c4.48,5.41,10.91,6.33,16.7,2.34c8.05-5.56,9.25-15.49,9.08-24.44c-0.1-6.23,0.86-11.29,4.55-16.37c2.71-3.74,6.34-7.12,7.89-11.59
	c2.41-7.01-0.35-14.18-5.13-19.46C513.25,381.51,503.12,379.95,498.06,388.66z"/>
<path class="st1" d="M403.05,363.27c-6.46-5.89-15.41-9.51-24.19-8.92c-8.87,0.58-15.96,7.46-23.56,11.24
	c-21.28,10.61-39.07-11.84-59.27-16.7c0-0.27-0.12-0.51-0.43-0.61c-12.02-4.1-24.8,5.53-31.06,15.09
	c-2.99,4.57-4.77,10.3-3.22,15.69c1.86,6.51,8.82,9.61,14.94,10.46c10.74,1.51,23.21-2.12,32.31,5.68
	c2.84,2.42,3.92,7.11,5.03,10.53c1.15,3.47,2.97,6.54,5.78,8.93c2.96,2.49,6.59,4.23,9.84,6.31c4.1,2.61,7.29,6.13,9.37,10.51
	c3.32,7.04,3.14,16.57,8.18,22.73c4.25,5.21,10.64-2.97,14.33-5.1c4.82-2.76,10.28-3.84,15.69-4.67c3.74-0.58,7.8-1.81,10.73-4.3
	c5.01-4.3,6.26-11.16,9.31-16.74c4.1-7.52,11.51-11.64,17.25-17.63c5.21-5.43,4.85-12.47,3-19.31
	C414.69,377.59,409.86,369.47,403.05,363.27z"/>
<path class="st1" d="M170.57,444.2c2.04,3.39,3.29,7.02,4.68,10.69c2.24,5.96,4.9,12.05,9.18,16.85c3.4,3.8,8.52,5.25,12.73,1.78
	c6.77-5.6,6.92-14.41,7.02-22.55c0.22-14.81,4.91-34.17-9.46-44.43c-3.59-2.56-7.55-3.92-11.89-4.53c-0.28-0.03-0.51,0.02-0.71,0.1
	c-6.82-1.51-14.63,1.63-18.63,7.39c-5,7.24-4.08,15.41-0.22,22.89C165.41,436.5,168.18,440.25,170.57,444.2z"/>
<path class="st1" d="M575.28,470.45c-0.33-5.94-2.37-9.85-4.53-14c-0.42-0.8-0.83-1.59-1.27-2.46c-2.45-4.93-4.76-9.6-4.81-15.36
	c-0.02-4.88,0.4-9.71,0.85-14.98c0.7-8.15,1.48-17.4,0.55-28.49c-1.11-13.12-8.54-38.72-16.8-53.3
	c-9.28-16.87-27.05-26.37-52.83-28.22c-13.25-0.95-31.18-1.48-53.33-1.56l-8.13-0.02c-70.48,0-175.66,3.15-179.76,3.27l-4.81-0.52
	h-0.1c-1.81,0.02-44.61,0.38-62.16,3.19c-1.41,0.23-3.54,0.35-6.31,0.35c-7.99,0-18.65-0.96-18.68-0.98l-4.81-0.65l-22.91-4.42
	c0,0,1.69-2.89,2.72-5.05c1.86-3.9,3.97-8.88,3.72-13.32c-0.2,0.18-1.66,0.47-3.82,0.86c-5.88,1.1-17.05,3.12-22.66,6.62
	c-5.98-3.2-14.11-3.77-22.22-2.94c-8.1,0.83-18.03,3.9-21.95,8.6c-4.13-7.42-15.21-4.93-21.98-6.79c0.37,0.6,3.44,9.2,4.91,12.04
	c2.36,4.53,8.43,9.3,9.43,15.54c1.63,7.95,1.81,28.91-15.47,39.15c-5.38,2.51-9.71,8.09-9.06,14.81c0.31,3.4,2.96,14.51,23.28,14.51
	c4.55,0,8.58-0.12,12.15-0.23c2.89-0.08,5.61-0.17,8.1-0.17c10.04,0,17.25,1.15,28.16,9.58c-0.08,0.02-0.16,0.04-0.23,0.06
	c0.96,0.59,1.86,1.24,2.71,1.93c0.01,0,0.01,0,0.02,0c1.83,1.53,3.77,3.25,5.83,5.2c0.08,0.18,0.13,0.38,0.19,0.57
	c0.7,0.68,1.41,1.36,2.17,2.01c0.13,0.12,0.25,0.25,0.37,0.38c0.01-0.11,0.03-0.23,0.04-0.34c0.32,0.32,0.61,0.61,0.95,0.93
	c0.6,0.58,1.74,1.79,1.74,1.79l3.93,4.4l22.07,35.32l2.01,4.1c1.51,3.42,14.86,33.66,18.95,38.25c6.03,6.76,21.85,9.36,25.09,9.83
	l2.23,2.17c-1.05,5.43-9.45,48.12-6.48,66.03c2.06,17.35-5.76,27.26-13.33,35.23c-6.08,6.42-12.37,14.71-12.37,25.62v1.66h1.66
	c5.06,0,10.79-0.98,15.39-0.43c3.29,0.4,5.88,0.7,7.55,0.7c0.41,0,0.78-0.02,1.23-0.08c13.43-3.07,15.81-26.12,17.72-43.3
	c0.71-6.54,1.41-12.72,2.61-16.49c0,0,9.31-32.24,11.52-39.88c2.61-9.03,6.14-21.29,7.99-23.43c4.33,1.69,13.71,22.66,20.14,45.01
	l0.1,0.33l0.23,0.28c1.14,1.33,2.44,2.94,3.09,3.8l0.35,0.73c14.08,28.57,6.97,29.67,0.12,38.75c-3.62,4.8-7.35,9.75-7.35,17.2v1.66
	h1.66c10.26,0,15.71,0.25,20.07,0.47c3.2,0.15,5.98,0.28,9.78,0.28c1.48,0,3.59-0.56,5.28-3.27c5.11-8.09,3.12-29.87,0-36.41
	c-2.64-4.83-3.57-2.97-4.63-10.43c-0.38-2.57-0.75-5.23-1.23-7.94l-0.75-4.57c-1.88-12.17-2.67-22.63-2.69-22.81l-6.09-43.29
	c11.97,3.55,63.17,18.28,92.73,18.28c2.94,0,5.61-0.15,7.95-0.45c9.8-1.25,23.26-4.27,37.51-7.47c0.17-0.03,0.78-0.18,1.58-0.38
	c1.74-0.43,4.3-1.08,4.78-1.31c1.16-0.35,2.38-0.83,3.07-1.73c2.08,1.26,4.2,2.41,6.29,3.47c2.08,1.06,4.2,1.99,6.34,2.82
	c-2.36,1.91-3.97,6.03-4.6,8.47c-0.85,3.21,0.96,6.44,4.17,7.36c3.34,0.95,6.84-2.01,9.07-4.09c1.28-1.19,5.53-5.2,5.78-7.64
	c4.65,0.93,9.36,1.53,14.11,1.91c-1.1,6.18-1.4,15.94,6.99,15.69c6.47-0.18,8.12-9.45,7.97-14.99c1.61,0.02,3.22,0.03,4.82,0.05
	c-0.05,3.17-0.27,6.58-0.56,10.08c-0.68,7.65-1.83,15.77-2.82,22.9c-0.56,4-1.1,7.87-1.54,11.42l-0.51,4.6
	c-0.55,5.21-0.65,8.78-0.33,11.21c0.03,24.34-9.81,33.33-18.51,41.26c-7.21,6.56-14,12.75-14,25.92v1.66h27.74
	c3.67,0,9.98-4.27,22.38-41.15c6.39-18.99,11.51-38.22,11.99-39.99l2.01-4.55c2.33-5.01,6.86-14.54,8.97-18.31
	c2.47,1.71,5.84,9.33,7.77,16.45l0.63,4.28c0.02,0.17,1.3,16.99,1.3,24.52c0,8.53-3.69,12.78-7.59,17.27
	c-4.52,5.2-9.18,10.58-7.9,22.23l0.17,1.48h1.49c7.26,0,11.51-0.12,15.26-0.21c3.04-0.1,5.66-0.17,9.31-0.17
	c2.41,0,4.4-0.91,5.91-2.69c4.32-5.13,3.42-16.77,1.91-25.54c-0.86-7.6,0.43-16.27,1.79-25.45c0.63-4.25,1.28-8.65,1.73-13.03
	l0.48-4.55c0.91-6.71,5.36-40.45,3.3-45.23l-0.81-1.89c-1.31-3.04-3.28-7.64-5.38-12.73c-0.91-2.19-1.13-2.89-1.28-3.4
	c-0.21-0.73-0.38-1.21-1.29-3.05c-4.25-10.96-6.74-18.98-7.35-23.83c-0.1-0.81-0.02-2.19,0.23-4.03
	c2.09-14.81,14.83-59.54,21.09-80.68c1.21,5.31,2.06,10.18,2.36,13.6c0.86,10.31,0.13,18.75-0.56,27
	c-0.47,5.36-0.9,10.41-0.87,15.72c0.05,7.94,2.97,13.8,5.8,19.51l0.04,0.07c-0.6,0.67-1.35,1.4-2.19,2.19
	c-4.15,4-10.45,10.03-9.15,22.25c1.64,15.33,13.28,22.48,13.78,22.78l3.75,2.26l-1.31-4.18c-0.03-0.09-2.41-7.79,1.71-13.02
	C573,483.92,575.73,478.75,575.28,470.45z M553.18,366.36c0,0.21-0.04,0.43-0.04,0.65l-0.36,5.03c-0.23,1.86-0.52,3.72-0.7,5.61
	c-0.02,0.13,0.06,0.22,0.15,0.27c-0.03,0.25-0.07,0.43-0.08,0.51c-2.08,6.94-16.34,54.97-20.95,77.97
	c-0.84-4.04-1.86-8.07-2.84-12.09c-0.09,0.21-0.18,0.42-0.28,0.64c-0.2,0.44-0.52,0.94-0.86,1.46c1.02,5.22,2.12,10.43,2.96,15.68
	c-0.02,0.17-0.03,0.31-0.05,0.46c-0.1-0.15-0.2-0.3-0.3-0.45c0.15,1.1-0.04,2.1-0.47,2.95c0.15,0.15,0.29,0.32,0.44,0.45
	c-0.05,0.81-0.05,1.49,0.02,1.99c0.67,5.11,3.2,13.4,7.64,24.76c0.88,1.81,0.98,2.14,1.15,2.67c0.16,0.58,0.42,1.38,1.38,3.7
	c0.47,1.13,0.93,2.24,1.38,3.31c-1.11,12.68-11.67,21.9-21.04,30.62c-1.36,1.01-5.65,4.23-8.77,7.17
	c-3.12,2.94-9.53,19.16-9.86,19.84l-2.08,4.71l-0.1,0.25c-10.16,38.72-24.62,78.78-31.18,78.78h-24.39
	c0.55-10.58,6.28-15.8,12.87-21.8c9.23-8.42,19.67-17.95,19.61-43.83l-0.02-0.22c-0.22-1.61-0.2-4.02,0.03-7.24
	c0.03-0.31,0.05-0.65,0.08-0.98c9.53,9.23,14.34-17.14,16.69-21.87c3.4-6.89,10.86-14.88,8.98-23.23c-1.16-5.15-5.1-7.85-9.51-7.09
	c-0.07-0.03-0.13-0.07-0.22-0.07c-4.08-0.5-8.04,2.26-10.69,5.84c0.03-0.41,0.07-0.83,0.08-1.23c0.1-1.38,0.17-2.69,0.22-3.9
	c0.03-0.62,0.05-1.2,0.07-1.75c0.03-1.64,0.03-3.05-0.03-4.17c-0.43-7.44-1.74-10.96-2.79-15.97c-1.03-4.93-1.69-10.01-3.17-14.81
	c-1.73-5.66-5.93-8.8-11.11-11.12c-8.75-3.95-17.09-7.84-25.06-13.28c-3.09-2.11-6.08-4.35-9.05-6.62c0.06,0.86-0.05,1.71-0.33,2.51
	c0.64,0.19,1.28,0.37,1.91,0.52c6.64,4.96,13.55,9.53,20.93,13.32c-15.31,6.71-31.07,12.29-47.47,15.04
	c-0.69-0.07-1.38-0.15-2.07-0.24c-0.42,0.55-0.91,1.05-1.45,1.48c-0.25,0.29-0.55,0.53-0.86,0.76c0.13-0.01,0.26-0.02,0.38-0.03
	c-1.38,3.79,2.41,9.26,4.48,11.82c2.34,2.84,5.23,5.25,8.35,7.36c-0.46,0.15-0.95,0.38-1.4,0.61c-0.42,0.22-3.04,1.05-3.17,1.05
	c-0.28,0.07-0.57,0.13-0.86,0.2c-0.53,0.12-1.06,0.23-1.59,0.35c-14.16,3.19-27.54,6.19-37.19,7.42c-2.19,0.27-4.73,0.42-7.54,0.42
	c-29.17,0-81.67-15.14-92.3-18.31c-0.68-0.5-1.58-0.77-2.36-1.01c-1.23-0.38-2.61-0.91-3.92-0.95c-1.03-0.41-2.04-0.83-3.02-1.25
	c-1.16-0.48-2.34-0.93-3.47-1.44c1.36-0.12,2.72-0.34,4.08-0.6c-1.27-0.45-2.55-0.95-3.87-1.49c-0.25-0.1-0.48-0.21-0.7-0.33
	c-0.29-0.07-0.58-0.14-0.87-0.21c-0.38,0.08-0.76,0.16-1.12,0.26c0.21-0.13,0.41-0.26,0.61-0.38c-0.8-0.19-1.6-0.38-2.39-0.58
	c-0.23,0.12-0.46,0.24-0.68,0.36c-0.05-0.02-0.08-0.05-0.13-0.07c0.08-0.15,0.14-0.31,0.21-0.45c-0.53-0.15-1.03-0.37-1.49-0.64
	c-0.41,0.84-0.84,1.68-1.32,2.49c-4.71,8.02-12.83,14.6-17.72,22.73c0.53-2.51,0.9-5,1.11-7.27c0.03-0.32-0.48-0.38-0.55-0.07
	c-0.73,3.36-1.84,6.67-2.94,9.95c-0.42,1.23-0.91,2.46-1.38,3.7c-1.84,3.27-4,10.14-7.79,23.28c-2.14,7.39-13.48,50.06-14.25,56.93
	c-1.79,16.14-4.02,37.87-14.99,40.4c-1.23,0.16-4.25-0.22-7.8-0.65c-4.18-0.5-9.3,0.56-14.08,0.43c0.56-8.6,5.61-15.58,11.41-21.68
	c7.72-8.13,16.47-19.01,14.21-37.99c-3.16-18.96,6.56-65.47,6.62-65.78l0.18-0.9l-0.05-0.05c0.13-0.19,0.26-0.38,0.39-0.57
	c-3.44-0.74-6.47-2.28-9.18-4.33c-5.58-1.08-15.54-3.58-19.6-8.15c-3.17-3.57-14.35-28.19-18.41-37.46l-2.09-4.23l-22.27-35.65
	l-4.23-4.78c0,0-1.21-1.28-1.84-1.89c-1.86-1.83-3.6-3.49-5.28-5.03c0.02-0.02,0.03-0.04,0.05-0.05c-0.19-0.21-0.37-0.44-0.54-0.67
	c-0.01-0.01-0.02-0.03-0.03-0.05c-0.14-0.21-0.26-0.42-0.38-0.64c-1.22-0.46-2.17-1.27-2.84-2.26c-0.06,0.08-0.11,0.16-0.17,0.24
	c-1.76-1.49-3.44-2.82-5.05-3.98c-0.4-0.28-0.78-0.56-1.16-0.83c-1.59-1.1-3.12-2.06-4.62-2.89c-0.22-0.13-0.43-0.25-0.65-0.35
	c-1.09-0.59-2.16-1.08-3.22-1.53c4.52-0.57,8.95-2.38,12.67-4.82c0.41-0.27,0.05-0.9-0.39-0.66c-3.85,2.11-7.64,3-11.59,3.67
	c3.55-1.48,6.84-3.72,9.52-6.22c6.61-6.19,9.73-16.24,18.7-19.63c0.12-0.05,0.12-0.2,0-0.23c-5.38-1.99-11.8,8.7-14.26,12.2
	c-2.81,4-6.18,7.57-10.31,10.21c-3.37,2.17-6.89,2.84-10.56,3.42c-3.84-0.88-7.84-1.18-12.44-1.18c-2.54,0-5.28,0.09-8.2,0.17
	c-3.54,0.12-7.56,0.23-12.05,0.23c-12,0-19.28-4.2-19.97-11.51c-0.5-5.15,0.51-6.99,7.21-11.49c16.09-10.03,19.31-30.98,17.6-41.33
	c-1.1-5.8,1.16-10.24,1.59-12.92c0.4-2.39,2.34-4.18,3.32-6.03c1.51-2.42,9.76-5.88,19.72-7.39c9.96-1.53,14.94-1.66,20.55,1.23
	c-3.93,3.32-5.88,7.47-3.62,12.6c0.23,0.51,1.1,0.27,1.06-0.28c-0.45-5.53,1.84-8.5,5.41-11.41c6.28-3.87,16.52-4.3,23.2-7.97
	c-1,2.66-1.54,5.56-2.46,8.19c-1.84,5.31-4.62,9.68-7.75,14.28c-0.32,0.48,0.35,0.88,0.73,0.56c1.6-1.28,3.02-2.74,4.3-4.31
	l24.59,4.75l3.52,0.47c0.43-0.09,0.9-0.13,1.39-0.13c1.19,0,2.21,0.27,3.07,0.72c0.52,0.07,1.04,0.15,1.56,0.27
	c0.17-0.01,0.33-0.02,0.51-0.02c1.05,0,1.97,0.2,2.77,0.56c0.08-0.29,0.13-0.5,0.14-0.6c0.5,0.03,1,0.07,1.48,0.08
	c2.66,0.17,5.1,0.28,7.94,0.3c0.53,0.02,1.08,0.02,1.64,0.02c2.94,0,5.25-0.13,6.84-0.38c16.9-2.72,59.24-3.14,61.57-3.15l4.85,0.53
	l0.12-0.02c0.08,0,0.83-0.03,2.16-0.06c0.38-0.02,0.83-0.02,1.31-0.03c0.33-0.02,0.68-0.03,1.06-0.03c0.18-0.02,0.38-0.02,0.58-0.02
	c0.4-0.02,0.81-0.03,1.25-0.03c0.42-0.02,0.85-0.03,1.31-0.05c0.4,0,0.81-0.02,1.24-0.03c0.63-0.02,1.28-0.03,1.96-0.05
	c0.18-0.02,0.37-0.02,0.57-0.02c0.88-0.03,1.81-0.05,2.79-0.08h0.23c0.42-0.02,0.83-0.03,1.26-0.03c0.57-0.02,1.13-0.03,1.73-0.05
	c1-0.03,2.06-0.07,3.14-0.08c1.15-0.03,2.32-0.07,3.54-0.1c2.44-0.06,5.03-0.13,7.75-0.2c3.12-0.08,6.43-0.17,9.88-0.25
	c0.86-0.02,1.73-0.03,2.59-0.07c1-0.03,2.01-0.05,3.04-0.07c0.76-0.02,1.56-0.05,2.34-0.06c2.86-0.07,5.78-0.13,8.78-0.2
	c1.08-0.03,2.19-0.05,3.3-0.08c0.55-0.02,1.1-0.02,1.66-0.03c2.24-0.05,4.52-0.12,6.84-0.15c1.14-0.03,2.31-0.06,3.49-0.08
	c0.55-0.02,1.1-0.03,1.64-0.03c1.76-0.05,3.54-0.08,5.33-0.12h0.27c1.79-0.05,3.62-0.08,5.44-0.12c0.53-0.02,1.08-0.02,1.63-0.03
	c3.2-0.07,6.44-0.13,9.7-0.18c1.69-0.03,3.39-0.06,5.08-0.1c1.25-0.02,2.49-0.03,3.74-0.06c3.67-0.07,7.34-0.12,11.04-0.18h0.83
	c2.31-0.05,4.63-0.08,6.96-0.12c0.43,0,0.88-0.02,1.31-0.02c4.95,1.86,10.09,3.09,14.68,5.88c6.04,3.69,9.01,10.59,12.25,16.59
	c5.16,9.61,11.75,16.55,23.26,16.75c10.36,0.18,23.26-3.42,30.92-10.66c7.82-7.42,3.55-22.48,13.7-27.58
	c1.1,0.1,2.16,0.21,3.22,0.38c1.22,0.19,2.43,0.42,3.63,0.66c0.29-0.13,0.61-0.23,0.94-0.31c0.45-0.41,0.99-0.75,1.6-1
	c-0.29-0.07-0.57-0.14-0.85-0.2h0.15c0.37,0.02,0.72,0.04,1.08,0.06c0.63-0.21,1.33-0.32,2.12-0.32c1.07,0,2.01,0.22,2.82,0.59
	c1.64,0.09,3.23,0.2,4.75,0.31c24.57,1.76,41.46,10.68,50.17,26.52c2.44,4.32,4.83,9.71,6.99,15.46
	C553.06,361.4,553.14,363.87,553.18,366.36z"/>
<path class="st1" d="M133.63,304.9c0.33-0.13,0.28-0.58-0.08-0.61c-6.5-0.54-18.73,4.98-18.54,12.75c-0.4,0.71-0.69,1.45-0.79,2.23
	c-0.03,0.21,0.28,0.32,0.41,0.17c2.13-2.5,4-6.84,7.72-7.26c0.48-0.05,0.5-0.8,0-0.77c-1.97,0.14-3.57,1.32-4.95,2.66
	c-0.44,0.43-0.88,0.9-1.3,1.4C118.49,308.35,127.24,307.36,133.63,304.9z"/>
<path class="st1" d="M93.42,338.6c-1.51-0.5-3.57,0.63-4.85,1.29c-2.23,1.16-3.72,3.22-5.05,5.25c-0.05,0.07,0.03,0.17,0.12,0.12
	c1.23-0.85,2.29-1.83,3.39-2.72c0,0.46,0.2,0.91,0.71,1.18c1.99,1.06,4.95,0.46,6.28-1.38C94.85,341.16,94.99,339.12,93.42,338.6z
	 M93.12,340.63c-0.45,1.73-2.56,0.78-4,0.5c0.51-0.31,1.06-0.6,1.66-0.81C91.48,340.06,93.45,339.32,93.12,340.63z"/>
<path class="st1" d="M96.04,330.63c-3.16-1.59-6.09-1.61-9.5-0.73c-2.91,0.75-6.63,2.72-6.81,6.08c-0.03,0.43,0.55,0.8,0.91,0.53
	c4-3,9.63-6.89,14.98-4.88C96.21,331.84,96.59,330.92,96.04,330.63z"/>
<path class="st1" d="M66.8,373.17c-3.62-0.85-6.21,1.83-8.45,4.28c-0.1,0.1,0,0.25,0.12,0.21c1.68-0.33,2.77-1.69,4.12-2.59
	c1.46-0.55,1.18,0.33,1.18,0.5c-0.08,1.28,1.76,1.88,2.77,1.97c1.39,0.12,2.74-0.27,2.95-1.71c0.02-0.07-0.05-0.75-0.13-1
	C69.03,373.82,67.73,373.39,66.8,373.17z"/>
<path class="st1" d="M69.94,346.44c-3.07,2.84-4.65,6.89-6.26,10.68c-2.34,5.53-5.03,9.46-9.88,13.12
	c-0.27,0.22-0.12,0.76,0.27,0.61c4.07-1.58,6.69-4.98,8.77-8.68c2.79-4.96,4.93-10.33,7.6-15.36
	C70.6,346.49,70.21,346.19,69.94,346.44z"/>
<path class="st2" d="M413.09,555.09c-10.96-2.98-20.27-6.86-27.09-16.39c-0.08-0.11-0.3-0.04-0.24,0.1
	c4.08,10.15,16.93,16.05,27.24,16.86C413.34,555.69,413.4,555.17,413.09,555.09z"/>
<path class="st2" d="M433.98,512.91c-2.85,1.14-5.53,5.25-5.18,8.36c0.04,0.32,0.44,0.38,0.56,0.07c1.11-2.89,2.05-6.08,4.88-7.8
	C434.57,513.35,434.35,512.77,433.98,512.91z"/>
<path class="st2" d="M462.91,517.95c0.02-0.39-0.54-0.43-0.65-0.09c-1.31,3.99-1.18,8.9,2.07,11.89c0.22,0.2,0.55-0.05,0.41-0.31
	C462.68,525.61,462.68,522.16,462.91,517.95z"/>
<g>
	<path class="st3" d="M255.18,616.45c0.21,1.92,0.01,3.97,0.88,5.57c1.96,3.61,11.9,4.41,17.43,4.6c12.86,0.44,8.24,0.82,4.34-6.95
		C270.43,620.05,262.95,618.58,255.18,616.45z"/>
	<g transform="translate(-115.98 -313.21)">
		<path class="st4" d="M367.29,726.94l-3.88-13.19l-1.55-17.07c0,0,5.72-3.94,6.98-6.98c1.88-4.54,1.76-10.15,0-14.74
			c-1.25-3.25-3.54-7.27-6.98-7.76c-2.42-0.34-6.21,3.88-6.21,3.88l-3.1-1.55c-3.28-8.85,8.96-12.53,13.96-18.62
			c-0.01,0-7.95,2.11-11.64,3.88c-3.88,1.86-10.86,6.98-10.86,6.98l-3.88,6.21l-12.41,3.88l-2.33-0.78
			c4.17-7.19,5.63-14.38,5.52-21.57c-0.82,2.05-2.58,3.66-5.3,3.94c-1.12,5.29-3.84,10.91-6.65,16.86l-2.11,0.78l-3.88,6.21
			c0,0-10.93-0.54-16.29-1.55c-3.7-0.7-7.41-1.6-10.86-3.1c-1.38-0.6-2.43-1.92-3.88-2.33c-1.25-0.35-2.89-0.84-3.88,0
			c-1.2,1.02-1.04,3.1-0.78,4.65c0.54,3.19,2.51,6.11,4.65,8.53c2.95,3.33,6.82,5.89,10.86,7.76c3.87,1.79,12.41,3.1,12.41,3.1
			l3.88,11.64c0,0-5.15,8.45-6.21,13.19c-0.45,2.02,0,6.21,0,6.21s-0.97,7.2,0.78,10.08c1.26,2.09,6.21,3.88,6.21,3.88l16.29,0.78
			l-0.78,3.1l-3.88,10.86c0,0,0.68,4.11,2.33,4.65c1.65,0.55,4.65-2.33,4.65-2.33l1.55-10.86l7.86,27.17l43.34-34.15L367.29,726.94z
			"/>
		<path class="st5" d="M560.46,774.25l5.82,106.67l-5.43,5.82l1.16,5.43l-10.08,36.85l-3.1-2.72l3.1,9.7
			c-7.11,3.15-14.22,5.67-21.33,2.72l-3.1-2.33l3.1-6.98l5.82-15.51l8.92-26.76v-12.41l-8.15-15.9c0,0-10.01-5.42-12.8-10.08
			c-1.15-1.92-29.08,1.32-43.44,1.94c-14.82,0.63-44.22-5.04-44.22-5.04l-46.54-104.34L560.46,774.25z"/>
		<path class="st6" d="M377.38,923.98c0,0-3.84,3.75-4.65,6.21c-0.82,2.45,0,7.76,0,7.76s7.73,1.42,11.64,1.55
			c3.89,0.13,11.64-0.78,11.64-0.78l-0.78-13.19c2.15-16.92,12.7-53.26,22.5-68.27l-22.5-23.27c-8.17,27.87-10.93,54.81-10.86,68.27
			L377.38,923.98z"/>
		<path class="st5" d="M440.22,836.32l-4.65,13.58l-3.88,22.88l-0.39,16.68l-0.78,8.92l-1.55,5.04l0.39,13.96l1.94,11.25l0.78,10.47
			c0,0-2.63,7.68-5.82,9.7c-5.49,3.48-13.35,4.33-19.39,1.94c-2.56-1.01-5.22-3.47-5.43-6.21c-0.45-5.79,9.31-14.74,9.31-14.74
			V910.4l-2.72-13.19l-3.49-29.09l-1.55-20.17l-25.21-14.35l-12.8-9.31l-3.1-2.33l-5.04-11.64l0.39-4.65l-3.1-8.92l-16.68-24.82
			l39.95-32.58l36.07,12.02L440.22,836.32z"/>
		<path class="st5" d="M491.23,895.6"/>
		<path class="st6" d="M524.39,848.73c3.41-0.14-33.58-5.42,3.41-0.14s38.47,7.12,38.47,7.12v25.21l-4.93,8.17l-9.42,39.93
			l-3.1-2.72l2.25,13.2l-20.48-0.79l12.82-45.84l2.43-11.99l-4.75-12.82l-7.12-10.92L524.39,848.73z"/>
		<path class="st7" d="M623.61,741.29c-7.24,19.31-28.96,19.31-44.25,12.87l7.24,20.92c4.16,4.56,8.79,7.2,13.48,8.37
			c0.29,0.05,0.58,0.11,0.86,0.19c3.1-0.87,6.47-0.81,9.49,0.15C629.8,780.37,644.74,755.56,623.61,741.29z"/>
		<path class="st5" d="M596.53,930.19l-2.33-24.05l-2.72-10.86c0,0,2.79-12.62,1.16-18.62c-1.76-6.47-11.25-16.68-11.25-16.68
			l-3.49-20.56v-8.15l5.82-29.87h0.08c0.05-1.93,0.16-3.85,0.38-5.78c0.12-1.11,0.51-2.03,1.07-2.77l-0.37-0.37l0.55,0.15
			c0.54-0.63,1.2-1.13,1.96-1.5c2.13-4.08,5.28-7.39,10.09-7.81c1.34-0.12,2.54,0.03,3.65,0.35c0.55-0.11,1.1-0.16,1.64-0.15
			l-4.46-10.82l-8-19.41c0,0-15.35-17.92-25.21-24.05c-4.79-2.98-6.5-2.21-12.14-2.06c-5.91,0.16-14.23,2.23-20.05,3.22
			c-3.71,0.63-7.49-0.78-11.25-0.78c-14.26,0.03-28.49,1.59-42.67,3.1c-17.53,1.87-34.94,10.04-52.36,7.37
			c-2.97-0.46-5.21-3.22-8.15-3.88c-6.31-1.42-12.95-0.47-19.39,0c-6.26,0.45-17.89-3.51-18.62,2.72l0,0
			c-5.49,47.1,132.27,52.36,132.27,52.36l53.53,89.98l4.27,4.27l6.21,15.13c0,0,4.42,30.5,3.49,45.77c-0.2,3.29-4.14,7.25-1.94,9.7
			c3.82,4.25,11.84,0.75,17.07-1.55c3.52-1.55,5.13-2.81,5.22-6.65c0.03-1.1,1.57-2.5,0.98-3.43
			C598.88,940.25,596.53,930.19,596.53,930.19z"/>
	</g>
	<path class="st8" d="M213.64,426.14c0,0,0.59-0.12,1.6-0.37c0.5-0.16,1.14-0.14,1.83-0.22c0.69-0.09,1.52-0.02,2.39-0.06
		c1.77,0.02,3.82,0.15,6.1,0.1c0.56,0.01,1.14-0.04,1.74-0.1c0.59-0.06,1.19-0.07,1.79-0.24c0.61-0.15,1.19-0.23,1.84-0.44
		l1.68-0.59c1.13-0.52,2.29-1.07,3.28-1.75c0.53-0.3,1.01-0.67,1.46-1.06c0.46-0.38,0.93-0.73,1.32-1.16
		c0.4-0.42,0.83-0.8,1.18-1.22c0.34-0.44,0.67-0.86,1-1.28c0.61-0.85,1.13-1.7,1.55-2.51c0.38-0.8,0.81-1.58,0.98-2.29
		c0.22-0.69,0.42-1.29,0.55-1.8c0.27-1.01,0.4-1.6,0.4-1.6s-0.27,0.53-0.71,1.47c-0.21,0.47-0.5,1.03-0.83,1.68
		c-0.29,0.68-0.79,1.26-1.24,2.03c-0.49,0.72-1.08,1.46-1.71,2.22c-0.34,0.36-0.68,0.73-1.03,1.11c-0.37,0.36-0.77,0.7-1.16,1.07
		c-0.38,0.38-0.84,0.68-1.28,1.01c-0.44,0.33-0.89,0.65-1.38,0.93c-0.95,0.62-1.95,1.07-2.98,1.54l-1.66,0.62
		c-0.47,0.17-1.06,0.27-1.58,0.41c-1.08,0.23-2.19,0.38-3.28,0.45c-2.17,0.17-4.28,0.22-6.07,0.43c-0.9,0.14-1.71,0.19-2.45,0.42
		c-0.72,0.21-1.36,0.31-1.83,0.54C214.17,425.87,213.64,426.14,213.64,426.14z"/>
	<g>
		<path class="st7" d="M435.72,542.67c0,0-0.46-0.77-1.32-2.08c-0.43-0.65-0.96-1.45-1.56-2.35c-0.15-0.23-0.31-0.46-0.46-0.7
			l-0.12-0.18c0,0-0.09-0.13-0.01-0.02l-0.05-0.1l-0.19-0.41c-0.26-0.55-0.53-1.13-0.82-1.74c-0.58-1.21-1.2-2.51-1.86-3.9
			c-0.49-1.41-1.02-2.89-1.56-4.43c-0.65-1.48-0.83-3.22-1.33-4.86c-0.49-1.65-0.77-3.38-1.02-5.12c-0.32-1.72-0.62-3.45-0.73-5.19
			c-0.13-1.73-0.44-3.41-0.49-5.08c-0.12-1.66-0.23-3.26-0.34-4.78c-0.09-1.53-0.17-2.97-0.25-4.31c-0.19-2.67-0.36-4.9-0.47-6.46
			c-0.13-1.56-0.23-2.45-0.23-2.45s-0.41,3.56-0.7,8.92c-0.17,2.68-0.23,5.82-0.16,9.19c-0.01,1.68,0.17,3.43,0.29,5.2
			c0.09,1.77,0.37,3.57,0.67,5.36c0.29,1.79,0.6,3.58,1.14,5.29c0.25,0.86,0.49,1.71,0.73,2.56c0.22,0.85,0.5,1.67,0.87,2.46
			c0.68,1.58,1.34,3.1,1.97,4.55c0.73,1.36,1.53,2.56,2.23,3.71c0.36,0.57,0.7,1.11,1.02,1.63l0.25,0.38l0.06,0.09
			c0.12,0.17,0.08,0.1,0.12,0.15l0.15,0.16c0.2,0.21,0.38,0.42,0.57,0.62c0.73,0.81,1.37,1.51,1.9,2.09
			C435.09,542.03,435.72,542.67,435.72,542.67z"/>
	</g>
	<path class="st8" d="M466.7,444.44c0,0-0.52-0.66-1.48-1.78c-0.51-0.54-0.89-1.35-1.44-2.17c-0.55-0.81-0.98-1.91-1.59-2.97
		c-1.1-2.24-2.22-4.92-3.72-7.76c-0.35-0.71-0.77-1.42-1.22-2.13c-0.45-0.71-0.84-1.46-1.43-2.11c-0.57-0.68-1.04-1.36-1.72-2.04
		l-1.81-1.74c-1.37-1.1-2.79-2.21-4.28-3.04c-0.72-0.48-1.48-0.85-2.26-1.18c-0.77-0.34-1.51-0.72-2.3-0.94
		c-0.78-0.24-1.53-0.54-2.29-0.72c-0.77-0.15-1.52-0.3-2.25-0.45c-1.46-0.23-2.87-0.35-4.15-0.37c-1.25,0.03-2.51-0.02-3.51,0.21
		c-1.01,0.17-1.9,0.29-2.62,0.45c-1.45,0.3-2.27,0.5-2.27,0.5s0.84,0.01,2.31-0.03c0.73-0.04,1.62-0.02,2.65-0.02
		c1.04-0.06,2.09,0.2,3.35,0.28c1.22,0.16,2.52,0.44,3.88,0.75c0.67,0.2,1.36,0.4,2.06,0.6c0.69,0.24,1.38,0.53,2.08,0.79
		c0.72,0.24,1.39,0.63,2.08,0.98c0.7,0.34,1.39,0.71,2.04,1.15c1.39,0.8,2.58,1.79,3.82,2.79l1.84,1.71
		c0.51,0.49,1.01,1.17,1.51,1.74c0.97,1.22,1.86,2.52,2.64,3.85c1.59,2.63,2.98,5.26,4.37,7.39c0.75,1.05,1.33,2.04,2.07,2.82
		c0.72,0.77,1.25,1.53,1.84,1.97C466.03,443.93,466.7,444.44,466.7,444.44z"/>
	<path class="st7" d="M329.12,486.9c-1.57,3.46-2.94,7-4.15,10.63c-0.61,1.81-1.07,3.67-1.53,5.53l-0.57,2.82l-0.41,2.87l-0.21,2.9
		c-0.03,0.97,0.02,1.95,0.03,2.93c0.07,0.98,0.24,1.96,0.36,2.94c0.19,0.97,0.49,1.93,0.73,2.9c0.35,0.94,0.77,1.86,1.16,2.79
		c0.53,0.86,1.07,1.73,1.65,2.56c0.69,0.74,1.36,1.52,2.08,2.23l2.42,1.84l0.01,0.01c0.52,0.4,1.27,0.3,1.67-0.23
		c0.39-0.51,0.3-1.24-0.2-1.65c-0.72-0.59-1.44-1.21-2.19-1.75c-0.77-0.46-1.54-0.93-2.32-1.36l-4.64-2.25l-0.14-0.07
		c-0.54-0.26-1.2-0.04-1.46,0.51c-0.06,0.13-0.1,0.26-0.11,0.39c-0.05,0.59-0.13,1.19-0.11,1.78c0.1,0.57,0.13,1.18,0.31,1.72
		c0.21,0.53,0.35,1.11,0.64,1.58c0.29,0.47,0.52,1,0.87,1.41c0.35,0.42,0.65,0.89,1.04,1.25c0.39,0.37,0.75,0.78,1.16,1.11
		c0.81,0.7,1.68,1.29,2.58,1.85l0.14,0.08c0.5,0.31,1.15,0.15,1.46-0.35c0.29-0.48,0.16-1.1-0.28-1.42c-0.59-0.42-1.2-0.92-1.8-1.25
		c-0.59-0.28-1.2-0.6-1.79-0.85c-0.57-0.25-1.16-0.49-1.71-0.75l-1.58-0.83l-0.16-0.08c-0.35-0.18-0.77-0.08-1.01,0.22l-0.98,1.26
		l-0.81,1.35c-0.48,0.92-0.91,1.86-1.24,2.83c-0.68,1.93-1.15,3.89-1.46,5.88c-0.54,3.98-0.69,7.97-0.42,11.93
		c0.26-3.96,0.65-7.9,1.55-11.72c0.45-1.9,0.98-3.78,1.72-5.55c0.36-0.89,0.81-1.73,1.28-2.54l0.79-1.16l0.9-1.04l-1.17,0.14
		l1.73,1.03c0.58,0.31,1.15,0.58,1.72,0.87l1.61,0.84c0.29,0.13,0.44,0.32,0.67,0.47l0.64,0.47l1.31-1.68
		c-0.78-0.51-1.53-1.06-2.21-1.68c-0.35-0.3-0.64-0.65-0.96-0.97c-0.33-0.32-0.55-0.71-0.83-1.06c-0.29-0.35-0.43-0.76-0.67-1.13
		c-0.23-0.37-0.3-0.79-0.46-1.18c-0.14-0.4-0.13-0.8-0.21-1.2c0-0.4,0.07-0.79,0.08-1.19l-1.7,0.83l4.57,2.27l2.11,1.23
		c0.63,0.46,1.21,0.96,1.83,1.43l1.49-1.87l-2.12-1.59c-0.63-0.61-1.2-1.27-1.82-1.9l-1.47-2.19c-0.35-0.81-0.75-1.61-1.09-2.43
		c-0.24-0.86-0.53-1.71-0.73-2.59c-0.13-0.9-0.32-1.78-0.41-2.69c-0.05-0.91-0.15-1.83-0.17-2.75l0.05-2.77l0.24-2.78l0.41-2.77
		c0.32-1.85,0.74-3.68,1.16-5.51C326.88,494.14,328.02,490.54,329.12,486.9z"/>
	<g>
		<path class="st7" d="M287.4,552.51c0,0,0.01-0.77,0.03-2.11c-0.02-1.34,0.05-3.26-0.04-5.56c-0.07-2.3-0.15-4.97-0.23-7.84
			c-0.06-1.43-0.11-2.91-0.11-4.41c-0.02-1.5-0.03-3.02-0.05-4.54c0.05-1.52,0.09-3.03,0.14-4.53c0-1.5,0.22-2.95,0.34-4.37
			c0.17-1.41,0.17-2.8,0.46-4.07c0.23-1.28,0.45-2.5,0.65-3.62c0.16-1.14,0.47-2.13,0.72-3.03c0.25-0.9,0.46-1.68,0.64-2.32
			c0.34-1.3,0.53-2.05,0.53-2.05s-0.3,0.7-0.83,1.94c-0.26,0.62-0.57,1.38-0.92,2.25c-0.36,0.87-0.8,1.85-1.03,2.98
			c-0.29,1.12-0.6,2.34-0.93,3.63c-0.39,1.28-0.51,2.68-0.72,4.12c-0.16,1.44-0.48,2.92-0.48,4.44c-0.06,1.52-0.13,3.06-0.2,4.61
			c0.04,1.54,0.07,3.08,0.11,4.6c0.01,1.52,0.15,3,0.26,4.44c0.2,2.88,0.52,5.54,0.75,7.82c0.27,2.28,0.49,4.19,0.64,5.52
			C287.3,551.75,287.4,552.51,287.4,552.51z"/>
	</g>
	<path class="st9" d="M231.88,363.89c4.87-13.76,22.64-25.79,36.69-30.38c-21.21,0.57-43.56,10.61-45.28,33.82
		c2.87,2.29,5.73,1.02,7.16,0L231.88,363.89z"/>
	<path class="st9" d="M207.41,357.85c3.99-11.27,18.56-21.14,30.06-24.89c-17.38,0.47-35.7,8.69-37.11,27.71
		c2.35,1.88,4.7,0.83,5.87,0L207.41,357.85z"/>
	<path class="st10" d="M199.73,377.75c-0.13,0.04-0.27,0.08-0.41,0.15c-1.26,0.58-1.61,2.16-1.79,3.4c-0.31,2.1-0.31,7.75,3.34,6.9
		c3.69-0.87,2.37-6.53,1.4-8.81C201.79,378.27,200.94,377.43,199.73,377.75z"/>
	<path class="st10" d="M218.29,377.75c-0.13,0.04-0.27,0.08-0.41,0.15c-1.26,0.58-1.61,2.16-1.79,3.4c-0.31,2.1-0.31,7.75,3.34,6.9
		c3.69-0.87,2.37-6.53,1.4-8.81C220.34,378.27,219.5,377.43,218.29,377.75z"/>
	<path class="st8" d="M193.73,399.5c0,0,0.33-0.13,0.8-0.26c0.48-0.13,1.1-0.25,1.75-0.29c1.3-0.08,2.62,0.28,3.53,1.09
		c0.89,0.62,1.37,1.72,1.51,2.99c0.07,0.63,0.07,1.26,0.05,1.76c-0.02,0.49-0.07,0.85-0.07,0.85s-0.3,0.18-0.75,0.35
		c-0.46,0.18-1.07,0.37-1.74,0.46c-1.34,0.19-2.82-0.15-3.9-0.97c-0.91-0.82-1.4-2.09-1.46-3.4c-0.03-0.65,0.03-1.28,0.11-1.77
		C193.63,399.84,193.73,399.5,193.73,399.5z"/>
	<path class="st8" d="M210.8,415.37c0,0-1.29,0.75-3.3,1.57c-1.97,0.89-4.89,1.5-7.73,2.08c-1.41,0.24-2.82,0.49-4.16,0.64
		c-1.35,0.13-2.56,0.36-3.64,0.45c-2.14,0.24-3.66,0.2-3.66,0.2s1.27-0.74,3.32-1.56c1.02-0.41,2.23-0.9,3.55-1.2
		c1.31-0.35,2.73-0.64,4.15-0.93c1.42-0.24,2.79-0.48,4.13-0.62c1.33-0.14,2.58-0.26,3.67-0.41
		C209.3,415.33,210.8,415.37,210.8,415.37z"/>
</g>
</svg>
