<?xml version="1.0" encoding="UTF-8"?>
<svg viewBox="0 0 250 375" xmlns="http://www.w3.org/2000/svg">
 <defs>
  <clipPath id="a">
   <path d="m294.29 388.08c7.3226 3.5645 13.818 8.9646 19.286 15 8.693 9.5949 14.409 21.549 20.714 32.857 5.8076 10.417 8.9525 22.319 15.714 32.143 8.3095 12.073 21.539 20.176 30 32.143 11.312 16 22.023 33.229 27.143 52.143 5.1072 18.868 6.9833 39.465 2.8571 58.571-4.2933 19.88-14.049 39.352-27.857 54.286-13.862 14.992-32.849 25.462-52.143 32.143-13.814 4.7833-28.972 5.7515-43.571 5-16.558-0.85229-33.424-3.9737-48.571-10.714-18.713-8.327-37.696-19.34-50-35.714-8.188-10.896-10.883-25.209-13.571-38.571-2.3992-11.925-3.431-24.333-2.1428-36.429 0.94205-8.846 3.9854-17.397 7.1428-25.714 4.2329-11.15 11.627-20.939 15.714-32.143 5.0472-13.833 7.7774-28.428 10.714-42.857 2.7403-13.464 2.581-27.524 6.4286-40.714 2.8366-9.7242 5.8254-19.939 12.143-27.857 3.5045-4.3925 8.5716-7.4353 13.571-10 7.5705-3.8834 16.54-4.3361 24.286-7.8572 5.0554-2.2981 8.8564-7.4048 14.286-8.5714 3.9846-0.85618 8.1339 0.69475 12.143 1.4286 1.9313 0.35352 3.9489 0.56925 5.7143 1.4286z"/>
  </clipPath>
  <filter id="q" x="-.31069" y="-.42791" width="1.6214" height="1.8558">
   <feGaussianBlur stdDeviation="13.36009"/>
  </filter>
  <filter id="p" x="-.41725" y="-.56497" width="1.8345" height="2.1299">
   <feGaussianBlur stdDeviation="30.10599"/>
  </filter>
  <filter id="o" x="-.69592" y="-.52732" width="2.3918" height="2.0546">
   <feGaussianBlur stdDeviation="69.78668"/>
  </filter>
  <filter id="n" x="-.1664" y="-.09383" width="1.3328" height="1.1877">
   <feGaussianBlur stdDeviation="5.71621"/>
  </filter>
  <filter id="m" x="-.16246" y="-.06813" width="1.3249" height="1.1363">
   <feGaussianBlur stdDeviation="7.37082"/>
  </filter>
  <filter id="l" x="-.07305" y="-.33593" width="1.1461" height="1.6719">
   <feGaussianBlur stdDeviation="2.9184"/>
  </filter>
  <filter id="k" x="-.29558" y="-.46764" width="1.5912" height="1.9353">
   <feGaussianBlur stdDeviation="1.67143"/>
  </filter>
  <filter id="j" x="-.80229" y="-.432" width="2.6046" height="1.864">
   <feGaussianBlur stdDeviation="1.67143"/>
  </filter>
  <filter id="i" x="-.25527" y="-.35603" width="1.5106" height="1.7121">
   <feGaussianBlur stdDeviation="1.67143"/>
  </filter>
  <filter id="h" x="-.33035" y="-.37423" width="1.6607" height="1.7485">
   <feGaussianBlur stdDeviation="1.67143"/>
  </filter>
  <filter id="g" x="-.25527" y="-.67449" width="1.5106" height="2.349">
   <feGaussianBlur stdDeviation="1.67143"/>
  </filter>
  <filter id="f" x="-.19585" y="-.30985" width="1.3917" height="1.6197">
   <feGaussianBlur stdDeviation="1.10747"/>
  </filter>
  <filter id="e" x="-.08271" y="-.21853" width="1.1654" height="1.4371">
   <feGaussianBlur stdDeviation=".54154"/>
  </filter>
  <filter id="d" x="-1.0129" y="-.21745" width="3.0258" height="1.4349">
   <feGaussianBlur stdDeviation="1.22961"/>
  </filter>
  <filter id="c" x="-.49079" y="-.11021" width="1.9816" height="1.2204">
   <feGaussianBlur stdDeviation="2.01931"/>
  </filter>
  <linearGradient id="b" x1="249.64" x2="254.79" y1="370.62" y2="369.37" gradientUnits="userSpaceOnUse">
   <stop stop-color="#895c27" offset="0"/>
   <stop stop-color="#9d6d3a" offset=".5"/>
   <stop stop-color="#895c27" offset="1"/>
  </linearGradient>
 </defs>
 <g transform="matrix(1.0036 0 0 1.0036 -172.2 -338.71)">
  <path d="m294.29 388.08c7.3226 3.5645 13.818 8.9646 19.286 15 8.693 9.5949 14.409 21.549 20.714 32.857 5.8076 10.417 8.9525 22.319 15.714 32.143 8.3095 12.073 21.539 20.176 30 32.143 11.312 16 22.023 33.229 27.143 52.143 5.1072 18.868 6.9833 39.465 2.8571 58.571-4.2933 19.88-14.049 39.352-27.857 54.286-13.862 14.992-32.849 25.462-52.143 32.143-13.814 4.7833-28.972 5.7515-43.571 5-16.558-0.85229-33.424-3.9737-48.571-10.714-18.713-8.327-37.696-19.34-50-35.714-8.188-10.896-10.883-25.209-13.571-38.571-2.3992-11.925-3.431-24.333-2.1428-36.429 0.94205-8.846 3.9854-17.397 7.1428-25.714 4.2329-11.15 11.627-20.939 15.714-32.143 5.0472-13.833 7.7774-28.428 10.714-42.857 2.7403-13.464 2.581-27.524 6.4286-40.714 2.8366-9.7242 5.8254-19.939 12.143-27.857 3.5045-4.3925 8.5716-7.4353 13.571-10 7.5705-3.8834 16.54-4.3361 24.286-7.8572 5.0554-2.2981 8.8564-7.4048 14.286-8.5714 3.9846-0.85618 8.1339 0.69475 12.143 1.4286 1.9313 0.35352 3.9489 0.56925 5.7143 1.4286z" fill="#989f16"/>
  <path d="m265.71 432.36c-31.429 22.857-42.143-7.1429-31.429 22.857s-27.143 41.429 14.286 44.286 46.429 7.8571 60.714 0 28.571-4.2857 20-22.143-17.857-25-24.286-30.714-33.571-17.857-33.571-17.857z" fill="#dade66" filter="url(#q)"/>
  <path transform="matrix(.57729 0 0 .60929 155.15 196.61)" d="m283.57 549.51c-53.571 10.714-54.286-32.143-57.857 10.714s-21.429 33.571-2.8572 57.857 11.429 13.571 40.714 28.571 25.714 32.857 51.429 13.571 19.286-20 37.143-31.429 42.857-6.4286 33.571-27.143-6.4286-10.714-20.714-23.571-18.571-12.857-40-22.143-35.714-7.1429-35.714-7.1429" fill="#dade66" filter="url(#p)"/>
  <path d="m371.29 393.08c7.3226 3.5645 13.818 8.9646 19.286 15 8.693 9.5949 14.409 21.549 20.714 32.857 5.8076 10.417 8.9525 22.319 15.714 32.143 8.3095 12.073 21.539 20.176 30 32.143 11.312 16 22.023 33.229 27.143 52.143 5.1072 18.868 6.9833 39.465 2.8571 58.571-4.2933 19.88-14.049 39.352-27.857 54.286-13.862 14.992-32.849 25.462-52.143 32.143-13.814 4.7833-28.972 5.7515-43.571 5-16.558-0.85229-33.424-3.9737-48.571-10.714-18.713-8.327-37.696-19.34-50-35.714-8.188-10.896-10.883-25.209-13.571-38.571-2.3992-11.925-3.431-24.333-2.1428-36.429 0.94205-8.846 3.9854-17.397 7.1428-25.714 4.2329-11.15 11.627-20.939 15.714-32.143 5.0472-13.833 7.7774-28.428 10.714-42.857 2.7403-13.464 2.581-27.524 6.4286-40.714 2.8366-9.7242 5.8254-19.939 12.143-27.857 3.5045-4.3925 8.5716-7.4353 13.571-10 7.5705-3.8834 16.54-4.3361 24.286-7.8572 5.0554-2.2981 8.8564-7.4048 14.286-8.5714 3.9846-0.85618 8.1339 0.69475 12.143 1.4286 1.9313 0.35352 3.9489 0.56925 5.7143 1.4286z" clip-path="url(#a)" fill="#dade66" filter="url(#o)"/>
  <path d="m226.02163,463.19071c-.81919.28296-1.70221,1.52588-1.26269,2.27285 .4269.72552 1.85002.5025 2.52539,0 .25072-.18654.49067-.47487.6703-.79918 .32554-.58775-.36778-.53609-.73344-.96859-.43817-.51826-.78948-.64673-1.19956-.50508z" fill="#a09610"/>
  <path d="m217.94041,492.99021c-.81919.28296-1.70221,1.52588-1.26269,2.27285 .4269.72552 1.85002.5025 2.52539,0 .25072-.18654.49067-.47487.6703-.79918 .32554-.58775-.36778-.53609-.73344-.96859-.43817-.51826-.78948-.64673-1.19956-.50508z" fill="#a09610"/>
  <path d="m231.07239,473.29223c-.81919.28296-1.70221,1.52588-1.26269,2.27285 .4269.72552 1.85002.5025 2.52539,0 .25072-.18654.49067-.47487.6703-.79918 .32554-.58775-.36778-.53609-.73344-.96859-.43817-.51826-.78948-.64673-1.19956-.50508z" fill="#a09610"/>
  <path d="m231.07239,484.40391c-.81919.28296-1.70221,1.52588-1.26269,2.27285 .4269.72552 1.85002.5025 2.52539,0 .25072-.18654.49067-.47487.6703-.79918 .32554-.58775-.36778-.53609-.73344-.96859-.43817-.51826-.78948-.64673-1.19956-.50508z" fill="#a09610"/>
  <path d="m225.07239,510.40391c-.81919.28296-1.70221,1.52588-1.26269,2.27285 .4269.72552 1.85002.5025 2.52539,0 .25072-.18654.49067-.47487.6703-.79918 .32554-.58775-.36778-.53609-.73344-.96859-.43817-.51826-.78948-.64673-1.19956-.50508z" fill="#a09610"/>
  <path d="m209.07239,522.40391c-.81919.28296-1.70221,1.52588-1.26269,2.27285 .4269.72552 1.85002.5025 2.52539,0 .25072-.18654.49067-.47487.6703-.79918 .32554-.58775-.36778-.53609-.73344-.96859-.43817-.51826-.78948-.64673-1.19956-.50508z" fill="#a09610"/>
  <path d="m209.07239,536.40391c-.81919.28296-1.70221,1.52588-1.26269,2.27285 .4269.72552 1.85002.5025 2.52539,0 .25072-.18654.49067-.47487.6703-.79918 .32554-.58775-.36778-.53609-.73344-.96859-.43817-.51826-.78948-.64673-1.19956-.50508z" fill="#a09610"/>
  <path d="m227.07239,536.40391c-.81919.28296-1.70221,1.52588-1.26269,2.27285 .4269.72552 1.85002.5025 2.52539,0 .25072-.18654.49067-.47487.6703-.79918 .32554-.58775-.36778-.53609-.73344-.96859-.43817-.51826-.78948-.64673-1.19956-.50508z" fill="#a09610"/>
  <path d="m227.07239,544.40391c-.81919.28296-1.70221,1.52588-1.26269,2.27285 .4269.72552 1.85002.5025 2.52539,0 .25072-.18654.49067-.47487.6703-.79918 .32554-.58775-.36778-.53609-.73344-.96859-.43817-.51826-.78948-.64673-1.19956-.50508z" fill="#a09610"/>
  <path d="m201.07239,544.40391c-.81919.28296-1.70221,1.52588-1.26269,2.27285 .4269.72552 1.85002.5025 2.52539,0 .25072-.18654.49067-.47487.6703-.79918 .32554-.58775-.36778-.53609-.73344-.96859-.43817-.51826-.78948-.64673-1.19956-.50508z" fill="#a09610"/>
  <path d="m201.07239,562.40391c-.81919.28296-1.70221,1.52588-1.26269,2.27285 .4269.72552 1.85002.5025 2.52539,0 .25072-.18654.49067-.47487.6703-.79918 .32554-.58775-.36778-.53609-.73344-.96859-.43817-.51826-.78948-.64673-1.19956-.50508z" fill="#a09610"/>
  <path d="m201.07239,580.40391c-.81919.28296-1.70221,1.52588-1.26269,2.27285 .4269.72552 1.85002.5025 2.52539,0 .25072-.18654.49067-.47487.6703-.79918 .32554-.58775-.36778-.53609-.73344-.96859-.43817-.51826-.78948-.64673-1.19956-.50508z" fill="#a09610"/>
  <path d="m185.07239,580.40391c-.81919.28296-1.70221,1.52588-1.26269,2.27285 .4269.72552 1.85002.5025 2.52539,0 .25072-.18654.49067-.47487.6703-.79918 .32554-.58775-.36778-.53609-.73344-.96859-.43817-.51826-.78948-.64673-1.19956-.50508z" fill="#a09610"/>
  <path d="m185.07239,566.40391c-.81919.28296-1.70221,1.52588-1.26269,2.27285 .4269.72552 1.85002.5025 2.52539,0 .25072-.18654.49067-.47487.6703-.79918 .32554-.58775-.36778-.53609-.73344-.96859-.43817-.51826-.78948-.64673-1.19956-.50508z" fill="#a09610"/>
  <path d="m207.07239,566.40391c-.81919.28296-1.70221,1.52588-1.26269,2.27285 .4269.72552 1.85002.5025 2.52539,0 .25072-.18654.49067-.47487.6703-.79918 .32554-.58775-.36778-.53609-.73344-.96859-.43817-.51826-.78948-.64673-1.19956-.50508z" fill="#a09610"/>
  <path d="m219.07239,568.40391c-.81919.28296-1.70221,1.52588-1.26269,2.27285 .4269.72552 1.85002.5025 2.52539,0 .25072-.18654.49067-.47487.6703-.79918 .32554-.58775-.36778-.53609-.73344-.96859-.43817-.51826-.78948-.64673-1.19956-.50508z" fill="#a09610"/>
  <path d="m219.07239,580.40391c-.81919.28296-1.70221,1.52588-1.26269,2.27285 .4269.72552 1.85002.5025 2.52539,0 .25072-.18654.49067-.47487.6703-.79918 .32554-.58775-.36778-.53609-.73344-.96859-.43817-.51826-.78948-.64673-1.19956-.50508z" fill="#a09610"/>
  <path d="m233.07239,580.40391c-.81919.28296-1.70221,1.52588-1.26269,2.27285 .4269.72552 1.85002.5025 2.52539,0 .25072-.18654.49067-.47487.6703-.79918 .32554-.58775-.36778-.53609-.73344-.96859-.43817-.51826-.78948-.64673-1.19956-.50508z" fill="#a09610"/>
  <path d="m235.07239,594.40391c-.81919.28296-1.70221,1.52588-1.26269,2.27285 .4269.72552 1.85002.5025 2.52539,0 .25072-.18654.49067-.47487.6703-.79918 .32554-.58775-.36778-.53609-.73344-.96859-.43817-.51826-.78948-.64673-1.19956-.50508z" fill="#a09610"/>
  <path d="m235.07239,564.40391c-.81919.28296-1.70221,1.52588-1.26269,2.27285 .4269.72552 1.85002.5025 2.52539,0 .25072-.18654.49067-.47487.6703-.79918 .32554-.58775-.36778-.53609-.73344-.96859-.43817-.51826-.78948-.64673-1.19956-.50508z" fill="#a09610"/>
  <path d="m259.07239,564.40391c-.81919.28296-1.70221,1.52588-1.26269,2.27285 .4269.72552 1.85002.5025 2.52539,0 .25072-.18654.49067-.47487.6703-.79918 .32554-.58775-.36778-.53609-.73344-.96859-.43817-.51826-.78948-.64673-1.19956-.50508z" fill="#a09610"/>
  <path d="m259.07239,546.40391c-.81919.28296-1.70221,1.52588-1.26269,2.27285 .4269.72552 1.85002.5025 2.52539,0 .25072-.18654.49067-.47487.6703-.79918 .32554-.58775-.36778-.53609-.73344-.96859-.43817-.51826-.78948-.64673-1.19956-.50508z" fill="#a09610"/>
  <path d="m259.07239,522.40391c-.81919.28296-1.70221,1.52588-1.26269,2.27285 .4269.72552 1.85002.5025 2.52539,0 .25072-.18654.49067-.47487.6703-.79918 .32554-.58775-.36778-.53609-.73344-.96859-.43817-.51826-.78948-.64673-1.19956-.50508z" fill="#a09610"/>
  <path d="m261.07239,508.40391c-.81919.28296-1.70221,1.52588-1.26269,2.27285 .4269.72552 1.85002.5025 2.52539,0 .25072-.18654.49067-.47487.6703-.79918 .32554-.58775-.36778-.53609-.73344-.96859-.43817-.51826-.78948-.64673-1.19956-.50508z" fill="#a09610"/>
  <path d="m263.07239,484.40391c-.81919.28296-1.70221,1.52588-1.26269,2.27285 .4269.72552 1.85002.5025 2.52539,0 .25072-.18654.49067-.47487.6703-.79918 .32554-.58775-.36778-.53609-.73344-.96859-.43817-.51826-.78948-.64673-1.19956-.50508z" fill="#a09610"/>
  <path d="m257.07239,478.40391c-.81919.28296-1.70221,1.52588-1.26269,2.27285 .4269.72552 1.85002.5025 2.52539,0 .25072-.18654.49067-.47487.6703-.79918 .32554-.58775-.36778-.53609-.73344-.96859-.43817-.51826-.78948-.64673-1.19956-.50508z" fill="#a09610"/>
  <path d="m255.07239,442.40391c-.81919.28296-1.70221,1.52588-1.26269,2.27285 .4269.72552 1.85002.5025 2.52539,0 .25072-.18654.49067-.47487.6703-.79918 .32554-.58775-.36778-.53609-.73344-.96859-.43817-.51826-.78948-.64673-1.19956-.50508z" fill="#a09610"/>
  <path d="m253.07239,420.40391c-.81919.28296-1.70221,1.52588-1.26269,2.27285 .4269.72552 1.85002.5025 2.52539,0 .25072-.18654.49067-.47487.6703-.79918 .32554-.58775-.36778-.53609-.73344-.96859-.43817-.51826-.78948-.64673-1.19956-.50508z" fill="#a09610"/>
  <path d="m277.07239,420.40391c-.81919.28296-1.70221,1.52588-1.26269,2.27285 .4269.72552 1.85002.5025 2.52539,0 .25072-.18654.49067-.47487.6703-.79918 .32554-.58775-.36778-.53609-.73344-.96859-.43817-.51826-.78948-.64673-1.19956-.50508z" fill="#a09610"/>
  <path d="m297.07239,420.40391c-.81919.28296-1.70221,1.52588-1.26269,2.27285 .4269.72552 1.85002.5025 2.52539,0 .25072-.18654.49067-.47487.6703-.79918 .32554-.58775-.36778-.53609-.73344-.96859-.43817-.51826-.78948-.64673-1.19956-.50508z" fill="#a09610"/>
  <path d="m321.07239,424.40391c-.81919.28296-1.70221,1.52588-1.26269,2.27285 .4269.72552 1.85002.5025 2.52539,0 .25072-.18654.49067-.47487.6703-.79918 .32554-.58775-.36778-.53609-.73344-.96859-.43817-.51826-.78948-.64673-1.19956-.50508z" fill="#a09610"/>
  <path d="m313.07239,414.40391c-.81919.28296-1.70221,1.52588-1.26269,2.27285 .4269.72552 1.85002.5025 2.52539,0 .25072-.18654.49067-.47487.6703-.79918 .32554-.58775-.36778-.53609-.73344-.96859-.43817-.51826-.78948-.64673-1.19956-.50508z" fill="#a09610"/>
  <path d="m305.07239,406.40391c-.81919.28296-1.70221,1.52588-1.26269,2.27285 .4269.72552 1.85002.5025 2.52539,0 .25072-.18654.49067-.47487.6703-.79918 .32554-.58775-.36778-.53609-.73344-.96859-.43817-.51826-.78948-.64673-1.19956-.50508z" fill="#a09610"/>
  <path d="m291.07239,400.40391c-.81919.28296-1.70221,1.52588-1.26269,2.27285 .4269.72552 1.85002.5025 2.52539,0 .25072-.18654.49067-.47487.6703-.79918 .32554-.58775-.36778-.53609-.73344-.96859-.43817-.51826-.78948-.64673-1.19956-.50508z" fill="#a09610"/>
  <path d="m289.07239,392.40391c-.81919.28296-1.70221,1.52588-1.26269,2.27285 .4269.72552 1.85002.5025 2.52539,0 .25072-.18654.49067-.47487.6703-.79918 .32554-.58775-.36778-.53609-.73344-.96859-.43817-.51826-.78948-.64673-1.19956-.50508z" fill="#a09610"/>
  <path d="m289.07239,404.40391c-.81919.28296-1.70221,1.52588-1.26269,2.27285 .4269.72552 1.85002.5025 2.52539,0 .25072-.18654.49067-.47487.6703-.79918 .32554-.58775-.36778-.53609-.73344-.96859-.43817-.51826-.78948-.64673-1.19956-.50508z" fill="#a09610"/>
  <path d="m289.07239,404.40391c-.81919.28296-1.70221,1.52588-1.26269,2.27285 .4269.72552 1.85002.5025 2.52539,0 .25072-.18654.49067-.47487.6703-.79918 .32554-.58775-.36778-.53609-.73344-.96859-.43817-.51826-.78948-.64673-1.19956-.50508z" fill="#a09610"/>
  <path d="m312.14 688.71c-0.0525-0.326 0.4742-0.73353 1.5092-1.2343s2.5789-1.0953 4.55-1.8371c3.9422-1.4836 9.6304-3.5233 16.092-6.9638 5.3406-2.8391 11.221-6.6838 16.769-11.888 4.3056-4.0056 8.373-8.8614 12.023-14.472s6.8843-11.975 9.6187-18.787c0.30808-0.77103 0.61011-1.5478 0.90619-2.3302 2.6649-7.0414 4.695-14.121 6.3497-21.002s2.9361-13.561 4.0408-19.823c1.2188-6.9457 2.195-13.386 3.0613-19.129s1.6221-10.787 2.3254-14.949c1.4065-8.325 2.6183-13.114 3.5672-13.047s1.5141 4.9691 1.6149 13.449c0.0504 4.2401-0.0198 9.3764-0.28989 15.253s-0.73968 12.493-1.563 19.682c-0.73554 6.4747-1.7605 13.442-3.3018 20.701s-3.6022 14.81-6.4544 22.392c-0.31689 0.84243-0.6415 1.6797-0.97387 2.5116-2.9501 7.4154-6.6536 14.364-10.932 20.47s-9.1298 11.367-14.25 15.628c-6.6308 5.4767-13.52 9.1626-19.68 11.559h-1e-5c-3.7218 1.4451-7.1684 2.4351-10.218 3.1225s-5.7043 1.0726-7.8802 1.2688-3.8743 0.20369-5.038 0.0923-1.7934-0.34139-1.8459-0.66739z" fill="#989f16" fill-rule="evenodd" filter="url(#n)"/>
  <path d="m242.18407,561.68058c-.81919.28296-1.70221,1.52588-1.26269,2.27285 .4269.72552 1.85002.5025 2.52539,0 .25072-.18654.49067-.47487.6703-.79918 .32554-.58775-.36778-.53609-.73344-.96859-.43817-.51826-.78948-.64673-1.19956-.50508z" fill="#a09610"/>
  <path d="m255.31605,553.09428c-.81919.28296-1.70221,1.52588-1.26269,2.27285 .4269.72552 1.85002.5025 2.52539,0 .25072-.18654.49067-.47487.6703-.79918 .32554-.58775-.36778-.53609-.73344-.96859-.43817-.51826-.78948-.64673-1.19956-.50508z" fill="#a09610"/>
  <path d="m249.31605,579.09428c-.81919.28296-1.70221,1.52588-1.26269,2.27285 .4269.72552 1.85002.5025 2.52539,0 .25072-.18654.49067-.47487.6703-.79918 .32554-.58775-.36778-.53609-.73344-.96859-.43817-.51826-.78948-.64673-1.19956-.50508z" fill="#a09610"/>
  <path d="m233.31605,591.09428c-.81919.28296-1.70221,1.52588-1.26269,2.27285 .4269.72552 1.85002.5025 2.52539,0 .25072-.18654.49067-.47487.6703-.79918 .32554-.58775-.36778-.53609-.73344-.96859-.43817-.51826-.78948-.64673-1.19956-.50508z" fill="#a09610"/>
  <path d="m233.31605,605.09428c-.81919.28296-1.70221,1.52588-1.26269,2.27285 .4269.72552 1.85002.5025 2.52539,0 .25072-.18654.49067-.47487.6703-.79918 .32554-.58775-.36778-.53609-.73344-.96859-.43817-.51826-.78948-.64673-1.19956-.50508z" fill="#a09610"/>
  <path d="m251.31605,605.09428c-.81919.28296-1.70221,1.52588-1.26269,2.27285 .4269.72552 1.85002.5025 2.52539,0 .25072-.18654.49067-.47487.6703-.79918 .32554-.58775-.36778-.53609-.73344-.96859-.43817-.51826-.78948-.64673-1.19956-.50508z" fill="#a09610"/>
  <path d="m251.31605,613.09428c-.81919.28296-1.70221,1.52588-1.26269,2.27285 .4269.72552 1.85002.5025 2.52539,0 .25072-.18654.49067-.47487.6703-.79918 .32554-.58775-.36778-.53609-.73344-.96859-.43817-.51826-.78948-.64673-1.19956-.50508z" fill="#a09610"/>
  <path d="m225.31605,613.09428c-.81919.28296-1.70221,1.52588-1.26269,2.27285 .4269.72552 1.85002.5025 2.52539,0 .25072-.18654.49067-.47487.6703-.79918 .32554-.58775-.36778-.53609-.73344-.96859-.43817-.51826-.78948-.64673-1.19956-.50508z" fill="#a09610"/>
  <path d="m225.31605,631.09428c-.81919.28296-1.70221,1.52588-1.26269,2.27285 .4269.72552 1.85002.5025 2.52539,0 .25072-.18654.49067-.47487.6703-.79918 .32554-.58775-.36778-.53609-.73344-.96859-.43817-.51826-.78948-.64673-1.19956-.50508z" fill="#a09610"/>
  <path d="m225.31605,649.09428c-.81919.28296-1.70221,1.52588-1.26269,2.27285 .4269.72552 1.85002.5025 2.52539,0 .25072-.18654.49067-.47487.6703-.79918 .32554-.58775-.36778-.53609-.73344-.96859-.43817-.51826-.78948-.64673-1.19956-.50508z" fill="#a09610"/>
  <path d="m209.31605,649.09428c-.81919.28296-1.70221,1.52588-1.26269,2.27285 .4269.72552 1.85002.5025 2.52539,0 .25072-.18654.49067-.47487.6703-.79918 .32554-.58775-.36778-.53609-.73344-.96859-.43817-.51826-.78948-.64673-1.19956-.50508z" fill="#a09610"/>
  <path d="m209.31605,635.09428c-.81919.28296-1.70221,1.52588-1.26269,2.27285 .4269.72552 1.85002.5025 2.52539,0 .25072-.18654.49067-.47487.6703-.79918 .32554-.58775-.36778-.53609-.73344-.96859-.43817-.51826-.78948-.64673-1.19956-.50508z" fill="#a09610"/>
  <path d="m231.31605,635.09428c-.81919.28296-1.70221,1.52588-1.26269,2.27285 .4269.72552 1.85002.5025 2.52539,0 .25072-.18654.49067-.47487.6703-.79918 .32554-.58775-.36778-.53609-.73344-.96859-.43817-.51826-.78948-.64673-1.19956-.50508z" fill="#a09610"/>
  <path d="m243.31605,637.09428c-.81919.28296-1.70221,1.52588-1.26269,2.27285 .4269.72552 1.85002.5025 2.52539,0 .25072-.18654.49067-.47487.6703-.79918 .32554-.58775-.36778-.53609-.73344-.96859-.43817-.51826-.78948-.64673-1.19956-.50508z" fill="#a09610"/>
  <path d="m243.31605,649.09428c-.81919.28296-1.70221,1.52588-1.26269,2.27285 .4269.72552 1.85002.5025 2.52539,0 .25072-.18654.49067-.47487.6703-.79918 .32554-.58775-.36778-.53609-.73344-.96859-.43817-.51826-.78948-.64673-1.19956-.50508z" fill="#a09610"/>
  <path d="m257.31605,649.09428c-.81919.28296-1.70221,1.52588-1.26269,2.27285 .4269.72552 1.85002.5025 2.52539,0 .25072-.18654.49067-.47487.6703-.79918 .32554-.58775-.36778-.53609-.73344-.96859-.43817-.51826-.78948-.64673-1.19956-.50508z" fill="#a09610"/>
  <path d="m259.31605,663.09428c-.81919.28296-1.70221,1.52588-1.26269,2.27285 .4269.72552 1.85002.5025 2.52539,0 .25072-.18654.49067-.47487.6703-.79918 .32554-.58775-.36778-.53609-.73344-.96859-.43817-.51826-.78948-.64673-1.19956-.50508z" fill="#a09610"/>
  <path d="m259.31605,633.09428c-.81919.28296-1.70221,1.52588-1.26269,2.27285 .4269.72552 1.85002.5025 2.52539,0 .25072-.18654.49067-.47487.6703-.79918 .32554-.58775-.36778-.53609-.73344-.96859-.43817-.51826-.78948-.64673-1.19956-.50508z" fill="#a09610"/>
  <path d="m283.31605,633.09428c-.81919.28296-1.70221,1.52588-1.26269,2.27285 .4269.72552 1.85002.5025 2.52539,0 .25072-.18654.49067-.47487.6703-.79918 .32554-.58775-.36778-.53609-.73344-.96859-.43817-.51826-.78948-.64673-1.19956-.50508z" fill="#a09610"/>
  <path d="m283.31605,615.09428c-.81919.28296-1.70221,1.52588-1.26269,2.27285 .4269.72552 1.85002.5025 2.52539,0 .25072-.18654.49067-.47487.6703-.79918 .32554-.58775-.36778-.53609-.73344-.96859-.43817-.51826-.78948-.64673-1.19956-.50508z" fill="#a09610"/>
  <path d="m283.31605,591.09428c-.81919.28296-1.70221,1.52588-1.26269,2.27285 .4269.72552 1.85002.5025 2.52539,0 .25072-.18654.49067-.47487.6703-.79918 .32554-.58775-.36778-.53609-.73344-.96859-.43817-.51826-.78948-.64673-1.19956-.50508z" fill="#a09610"/>
  <path d="m285.31605,577.09428c-.81919.28296-1.70221,1.52588-1.26269,2.27285 .4269.72552 1.85002.5025 2.52539,0 .25072-.18654.49067-.47487.6703-.79918 .32554-.58775-.36778-.53609-.73344-.96859-.43817-.51826-.78948-.64673-1.19956-.50508z" fill="#a09610"/>
  <path d="m287.31605,553.09428c-.81919.28296-1.70221,1.52588-1.26269,2.27285 .4269.72552 1.85002.5025 2.52539,0 .25072-.18654.49067-.47487.6703-.79918 .32554-.58775-.36778-.53609-.73344-.96859-.43817-.51826-.78948-.64673-1.19956-.50508z" fill="#a09610"/>
  <path d="m281.31605,547.09428c-.81919.28296-1.70221,1.52588-1.26269,2.27285 .4269.72552 1.85002.5025 2.52539,0 .25072-.18654.49067-.47487.6703-.79918 .32554-.58775-.36778-.53609-.73344-.96859-.43817-.51826-.78948-.64673-1.19956-.50508z" fill="#a09610"/>
  <path d="m197.73736,551.57905c-.81919.28296-1.70221,1.52588-1.26269,2.27285 .4269.72552 1.85002.5025 2.52539,0 .25072-.18654.49067-.47487.6703-.79918 .32554-.58775-.36778-.53609-.73344-.96859-.43817-.51826-.78948-.64673-1.19956-.50508z" fill="#a09610"/>
  <path d="m210.86934,542.99275c-.81919.28296-1.70221,1.52588-1.26269,2.27285 .4269.72552 1.85002.5025 2.52539,0 .25072-.18654.49067-.47487.6703-.79918 .32554-.58775-.36778-.53609-.73344-.96859-.43817-.51826-.78948-.64673-1.19956-.50508z" fill="#a09610"/>
  <path d="m204.86934,568.99275c-.81919.28296-1.70221,1.52588-1.26269,2.27285 .4269.72552 1.85002.5025 2.52539,0 .25072-.18654.49067-.47487.6703-.79918 .32554-.58775-.36778-.53609-.73344-.96859-.43817-.51826-.78948-.64673-1.19956-.50508z" fill="#a09610"/>
  <path d="m188.86934,580.99275c-.81919.28296-1.70221,1.52588-1.26269,2.27285 .4269.72552 1.85002.5025 2.52539,0 .25072-.18654.49067-.47487.6703-.79918 .32554-.58775-.36778-.53609-.73344-.96859-.43817-.51826-.78948-.64673-1.19956-.50508z" fill="#a09610"/>
  <path d="m188.86934,594.99275c-.81919.28296-1.70221,1.52588-1.26269,2.27285 .4269.72552 1.85002.5025 2.52539,0 .25072-.18654.49067-.47487.6703-.79918 .32554-.58775-.36778-.53609-.73344-.96859-.43817-.51826-.78948-.64673-1.19956-.50508z" fill="#a09610"/>
  <path d="m206.86934,594.99275c-.81919.28296-1.70221,1.52588-1.26269,2.27285 .4269.72552 1.85002.5025 2.52539,0 .25072-.18654.49067-.47487.6703-.79918 .32554-.58775-.36778-.53609-.73344-.96859-.43817-.51826-.78948-.64673-1.19956-.50508z" fill="#a09610"/>
  <path d="m206.86934,602.99275c-.81919.28296-1.70221,1.52588-1.26269,2.27285 .4269.72552 1.85002.5025 2.52539,0 .25072-.18654.49067-.47487.6703-.79918 .32554-.58775-.36778-.53609-.73344-.96859-.43817-.51826-.78948-.64673-1.19956-.50508z" fill="#a09610"/>
  <path d="m180.86934,602.99275c-.81919.28296-1.70221,1.52588-1.26269,2.27285 .4269.72552 1.85002.5025 2.52539,0 .25072-.18654.49067-.47487.6703-.79918 .32554-.58775-.36778-.53609-.73344-.96859-.43817-.51826-.78948-.64673-1.19956-.50508z" fill="#a09610"/>
  <path d="m180.86934,620.99275c-.81919.28296-1.70221,1.52588-1.26269,2.27285 .4269.72552 1.85002.5025 2.52539,0 .25072-.18654.49067-.47487.6703-.79918 .32554-.58775-.36778-.53609-.73344-.96859-.43817-.51826-.78948-.64673-1.19956-.50508z" fill="#a09610"/>
  <path d="m180.86934,638.99275c-.81919.28296-1.70221,1.52588-1.26269,2.27285 .4269.72552 1.85002.5025 2.52539,0 .25072-.18654.49067-.47487.6703-.79918 .32554-.58775-.36778-.53609-.73344-.96859-.43817-.51826-.78948-.64673-1.19956-.50508z" fill="#a09610"/>
  <path d="m313.36176,456.15514c-.81919.28296-1.70221,1.52588-1.26269,2.27285 .4269.72552 1.85002.5025 2.52539,0 .25072-.18654.49067-.47487.6703-.79918 .32554-.58775-.36778-.53609-.73344-.96859-.43817-.51826-.78948-.64673-1.19956-.50508z" fill="#a09610"/>
  <path d="m313.36176,442.15514c-.81919.28296-1.70221,1.52588-1.26269,2.27285 .4269.72552 1.85002.5025 2.52539,0 .25072-.18654.49067-.47487.6703-.79918 .32554-.58775-.36778-.53609-.73344-.96859-.43817-.51826-.78948-.64673-1.19956-.50508z" fill="#a09610"/>
  <path d="m186.86934,624.99275c-.81919.28296-1.70221,1.52588-1.26269,2.27285 .4269.72552 1.85002.5025 2.52539,0 .25072-.18654.49067-.47487.6703-.79918 .32554-.58775-.36778-.53609-.73344-.96859-.43817-.51826-.78948-.64673-1.19956-.50508z" fill="#a09610"/>
  <path d="m198.86934,626.99275c-.81919.28296-1.70221,1.52588-1.26269,2.27285 .4269.72552 1.85002.5025 2.52539,0 .25072-.18654.49067-.47487.6703-.79918 .32554-.58775-.36778-.53609-.73344-.96859-.43817-.51826-.78948-.64673-1.19956-.50508z" fill="#a09610"/>
  <path d="m198.86934,638.99275c-.81919.28296-1.70221,1.52588-1.26269,2.27285 .4269.72552 1.85002.5025 2.52539,0 .25072-.18654.49067-.47487.6703-.79918 .32554-.58775-.36778-.53609-.73344-.96859-.43817-.51826-.78948-.64673-1.19956-.50508z" fill="#a09610"/>
  <path d="m212.86934,638.99275c-.81919.28296-1.70221,1.52588-1.26269,2.27285 .4269.72552 1.85002.5025 2.52539,0 .25072-.18654.49067-.47487.6703-.79918 .32554-.58775-.36778-.53609-.73344-.96859-.43817-.51826-.78948-.64673-1.19956-.50508z" fill="#a09610"/>
  <path d="m214.86934,652.99275c-.81919.28296-1.70221,1.52588-1.26269,2.27285 .4269.72552 1.85002.5025 2.52539,0 .25072-.18654.49067-.47487.6703-.79918 .32554-.58775-.36778-.53609-.73344-.96859-.43817-.51826-.78948-.64673-1.19956-.50508z" fill="#a09610"/>
  <path d="m214.86934,622.99275c-.81919.28296-1.70221,1.52588-1.26269,2.27285 .4269.72552 1.85002.5025 2.52539,0 .25072-.18654.49067-.47487.6703-.79918 .32554-.58775-.36778-.53609-.73344-.96859-.43817-.51826-.78948-.64673-1.19956-.50508z" fill="#a09610"/>
  <path d="m238.86934,622.99275c-.81919.28296-1.70221,1.52588-1.26269,2.27285 .4269.72552 1.85002.5025 2.52539,0 .25072-.18654.49067-.47487.6703-.79918 .32554-.58775-.36778-.53609-.73344-.96859-.43817-.51826-.78948-.64673-1.19956-.50508z" fill="#a09610"/>
  <path d="m238.86934,604.99275c-.81919.28296-1.70221,1.52588-1.26269,2.27285 .4269.72552 1.85002.5025 2.52539,0 .25072-.18654.49067-.47487.6703-.79918 .32554-.58775-.36778-.53609-.73344-.96859-.43817-.51826-.78948-.64673-1.19956-.50508z" fill="#a09610"/>
  <path d="m238.86934,580.99275c-.81919.28296-1.70221,1.52588-1.26269,2.27285 .4269.72552 1.85002.5025 2.52539,0 .25072-.18654.49067-.47487.6703-.79918 .32554-.58775-.36778-.53609-.73344-.96859-.43817-.51826-.78948-.64673-1.19956-.50508z" fill="#a09610"/>
  <path d="m240.86934,566.99275c-.81919.28296-1.70221,1.52588-1.26269,2.27285 .4269.72552 1.85002.5025 2.52539,0 .25072-.18654.49067-.47487.6703-.79918 .32554-.58775-.36778-.53609-.73344-.96859-.43817-.51826-.78948-.64673-1.19956-.50508z" fill="#a09610"/>
  <path d="m242.86934,542.99275c-.81919.28296-1.70221,1.52588-1.26269,2.27285 .4269.72552 1.85002.5025 2.52539,0 .25072-.18654.49067-.47487.6703-.79918 .32554-.58775-.36778-.53609-.73344-.96859-.43817-.51826-.78948-.64673-1.19956-.50508z" fill="#a09610"/>
  <path d="m236.86934,536.99275c-.81919.28296-1.70221,1.52588-1.26269,2.27285 .4269.72552 1.85002.5025 2.52539,0 .25072-.18654.49067-.47487.6703-.79918 .32554-.58775-.36778-.53609-.73344-.96859-.43817-.51826-.78948-.64673-1.19956-.50508z" fill="#a09610"/>
  <path d="m209.21286,520.58097c-1.09368.36718-2.27258,1.98003-1.68578,2.94932 .56994.94145 2.46991.65205 3.37158,0 .33473-.24206.65508-.61621.8949-1.03704 .43462-.76268-.49101-.69565-.9792-1.25687-.58499-.67251-1.05401-.83921-1.6015-.65541z" fill="#a09610"/>
  <path d="m226.74503,509.43916c-1.09368.36718-2.27258,1.98002-1.68578,2.94931 .56994.94146 2.46991.65206 3.37158,0 .33473-.24206.65508-.6162.8949-1.03703 .43462-.76269-.49101-.69565-.9792-1.25687-.58499-.67251-1.05401-.83922-1.6015-.65541z" fill="#a09610"/>
  <path d="m218.73458,543.17746c-1.09368.36718-2.27257,1.98002-1.68578,2.94931 .56994.94146 2.46991.65206 3.37158,0 .33473-.24206.65508-.6162.8949-1.03704 .43462-.76268-.49101-.69564-.97919-1.25686-.58499-.67251-1.05402-.83922-1.60151-.65541z" fill="#a09610"/>
  <path d="m197.3734,558.74898c-1.09368.36718-2.27258,1.98003-1.68579,2.94931 .56994.94146 2.46992.65206 3.37158,0 .33473-.24206.65509-.6162.8949-1.03703 .43462-.76268-.49101-.69565-.97919-1.25687-.58499-.67251-1.05402-.83922-1.6015-.65541z" fill="#a09610"/>
  <path d="m197.3734,576.91576c-1.09368.36718-2.27258,1.98002-1.68579,2.94931 .56994.94145 2.46992.65206 3.37158,0 .33473-.24206.65509-.6162.8949-1.03704 .43462-.76268-.49101-.69564-.97919-1.25687-.58499-.6725-1.05402-.83921-1.6015-.6554z" fill="#a09610"/>
  <path d="m221.40473,576.91576c-1.09368.36718-2.27257,1.98002-1.68578,2.94931 .56994.94145 2.46991.65206 3.37158,0 .33473-.24206.65508-.6162.8949-1.03704 .43462-.76268-.49101-.69564-.9792-1.25687-.58498-.6725-1.05401-.83921-1.6015-.6554z" fill="#a09610"/>
  <path d="m221.40473,587.29677c-1.09368.36718-2.27257,1.98003-1.68578,2.94931 .56994.94146 2.46991.65206 3.37158,0 .33473-.24205.65508-.6162.8949-1.03703 .43462-.76268-.49101-.69565-.9792-1.25687-.58498-.67251-1.05401-.83922-1.6015-.65541z" fill="#a09610"/>
  <path d="m186.6928,587.29677c-1.09368.36718-2.27258,1.98003-1.68578,2.94931 .56994.94146 2.46991.65206 3.37158,0 .33473-.24205.65508-.6162.8949-1.03703 .43462-.76268-.49101-.69565-.9792-1.25687-.58499-.67251-1.05401-.83922-1.6015-.65541z" fill="#a09610"/>
  <path d="m186.6928,610.65406c-1.09368.36717-2.27258,1.98002-1.68578,2.94931 .56994.94145 2.46991.65206 3.37158,0 .33473-.24206.65508-.61621.8949-1.03704 .43462-.76268-.49101-.69564-.9792-1.25687-.58499-.67251-1.05401-.83921-1.6015-.6554z" fill="#a09610"/>
  <path d="m186.6928,634.01134c-1.09368.36718-2.27258,1.98002-1.68578,2.94931 .56994.94146 2.46991.65206 3.37158,0 .33473-.24206.65508-.6162.8949-1.03704 .43462-.76268-.49101-.69564-.9792-1.25686-.58499-.67251-1.05401-.83922-1.6015-.65541z" fill="#a09610"/>
  <path d="m313.82403,451.17373c-1.09368.36718-2.27257,1.98002-1.68578,2.94931 .56994.94146 2.46991.65206 3.37158,0 .33473-.24206.65508-.6162.8949-1.03704 .43462-.76268-.49101-.69564-.9792-1.25686-.58498-.67251-1.05401-.83922-1.6015-.65541z" fill="#a09610"/>
  <path d="m313.82403,433.00695c-1.09368.36718-2.27257,1.98003-1.68578,2.94932 .56994.94145 2.46991.65205 3.37158,0 .33473-.24206.65508-.61621.8949-1.03704 .43462-.76268-.49101-.69565-.9792-1.25687-.58498-.67251-1.05401-.83921-1.6015-.65541z" fill="#a09610"/>
  <path d="m194.70325,615.84456c-1.09368.36718-2.27258,1.98003-1.68579,2.94932 .56995.94145 2.46992.65205 3.37159,0 .33473-.24206.65508-.61621.8949-1.03704 .43462-.76268-.49102-.69565-.9792-1.25687-.58499-.67251-1.05402-.83921-1.6015-.65541z" fill="#a09610"/>
  <path d="m210.72414,618.43982c-1.09368.36718-2.27258,1.98002-1.68579,2.94931 .56995.94145 2.46992.65206 3.37159,0 .33473-.24206.65508-.6162.8949-1.03704 .43462-.76268-.49102-.69564-.9792-1.25687-.58499-.6725-1.05401-.83921-1.6015-.6554z" fill="#a09610"/>
  <path d="m210.72414,634.01134c-1.09368.36718-2.27258,1.98002-1.68579,2.94931 .56995.94146 2.46992.65206 3.37159,0 .33473-.24206.65508-.6162.8949-1.03704 .43462-.76268-.49102-.69564-.9792-1.25686-.58499-.67251-1.05401-.83922-1.6015-.65541z" fill="#a09610"/>
  <path d="m229.41518,634.01134c-1.09368.36718-2.27258,1.98002-1.68579,2.94931 .56995.94146 2.46992.65206 3.37159,0 .33473-.24206.65508-.6162.8949-1.03704 .43462-.76268-.49102-.69564-.9792-1.25686-.58499-.67251-1.05401-.83922-1.6015-.65541z" fill="#a09610"/>
  <path d="m232.08533,652.17812c-1.09368.36717-2.27258,1.98002-1.68579,2.94931 .56995.94145 2.46992.65206 3.37159,0 .33473-.24206.65508-.61621.8949-1.03704 .43462-.76268-.49102-.69564-.9792-1.25687-.58499-.67251-1.05402-.83921-1.6015-.6554z" fill="#a09610"/>
  <path d="m232.08533,613.24931c-1.09368.36718-2.27258,1.98002-1.68579,2.94931 .56995.94146 2.46992.65206 3.37159,0 .33473-.24206.65508-.6162.8949-1.03704 .43462-.76268-.49102-.69564-.9792-1.25686-.58499-.67251-1.05402-.83922-1.6015-.65541z" fill="#a09610"/>
  <path d="m264.12711,613.24931c-1.09368.36718-2.27258,1.98002-1.68578,2.94931 .56994.94146 2.46991.65206 3.37158,0 .33473-.24206.65508-.6162.8949-1.03704 .43462-.76268-.49101-.69564-.9792-1.25686-.58499-.67251-1.05401-.83922-1.6015-.65541z" fill="#a09610"/>
  <path d="m264.12711,589.89203c-1.09368.36717-2.27258,1.98002-1.68578,2.94931 .56994.94145 2.46991.65206 3.37158,0 .33473-.24206.65508-.61621.8949-1.03704 .43462-.76268-.49101-.69564-.9792-1.25687-.58499-.67251-1.05401-.83921-1.6015-.6554z" fill="#a09610"/>
  <path d="m264.12711,558.74898c-1.09368.36718-2.27258,1.98003-1.68578,2.94931 .56994.94146 2.46991.65206 3.37158,0 .33473-.24206.65508-.6162.8949-1.03703 .43462-.76268-.49101-.69565-.9792-1.25687-.58499-.67251-1.05401-.83922-1.6015-.65541z" fill="#a09610"/>
  <path d="m266.79726,540.58221c-1.09368.36717-2.27258,1.98002-1.68579,2.94931 .56995.94145 2.46992.65205 3.37159,0 .33473-.24206.65508-.61621.8949-1.03704 .43462-.76268-.49102-.69564-.9792-1.25687-.58499-.67251-1.05401-.83921-1.6015-.6554z" fill="#a09610"/>
  <path d="m269.46741,509.43916c-1.09368.36718-2.27258,1.98002-1.68579,2.94931 .56995.94146 2.46992.65206 3.37159,0 .33473-.24206.65508-.6162.8949-1.03703 .43462-.76269-.49102-.69565-.9792-1.25687-.58499-.67251-1.05402-.83922-1.6015-.65541z" fill="#a09610"/>
  <path d="m261.45696,501.6534c-1.09368.36718-2.27258,1.98002-1.68578,2.94931 .56994.94146 2.46991.65206 3.37158,0 .33473-.24206.65508-.6162.8949-1.03704 .43462-.76268-.49101-.69564-.9792-1.25686-.58499-.67251-1.05401-.83922-1.6015-.65541z" fill="#a09610"/>
  <path d="m312.24842,534.72311c-1.09368.36718-2.27258,1.98003-1.68578,2.94932 .56994.94145 2.46991.65205 3.37158,0 .33473-.24206.65508-.61621.8949-1.03704 .43462-.76268-.49101-.69565-.9792-1.25687-.58499-.67251-1.05401-.83921-1.6015-.65541z" fill="#a09610"/>
  <path d="m329.78059,523.5813c-1.09368.36718-2.27258,1.98002-1.68578,2.94931 .56994.94146 2.46991.65206 3.37158,0 .33473-.24206.65508-.6162.8949-1.03703 .43462-.76269-.49101-.69565-.9792-1.25687-.58499-.67251-1.05401-.83922-1.6015-.65541z" fill="#a09610"/>
  <path d="m321.77014,557.3196c-1.09368.36718-2.27257,1.98002-1.68578,2.94931 .56994.94146 2.46991.65206 3.37158,0 .33473-.24206.65508-.6162.8949-1.03704 .43462-.76268-.49101-.69564-.97919-1.25686-.58499-.67251-1.05402-.83922-1.60151-.65541z" fill="#a09610"/>
  <path d="m300.40896,572.89112c-1.09368.36718-2.27258,1.98003-1.68579,2.94931 .56994.94146 2.46992.65206 3.37158,0 .33473-.24206.65509-.6162.8949-1.03703 .43462-.76268-.49101-.69565-.97919-1.25687-.58499-.67251-1.05402-.83922-1.6015-.65541z" fill="#a09610"/>
  <path d="m300.40896,591.0579c-1.09368.36718-2.27258,1.98002-1.68579,2.94931 .56994.94145 2.46992.65206 3.37158,0 .33473-.24206.65509-.6162.8949-1.03704 .43462-.76268-.49101-.69564-.97919-1.25687-.58499-.6725-1.05402-.83921-1.6015-.6554z" fill="#a09610"/>
  <path d="m324.44029,591.0579c-1.09368.36718-2.27257,1.98002-1.68578,2.94931 .56994.94145 2.46991.65206 3.37158,0 .33473-.24206.65508-.6162.8949-1.03704 .43462-.76268-.49101-.69564-.9792-1.25687-.58498-.6725-1.05401-.83921-1.6015-.6554z" fill="#a09610"/>
  <path d="m324.44029,601.43891c-1.09368.36718-2.27257,1.98003-1.68578,2.94931 .56994.94146 2.46991.65206 3.37158,0 .33473-.24205.65508-.6162.8949-1.03703 .43462-.76268-.49101-.69565-.9792-1.25687-.58498-.67251-1.05401-.83922-1.6015-.65541z" fill="#a09610"/>
  <path d="m289.72836,601.43891c-1.09368.36718-2.27258,1.98003-1.68578,2.94931 .56994.94146 2.46991.65206 3.37158,0 .33473-.24205.65508-.6162.8949-1.03703 .43462-.76268-.49101-.69565-.9792-1.25687-.58499-.67251-1.05401-.83922-1.6015-.65541z" fill="#a09610"/>
  <path d="m289.72836,624.7962c-1.09368.36717-2.27258,1.98002-1.68578,2.94931 .56994.94145 2.46991.65206 3.37158,0 .33473-.24206.65508-.61621.8949-1.03704 .43462-.76268-.49101-.69564-.9792-1.25687-.58499-.67251-1.05401-.83921-1.6015-.6554z" fill="#a09610"/>
  <path d="m289.72836,648.15348c-1.09368.36718-2.27258,1.98002-1.68578,2.94931 .56994.94146 2.46991.65206 3.37158,0 .33473-.24206.65508-.6162.8949-1.03704 .43462-.76268-.49101-.69564-.9792-1.25686-.58499-.67251-1.05401-.83922-1.6015-.65541z" fill="#a09610"/>
  <path d="m268.36717,648.15348c-1.09368.36718-2.27257,1.98002-1.68578,2.94931 .56994.94146 2.46991.65206 3.37158,0 .33473-.24206.65508-.6162.8949-1.03704 .43462-.76268-.49101-.69564-.9792-1.25686-.58498-.67251-1.05401-.83922-1.6015-.65541z" fill="#a09610"/>
  <path d="m268.36717,629.9867c-1.09368.36718-2.27257,1.98003-1.68578,2.94932 .56994.94145 2.46991.65205 3.37158,0 .33473-.24206.65508-.61621.8949-1.03704 .43462-.76268-.49101-.69565-.9792-1.25687-.58498-.67251-1.05401-.83921-1.6015-.65541z" fill="#a09610"/>
  <path d="m297.73881,629.9867c-1.09368.36718-2.27258,1.98003-1.68579,2.94932 .56995.94145 2.46992.65205 3.37159,0 .33473-.24206.65508-.61621.8949-1.03704 .43462-.76268-.49102-.69565-.9792-1.25687-.58499-.67251-1.05402-.83921-1.6015-.65541z" fill="#a09610"/>
  <path d="m313.7597,632.58196c-1.09368.36718-2.27258,1.98002-1.68579,2.94931 .56995.94145 2.46992.65206 3.37159,0 .33473-.24206.65508-.6162.8949-1.03704 .43462-.76268-.49102-.69564-.9792-1.25687-.58499-.6725-1.05401-.83921-1.6015-.6554z" fill="#a09610"/>
  <path d="m313.7597,648.15348c-1.09368.36718-2.27258,1.98002-1.68579,2.94931 .56995.94146 2.46992.65206 3.37159,0 .33473-.24206.65508-.6162.8949-1.03704 .43462-.76268-.49102-.69564-.9792-1.25686-.58499-.67251-1.05401-.83922-1.6015-.65541z" fill="#a09610"/>
  <path d="m332.45074,648.15348c-1.09368.36718-2.27258,1.98002-1.68579,2.94931 .56995.94146 2.46992.65206 3.37159,0 .33473-.24206.65508-.6162.8949-1.03704 .43462-.76268-.49102-.69564-.9792-1.25686-.58499-.67251-1.05401-.83922-1.6015-.65541z" fill="#a09610"/>
  <path d="m335.12089,666.32026c-1.09368.36717-2.27258,1.98002-1.68579,2.94931 .56995.94145 2.46992.65206 3.37159,0 .33473-.24206.65508-.61621.8949-1.03704 .43462-.76268-.49102-.69564-.9792-1.25687-.58499-.67251-1.05402-.83921-1.6015-.6554z" fill="#a09610"/>
  <path d="m335.12089,627.39145c-1.09368.36718-2.27258,1.98002-1.68579,2.94931 .56995.94146 2.46992.65206 3.37159,0 .33473-.24206.65508-.6162.8949-1.03704 .43462-.76268-.49102-.69564-.9792-1.25686-.58499-.67251-1.05402-.83922-1.6015-.65541z" fill="#a09610"/>
  <path d="m367.16267,627.39145c-1.09368.36718-2.27258,1.98002-1.68578,2.94931 .56994.94146 2.46991.65206 3.37158,0 .33473-.24206.65508-.6162.8949-1.03704 .43462-.76268-.49101-.69564-.9792-1.25686-.58499-.67251-1.05401-.83922-1.6015-.65541z" fill="#a09610"/>
  <path d="m367.16267,604.03417c-1.09368.36717-2.27258,1.98002-1.68578,2.94931 .56994.94145 2.46991.65206 3.37158,0 .33473-.24206.65508-.61621.8949-1.03704 .43462-.76268-.49101-.69564-.9792-1.25687-.58499-.67251-1.05401-.83921-1.6015-.6554z" fill="#a09610"/>
  <path d="m367.16267,572.89112c-1.09368.36718-2.27258,1.98003-1.68578,2.94931 .56994.94146 2.46991.65206 3.37158,0 .33473-.24206.65508-.6162.8949-1.03703 .43462-.76268-.49101-.69565-.9792-1.25687-.58499-.67251-1.05401-.83922-1.6015-.65541z" fill="#a09610"/>
  <path d="m369.83282,554.72435c-1.09368.36717-2.27258,1.98002-1.68579,2.94931 .56995.94145 2.46992.65205 3.37159,0 .33473-.24206.65508-.61621.8949-1.03704 .43462-.76268-.49102-.69564-.9792-1.25687-.58499-.67251-1.05401-.83921-1.6015-.6554z" fill="#a09610"/>
  <path d="m372.50297,523.5813c-1.09368.36718-2.27258,1.98002-1.68579,2.94931 .56995.94146 2.46992.65206 3.37159,0 .33473-.24206.65508-.6162.8949-1.03703 .43462-.76269-.49102-.69565-.9792-1.25687-.58499-.67251-1.05402-.83922-1.6015-.65541z" fill="#a09610"/>
  <path d="m364.49252,515.79554c-1.09368.36718-2.27258,1.98002-1.68578,2.94931 .56994.94146 2.46991.65206 3.37158,0 .33473-.24206.65508-.6162.8949-1.03704 .43462-.76268-.49101-.69564-.9792-1.25686-.58499-.67251-1.05401-.83922-1.6015-.65541z" fill="#a09610"/>
  <path d="m306.78668,527.54677c-.81919.28296-1.70221,1.52588-1.26269,2.27285 .4269.72552 1.85002.5025 2.52539,0 .25072-.18654.49067-.47487.6703-.79918 .32554-.58775-.36778-.53609-.73344-.96859-.43817-.51826-.78948-.64673-1.19956-.50508z" fill="#a09610"/>
  <path d="m290.78668,527.54677c-.81919.28296-1.70221,1.52588-1.26269,2.27285 .4269.72552 1.85002.5025 2.52539,0 .25072-.18654.49067-.47487.6703-.79918 .32554-.58775-.36778-.53609-.73344-.96859-.43817-.51826-.78948-.64673-1.19956-.50508z" fill="#a09610"/>
  <path d="m324.78668,515.54677c-.81919.28296-1.70221,1.52588-1.26269,2.27285 .4269.72552 1.85002.5025 2.52539,0 .25072-.18654.49067-.47487.6703-.79918 .32554-.58775-.36778-.53609-.73344-.96859-.43817-.51826-.78948-.64673-1.19956-.50508z" fill="#a09610"/>
  <path d="m324.78668,527.54677c-.81919.28296-1.70221,1.52588-1.26269,2.27285 .4269.72552 1.85002.5025 2.52539,0 .25072-.18654.49067-.47487.6703-.79918 .32554-.58775-.36778-.53609-.73344-.96859-.43817-.51826-.78948-.64673-1.19956-.50508z" fill="#a09610"/>
  <path d="m338.78668,527.54677c-.81919.28296-1.70221,1.52588-1.26269,2.27285 .4269.72552 1.85002.5025 2.52539,0 .25072-.18654.49067-.47487.6703-.79918 .32554-.58775-.36778-.53609-.73344-.96859-.43817-.51826-.78948-.64673-1.19956-.50508z" fill="#a09610"/>
  <path d="m340.78668,541.54677c-.81919.28296-1.70221,1.52588-1.26269,2.27285 .4269.72552 1.85002.5025 2.52539,0 .25072-.18654.49067-.47487.6703-.79918 .32554-.58775-.36778-.53609-.73344-.96859-.43817-.51826-.78948-.64673-1.19956-.50508z" fill="#a09610"/>
  <path d="m355.03034,526.23714c-.81919.28296-1.70221,1.52588-1.26269,2.27285 .4269.72552 1.85002.5025 2.52539,0 .25072-.18654.49067-.47487.6703-.79918 .32554-.58775-.36778-.53609-.73344-.96859-.43817-.51826-.78948-.64673-1.19956-.50508z" fill="#a09610"/>
  <path d="m339.03034,538.23714c-.81919.28296-1.70221,1.52588-1.26269,2.27285 .4269.72552 1.85002.5025 2.52539,0 .25072-.18654.49067-.47487.6703-.79918 .32554-.58775-.36778-.53609-.73344-.96859-.43817-.51826-.78948-.64673-1.19956-.50508z" fill="#a09610"/>
  <path d="m339.03034,552.23714c-.81919.28296-1.70221,1.52588-1.26269,2.27285 .4269.72552 1.85002.5025 2.52539,0 .25072-.18654.49067-.47487.6703-.79918 .32554-.58775-.36778-.53609-.73344-.96859-.43817-.51826-.78948-.64673-1.19956-.50508z" fill="#a09610"/>
  <path d="m357.03034,552.23714c-.81919.28296-1.70221,1.52588-1.26269,2.27285 .4269.72552 1.85002.5025 2.52539,0 .25072-.18654.49067-.47487.6703-.79918 .32554-.58775-.36778-.53609-.73344-.96859-.43817-.51826-.78948-.64673-1.19956-.50508z" fill="#a09610"/>
  <path d="m357.03034,560.23714c-.81919.28296-1.70221,1.52588-1.26269,2.27285 .4269.72552 1.85002.5025 2.52539,0 .25072-.18654.49067-.47487.6703-.79918 .32554-.58775-.36778-.53609-.73344-.96859-.43817-.51826-.78948-.64673-1.19956-.50508z" fill="#a09610"/>
  <path d="m331.03034,560.23714c-.81919.28296-1.70221,1.52588-1.26269,2.27285 .4269.72552 1.85002.5025 2.52539,0 .25072-.18654.49067-.47487.6703-.79918 .32554-.58775-.36778-.53609-.73344-.96859-.43817-.51826-.78948-.64673-1.19956-.50508z" fill="#a09610"/>
  <path d="m331.03034,578.23714c-.81919.28296-1.70221,1.52588-1.26269,2.27285 .4269.72552 1.85002.5025 2.52539,0 .25072-.18654.49067-.47487.6703-.79918 .32554-.58775-.36778-.53609-.73344-.96859-.43817-.51826-.78948-.64673-1.19956-.50508z" fill="#a09610"/>
  <path d="m331.03034,596.23714c-.81919.28296-1.70221,1.52588-1.26269,2.27285 .4269.72552 1.85002.5025 2.52539,0 .25072-.18654.49067-.47487.6703-.79918 .32554-.58775-.36778-.53609-.73344-.96859-.43817-.51826-.78948-.64673-1.19956-.50508z" fill="#a09610"/>
  <path d="m315.03034,596.23714c-.81919.28296-1.70221,1.52588-1.26269,2.27285 .4269.72552 1.85002.5025 2.52539,0 .25072-.18654.49067-.47487.6703-.79918 .32554-.58775-.36778-.53609-.73344-.96859-.43817-.51826-.78948-.64673-1.19956-.50508z" fill="#a09610"/>
  <path d="m315.03034,582.23714c-.81919.28296-1.70221,1.52588-1.26269,2.27285 .4269.72552 1.85002.5025 2.52539,0 .25072-.18654.49067-.47487.6703-.79918 .32554-.58775-.36778-.53609-.73344-.96859-.43817-.51826-.78948-.64673-1.19956-.50508z" fill="#a09610"/>
  <path d="m337.03034,582.23714c-.81919.28296-1.70221,1.52588-1.26269,2.27285 .4269.72552 1.85002.5025 2.52539,0 .25072-.18654.49067-.47487.6703-.79918 .32554-.58775-.36778-.53609-.73344-.96859-.43817-.51826-.78948-.64673-1.19956-.50508z" fill="#a09610"/>
  <path d="m349.03034,584.23714c-.81919.28296-1.70221,1.52588-1.26269,2.27285 .4269.72552 1.85002.5025 2.52539,0 .25072-.18654.49067-.47487.6703-.79918 .32554-.58775-.36778-.53609-.73344-.96859-.43817-.51826-.78948-.64673-1.19956-.50508z" fill="#a09610"/>
  <path d="m349.03034,596.23714c-.81919.28296-1.70221,1.52588-1.26269,2.27285 .4269.72552 1.85002.5025 2.52539,0 .25072-.18654.49067-.47487.6703-.79918 .32554-.58775-.36778-.53609-.73344-.96859-.43817-.51826-.78948-.64673-1.19956-.50508z" fill="#a09610"/>
  <path d="m363.03034,596.23714c-.81919.28296-1.70221,1.52588-1.26269,2.27285 .4269.72552 1.85002.5025 2.52539,0 .25072-.18654.49067-.47487.6703-.79918 .32554-.58775-.36778-.53609-.73344-.96859-.43817-.51826-.78948-.64673-1.19956-.50508z" fill="#a09610"/>
  <path d="m365.03034,610.23714c-.81919.28296-1.70221,1.52588-1.26269,2.27285 .4269.72552 1.85002.5025 2.52539,0 .25072-.18654.49067-.47487.6703-.79918 .32554-.58775-.36778-.53609-.73344-.96859-.43817-.51826-.78948-.64673-1.19956-.50508z" fill="#a09610"/>
  <path d="m365.03034,580.23714c-.81919.28296-1.70221,1.52588-1.26269,2.27285 .4269.72552 1.85002.5025 2.52539,0 .25072-.18654.49067-.47487.6703-.79918 .32554-.58775-.36778-.53609-.73344-.96859-.43817-.51826-.78948-.64673-1.19956-.50508z" fill="#a09610"/>
  <path d="m310.58363,516.13561c-.81919.28296-1.70221,1.52588-1.26269,2.27285 .4269.72552 1.85002.5025 2.52539,0 .25072-.18654.49067-.47487.6703-.79918 .32554-.58775-.36778-.53609-.73344-.96859-.43817-.51826-.78948-.64673-1.19956-.50508z" fill="#a09610"/>
  <path d="m294.58363,528.13561c-.81919.28296-1.70221,1.52588-1.26269,2.27285 .4269.72552 1.85002.5025 2.52539,0 .25072-.18654.49067-.47487.6703-.79918 .32554-.58775-.36778-.53609-.73344-.96859-.43817-.51826-.78948-.64673-1.19956-.50508z" fill="#a09610"/>
  <path d="m294.58363,542.13561c-.81919.28296-1.70221,1.52588-1.26269,2.27285 .4269.72552 1.85002.5025 2.52539,0 .25072-.18654.49067-.47487.6703-.79918 .32554-.58775-.36778-.53609-.73344-.96859-.43817-.51826-.78948-.64673-1.19956-.50508z" fill="#a09610"/>
  <path d="m312.58363,542.13561c-.81919.28296-1.70221,1.52588-1.26269,2.27285 .4269.72552 1.85002.5025 2.52539,0 .25072-.18654.49067-.47487.6703-.79918 .32554-.58775-.36778-.53609-.73344-.96859-.43817-.51826-.78948-.64673-1.19956-.50508z" fill="#a09610"/>
  <path d="m312.58363,550.13561c-.81919.28296-1.70221,1.52588-1.26269,2.27285 .4269.72552 1.85002.5025 2.52539,0 .25072-.18654.49067-.47487.6703-.79918 .32554-.58775-.36778-.53609-.73344-.96859-.43817-.51826-.78948-.64673-1.19956-.50508z" fill="#a09610"/>
  <path d="m286.58363,550.13561c-.81919.28296-1.70221,1.52588-1.26269,2.27285 .4269.72552 1.85002.5025 2.52539,0 .25072-.18654.49067-.47487.6703-.79918 .32554-.58775-.36778-.53609-.73344-.96859-.43817-.51826-.78948-.64673-1.19956-.50508z" fill="#a09610"/>
  <path d="m286.58363,568.13561c-.81919.28296-1.70221,1.52588-1.26269,2.27285 .4269.72552 1.85002.5025 2.52539,0 .25072-.18654.49067-.47487.6703-.79918 .32554-.58775-.36778-.53609-.73344-.96859-.43817-.51826-.78948-.64673-1.19956-.50508z" fill="#a09610"/>
  <path d="m286.58363,586.13561c-.81919.28296-1.70221,1.52588-1.26269,2.27285 .4269.72552 1.85002.5025 2.52539,0 .25072-.18654.49067-.47487.6703-.79918 .32554-.58775-.36778-.53609-.73344-.96859-.43817-.51826-.78948-.64673-1.19956-.50508z" fill="#a09610"/>
  <path d="m292.58363,572.13561c-.81919.28296-1.70221,1.52588-1.26269,2.27285 .4269.72552 1.85002.5025 2.52539,0 .25072-.18654.49067-.47487.6703-.79918 .32554-.58775-.36778-.53609-.73344-.96859-.43817-.51826-.78948-.64673-1.19956-.50508z" fill="#a09610"/>
  <path d="m304.58363,574.13561c-.81919.28296-1.70221,1.52588-1.26269,2.27285 .4269.72552 1.85002.5025 2.52539,0 .25072-.18654.49067-.47487.6703-.79918 .32554-.58775-.36778-.53609-.73344-.96859-.43817-.51826-.78948-.64673-1.19956-.50508z" fill="#a09610"/>
  <path d="m304.58363,586.13561c-.81919.28296-1.70221,1.52588-1.26269,2.27285 .4269.72552 1.85002.5025 2.52539,0 .25072-.18654.49067-.47487.6703-.79918 .32554-.58775-.36778-.53609-.73344-.96859-.43817-.51826-.78948-.64673-1.19956-.50508z" fill="#a09610"/>
  <path d="m318.58363,586.13561c-.81919.28296-1.70221,1.52588-1.26269,2.27285 .4269.72552 1.85002.5025 2.52539,0 .25072-.18654.49067-.47487.6703-.79918 .32554-.58775-.36778-.53609-.73344-.96859-.43817-.51826-.78948-.64673-1.19956-.50508z" fill="#a09610"/>
  <path d="m320.58363,600.13561c-.81919.28296-1.70221,1.52588-1.26269,2.27285 .4269.72552 1.85002.5025 2.52539,0 .25072-.18654.49067-.47487.6703-.79918 .32554-.58775-.36778-.53609-.73344-.96859-.43817-.51826-.78948-.64673-1.19956-.50508z" fill="#a09610"/>
  <path d="m320.58363,570.13561c-.81919.28296-1.70221,1.52588-1.26269,2.27285 .4269.72552 1.85002.5025 2.52539,0 .25072-.18654.49067-.47487.6703-.79918 .32554-.58775-.36778-.53609-.73344-.96859-.43817-.51826-.78948-.64673-1.19956-.50508z" fill="#a09610"/>
  <path d="m344.58363,570.13561c-.81919.28296-1.70221,1.52588-1.26269,2.27285 .4269.72552 1.85002.5025 2.52539,0 .25072-.18654.49067-.47487.6703-.79918 .32554-.58775-.36778-.53609-.73344-.96859-.43817-.51826-.78948-.64673-1.19956-.50508z" fill="#a09610"/>
  <path d="m344.58363,552.13561c-.81919.28296-1.70221,1.52588-1.26269,2.27285 .4269.72552 1.85002.5025 2.52539,0 .25072-.18654.49067-.47487.6703-.79918 .32554-.58775-.36778-.53609-.73344-.96859-.43817-.51826-.78948-.64673-1.19956-.50508z" fill="#a09610"/>
  <path d="m344.58363,528.13561c-.81919.28296-1.70221,1.52588-1.26269,2.27285 .4269.72552 1.85002.5025 2.52539,0 .25072-.18654.49067-.47487.6703-.79918 .32554-.58775-.36778-.53609-.73344-.96859-.43817-.51826-.78948-.64673-1.19956-.50508z" fill="#a09610"/>
  <path d="m303.08769,524.05862c-1.09368.36718-2.27258,1.98002-1.68579,2.94931 .56994.94145 2.46992.65206 3.37158,0 .33473-.24206.65509-.6162.8949-1.03704 .43462-.76268-.49101-.69564-.97919-1.25687-.58499-.6725-1.05402-.83921-1.6015-.6554z" fill="#a09610"/>
  <path d="m327.11902,524.05862c-1.09368.36718-2.27257,1.98002-1.68578,2.94931 .56994.94145 2.46991.65206 3.37158,0 .33473-.24206.65508-.6162.8949-1.03704 .43462-.76268-.49101-.69564-.9792-1.25687-.58498-.6725-1.05401-.83921-1.6015-.6554z" fill="#a09610"/>
  <path d="m327.11902,534.43963c-1.09368.36718-2.27257,1.98003-1.68578,2.94931 .56994.94146 2.46991.65206 3.37158,0 .33473-.24205.65508-.6162.8949-1.03703 .43462-.76268-.49101-.69565-.9792-1.25687-.58498-.67251-1.05401-.83922-1.6015-.65541z" fill="#a09610"/>
  <path d="m292.40709,534.43963c-1.09368.36718-2.27258,1.98003-1.68578,2.94931 .56994.94146 2.46991.65206 3.37158,0 .33473-.24205.65508-.6162.8949-1.03703 .43462-.76268-.49101-.69565-.9792-1.25687-.58499-.67251-1.05401-.83922-1.6015-.65541z" fill="#a09610"/>
  <path d="m292.40709,557.79692c-1.09368.36717-2.27258,1.98002-1.68578,2.94931 .56994.94145 2.46991.65206 3.37158,0 .33473-.24206.65508-.61621.8949-1.03704 .43462-.76268-.49101-.69564-.9792-1.25687-.58499-.67251-1.05401-.83921-1.6015-.6554z" fill="#a09610"/>
  <path d="m292.40709,581.1542c-1.09368.36718-2.27258,1.98002-1.68578,2.94931 .56994.94146 2.46991.65206 3.37158,0 .33473-.24206.65508-.6162.8949-1.03704 .43462-.76268-.49101-.69564-.9792-1.25686-.58499-.67251-1.05401-.83922-1.6015-.65541z" fill="#a09610"/>
  <path d="m300.41754,562.98742c-1.09368.36718-2.27258,1.98003-1.68579,2.94932 .56995.94145 2.46992.65205 3.37159,0 .33473-.24206.65508-.61621.8949-1.03704 .43462-.76268-.49102-.69565-.9792-1.25687-.58499-.67251-1.05402-.83921-1.6015-.65541z" fill="#a09610"/>
  <path d="m316.43843,565.58268c-1.09368.36718-2.27258,1.98002-1.68579,2.94931 .56995.94145 2.46992.65206 3.37159,0 .33473-.24206.65508-.6162.8949-1.03704 .43462-.76268-.49102-.69564-.9792-1.25687-.58499-.6725-1.05401-.83921-1.6015-.6554z" fill="#a09610"/>
  <path d="m316.43843,581.1542c-1.09368.36718-2.27258,1.98002-1.68579,2.94931 .56995.94146 2.46992.65206 3.37159,0 .33473-.24206.65508-.6162.8949-1.03704 .43462-.76268-.49102-.69564-.9792-1.25686-.58499-.67251-1.05401-.83922-1.6015-.65541z" fill="#a09610"/>
  <path d="m335.12947,581.1542c-1.09368.36718-2.27258,1.98002-1.68579,2.94931 .56995.94146 2.46992.65206 3.37159,0 .33473-.24206.65508-.6162.8949-1.03704 .43462-.76268-.49102-.69564-.9792-1.25686-.58499-.67251-1.05401-.83922-1.6015-.65541z" fill="#a09610"/>
  <path d="m337.79962,599.32098c-1.09368.36717-2.27258,1.98002-1.68579,2.94931 .56995.94145 2.46992.65206 3.37159,0 .33473-.24206.65508-.61621.8949-1.03704 .43462-.76268-.49102-.69564-.9792-1.25687-.58499-.67251-1.05402-.83921-1.6015-.6554z" fill="#a09610"/>
  <path d="m337.79962,560.39217c-1.09368.36718-2.27258,1.98002-1.68579,2.94931 .56995.94146 2.46992.65206 3.37159,0 .33473-.24206.65508-.6162.8949-1.03704 .43462-.76268-.49102-.69564-.9792-1.25686-.58499-.67251-1.05402-.83922-1.6015-.65541z" fill="#a09610"/>
  <path d="m369.8414,560.39217c-1.09368.36718-2.27258,1.98002-1.68578,2.94931 .56994.94146 2.46991.65206 3.37158,0 .33473-.24206.65508-.6162.8949-1.03704 .43462-.76268-.49101-.69564-.9792-1.25686-.58499-.67251-1.05401-.83922-1.6015-.65541z" fill="#a09610"/>
  <path d="m369.8414,537.03489c-1.09368.36717-2.27258,1.98002-1.68578,2.94931 .56994.94145 2.46991.65206 3.37158,0 .33473-.24206.65508-.61621.8949-1.03704 .43462-.76268-.49101-.69564-.9792-1.25687-.58499-.67251-1.05401-.83921-1.6015-.6554z" fill="#a09610"/>
  <path d="m374.08146,595.29634c-1.09368.36718-2.27257,1.98002-1.68578,2.94931 .56994.94146 2.46991.65206 3.37158,0 .33473-.24206.65508-.6162.8949-1.03704 .43462-.76268-.49101-.69564-.9792-1.25686-.58498-.67251-1.05401-.83922-1.6015-.65541z" fill="#a09610"/>
  <path d="m374.08146,577.12956c-1.09368.36718-2.27257,1.98003-1.68578,2.94932 .56994.94145 2.46991.65205 3.37158,0 .33473-.24206.65508-.61621.8949-1.03704 .43462-.76268-.49101-.69565-.9792-1.25687-.58498-.67251-1.05401-.83921-1.6015-.65541z" fill="#a09610"/>
  <path d="m234.07239,665.68962c-.81919.28296-1.70221,1.52588-1.26269,2.27285 .4269.72552 1.85002.5025 2.52539,0 .25072-.18654.49067-.47487.6703-.79918 .32554-.58775-.36778-.53609-.73344-.96859-.43817-.51826-.78948-.64673-1.19956-.50508z" fill="#a09610"/>
  <path d="m252.07239,665.68962c-.81919.28296-1.70221,1.52588-1.26269,2.27285 .4269.72552 1.85002.5025 2.52539,0 .25072-.18654.49067-.47487.6703-.79918 .32554-.58775-.36778-.53609-.73344-.96859-.43817-.51826-.78948-.64673-1.19956-.50508z" fill="#a09610"/>
  <path d="m252.07239,673.68962c-.81919.28296-1.70221,1.52588-1.26269,2.27285 .4269.72552 1.85002.5025 2.52539,0 .25072-.18654.49067-.47487.6703-.79918 .32554-.58775-.36778-.53609-.73344-.96859-.43817-.51826-.78948-.64673-1.19956-.50508z" fill="#a09610"/>
  <path d="m226.07239,673.68962c-.81919.28296-1.70221,1.52588-1.26269,2.27285 .4269.72552 1.85002.5025 2.52539,0 .25072-.18654.49067-.47487.6703-.79918 .32554-.58775-.36778-.53609-.73344-.96859-.43817-.51826-.78948-.64673-1.19956-.50508z" fill="#a09610"/>
  <path d="m389.64382,613.83248c-.81919.28296-1.70221,1.52588-1.26269,2.27285 .4269.72552 1.85002.5025 2.52539,0 .25072-.18654.49067-.47487.6703-.79918 .32554-.58775-.36778-.53609-.73344-.96859-.43817-.51826-.78948-.64673-1.19956-.50508z" fill="#a09610"/>
  <path d="m236.07239,519.68962c-.81919.28296-1.70221,1.52588-1.26269,2.27285 .4269.72552 1.85002.5025 2.52539,0 .25072-.18654.49067-.47487.6703-.79918 .32554-.58775-.36778-.53609-.73344-.96859-.43817-.51826-.78948-.64673-1.19956-.50508z" fill="#a09610"/>
  <path d="m220.07239,519.68962c-.81919.28296-1.70221,1.52588-1.26269,2.27285 .4269.72552 1.85002.5025 2.52539,0 .25072-.18654.49067-.47487.6703-.79918 .32554-.58775-.36778-.53609-.73344-.96859-.43817-.51826-.78948-.64673-1.19956-.50508z" fill="#a09610"/>
  <path d="m373.64382,617.83248c-.81919.28296-1.70221,1.52588-1.26269,2.27285 .4269.72552 1.85002.5025 2.52539,0 .25072-.18654.49067-.47487.6703-.79918 .32554-.58775-.36778-.53609-.73344-.96859-.43817-.51826-.78948-.64673-1.19956-.50508z" fill="#a09610"/>
  <path d="m395.64382,617.83248c-.81919.28296-1.70221,1.52588-1.26269,2.27285 .4269.72552 1.85002.5025 2.52539,0 .25072-.18654.49067-.47487.6703-.79918 .32554-.58775-.36778-.53609-.73344-.96859-.43817-.51826-.78948-.64673-1.19956-.50508z" fill="#a09610"/>
  <path d="m254.07239,519.68962c-.81919.28296-1.70221,1.52588-1.26269,2.27285 .4269.72552 1.85002.5025 2.52539,0 .25072-.18654.49067-.47487.6703-.79918 .32554-.58775-.36778-.53609-.73344-.96859-.43817-.51826-.78948-.64673-1.19956-.50508z" fill="#a09610"/>
  <path d="m268.07239,519.68962c-.81919.28296-1.70221,1.52588-1.26269,2.27285 .4269.72552 1.85002.5025 2.52539,0 .25072-.18654.49067-.47487.6703-.79918 .32554-.58775-.36778-.53609-.73344-.96859-.43817-.51826-.78948-.64673-1.19956-.50508z" fill="#a09610"/>
  <path d="m260.07239,693.68962c-.81919.28296-1.70221,1.52588-1.26269,2.27285 .4269.72552 1.85002.5025 2.52539,0 .25072-.18654.49067-.47487.6703-.79918 .32554-.58775-.36778-.53609-.73344-.96859-.43817-.51826-.78948-.64673-1.19956-.50508z" fill="#a09610"/>
  <path d="m284.07239,693.68962c-.81919.28296-1.70221,1.52588-1.26269,2.27285 .4269.72552 1.85002.5025 2.52539,0 .25072-.18654.49067-.47487.6703-.79918 .32554-.58775-.36778-.53609-.73344-.96859-.43817-.51826-.78948-.64673-1.19956-.50508z" fill="#a09610"/>
  <path d="m284.07239,675.68962c-.81919.28296-1.70221,1.52588-1.26269,2.27285 .4269.72552 1.85002.5025 2.52539,0 .25072-.18654.49067-.47487.6703-.79918 .32554-.58775-.36778-.53609-.73344-.96859-.43817-.51826-.78948-.64673-1.19956-.50508z" fill="#a09610"/>
  <path d="m267.18407,690.96629c-.81919.28296-1.70221,1.52588-1.26269,2.27285 .4269.72552 1.85002.5025 2.52539,0 .25072-.18654.49067-.47487.6703-.79918 .32554-.58775-.36778-.53609-.73344-.96859-.43817-.51826-.78948-.64673-1.19956-.50508z" fill="#a09610"/>
  <path d="m280.31605,682.37999c-.81919.28296-1.70221,1.52588-1.26269,2.27285 .4269.72552 1.85002.5025 2.52539,0 .25072-.18654.49067-.47487.6703-.79918 .32554-.58775-.36778-.53609-.73344-.96859-.43817-.51826-.78948-.64673-1.19956-.50508z" fill="#a09610"/>
  <path d="m284.31605,518.37999c-.81919.28296-1.70221,1.52588-1.26269,2.27285 .4269.72552 1.85002.5025 2.52539,0 .25072-.18654.49067-.47487.6703-.79918 .32554-.58775-.36778-.53609-.73344-.96859-.43817-.51826-.78948-.64673-1.19956-.50508z" fill="#a09610"/>
  <path d="m320.31605,516.37999c-.81919.28296-1.70221,1.52588-1.26269,2.27285 .4269.72552 1.85002.5025 2.52539,0 .25072-.18654.49067-.47487.6703-.79918 .32554-.58775-.36778-.53609-.73344-.96859-.43817-.51826-.78948-.64673-1.19956-.50508z" fill="#a09610"/>
  <path d="m312.31605,682.37999c-.81919.28296-1.70221,1.52588-1.26269,2.27285 .4269.72552 1.85002.5025 2.52539,0 .25072-.18654.49067-.47487.6703-.79918 .32554-.58775-.36778-.53609-.73344-.96859-.43817-.51826-.78948-.64673-1.19956-.50508z" fill="#a09610"/>
  <path d="m306.31605,676.37999c-.81919.28296-1.70221,1.52588-1.26269,2.27285 .4269.72552 1.85002.5025 2.52539,0 .25072-.18654.49067-.47487.6703-.79918 .32554-.58775-.36778-.53609-.73344-.96859-.43817-.51826-.78948-.64673-1.19956-.50508z" fill="#a09610"/>
  <path d="m222.73736,680.86476c-.81919.28296-1.70221,1.52588-1.26269,2.27285 .4269.72552 1.85002.5025 2.52539,0 .25072-.18654.49067-.47487.6703-.79918 .32554-.58775-.36778-.53609-.73344-.96859-.43817-.51826-.78948-.64673-1.19956-.50508z" fill="#a09610"/>
  <path d="m235.86934,672.27846c-.81919.28296-1.70221,1.52588-1.26269,2.27285 .4269.72552 1.85002.5025 2.52539,0 .25072-.18654.49067-.47487.6703-.79918 .32554-.58775-.36778-.53609-.73344-.96859-.43817-.51826-.78948-.64673-1.19956-.50508z" fill="#a09610"/>
  <path d="m393.44077,620.42132c-.81919.28296-1.70221,1.52588-1.26269,2.27285 .4269.72552 1.85002.5025 2.52539,0 .25072-.18654.49067-.47487.6703-.79918 .32554-.58775-.36778-.53609-.73344-.96859-.43817-.51826-.78948-.64673-1.19956-.50508z" fill="#a09610"/>
  <path d="m223.86934,520.27846c-.81919.28296-1.70221,1.52588-1.26269,2.27285 .4269.72552 1.85002.5025 2.52539,0 .25072-.18654.49067-.47487.6703-.79918 .32554-.58775-.36778-.53609-.73344-.96859-.43817-.51826-.78948-.64673-1.19956-.50508z" fill="#a09610"/>
  <path d="m273.86934,520.27846c-.81919.28296-1.70221,1.52588-1.26269,2.27285 .4269.72552 1.85002.5025 2.52539,0 .25072-.18654.49067-.47487.6703-.79918 .32554-.58775-.36778-.53609-.73344-.96859-.43817-.51826-.78948-.64673-1.19956-.50508z" fill="#a09610"/>
  <path d="m265.86934,696.27846c-.81919.28296-1.70221,1.52588-1.26269,2.27285 .4269.72552 1.85002.5025 2.52539,0 .25072-.18654.49067-.47487.6703-.79918 .32554-.58775-.36778-.53609-.73344-.96859-.43817-.51826-.78948-.64673-1.19956-.50508z" fill="#a09610"/>
  <path d="m267.86934,672.27846c-.81919.28296-1.70221,1.52588-1.26269,2.27285 .4269.72552 1.85002.5025 2.52539,0 .25072-.18654.49067-.47487.6703-.79918 .32554-.58775-.36778-.53609-.73344-.96859-.43817-.51826-.78948-.64673-1.19956-.50508z" fill="#a09610"/>
  <path d="m261.86934,666.27846c-.81919.28296-1.70221,1.52588-1.26269,2.27285 .4269.72552 1.85002.5025 2.52539,0 .25072-.18654.49067-.47487.6703-.79918 .32554-.58775-.36778-.53609-.73344-.96859-.43817-.51826-.78948-.64673-1.19956-.50508z" fill="#a09610"/>
  <path d="m243.73458,672.46317c-1.09368.36718-2.27257,1.98002-1.68578,2.94931 .56994.94146 2.46991.65206 3.37158,0 .33473-.24206.65508-.6162.8949-1.03704 .43462-.76268-.49101-.69564-.97919-1.25686-.58499-.67251-1.05402-.83922-1.60151-.65541z" fill="#a09610"/>
  <path d="m385.94483,610.17755c-1.09368.36718-2.27258,1.98003-1.68579,2.94931 .56994.94146 2.46992.65206 3.37158,0 .33473-.24206.65509-.6162.8949-1.03703 .43462-.76268-.49101-.69565-.97919-1.25687-.58499-.67251-1.05402-.83922-1.6015-.65541z" fill="#a09610"/>
  <path d="m232.3734,516.20147c-1.09368.36718-2.27258,1.98002-1.68579,2.94931 .56994.94145 2.46992.65206 3.37158,0 .33473-.24206.65509-.6162.8949-1.03704 .43462-.76268-.49101-.69564-.97919-1.25687-.58499-.6725-1.05402-.83921-1.6015-.6554z" fill="#a09610"/>
  <path d="m256.40473,516.20147c-1.09368.36718-2.27257,1.98002-1.68578,2.94931 .56994.94145 2.46991.65206 3.37158,0 .33473-.24206.65508-.6162.8949-1.03704 .43462-.76268-.49101-.69564-.9792-1.25687-.58498-.6725-1.05401-.83921-1.6015-.6554z" fill="#a09610"/>
  <path d="m289.12711,688.03469c-1.09368.36718-2.27258,1.98003-1.68578,2.94931 .56994.94146 2.46991.65206 3.37158,0 .33473-.24206.65508-.6162.8949-1.03703 .43462-.76268-.49101-.69565-.9792-1.25687-.58499-.67251-1.05401-.83922-1.6015-.65541z" fill="#a09610"/>
  <path d="m291.79726,669.86792c-1.09368.36717-2.27258,1.98002-1.68579,2.94931 .56995.94145 2.46992.65205 3.37159,0 .33473-.24206.65508-.61621.8949-1.03704 .43462-.76268-.49102-.69564-.9792-1.25687-.58499-.67251-1.05401-.83921-1.6015-.6554z" fill="#a09610"/>
  <path d="m337.24842,664.00882c-1.09368.36718-2.27258,1.98003-1.68578,2.94932 .56994.94145 2.46991.65205 3.37158,0 .33473-.24206.65508-.61621.8949-1.03704 .43462-.76268-.49101-.69565-.9792-1.25687-.58499-.67251-1.05401-.83921-1.6015-.65541z" fill="#a09610"/>
  <path d="m293.19871,461.60531c-1.09368.36718-2.27257,1.98002-1.68578,2.94931 .56994.94146 2.46991.65206 3.37158,0 .33473-.24206.65508-.6162.8949-1.03704 .43462-.76268-.49101-.69564-.97919-1.25686-.58499-.67251-1.05402-.83922-1.60151-.65541z" fill="#a09610"/>
  <path d="m335.40896,512.17683c-1.09368.36718-2.27258,1.98003-1.68579,2.94931 .56994.94146 2.46992.65206 3.37158,0 .33473-.24206.65509-.6162.8949-1.03703 .43462-.76268-.49101-.69565-.97919-1.25687-.58499-.67251-1.05402-.83922-1.6015-.65541z" fill="#a09610"/>
  <path d="m331.78668,656.83248c-.81919.28296-1.70221,1.52588-1.26269,2.27285 .4269.72552 1.85002.5025 2.52539,0 .25072-.18654.49067-.47487.6703-.79918 .32554-.58775-.36778-.53609-.73344-.96859-.43817-.51826-.78948-.64673-1.19956-.50508z" fill="#a09610"/>
  <path d="m315.78668,656.83248c-.81919.28296-1.70221,1.52588-1.26269,2.27285 .4269.72552 1.85002.5025 2.52539,0 .25072-.18654.49067-.47487.6703-.79918 .32554-.58775-.36778-.53609-.73344-.96859-.43817-.51826-.78948-.64673-1.19956-.50508z" fill="#a09610"/>
  <path d="m349.78668,656.83248c-.81919.28296-1.70221,1.52588-1.26269,2.27285 .4269.72552 1.85002.5025 2.52539,0 .25072-.18654.49067-.47487.6703-.79918 .32554-.58775-.36778-.53609-.73344-.96859-.43817-.51826-.78948-.64673-1.19956-.50508z" fill="#a09610"/>
  <path d="m363.78668,656.83248c-.81919.28296-1.70221,1.52588-1.26269,2.27285 .4269.72552 1.85002.5025 2.52539,0 .25072-.18654.49067-.47487.6703-.79918 .32554-.58775-.36778-.53609-.73344-.96859-.43817-.51826-.78948-.64673-1.19956-.50508z" fill="#a09610"/>
  <path d="m365.78668,670.83248c-.81919.28296-1.70221,1.52588-1.26269,2.27285 .4269.72552 1.85002.5025 2.52539,0 .25072-.18654.49067-.47487.6703-.79918 .32554-.58775-.36778-.53609-.73344-.96859-.43817-.51826-.78948-.64673-1.19956-.50508z" fill="#a09610"/>
  <path d="m364.03034,667.52285c-.81919.28296-1.70221,1.52588-1.26269,2.27285 .4269.72552 1.85002.5025 2.52539,0 .25072-.18654.49067-.47487.6703-.79918 .32554-.58775-.36778-.53609-.73344-.96859-.43817-.51826-.78948-.64673-1.19956-.50508z" fill="#a09610"/>
  <path d="m310.45891,456.52285c-.81919.28296-1.70221,1.52588-1.26269,2.27285 .4269.72552 1.85002.5025 2.52539,0 .25072-.18654.49067-.47487.6703-.79918 .32554-.58775-.36778-.53609-.73344-.96859-.43817-.51826-.78948-.64673-1.19956-.50508z" fill="#a09610"/>
  <path d="m302.45891,464.52285c-.81919.28296-1.70221,1.52588-1.26269,2.27285 .4269.72552 1.85002.5025 2.52539,0 .25072-.18654.49067-.47487.6703-.79918 .32554-.58775-.36778-.53609-.73344-.96859-.43817-.51826-.78948-.64673-1.19956-.50508z" fill="#a09610"/>
  <path d="m366.03034,517.52285c-.81919.28296-1.70221,1.52588-1.26269,2.27285 .4269.72552 1.85002.5025 2.52539,0 .25072-.18654.49067-.47487.6703-.79918 .32554-.58775-.36778-.53609-.73344-.96859-.43817-.51826-.78948-.64673-1.19956-.50508z" fill="#a09610"/>
  <path d="m350.03034,521.52285c-.81919.28296-1.70221,1.52588-1.26269,2.27285 .4269.72552 1.85002.5025 2.52539,0 .25072-.18654.49067-.47487.6703-.79918 .32554-.58775-.36778-.53609-.73344-.96859-.43817-.51826-.78948-.64673-1.19956-.50508z" fill="#a09610"/>
  <path d="m372.03034,521.52285c-.81919.28296-1.70221,1.52588-1.26269,2.27285 .4269.72552 1.85002.5025 2.52539,0 .25072-.18654.49067-.47487.6703-.79918 .32554-.58775-.36778-.53609-.73344-.96859-.43817-.51826-.78948-.64673-1.19956-.50508z" fill="#a09610"/>
  <path d="m319.58363,657.42132c-.81919.28296-1.70221,1.52588-1.26269,2.27285 .4269.72552 1.85002.5025 2.52539,0 .25072-.18654.49067-.47487.6703-.79918 .32554-.58775-.36778-.53609-.73344-.96859-.43817-.51826-.78948-.64673-1.19956-.50508z" fill="#a09610"/>
  <path d="m319.58363,671.42132c-.81919.28296-1.70221,1.52588-1.26269,2.27285 .4269.72552 1.85002.5025 2.52539,0 .25072-.18654.49067-.47487.6703-.79918 .32554-.58775-.36778-.53609-.73344-.96859-.43817-.51826-.78948-.64673-1.19956-.50508z" fill="#a09610"/>
  <path d="m337.58363,671.42132c-.81919.28296-1.70221,1.52588-1.26269,2.27285 .4269.72552 1.85002.5025 2.52539,0 .25072-.18654.49067-.47487.6703-.79918 .32554-.58775-.36778-.53609-.73344-.96859-.43817-.51826-.78948-.64673-1.19956-.50508z" fill="#a09610"/>
  <path d="m337.58363,679.42132c-.81919.28296-1.70221,1.52588-1.26269,2.27285 .4269.72552 1.85002.5025 2.52539,0 .25072-.18654.49067-.47487.6703-.79918 .32554-.58775-.36778-.53609-.73344-.96859-.43817-.51826-.78948-.64673-1.19956-.50508z" fill="#a09610"/>
  <path d="m311.58363,679.42132c-.81919.28296-1.70221,1.52588-1.26269,2.27285 .4269.72552 1.85002.5025 2.52539,0 .25072-.18654.49067-.47487.6703-.79918 .32554-.58775-.36778-.53609-.73344-.96859-.43817-.51826-.78948-.64673-1.19956-.50508z" fill="#a09610"/>
  <path d="m311.58363,697.42132c-.81919.28296-1.70221,1.52588-1.26269,2.27285 .4269.72552 1.85002.5025 2.52539,0 .25072-.18654.49067-.47487.6703-.79918 .32554-.58775-.36778-.53609-.73344-.96859-.43817-.51826-.78948-.64673-1.19956-.50508z" fill="#a09610"/>
  <path d="m339.58363,513.42132c-.81919.28296-1.70221,1.52588-1.26269,2.27285 .4269.72552 1.85002.5025 2.52539,0 .25072-.18654.49067-.47487.6703-.79918 .32554-.58775-.36778-.53609-.73344-.96859-.43817-.51826-.78948-.64673-1.19956-.50508z" fill="#a09610"/>
  <path d="m292.0122,474.42132c-.81919.28296-1.70221,1.52588-1.26269,2.27285 .4269.72552 1.85002.5025 2.52539,0 .25072-.18654.49067-.47487.6703-.79918 .32554-.58775-.36778-.53609-.73344-.96859-.43817-.51826-.78948-.64673-1.19956-.50508z" fill="#a09610"/>
  <path d="m369.58363,657.42132c-.81919.28296-1.70221,1.52588-1.26269,2.27285 .4269.72552 1.85002.5025 2.52539,0 .25072-.18654.49067-.47487.6703-.79918 .32554-.58775-.36778-.53609-.73344-.96859-.43817-.51826-.78948-.64673-1.19956-.50508z" fill="#a09610"/>
  <path d="m352.11902,663.72534c-1.09368.36718-2.27257,1.98003-1.68578,2.94931 .56994.94146 2.46991.65206 3.37158,0 .33473-.24205.65508-.6162.8949-1.03703 .43462-.76268-.49101-.69565-.9792-1.25687-.58498-.67251-1.05401-.83922-1.6015-.65541z" fill="#a09610"/>
  <path d="m317.40709,663.72534c-1.09368.36718-2.27258,1.98003-1.68578,2.94931 .56994.94146 2.46991.65206 3.37158,0 .33473-.24205.65508-.6162.8949-1.03703 .43462-.76268-.49101-.69565-.9792-1.25687-.58499-.67251-1.05401-.83922-1.6015-.65541z" fill="#a09610"/>
  <path d="m317.40709,687.08263c-1.09368.36717-2.27258,1.98002-1.68578,2.94931 .56994.94145 2.46991.65206 3.37158,0 .33473-.24206.65508-.61621.8949-1.03704 .43462-.76268-.49101-.69564-.9792-1.25687-.58499-.67251-1.05401-.83921-1.6015-.6554z" fill="#a09610"/>
  <path d="m327.40709,520.43991c-1.09368.36718-2.27258,1.98002-1.68578,2.94931 .56994.94146 2.46991.65206 3.37158,0 .33473-.24206.65508-.6162.8949-1.03704 .43462-.76268-.49101-.69564-.9792-1.25686-.58499-.67251-1.05401-.83922-1.6015-.65541z" fill="#a09610"/>
  <path d="m325.41754,692.27313c-1.09368.36718-2.27258,1.98003-1.68579,2.94932 .56995.94145 2.46992.65205 3.37159,0 .33473-.24206.65508-.61621.8949-1.03704 .43462-.76268-.49102-.69565-.9792-1.25687-.58499-.67251-1.05402-.83921-1.6015-.65541z" fill="#a09610"/>
  <path d="m287.867,469.86839c-1.09368.36718-2.27258,1.98002-1.68579,2.94931 .56995.94145 2.46992.65206 3.37159,0 .33473-.24206.65508-.6162.8949-1.03704 .43462-.76268-.49102-.69564-.9792-1.25687-.58499-.6725-1.05401-.83921-1.6015-.6554z" fill="#a09610"/>
  <path d="m351.43843,520.43991c-1.09368.36718-2.27258,1.98002-1.68579,2.94931 .56995.94146 2.46992.65206 3.37159,0 .33473-.24206.65508-.6162.8949-1.03704 .43462-.76268-.49102-.69564-.9792-1.25686-.58499-.67251-1.05401-.83922-1.6015-.65541z" fill="#a09610"/>
  <path d="m370.12947,520.43991c-1.09368.36718-2.27258,1.98002-1.68579,2.94931 .56995.94146 2.46992.65206 3.37159,0 .33473-.24206.65508-.6162.8949-1.03704 .43462-.76268-.49102-.69564-.9792-1.25686-.58499-.67251-1.05401-.83922-1.6015-.65541z" fill="#a09610"/>
  <path d="m309.22819,464.67788c-1.09368.36718-2.27258,1.98002-1.68579,2.94931 .56995.94146 2.46992.65206 3.37159,0 .33473-.24206.65508-.6162.8949-1.03704 .43462-.76268-.49102-.69564-.9792-1.25686-.58499-.67251-1.05402-.83922-1.6015-.65541z" fill="#a09610"/>
  <path d="m201.21525,629.26105c-.81919.28296-1.70221,1.52588-1.26269,2.27285 .4269.72552 1.85002.5025 2.52539,0 .25072-.18654.49067-.47487.6703-.79918 .32554-.58775-.36778-.53609-.73344-.96859-.43817-.51826-.78948-.64673-1.19956-.50508z" fill="#a09610"/>
  <path d="m219.21525,629.26105c-.81919.28296-1.70221,1.52588-1.26269,2.27285 .4269.72552 1.85002.5025 2.52539,0 .25072-.18654.49067-.47487.6703-.79918 .32554-.58775-.36778-.53609-.73344-.96859-.43817-.51826-.78948-.64673-1.19956-.50508z" fill="#a09610"/>
  <path d="m219.21525,637.26105c-.81919.28296-1.70221,1.52588-1.26269,2.27285 .4269.72552 1.85002.5025 2.52539,0 .25072-.18654.49067-.47487.6703-.79918 .32554-.58775-.36778-.53609-.73344-.96859-.43817-.51826-.78948-.64673-1.19956-.50508z" fill="#a09610"/>
  <path d="m193.21525,637.26105c-.81919.28296-1.70221,1.52588-1.26269,2.27285 .4269.72552 1.85002.5025 2.52539,0 .25072-.18654.49067-.47487.6703-.79918 .32554-.58775-.36778-.53609-.73344-.96859-.43817-.51826-.78948-.64673-1.19956-.50508z" fill="#a09610"/>
  <path d="m193.21525,655.26105c-.81919.28296-1.70221,1.52588-1.26269,2.27285 .4269.72552 1.85002.5025 2.52539,0 .25072-.18654.49067-.47487.6703-.79918 .32554-.58775-.36778-.53609-.73344-.96859-.43817-.51826-.78948-.64673-1.19956-.50508z" fill="#a09610"/>
  <path d="m323.21525,496.11819c-.81919.28296-1.70221,1.52588-1.26269,2.27285 .4269.72552 1.85002.5025 2.52539,0 .25072-.18654.49067-.47487.6703-.79918 .32554-.58775-.36778-.53609-.73344-.96859-.43817-.51826-.78948-.64673-1.19956-.50508z" fill="#a09610"/>
  <path d="m307.21525,496.11819c-.81919.28296-1.70221,1.52588-1.26269,2.27285 .4269.72552 1.85002.5025 2.52539,0 .25072-.18654.49067-.47487.6703-.79918 .32554-.58775-.36778-.53609-.73344-.96859-.43817-.51826-.78948-.64673-1.19956-.50508z" fill="#a09610"/>
  <path d="m199.21525,659.26105c-.81919.28296-1.70221,1.52588-1.26269,2.27285 .4269.72552 1.85002.5025 2.52539,0 .25072-.18654.49067-.47487.6703-.79918 .32554-.58775-.36778-.53609-.73344-.96859-.43817-.51826-.78948-.64673-1.19956-.50508z" fill="#a09610"/>
  <path d="m211.21525,661.26105c-.81919.28296-1.70221,1.52588-1.26269,2.27285 .4269.72552 1.85002.5025 2.52539,0 .25072-.18654.49067-.47487.6703-.79918 .32554-.58775-.36778-.53609-.73344-.96859-.43817-.51826-.78948-.64673-1.19956-.50508z" fill="#a09610"/>
  <path d="m211.21525,673.26105c-.81919.28296-1.70221,1.52588-1.26269,2.27285 .4269.72552 1.85002.5025 2.52539,0 .25072-.18654.49067-.47487.6703-.79918 .32554-.58775-.36778-.53609-.73344-.96859-.43817-.51826-.78948-.64673-1.19956-.50508z" fill="#a09610"/>
  <path d="m225.21525,673.26105c-.81919.28296-1.70221,1.52588-1.26269,2.27285 .4269.72552 1.85002.5025 2.52539,0 .25072-.18654.49067-.47487.6703-.79918 .32554-.58775-.36778-.53609-.73344-.96859-.43817-.51826-.78948-.64673-1.19956-.50508z" fill="#a09610"/>
  <path d="m227.21525,657.26105c-.81919.28296-1.70221,1.52588-1.26269,2.27285 .4269.72552 1.85002.5025 2.52539,0 .25072-.18654.49067-.47487.6703-.79918 .32554-.58775-.36778-.53609-.73344-.96859-.43817-.51826-.78948-.64673-1.19956-.50508z" fill="#a09610"/>
  <path d="m251.21525,657.26105c-.81919.28296-1.70221,1.52588-1.26269,2.27285 .4269.72552 1.85002.5025 2.52539,0 .25072-.18654.49067-.47487.6703-.79918 .32554-.58775-.36778-.53609-.73344-.96859-.43817-.51826-.78948-.64673-1.19956-.50508z" fill="#a09610"/>
  <path d="m251.21525,639.26105c-.81919.28296-1.70221,1.52588-1.26269,2.27285 .4269.72552 1.85002.5025 2.52539,0 .25072-.18654.49067-.47487.6703-.79918 .32554-.58775-.36778-.53609-.73344-.96859-.43817-.51826-.78948-.64673-1.19956-.50508z" fill="#a09610"/>
  <path d="m234.32693,654.53772c-.81919.28296-1.70221,1.52588-1.26269,2.27285 .4269.72552 1.85002.5025 2.52539,0 .25072-.18654.49067-.47487.6703-.79918 .32554-.58775-.36778-.53609-.73344-.96859-.43817-.51826-.78948-.64673-1.19956-.50508z" fill="#a09610"/>
  <path d="m247.45891,645.95142c-.81919.28296-1.70221,1.52588-1.26269,2.27285 .4269.72552 1.85002.5025 2.52539,0 .25072-.18654.49067-.47487.6703-.79918 .32554-.58775-.36778-.53609-.73344-.96859-.43817-.51826-.78948-.64673-1.19956-.50508z" fill="#a09610"/>
  <path d="m241.45891,671.95142c-.81919.28296-1.70221,1.52588-1.26269,2.27285 .4269.72552 1.85002.5025 2.52539,0 .25072-.18654.49067-.47487.6703-.79918 .32554-.58775-.36778-.53609-.73344-.96859-.43817-.51826-.78948-.64673-1.19956-.50508z" fill="#a09610"/>
  <path d="m277.45891,669.95142c-.81919.28296-1.70221,1.52588-1.26269,2.27285 .4269.72552 1.85002.5025 2.52539,0 .25072-.18654.49067-.47487.6703-.79918 .32554-.58775-.36778-.53609-.73344-.96859-.43817-.51826-.78948-.64673-1.19956-.50508z" fill="#a09610"/>
  <path d="m279.45891,645.95142c-.81919.28296-1.70221,1.52588-1.26269,2.27285 .4269.72552 1.85002.5025 2.52539,0 .25072-.18654.49067-.47487.6703-.79918 .32554-.58775-.36778-.53609-.73344-.96859-.43817-.51826-.78948-.64673-1.19956-.50508z" fill="#a09610"/>
  <path d="m273.45891,639.95142c-.81919.28296-1.70221,1.52588-1.26269,2.27285 .4269.72552 1.85002.5025 2.52539,0 .25072-.18654.49067-.47487.6703-.79918 .32554-.58775-.36778-.53609-.73344-.96859-.43817-.51826-.78948-.64673-1.19956-.50508z" fill="#a09610"/>
  <path d="m189.88022,644.43619c-.81919.28296-1.70221,1.52588-1.26269,2.27285 .4269.72552 1.85002.5025 2.52539,0 .25072-.18654.49067-.47487.6703-.79918 .32554-.58775-.36778-.53609-.73344-.96859-.43817-.51826-.78948-.64673-1.19956-.50508z" fill="#a09610"/>
  <path d="m203.0122,635.84989c-.81919.28296-1.70221,1.52588-1.26269,2.27285 .4269.72552 1.85002.5025 2.52539,0 .25072-.18654.49067-.47487.6703-.79918 .32554-.58775-.36778-.53609-.73344-.96859-.43817-.51826-.78948-.64673-1.19956-.50508z" fill="#a09610"/>
  <path d="m327.0122,484.70703c-.81919.28296-1.70221,1.52588-1.26269,2.27285 .4269.72552 1.85002.5025 2.52539,0 .25072-.18654.49067-.47487.6703-.79918 .32554-.58775-.36778-.53609-.73344-.96859-.43817-.51826-.78948-.64673-1.19956-.50508z" fill="#a09610"/>
  <path d="m311.0122,496.70703c-.81919.28296-1.70221,1.52588-1.26269,2.27285 .4269.72552 1.85002.5025 2.52539,0 .25072-.18654.49067-.47487.6703-.79918 .32554-.58775-.36778-.53609-.73344-.96859-.43817-.51826-.78948-.64673-1.19956-.50508z" fill="#a09610"/>
  <path d="m231.0122,673.84989c-.81919.28296-1.70221,1.52588-1.26269,2.27285 .4269.72552 1.85002.5025 2.52539,0 .25072-.18654.49067-.47487.6703-.79918 .32554-.58775-.36778-.53609-.73344-.96859-.43817-.51826-.78948-.64673-1.19956-.50508z" fill="#a09610"/>
  <path d="m233.0122,659.84989c-.81919.28296-1.70221,1.52588-1.26269,2.27285 .4269.72552 1.85002.5025 2.52539,0 .25072-.18654.49067-.47487.6703-.79918 .32554-.58775-.36778-.53609-.73344-.96859-.43817-.51826-.78948-.64673-1.19956-.50508z" fill="#a09610"/>
  <path d="m235.0122,635.84989c-.81919.28296-1.70221,1.52588-1.26269,2.27285 .4269.72552 1.85002.5025 2.52539,0 .25072-.18654.49067-.47487.6703-.79918 .32554-.58775-.36778-.53609-.73344-.96859-.43817-.51826-.78948-.64673-1.19956-.50508z" fill="#a09610"/>
  <path d="m229.0122,629.84989c-.81919.28296-1.70221,1.52588-1.26269,2.27285 .4269.72552 1.85002.5025 2.52539,0 .25072-.18654.49067-.47487.6703-.79918 .32554-.58775-.36778-.53609-.73344-.96859-.43817-.51826-.78948-.64673-1.19956-.50508z" fill="#a09610"/>
  <path d="m210.87744,636.0346c-1.09368.36718-2.27257,1.98002-1.68578,2.94931 .56994.94146 2.46991.65206 3.37158,0 .33473-.24206.65508-.6162.8949-1.03704 .43462-.76268-.49101-.69564-.97919-1.25686-.58499-.67251-1.05402-.83922-1.60151-.65541z" fill="#a09610"/>
  <path d="m189.51626,651.60612c-1.09368.36718-2.27258,1.98003-1.68579,2.94931 .56994.94146 2.46992.65206 3.37158,0 .33473-.24206.65509-.6162.8949-1.03703 .43462-.76268-.49101-.69565-.97919-1.25687-.58499-.67251-1.05402-.83922-1.6015-.65541z" fill="#a09610"/>
  <path d="m319.51626,492.63004c-1.09368.36718-2.27258,1.98002-1.68579,2.94931 .56994.94145 2.46992.65206 3.37158,0 .33473-.24206.65509-.6162.8949-1.03704 .43462-.76268-.49101-.69564-.97919-1.25687-.58499-.6725-1.05402-.83921-1.6015-.6554z" fill="#a09610"/>
  <path d="m213.54759,669.7729c-1.09368.36718-2.27257,1.98002-1.68578,2.94931 .56994.94145 2.46991.65206 3.37158,0 .33473-.24206.65508-.6162.8949-1.03704 .43462-.76268-.49101-.69564-.9792-1.25687-.58498-.6725-1.05401-.83921-1.6015-.6554z" fill="#a09610"/>
  <path d="m256.26997,651.60612c-1.09368.36718-2.27258,1.98003-1.68578,2.94931 .56994.94146 2.46991.65206 3.37158,0 .33473-.24206.65508-.6162.8949-1.03703 .43462-.76268-.49101-.69565-.9792-1.25687-.58499-.67251-1.05401-.83922-1.6015-.65541z" fill="#a09610"/>
  <path d="m258.94012,633.43935c-1.09368.36717-2.27258,1.98002-1.68579,2.94931 .56995.94145 2.46992.65205 3.37159,0 .33473-.24206.65508-.61621.8949-1.03704 .43462-.76268-.49102-.69564-.9792-1.25687-.58499-.67251-1.05401-.83921-1.6015-.6554z" fill="#a09610"/>
  <path d="m304.39128,627.58025c-1.09368.36718-2.27258,1.98003-1.68578,2.94932 .56994.94145 2.46991.65205 3.37158,0 .33473-.24206.65508-.61621.8949-1.03704 .43462-.76268-.49101-.69565-.9792-1.25687-.58499-.67251-1.05401-.83921-1.6015-.65541z" fill="#a09610"/>
  <path d="m313.913,650.17674c-1.09368.36718-2.27257,1.98002-1.68578,2.94931 .56994.94146 2.46991.65206 3.37158,0 .33473-.24206.65508-.6162.8949-1.03704 .43462-.76268-.49101-.69564-.97919-1.25686-.58499-.67251-1.05402-.83922-1.60151-.65541z" fill="#a09610"/>
  <path d="m292.55182,665.74826c-1.09368.36718-2.27258,1.98003-1.68579,2.94931 .56994.94146 2.46992.65206 3.37158,0 .33473-.24206.65509-.6162.8949-1.03703 .43462-.76268-.49101-.69565-.97919-1.25687-.58499-.67251-1.05402-.83922-1.6015-.65541z" fill="#a09610"/>
  <path d="m298.92954,620.40391c-.81919.28296-1.70221,1.52588-1.26269,2.27285 .4269.72552 1.85002.5025 2.52539,0 .25072-.18654.49067-.47487.6703-.79918 .32554-.58775-.36778-.53609-.73344-.96859-.43817-.51826-.78948-.64673-1.19956-.50508z" fill="#a09610"/>
  <path d="m282.92954,620.40391c-.81919.28296-1.70221,1.52588-1.26269,2.27285 .4269.72552 1.85002.5025 2.52539,0 .25072-.18654.49067-.47487.6703-.79918 .32554-.58775-.36778-.53609-.73344-.96859-.43817-.51826-.78948-.64673-1.19956-.50508z" fill="#a09610"/>
  <path d="m316.92954,620.40391c-.81919.28296-1.70221,1.52588-1.26269,2.27285 .4269.72552 1.85002.5025 2.52539,0 .25072-.18654.49067-.47487.6703-.79918 .32554-.58775-.36778-.53609-.73344-.96859-.43817-.51826-.78948-.64673-1.19956-.50508z" fill="#a09610"/>
  <path d="m330.92954,620.40391c-.81919.28296-1.70221,1.52588-1.26269,2.27285 .4269.72552 1.85002.5025 2.52539,0 .25072-.18654.49067-.47487.6703-.79918 .32554-.58775-.36778-.53609-.73344-.96859-.43817-.51826-.78948-.64673-1.19956-.50508z" fill="#a09610"/>
  <path d="m332.92954,634.40391c-.81919.28296-1.70221,1.52588-1.26269,2.27285 .4269.72552 1.85002.5025 2.52539,0 .25072-.18654.49067-.47487.6703-.79918 .32554-.58775-.36778-.53609-.73344-.96859-.43817-.51826-.78948-.64673-1.19956-.50508z" fill="#a09610"/>
  <path d="m331.1732,631.09428c-.81919.28296-1.70221,1.52588-1.26269,2.27285 .4269.72552 1.85002.5025 2.52539,0 .25072-.18654.49067-.47487.6703-.79918 .32554-.58775-.36778-.53609-.73344-.96859-.43817-.51826-.78948-.64673-1.19956-.50508z" fill="#a09610"/>
  <path d="m331.1732,645.09428c-.81919.28296-1.70221,1.52588-1.26269,2.27285 .4269.72552 1.85002.5025 2.52539,0 .25072-.18654.49067-.47487.6703-.79918 .32554-.58775-.36778-.53609-.73344-.96859-.43817-.51826-.78948-.64673-1.19956-.50508z" fill="#a09610"/>
  <path d="m323.1732,653.09428c-.81919.28296-1.70221,1.52588-1.26269,2.27285 .4269.72552 1.85002.5025 2.52539,0 .25072-.18654.49067-.47487.6703-.79918 .32554-.58775-.36778-.53609-.73344-.96859-.43817-.51826-.78948-.64673-1.19956-.50508z" fill="#a09610"/>
  <path d="m323.1732,671.09428c-.81919.28296-1.70221,1.52588-1.26269,2.27285 .4269.72552 1.85002.5025 2.52539,0 .25072-.18654.49067-.47487.6703-.79918 .32554-.58775-.36778-.53609-.73344-.96859-.43817-.51826-.78948-.64673-1.19956-.50508z" fill="#a09610"/>
  <path d="m307.1732,675.09428c-.81919.28296-1.70221,1.52588-1.26269,2.27285 .4269.72552 1.85002.5025 2.52539,0 .25072-.18654.49067-.47487.6703-.79918 .32554-.58775-.36778-.53609-.73344-.96859-.43817-.51826-.78948-.64673-1.19956-.50508z" fill="#a09610"/>
  <path d="m329.1732,675.09428c-.81919.28296-1.70221,1.52588-1.26269,2.27285 .4269.72552 1.85002.5025 2.52539,0 .25072-.18654.49067-.47487.6703-.79918 .32554-.58775-.36778-.53609-.73344-.96859-.43817-.51826-.78948-.64673-1.19956-.50508z" fill="#a09610"/>
  <path d="m286.72649,620.99275c-.81919.28296-1.70221,1.52588-1.26269,2.27285 .4269.72552 1.85002.5025 2.52539,0 .25072-.18654.49067-.47487.6703-.79918 .32554-.58775-.36778-.53609-.73344-.96859-.43817-.51826-.78948-.64673-1.19956-.50508z" fill="#a09610"/>
  <path d="m286.72649,634.99275c-.81919.28296-1.70221,1.52588-1.26269,2.27285 .4269.72552 1.85002.5025 2.52539,0 .25072-.18654.49067-.47487.6703-.79918 .32554-.58775-.36778-.53609-.73344-.96859-.43817-.51826-.78948-.64673-1.19956-.50508z" fill="#a09610"/>
  <path d="m304.72649,634.99275c-.81919.28296-1.70221,1.52588-1.26269,2.27285 .4269.72552 1.85002.5025 2.52539,0 .25072-.18654.49067-.47487.6703-.79918 .32554-.58775-.36778-.53609-.73344-.96859-.43817-.51826-.78948-.64673-1.19956-.50508z" fill="#a09610"/>
  <path d="m304.72649,642.99275c-.81919.28296-1.70221,1.52588-1.26269,2.27285 .4269.72552 1.85002.5025 2.52539,0 .25072-.18654.49067-.47487.6703-.79918 .32554-.58775-.36778-.53609-.73344-.96859-.43817-.51826-.78948-.64673-1.19956-.50508z" fill="#a09610"/>
  <path d="m278.72649,642.99275c-.81919.28296-1.70221,1.52588-1.26269,2.27285 .4269.72552 1.85002.5025 2.52539,0 .25072-.18654.49067-.47487.6703-.79918 .32554-.58775-.36778-.53609-.73344-.96859-.43817-.51826-.78948-.64673-1.19956-.50508z" fill="#a09610"/>
  <path d="m278.72649,660.99275c-.81919.28296-1.70221,1.52588-1.26269,2.27285 .4269.72552 1.85002.5025 2.52539,0 .25072-.18654.49067-.47487.6703-.79918 .32554-.58775-.36778-.53609-.73344-.96859-.43817-.51826-.78948-.64673-1.19956-.50508z" fill="#a09610"/>
  <path d="m284.72649,664.99275c-.81919.28296-1.70221,1.52588-1.26269,2.27285 .4269.72552 1.85002.5025 2.52539,0 .25072-.18654.49067-.47487.6703-.79918 .32554-.58775-.36778-.53609-.73344-.96859-.43817-.51826-.78948-.64673-1.19956-.50508z" fill="#a09610"/>
  <path d="m296.72649,666.99275c-.81919.28296-1.70221,1.52588-1.26269,2.27285 .4269.72552 1.85002.5025 2.52539,0 .25072-.18654.49067-.47487.6703-.79918 .32554-.58775-.36778-.53609-.73344-.96859-.43817-.51826-.78948-.64673-1.19956-.50508z" fill="#a09610"/>
  <path d="m312.72649,662.99275c-.81919.28296-1.70221,1.52588-1.26269,2.27285 .4269.72552 1.85002.5025 2.52539,0 .25072-.18654.49067-.47487.6703-.79918 .32554-.58775-.36778-.53609-.73344-.96859-.43817-.51826-.78948-.64673-1.19956-.50508z" fill="#a09610"/>
  <path d="m336.72649,662.99275c-.81919.28296-1.70221,1.52588-1.26269,2.27285 .4269.72552 1.85002.5025 2.52539,0 .25072-.18654.49067-.47487.6703-.79918 .32554-.58775-.36778-.53609-.73344-.96859-.43817-.51826-.78948-.64673-1.19956-.50508z" fill="#a09610"/>
  <path d="m336.72649,644.99275c-.81919.28296-1.70221,1.52588-1.26269,2.27285 .4269.72552 1.85002.5025 2.52539,0 .25072-.18654.49067-.47487.6703-.79918 .32554-.58775-.36778-.53609-.73344-.96859-.43817-.51826-.78948-.64673-1.19956-.50508z" fill="#a09610"/>
  <path d="m336.72649,620.99275c-.81919.28296-1.70221,1.52588-1.26269,2.27285 .4269.72552 1.85002.5025 2.52539,0 .25072-.18654.49067-.47487.6703-.79918 .32554-.58775-.36778-.53609-.73344-.96859-.43817-.51826-.78948-.64673-1.19956-.50508z" fill="#a09610"/>
  <path d="m319.26188,627.29677c-1.09368.36718-2.27257,1.98003-1.68578,2.94931 .56994.94146 2.46991.65206 3.37158,0 .33473-.24205.65508-.6162.8949-1.03703 .43462-.76268-.49101-.69565-.9792-1.25687-.58498-.67251-1.05401-.83922-1.6015-.65541z" fill="#a09610"/>
  <path d="m284.54995,627.29677c-1.09368.36718-2.27258,1.98003-1.68578,2.94931 .56994.94146 2.46991.65206 3.37158,0 .33473-.24205.65508-.6162.8949-1.03703 .43462-.76268-.49101-.69565-.9792-1.25687-.58499-.67251-1.05401-.83922-1.6015-.65541z" fill="#a09610"/>
  <path d="m284.54995,650.65406c-1.09368.36717-2.27258,1.98002-1.68578,2.94931 .56994.94145 2.46991.65206 3.37158,0 .33473-.24206.65508-.61621.8949-1.03704 .43462-.76268-.49101-.69564-.9792-1.25687-.58499-.67251-1.05401-.83921-1.6015-.6554z" fill="#a09610"/>
  <path d="m284.54995,674.01134c-1.09368.36718-2.27258,1.98002-1.68578,2.94931 .56994.94146 2.46991.65206 3.37158,0 .33473-.24206.65508-.6162.8949-1.03704 .43462-.76268-.49101-.69564-.9792-1.25686-.58499-.67251-1.05401-.83922-1.6015-.65541z" fill="#a09610"/>
  <path d="m292.5604,655.84456c-1.09368.36718-2.27258,1.98003-1.68579,2.94932 .56995.94145 2.46992.65205 3.37159,0 .33473-.24206.65508-.61621.8949-1.03704 .43462-.76268-.49102-.69565-.9792-1.25687-.58499-.67251-1.05402-.83921-1.6015-.65541z" fill="#a09610"/>
  <path d="m308.58129,658.43982c-1.09368.36718-2.27258,1.98002-1.68579,2.94931 .56995.94145 2.46992.65206 3.37159,0 .33473-.24206.65508-.6162.8949-1.03704 .43462-.76268-.49102-.69564-.9792-1.25687-.58499-.6725-1.05401-.83921-1.6015-.6554z" fill="#a09610"/>
  <path d="m308.58129,674.01134c-1.09368.36718-2.27258,1.98002-1.68579,2.94931 .56995.94146 2.46992.65206 3.37159,0 .33473-.24206.65508-.6162.8949-1.03704 .43462-.76268-.49102-.69564-.9792-1.25686-.58499-.67251-1.05401-.83922-1.6015-.65541z" fill="#a09610"/>
  <path d="m327.27233,674.01134c-1.09368.36718-2.27258,1.98002-1.68579,2.94931 .56995.94146 2.46992.65206 3.37159,0 .33473-.24206.65508-.6162.8949-1.03704 .43462-.76268-.49102-.69564-.9792-1.25686-.58499-.67251-1.05401-.83922-1.6015-.65541z" fill="#a09610"/>
  <path d="m329.94248,653.24931c-1.09368.36718-2.27258,1.98002-1.68579,2.94931 .56995.94146 2.46992.65206 3.37159,0 .33473-.24206.65508-.6162.8949-1.03704 .43462-.76268-.49102-.69564-.9792-1.25686-.58499-.67251-1.05402-.83922-1.6015-.65541z" fill="#a09610"/>
  <path d="m220.71 433.79c-5.5782 20.971-15.714 37.963-15.714 59.286 0 58.626-65.559 88.727 9.2857 163.57 9.2389 9.2389 54.501 50.499 72.857 32.143 4.221-4.221-68.571-40.743-68.571-78.571 0-29.905 0.48865-44.774 24.286-68.571 9.5015-9.5015 44.501-10.499 35-20-50.368-50.368-70.94 22.517-57.143-87.857z" clip-path="url(#a)" fill="#6f7511" filter="url(#m)" opacity=".60833"/>
  <path d="m245.71 684.51c0.28406-0.41129 1.1672-0.37883 2.5595-0.012s3.2963 1.0664 5.6581 1.9375c4.7236 1.7422 11.304 4.1896 19.246 5.6796 6.0409 1.147 12.905 1.7172 20.142 1.3762 1.3165-0.062 2.6198-0.15209 3.9068-0.26761 12.229-1.0688 22.963-4.4357 30.776-7.0063 3.9064-1.2853 7.0881-2.377 9.3841-2.9816s3.7115-0.72044 4.0418-0.15431-0.45603 1.7666-2.2524 3.4107-4.6085 3.7304-8.3579 5.9231-8.4414 4.4883-13.941 6.4361-11.808 3.5402-18.669 4.2905c-1.4519 0.15566-2.9259 0.27054-4.4169 0.34111-8.197 0.38798-16.026-0.64533-22.733-2.5681-4.4067-1.2724-8.2997-2.8991-11.609-4.6077s-6.0364-3.4971-8.1636-5.132-3.657-3.1151-4.5885-4.2701-1.2672-1.9837-0.98313-2.395z" fill="#6c700f" fill-rule="evenodd" filter="url(#l)"/>
  <path d="m251.43 401.65c-2.7344-3.3086-0.0718-8.6132-0.71428-12.857-1.0285-6.7944-3.5328-13.287-5-20-1.6551-7.5731-6.91-15.563-4.2857-22.857 0.62953-1.7498 2.8654-2.3711 4.2857-3.5714 1.6766-1.417 2.8049-4.2857 5-4.2857s4.3143 2.2004 5 4.2857c0.99227 3.0176-1.9802 6.1133-2.1429 9.2857-0.19656 3.8341 0.56458 7.6879 1.4286 11.429 2.152 9.3171 5.9613 18.177 9.2857 27.143 0.89151 2.4044 3.6537 4.7053 2.8572 7.1429-0.69771 2.1351-3.7552 2.4727-5.7143 3.5714-1.3931 0.78128-2.6981 1.9686-4.2857 2.1429-1.9517 0.21424-4.4635 0.0849-5.7143-1.4286z" fill="url(#b)"/>
  <path d="m254.82 390.76c-0.29337-7.1809-3.5369-13.659-5.3571-20.536-1.155-4.3635-5.345-20.095-0.17858-22.679 0.74536-0.37268 0 1.6667 0 2.5 0 4.8548 1.0714 9.2915 1.0714 14.464 0 8.2104 10.157 23.174 4.6429 26.964" fill="#5f2e10" filter="url(#c)"/>
  <path d="m252.14 402.36c-9.2803-0.21003-9.2382 4.6322-13.571 8.5714" fill="none" filter="url(#f)" stroke="#502d16"/>
  <path d="m255.71 402.36c-3.5601 4.1655-2.8572 8.0798-2.8572 13.571" fill="none" filter="url(#d)" stroke="#28170b"/>
  <path d="m252.86 399.51c-2.5671-1.1961-10.1 2.4393-15.714 5.7143" fill="#5f2e10" filter="url(#e)"/>
  <path d="m252.14 402.36c-9.2803-0.21003-9.2382 4.6322-13.571 8.5714" fill="none" filter="url(#k)" stroke="#502d16" stroke-linecap="round" stroke-linejoin="round" stroke-width="3"/>
  <path d="m259.29 401.65c3.6055 2.5808 3.733 6.9326 5 9.2857" fill="none" filter="url(#j)" stroke="#502d16" stroke-linecap="round" stroke-linejoin="round" stroke-width="3"/>
  <path d="m275 405.93c-4.1697-5.0963 1.2082-8.6965-9.2857-8.5714 6.913-4.3312 8.5655-2.1429 15.714-2.1429" fill="none" filter="url(#i)" stroke="#502d16" stroke-linecap="round" stroke-linejoin="round" stroke-width="3"/>
  <path d="m265.71 396.65c0.38086 0.21084 7.1216-6.606 12.143-10.714" fill="none" filter="url(#h)" stroke="#784421" stroke-linecap="round" stroke-linejoin="round" stroke-width="3"/>
  <path d="m252.86 399.51c-2.5671-1.1961-10.1 2.4393-15.714 5.7143" fill="#5f2e10" filter="url(#g)"/>
 </g>
</svg>
