<?xml version="1.0" encoding="UTF-8"?>
<!DOCTYPE svg  PUBLIC '-//W3C//DTD SVG 1.1//EN'  'http://www.w3.org/Graphics/SVG/1.1/DTD/svg11.dtd'>
<svg enable-background="new 0 0 75.95 42.95" version="1.1" viewBox="0 0 75.95 42.95" xml:space="preserve" xmlns="http://www.w3.org/2000/svg" xmlns:xlink="http://www.w3.org/1999/xlink">
<symbol id="ct" viewBox="-0.004 -29.138 23.993 29.138">
		<path d="m23.05-24.45c0.434-0.8 0.7-1.433 0.8-1.9 0.167-0.867 0.183-1.733 0.05-2.6-0.367-0.267-0.717-0.25-1.05 0.05-0.833 0.667-4.667 4.433-11.5 11.3-7.467 7.467-11.25 11.567-11.35 12.3-0.067 0.7 0.65 1.8 2.15 3.3 0.767 0.733 1.533 1.4 2.3 2 3.333-0.633 5.233-1.767 5.7-3.4 0.133-0.434 0.467-0.533 1-0.3 0.633 0.3 1.067 0.383 1.3 0.25 0.566-0.3 1.083-0.683 1.55-1.15l0.15-0.8c-0.367 0.033-0.833-0.05-1.4-0.25-0.433-0.167-0.817-0.45-1.15-0.85s-0.383-0.7-0.15-0.9c0.167-0.167 0.367-0.25 0.6-0.25 0.267-0.033 0.517-0.117 0.75-0.25 0.467-0.267 1.034-0.75 1.7-1.45-0.267-0.033-0.5-0.133-0.7-0.3-0.367-0.3-0.316-0.8 0.15-1.5 0.133-0.2 0.667-0.917 1.6-2.15 0.567-0.767 0.967-1.383 1.2-1.85 0.233-0.434 0.567-0.9 1-1.4 0.633-0.667 1.083-1.184 1.35-1.55 0.367-0.467 0.983-1.267 1.85-2.4 0.733-0.967 1.167-1.7 1.3-2.2 0.1-0.367 0.367-0.95 0.8-1.75z" clip-rule="evenodd" fill="#255700" fill-rule="evenodd"/>
</symbol>
<linearGradient id="cg" x1="23.031" x2="35.607" y1="9.9644" y2="30.514" gradientUnits="userSpaceOnUse">
	<stop stop-color="#1C4200" offset="0"/>
	<stop stop-color="#1E4400" offset=".4392"/>
	<stop stop-color="#244B01" offset=".5961"/>
	<stop stop-color="#305602" offset=".7059"/>
	<stop stop-color="#406704" offset=".7961"/>
	<stop stop-color="#557D06" offset=".8745"/>
	<stop stop-color="#6F9809" offset=".9451"/>
	<stop stop-color="#8BB50C" offset="1"/>
</linearGradient>
<path d="m23.45 16.3c-0.5-1.7-0.467-3.517 0.1-5.45 0.6-2.033 1.467-2.6 2.6-1.7 0.934 0.767 2.05 2.383 3.35 4.85 0.7 1.367 1.667 3.283 2.9 5.75 0.6 1.033 1.25 2.15 1.95 3.35 0.433 0.867 0.633 1.917 0.6 3.15-0.034 2.434-0.083 3.8-0.15 4.1-0.233 1.167-0.85 1.301-1.85 0.4-2.067-1.934-3.784-4.033-5.15-6.3-0.633-1.066-1.316-2.667-2.05-4.8-0.7-2.167-1.133-3.517-1.3-4.05l-1 0.7z" clip-rule="evenodd" fill="url(#cg)" fill-rule="evenodd"/>
<linearGradient id="cr" x1="15.732" x2="27.954" y1="7.3032" y2="27.305" gradientUnits="userSpaceOnUse">
	<stop stop-color="#255700" offset="0"/>
	<stop stop-color="#275900" offset=".4471"/>
	<stop stop-color="#2E5F01" offset=".6078"/>
	<stop stop-color="#396A02" offset=".7255"/>
	<stop stop-color="#4A7904" offset=".8157"/>
	<stop stop-color="#608E07" offset=".898"/>
	<stop stop-color="#7BA60A" offset=".9647"/>
	<stop stop-color="#8BB50C" offset="1"/>
</linearGradient>
<path d="m24.35 16.3c4.2 5.5 6.25 8.601 6.15 9.3-0.1 0.667-0.617 0.15-1.55-1.55-2.5-1.733-4.55-2.9-6.15-3.5-1.267-0.5-2.5-1.3-3.7-2.4-1.333-1.233-2.35-2.6-3.05-4.1-0.8-1.667-0.983-3.45-0.55-5.35 0.4-1.934 1.217-2.534 2.45-1.8 1.033 0.6 2.216 2.083 3.55 4.45 1.7 3.033 2.65 4.683 2.85 4.95z" clip-rule="evenodd" fill="url(#cr)" fill-rule="evenodd"/>
<linearGradient id="bg" x1="23.077" x2="33.824" y1="1.6245" y2="19.176" gradientUnits="userSpaceOnUse">
	<stop stop-color="#255700" offset="0"/>
	<stop stop-color="#275900" offset=".4471"/>
	<stop stop-color="#2E5F01" offset=".6078"/>
	<stop stop-color="#396A02" offset=".7255"/>
	<stop stop-color="#4A7904" offset=".8157"/>
	<stop stop-color="#608E07" offset=".898"/>
	<stop stop-color="#7BA60A" offset=".9647"/>
	<stop stop-color="#8BB50C" offset="1"/>
</linearGradient>
<path d="m29.2 8.15c0 1.167-0.017 2.65-0.05 4.45-0.033 1.4 0.05 2.533 0.25 3.4l0.2 0.95c0.533 2.267 0.8 3.6 0.8 4 0 1-0.717 0.417-2.15-1.75-0.7-1.1-1.233-2.167-1.6-3.2s-0.683-2.383-0.95-4.05c-0.167-0.967-0.284-2.633-0.35-5-0.033-2.034-0.184-3.4-0.45-4.1-0.367-1-0.3-1.767 0.2-2.3 0.467-0.533 1.2-0.667 2.2-0.4 0.833 0.267 1.383 1.25 1.65 2.95 0.167 1.033 0.25 2.717 0.25 5.05z" clip-rule="evenodd" fill="url(#bg)" fill-rule="evenodd"/>
<linearGradient id="bq" x1="29.402" x2="35.723" y1="10.079" y2="20.406" gradientUnits="userSpaceOnUse">
	<stop stop-color="#255700" offset="0"/>
	<stop stop-color="#275900" offset=".4471"/>
	<stop stop-color="#2E5F01" offset=".6078"/>
	<stop stop-color="#396A02" offset=".7255"/>
	<stop stop-color="#4A7904" offset=".8157"/>
	<stop stop-color="#608E07" offset=".898"/>
	<stop stop-color="#7BA60A" offset=".9647"/>
	<stop stop-color="#8BB50C" offset="1"/>
</linearGradient>
<path d="m30.15 9.7c1.6-1.267 2.767-0.867 3.5 1.2 0.367 1.067 0.467 2.117 0.3 3.15-0.1 0.534-0.233 0.95-0.4 1.25-0.233-0.1-0.433-0.066-0.6 0.1-0.367 0.367-0.434 1.2-0.2 2.5 0.2 1.033 0.417 2.133 0.65 3.3 0.1 0.6 0 0.767-0.3 0.5-0.533-0.467-1.217-1.333-2.05-2.6-1.033-1.567-1.633-2.817-1.8-3.75-0.133-0.9-0.017-2.117 0.35-3.65l0.55-2z" clip-rule="evenodd" fill="url(#bq)" fill-rule="evenodd"/>
<linearGradient id="br" x1="26.253" x2="22.126" y1="23.869" y2="29.567" gradientUnits="userSpaceOnUse">
	<stop stop-color="#255700" offset="0"/>
	<stop stop-color="#275900" offset=".4471"/>
	<stop stop-color="#2E5F01" offset=".6078"/>
	<stop stop-color="#396A02" offset=".7255"/>
	<stop stop-color="#4A7904" offset=".8157"/>
	<stop stop-color="#608E07" offset=".898"/>
	<stop stop-color="#7BA60A" offset=".9647"/>
	<stop stop-color="#8BB50C" offset="1"/>
</linearGradient>
<path d="m25.1 22.8c0.867 0.367 2.4 1.617 4.6 3.75-1.3-0.399-2.217-0.666-2.75-0.8-0.867-0.2-1.55-0.184-2.05 0.05-0.733 0.334-1.183 0.566-1.35 0.7-0.433 0.267-0.8 0.684-1.1 1.25-0.5 0.833-0.583 1.85-0.25 3.05-0.233 0.033-0.483-0.033-0.75-0.2-0.567-0.333-0.967-1.05-1.2-2.149-0.5-2.5-0.05-4.267 1.35-5.3 1-0.835 2.167-0.951 3.5-0.351z" clip-rule="evenodd" fill="url(#br)" fill-rule="evenodd"/>
<linearGradient id="bs" x1="26.246" x2="28.092" y1="26.068" y2="29.07" gradientUnits="userSpaceOnUse">
	<stop stop-color="#255700" offset="0"/>
	<stop stop-color="#275900" offset=".4471"/>
	<stop stop-color="#2E5F01" offset=".6078"/>
	<stop stop-color="#396A02" offset=".7255"/>
	<stop stop-color="#4A7904" offset=".8157"/>
	<stop stop-color="#608E07" offset=".898"/>
	<stop stop-color="#7BA60A" offset=".9647"/>
	<stop stop-color="#8BB50C" offset="1"/>
</linearGradient>
<path d="m30.85 27.4c-1.167-0.2-1.983-0.334-2.45-0.4-0.733-0.066-1.333 0.1-1.8 0.5-0.467 0.467-0.817 0.95-1.05 1.45-0.2 0.467-0.267 0.8-0.2 1-1-0.601-1.417-1.217-1.25-1.851 0.1-0.399 0.633-0.949 1.6-1.649 0.867-0.634 1.483-1 1.85-1.101 0.367-0.066 1.467 0.618 3.3 2.051z" clip-rule="evenodd" fill="url(#bs)" fill-rule="evenodd"/>
<linearGradient id="bt" x1="17.63" x2="22.567" y1="16.067" y2="24.14" gradientUnits="userSpaceOnUse">
	<stop stop-color="#255700" offset="0"/>
	<stop stop-color="#275900" offset=".4471"/>
	<stop stop-color="#2E5F01" offset=".6078"/>
	<stop stop-color="#396A02" offset=".7255"/>
	<stop stop-color="#4A7904" offset=".8157"/>
	<stop stop-color="#608E07" offset=".898"/>
	<stop stop-color="#7BA60A" offset=".9647"/>
	<stop stop-color="#8BB50C" offset="1"/>
</linearGradient>
<path d="m17.1 21.15c-1.7-2.633-1.75-4.15-0.15-4.55 0.966-0.267 2.117-0.05 3.45 0.65 1.2 0.6 2.15 1.367 2.85 2.3 1.633 2.133 2.1 3.217 1.4 3.25-1.066 0.134-2.05 0.217-2.95 0.25-2.233 0.1-3.767-0.533-4.6-1.9z" clip-rule="evenodd" fill="url(#bt)" fill-rule="evenodd"/>
<linearGradient id="bu" x1="33.346" x2="38.494" y1="18.36" y2="26.762" gradientUnits="userSpaceOnUse">
	<stop stop-color="#255700" offset="0"/>
	<stop stop-color="#275900" offset=".4471"/>
	<stop stop-color="#2E5F01" offset=".6078"/>
	<stop stop-color="#396A02" offset=".7255"/>
	<stop stop-color="#4A7904" offset=".8157"/>
	<stop stop-color="#608E07" offset=".898"/>
	<stop stop-color="#7BA60A" offset=".9647"/>
	<stop stop-color="#8BB50C" offset="1"/>
</linearGradient>
<path d="m34.3 17.95c1.633 0.233 2.534 0.917 2.7 2.05 0.1 0.633 0.05 1.183-0.15 1.65-0.267 0.7-0.417 1.133-0.45 1.3-0.2 1.533 0 2.75 0.6 3.649 0.467 0.7 0.434 1.067-0.1 1.101-0.5 0.033-1.133-0.634-1.9-2-0.867-1.601-1.4-3.3-1.6-5.1-0.167-1.833 0.133-2.717 0.9-2.65z" clip-rule="evenodd" fill="url(#bu)" fill-rule="evenodd"/>
<linearGradient id="bv" x1="19.913" x2="30.76" y1="8.3809" y2="32.232" gradientUnits="userSpaceOnUse">
	<stop stop-color="#2F7000" offset="0"/>
	<stop stop-color="#317100" offset=".4588"/>
	<stop stop-color="#387601" offset=".6235"/>
	<stop stop-color="#437F03" offset=".7412"/>
	<stop stop-color="#548C05" offset=".8353"/>
	<stop stop-color="#6A9D08" offset=".9176"/>
	<stop stop-color="#85B00B" offset=".9882"/>
	<stop stop-color="#8BB50C" offset="1"/>
</linearGradient>
<path d="m31.4 7.85c1.1 2.133 1.633 3.833 1.6 5.1 0 0.667-0.117 1.4-0.35 2.2-0.267 0.867-0.417 1.6-0.45 2.2-0.034 0.667-0.067 1.783-0.1 3.35-0.167 1.2-0.55 1.7-1.15 1.5-0.8-0.267-1.6-0.284-2.4-0.05-0.833 0.233-1.133 0.649-0.9 1.25 0.367 0.866-1.75 1.3-6.35 1.3-2.233 0.133-3.833 0.066-4.8-0.2l-1.2-0.4c-0.033-0.267 0.017-0.6 0.15-1 0.267-0.767 0.816-1.417 1.65-1.95l2.25-1.45c0.633-0.267 1.3-0.184 2 0.25 1.267 0.733 0.983 0.533-0.85-0.6-1.467-0.9-2.483-1.467-3.05-1.7-0.534-0.233-1.133-0.667-1.8-1.3l-0.85-0.85c0.2-0.2 0.467-0.4 0.8-0.6 0.633-0.4 1.267-0.6 1.9-0.6 0.967 0.034 2.217 0.434 3.75 1.2l2.1 0.9c1.233 0.333 1.4-0.183 0.5-1.55-1.067-1.6-1.684-3.15-1.85-4.65-0.2-1.434 0.017-2.583 0.65-3.45 0.8-1.1 1.25-2.117 1.35-3.05l2.65 3.3c0.867 1.1 1.417 1.967 1.65 2.6 0 0.033 0.15 0.783 0.45 2.25 0.133 0.733 0.283 1.983 0.45 3.75l0.05 0.85c0.033 0 0.033-0.367 0-1.1-0.033-1.3 0.117-2.383 0.45-3.25 0.433-0.767 0.733-1.4 0.9-1.9l0.8-2.35z" clip-rule="evenodd" fill="url(#bv)" fill-rule="evenodd"/>
<linearGradient id="bw" x1="23.464" x2="36.663" y1="10.954" y2="32.527" gradientUnits="userSpaceOnUse">
	<stop stop-color="#376E00" offset=".0118"/>
	<stop stop-color="#396E00" offset=".7333"/>
	<stop stop-color="#407002" offset=".9922"/>
	<stop stop-color="#407002" offset="1"/>
</linearGradient>
<path d="m24.25 11.8c0.367 0.2 0.85 0.8 1.45 1.8 0.633 1.066 1.233 1.816 1.8 2.25 0.533 0.4 0.85 0.383 0.95-0.05 0.1-0.333 0.45-0.1 1.05 0.7 0.3 0.4 0.583 0.833 0.85 1.3 0.767-2.033 1.4-3.45 1.9-4.25 0.9-1.466 1.617-1.583 2.15-0.35 0.5 1.1 0.617 2.316 0.35 3.65-0.267 1.433-0.35 2.333-0.25 2.7 1.1 3.967 1.25 6.2 0.45 6.7-0.567 0.333-0.817 0.983-0.75 1.95 0.066 0.899 0.333 1.733 0.8 2.5 0.467 0.733 0.683 1.434 0.65 2.1-0.033 0.667-0.367 0.75-1 0.25l-1.75-1.4c-0.1-1.167-0.667-2.317-1.7-3.45-1-1.066-1.7-1.733-2.1-2-0.6-0.434-0.85-0.316-0.75 0.35 0.167 1.134 0.25 1.75 0.25 1.851 0 0.466-0.184 0.633-0.55 0.5-0.667-0.233-1.083-0.434-1.25-0.601-0.466-0.366-0.75-0.95-0.85-1.75-0.067-0.633 0.033-1.233 0.3-1.8 0.2-0.467 0.217-0.866 0.05-1.2-0.033-0.066-0.083-0.5-0.15-1.3-0.033-0.333-0.333-0.4-0.9-0.2-0.733 0.566-1.25 0.934-1.55 1.101-0.467 0.267-1.1-0.101-1.9-1.101-0.4-0.466-1.15-1.133-2.25-2-0.466-0.333-0.617-0.867-0.45-1.6 0.167-0.867 0.45-1.5 0.85-1.9 0.333-0.3 0.667-0.417 1-0.35 0.333 0.066 0.7 0 1.1-0.2 0.467-0.233 0.684-0.567 0.65-1-0.267-0.9-0.45-1.583-0.55-2.05-0.233-0.9-0.05-1.333 0.55-1.3 0.867 0.033 1.383 0.083 1.55 0.15z" clip-rule="evenodd" fill="url(#bw)" fill-rule="evenodd"/>
<linearGradient id="bx" x1="22.975" x2="41.266" y1="11.482" y2="41.376" gradientUnits="userSpaceOnUse">
	<stop stop-color="#8BB50C" offset="0"/>
	<stop stop-color="#89B30C" offset=".5137"/>
	<stop stop-color="#82AD0B" offset=".702"/>
	<stop stop-color="#77A309" offset=".8314"/>
	<stop stop-color="#669307" offset=".9373"/>
	<stop stop-color="#588705" offset="1"/>
</linearGradient>
<path d="m41.8 41.05l-2.1-0.6-1.75-0.8c0.133 0.3 0.133 0.383 0 0.25-0.3-0.2-1.117-1.284-2.45-3.25-1.067-1.567-2.3-3.617-3.7-6.15-1.2-2.134-2.15-3.634-2.85-4.5-0.833-1.033-1.85-1.95-3.05-2.75-1.167-0.7-1.933-1.184-2.3-1.45-0.467-0.3-0.934-0.783-1.4-1.45l-0.55-0.9 0.7-1.15 0.85 1.2c0.733 0.867 1.466 1.483 2.2 1.85 1.233 0.6 2.117 1.1 2.65 1.5 0.967 0.7 1.784 1.617 2.45 2.75 1 1.733 3.017 5 6.05 9.801 0.8 1.333 1.384 2.25 1.75 2.75 0.533 0.665 1.1 1.149 1.7 1.449 0.833 0.434 1.283 0.65 1.35 0.65 0.233 0.033 0.134-0.333-0.3-1.1-0.333-0.534-2.35-3.35-6.05-8.45-0.933-1.334-1.85-2.783-2.75-4.351-0.867-1.566-1.517-2.716-1.95-3.449-0.5-0.867-1.283-1.884-2.35-3.05-1.2-1.267-2.083-2.233-2.65-2.9-0.7-0.8-1.35-1.934-1.95-3.4l-0.65-1.9 0.75-0.45 0.9 2.3c0.767 1.633 1.517 2.767 2.25 3.4 2.633 2.333 4.533 4.583 5.7 6.75 2.467 4.5 4.367 7.466 5.7 8.899 0.934 1 1.816 1.851 2.65 2.55 0.767 0.667 1.1 0.9 1 0.7-4.301-5.8-6.784-9.316-7.45-10.55-0.333-0.634-1.067-1.783-2.2-3.45-1.167-1.7-1.9-2.833-2.2-3.4-0.367-0.667-0.767-1.566-1.2-2.7-0.533-1.5-0.833-2.333-0.9-2.5-0.233-0.567-0.35-1.233-0.35-2l0.05-0.95 0.9-0.2 0.2 1.4c0.233 1.167 0.683 2.433 1.35 3.8 1.066 2.167 3.25 6.083 6.55 11.75 0.633 1.134 1.883 2.917 3.75 5.35 1.5 1.934 2.333 3.301 2.5 4.101 0.267 1.533-0.016 3.067-0.85 4.6z" clip-rule="evenodd" fill="url(#bx)" fill-rule="evenodd"/>
<linearGradient id="by" x1="19.126" x2="26.598" y1="3.229" y2="15.456" gradientUnits="userSpaceOnUse">
	<stop stop-color="#255700" offset="0"/>
	<stop stop-color="#275900" offset=".4471"/>
	<stop stop-color="#2E5F01" offset=".6078"/>
	<stop stop-color="#396A02" offset=".7255"/>
	<stop stop-color="#4A7904" offset=".8157"/>
	<stop stop-color="#608E07" offset=".898"/>
	<stop stop-color="#7BA60A" offset=".9647"/>
	<stop stop-color="#8BB50C" offset="1"/>
</linearGradient>
<path d="m25.05 15.1c0.4 0.633 0.5 1.017 0.3 1.15s-0.45 0.033-0.75-0.3c-1.7-1.534-3.2-3.367-4.5-5.5-1.867-3-2.133-5.367-0.8-7.1 0.633-0.8 1.383-1.017 2.25-0.65 0.7 0.333 1.317 0.966 1.85 1.9 0.333 0.633 0.434 1.517 0.3 2.65-0.167 1.567-0.233 2.517-0.2 2.85 0.067 1.066 0.2 1.917 0.4 2.55 0.233 0.767 0.617 1.583 1.15 2.45z" clip-rule="evenodd" fill="url(#by)" fill-rule="evenodd"/>
<linearGradient id="bz" x1="17.749" x2="27.346" y1="8.7139" y2="24.391" gradientUnits="userSpaceOnUse">
	<stop stop-color="#2C6900" offset="0"/>
	<stop stop-color="#2E6A00" offset=".4549"/>
	<stop stop-color="#357001" offset=".6196"/>
	<stop stop-color="#407903" offset=".7333"/>
	<stop stop-color="#518705" offset=".8275"/>
	<stop stop-color="#679807" offset=".9098"/>
	<stop stop-color="#82AE0B" offset=".9804"/>
	<stop stop-color="#8BB50C" offset="1"/>
</linearGradient>
<path d="m26.3 23.55l-2.4-1.2c-0.733-0.399-1.333-0.85-1.8-1.35-0.6-0.567-1.2-1.383-1.8-2.45-0.6-1.1-1.017-2.117-1.25-3.05-0.5-2.167-1.083-3.783-1.75-4.85-0.5-0.8-0.2-1.55 0.9-2.25 1.133-0.667 2.033-0.667 2.7 0s1.467 2.133 2.4 4.4c0.867 2.2 1.45 4.05 1.75 5.55 0.267 1.233 0.7 2.433 1.3 3.6 0.2 0.366 0.617 1.017 1.25 1.95 0.367 0.534-0.067 0.416-1.3-0.35z" clip-rule="evenodd" fill="url(#bz)" fill-rule="evenodd"/>
<linearGradient id="ca" x1="25.044" x2="32.839" y1="1.9287" y2="14.682" gradientUnits="userSpaceOnUse">
	<stop stop-color="#2C6900" offset="0"/>
	<stop stop-color="#2E6A00" offset=".4549"/>
	<stop stop-color="#357001" offset=".6196"/>
	<stop stop-color="#407903" offset=".7333"/>
	<stop stop-color="#518705" offset=".8275"/>
	<stop stop-color="#679807" offset=".9098"/>
	<stop stop-color="#82AE0B" offset=".9804"/>
	<stop stop-color="#8BB50C" offset="1"/>
</linearGradient>
<path d="m30.35 3c0.8 1.4 1.1 2.95 0.9 4.65-0.133 0.967-0.433 2.25-0.9 3.85-0.167 0.733-0.4 1.517-0.7 2.35-0.167 0.6-0.15 1.117 0.05 1.55 0.367 0.7 0.367 1.083 0 1.15-0.333 0.1-0.8-0.517-1.4-1.85-0.367-0.8-0.633-1.6-0.8-2.4-0.2-1.233-0.4-2.4-0.6-3.5-0.066-0.433-0.467-1.867-1.2-4.3-0.4-1.367-0.434-2.25-0.1-2.65 0.566-0.7 1.233-1.05 2-1.05 1.033 0 1.95 0.733 2.75 2.2z" clip-rule="evenodd" fill="url(#ca)" fill-rule="evenodd"/>
<linearGradient id="cb" x1="24.744" x2="31.593" y1="15.354" y2="29.23" gradientUnits="userSpaceOnUse">
	<stop stop-color="#378200" offset="0"/>
	<stop stop-color="#398300" offset=".4706"/>
	<stop stop-color="#408701" offset=".6392"/>
	<stop stop-color="#4B8E03" offset=".7569"/>
	<stop stop-color="#5C9806" offset=".8549"/>
	<stop stop-color="#72A509" offset=".9373"/>
	<stop stop-color="#88B20C" offset="1"/>
</linearGradient>
<path d="m28.25 16.9c0.833 0.567 1.467 1.283 1.9 2.15 0.267 0.534 0.75 1.567 1.45 3.101 1 1.767 1.867 2.8 2.6 3.1-1.867-2.533-2.667-4.317-2.4-5.35 0.2-0.733 0.567-1.2 1.1-1.4s0.883-0.083 1.05 0.35c0.033 0.1 0.066 0.65 0.1 1.65 0 0.867 0.2 1.667 0.6 2.4 0.667 1.233 0.934 2.633 0.8 4.199l-0.75-0.675c0.108 0.284 0.075 0.659-0.1 1.125-0.267 0.7-0.45 1.101-0.55 1.2-0.167 0.134-0.45 0.066-0.85-0.2-0.367-0.233-0.7-0.383-1-0.45l-0.4-0.05c0.934 1.134 1.067 1.8 0.4 2-0.434 0.134-0.833 0-1.2-0.399l-0.45-0.601c-0.3-0.2-0.933-0.85-1.9-1.95-0.633-0.767-1.316-1.116-2.05-1.05-0.867 0.033-1.483 0.167-1.85 0.4-0.267 0.133-0.517 0.434-0.75 0.899l-0.4 0.851c-0.633-1.334-0.817-2.367-0.55-3.101 0.233-0.733 0.6-1.366 1.1-1.899 0.667-0.7 1.4-0.983 2.2-0.851 0.9 0.134 1.5 0.317 1.8 0.551 0.192 0.12 0.467 0.428 0.825 0.925-0.372-0.715-0.647-1.373-0.825-1.975-0.3-1-0.8-1.833-1.5-2.5-0.566-0.533-1.1-0.867-1.6-1l-0.7-0.25 1.2-1.1c1-0.633 1.9-0.667 2.7-0.1z" clip-rule="evenodd" fill="url(#cb)" fill-rule="evenodd"/>
<linearGradient id="cc" x1="24.349" x2="41.85" y1="13.589" y2="42.193" gradientUnits="userSpaceOnUse">
	<stop stop-color="#A2CF1B" offset="0"/>
	<stop stop-color="#A3CF1D" offset=".4157"/>
	<stop stop-color="#A6D124" offset=".5647"/>
	<stop stop-color="#ABD32F" offset=".6706"/>
	<stop stop-color="#B3D640" offset=".7569"/>
	<stop stop-color="#BCDB56" offset=".8275"/>
	<stop stop-color="#C8E072" offset=".8941"/>
	<stop stop-color="#D6E691" offset=".9529"/>
	<stop stop-color="#E5EDB2" offset="1"/>
</linearGradient>
<path d="m43 41.05c-0.4 0.7-0.833 1.066-1.3 1.101-0.634-0.101-1.167-0.184-1.601-0.25-0.699-0.067-1.833-0.75-3.399-2.051-1.633-1.366-2.75-2.616-3.35-3.75-0.567-1.033-1.333-2.05-2.3-3.05-0.5-0.533-1.45-1.399-2.85-2.6-0.9-0.834-2.067-2.15-3.5-3.95-1.3-1.667-2.083-2.783-2.35-3.35-0.167-0.4-0.167-0.717 0-0.95 0.1-0.101 0.2-0.167 0.3-0.2l0.75 1.3c0.967 1.767 2.633 3.816 5 6.15 0.8 0.767 1.533 1.45 2.2 2.05 0.433 0.434 1.083 1.167 1.95 2.2 2.633 3.066 4.2 4.8 4.7 5.2 0.667 0.5 1.333 0.683 2 0.55l-1.1-2c-0.434-0.767-1.617-1.983-3.55-3.65-2.567-2.2-4.117-3.566-4.65-4.1-1.233-1.267-2.083-2.25-2.55-2.95-0.433-0.6-1.183-1.934-2.25-4-0.9-1.7-1.9-3.067-3-4.1l-1.35-1.1 0.1-1.85 1.65 1.8c1.267 1.533 2.333 3.1 3.2 4.7 1.033 1.899 1.933 3.316 2.7 4.25 0.7 0.8 1.95 2 3.75 3.6 1.167 1.066 2.267 2.033 3.3 2.9 0.733 0.666 1.717 1.684 2.95 3.05 1.2 1.3 1.983 2.233 2.35 2.8 0.134 0.233 0.217 0.351 0.25 0.351 0.233 0 0.4-0.233 0.5-0.7 0.134-0.566-0.017-1.267-0.45-2.101-0.267-0.5-0.966-1.449-2.1-2.85-1.2-1.434-2.183-2.833-2.95-4.2-2.033-3.533-3.683-7.267-4.95-11.2-0.4-1.367-0.65-2.833-0.75-4.4l-0.05-1.9 0.8-0.05 0.2 2.4c0.1 1.167 0.55 2.9 1.35 5.2 0.767 2.133 1.667 4.317 2.7 6.55 0.767 1.533 1.933 3.3 3.5 5.3 1.733 2.133 2.851 3.633 3.351 4.5 0.833 1.434 1.267 2.6 1.3 3.5 0.032 0.567-0.135 1.184-0.501 1.85z" clip-rule="evenodd" fill="url(#cc)" fill-rule="evenodd"/>
<linearGradient id="cd" x1="18.076" x2="27.5" y1="9.7588" y2="25.175" gradientUnits="userSpaceOnUse">
	<stop stop-color="#4E8A00" offset="0"/>
	<stop stop-color="#508B00" offset=".498"/>
	<stop stop-color="#579002" offset=".6745"/>
	<stop stop-color="#629804" offset=".8039"/>
	<stop stop-color="#73A407" offset=".9059"/>
	<stop stop-color="#89B30C" offset=".9922"/>
	<stop stop-color="#8BB50C" offset="1"/>
</linearGradient>
<path d="m24.1 22c-0.767-1.233-1.583-2.083-2.45-2.55-1.2-0.633-2.083-1.333-2.65-2.1-0.667-0.867-1.083-1.983-1.25-3.35-0.2-1.7-0.233-2.85-0.1-3.45 0.233-0.833 0.833-1.216 1.8-1.15 1.167 0.067 2.267 0.75 3.3 2.05 1.133 1.367 1.883 3.083 2.25 5.15 0.733 4.233 1.35 6.817 1.85 7.75 0.3 0.534 0.383 0.884 0.25 1.051-0.133 0.199-0.517-0.034-1.15-0.7-0.2-0.201-0.817-1.101-1.85-2.701z" clip-rule="evenodd" fill="url(#cd)" fill-rule="evenodd"/>
<linearGradient id="ce" x1="24.61" x2="33.724" y1="6.9355" y2="21.826" gradientUnits="userSpaceOnUse">
	<stop stop-color="#4E8A00" offset="0"/>
	<stop stop-color="#508B00" offset=".498"/>
	<stop stop-color="#579002" offset=".6745"/>
	<stop stop-color="#629804" offset=".8039"/>
	<stop stop-color="#73A407" offset=".9059"/>
	<stop stop-color="#89B30C" offset=".9922"/>
	<stop stop-color="#8BB50C" offset="1"/>
</linearGradient>
<path d="m30.1 10c0.566 1.933 0.883 3.767 0.95 5.5 0.034 0.833 0.034 2.3 0 4.4 0 1.533 0.05 2.4 0.15 2.6 0.2 0.4 0.233 0.684 0.1 0.85-0.167 0.2-0.533-0.066-1.1-0.8-0.367-0.434-0.617-0.767-0.75-1-0.2-0.267-0.6-1.05-1.2-2.35-1.567-3.534-2.417-5.4-2.55-5.6-0.367-0.7-0.567-1.583-0.6-2.65 0.033-1.133 0.017-1.95-0.05-2.45-0.1-0.833 0.1-1.517 0.6-2.05 0.567-0.633 1.283-0.733 2.15-0.3 0.833 0.367 1.6 1.65 2.3 3.85z" clip-rule="evenodd" fill="url(#ce)" fill-rule="evenodd"/>
<linearGradient id="cf" x1="31.327" x2="35.124" y1="13.571" y2="19.797" gradientUnits="userSpaceOnUse">
	<stop stop-color="#4E8A00" offset="0"/>
	<stop stop-color="#508B00" offset=".498"/>
	<stop stop-color="#579002" offset=".6745"/>
	<stop stop-color="#629804" offset=".8039"/>
	<stop stop-color="#73A407" offset=".9059"/>
	<stop stop-color="#89B30C" offset=".9922"/>
	<stop stop-color="#8BB50C" offset="1"/>
</linearGradient>
<path d="m32.2 20.3c-0.434-0.867-0.65-2.066-0.65-3.6 0-1.633 0.233-2.817 0.7-3.55 0.467-0.767 1.083-0.816 1.85-0.15 0.733 0.667 0.883 1.283 0.45 1.85-0.867 1.2-1.367 2.316-1.5 3.35-0.033 0.367-0.033 1.167 0 2.4-0.067 0.833-0.35 0.733-0.85-0.3z" clip-rule="evenodd" fill="url(#cf)" fill-rule="evenodd"/>
<linearGradient id="ch" x1="17.286" x2="22.22" y1="18.964" y2="27.033" gradientUnits="userSpaceOnUse">
	<stop stop-color="#4E8A00" offset="0"/>
	<stop stop-color="#508B00" offset=".498"/>
	<stop stop-color="#579002" offset=".6745"/>
	<stop stop-color="#629804" offset=".8039"/>
	<stop stop-color="#73A407" offset=".9059"/>
	<stop stop-color="#89B30C" offset=".9922"/>
	<stop stop-color="#8BB50C" offset="1"/>
</linearGradient>
<path d="m17.3 23.15c-1 0.3-1.633 0.199-1.9-0.301-0.5-0.899-0.75-1.45-0.75-1.649 0-0.534 0.5-1.05 1.5-1.55 1.167-0.6 2.5-0.683 4-0.25 1.6 0.467 2.667 1.333 3.2 2.6 0.566 1.366 0.883 2.483 0.95 3.35s-0.216 0.717-0.85-0.449c-0.567-1.034-1.15-1.717-1.75-2.051-0.467-0.267-1.1-0.383-1.9-0.35-0.2 0-1.033 0.217-2.5 0.65z" clip-rule="evenodd" fill="url(#ch)" fill-rule="evenodd"/>
<linearGradient id="ci" x1="18.653" x2="27.449" y1="10.652" y2="25.026" gradientUnits="userSpaceOnUse">
	<stop stop-color="#69AB00" offset="0"/>
	<stop stop-color="#6BAC01" offset=".5569"/>
	<stop stop-color="#72AE03" offset=".7608"/>
	<stop stop-color="#7DB107" offset=".902"/>
	<stop stop-color="#8BB50C" offset="1"/>
</linearGradient>
<path d="m22.25 12.2c0.1 0.4 0.117 0.85 0.05 1.35-0.133 0.8-0.3 1.4-0.5 1.8l1.8 3.1c0.233-0.3 0.35-0.8 0.35-1.5l0.2-2 0.1 0.8c0.033 0.633 0.033 1.183 0 1.65-0.067 0.767-0.183 1.35-0.35 1.75l0.35 0.9c0.3 0.733 0.633 1.4 1 2 0.567 0.934 1.15 2.017 1.75 3.25-0.233 0.101-0.467-0.066-0.7-0.5l-0.4-0.7c-0.833-1.566-1.417-2.616-1.75-3.149l-0.65-1.2c-0.2-0.133-0.5-0.25-0.9-0.35l-0.9-0.35 1-0.15 0.3-0.1c-0.267-0.733-0.533-1.316-0.8-1.75l-0.75-1.3c-0.367 0.133-0.767 0.167-1.2 0.1-0.333-0.033-0.683-0.133-1.05-0.3-0.333-0.133-0.534-0.233-0.6-0.3l-0.25-0.5 1.15 0.6c0.267 0.066 0.767-0.05 1.5-0.35l-2.1-4.5 1.6 2.65c0.5 0.7 0.833 1.217 1 1.55 0.3-0.434 0.483-0.983 0.55-1.65l0.05-1.3 0.15 0.449z" clip-rule="evenodd" fill="url(#ci)" fill-rule="evenodd"/>
<linearGradient id="cj" x1="25.136" x2="33.312" y1="8.0293" y2="21.378" gradientUnits="userSpaceOnUse">
	<stop stop-color="#69AB00" offset="0"/>
	<stop stop-color="#6BAC01" offset=".5569"/>
	<stop stop-color="#72AE03" offset=".7608"/>
	<stop stop-color="#7DB107" offset=".902"/>
	<stop stop-color="#8BB50C" offset="1"/>
</linearGradient>
<path d="m28.8 8.85c0.133 0.6 0.184 1.066 0.15 1.4-0.034 0.533-0.233 1.1-0.6 1.7l0.3 0.7c0.233 0.533 0.383 1.033 0.45 1.5l0.3 1.85c0.267-0.633 0.434-1.183 0.5-1.65l0.25-1.35 0.05 0.7c0 0.533-0.034 0.983-0.1 1.35l-0.35 1.75 0.3 2.95c0.367 1.7 0.633 2.733 0.8 3.1-0.434-0.366-0.733-0.833-0.9-1.399-0.133-0.333-0.284-1.034-0.45-2.1-0.133-0.934-0.2-1.483-0.2-1.65l-0.05-0.55c-0.3 0.067-0.633-0.017-1-0.25-0.233-0.133-0.5-0.35-0.8-0.65l-0.35-0.451 1 0.6c0.233 0.067 0.5 0.033 0.8-0.1-0.066-0.667-0.2-1.383-0.4-2.15l-0.75-1.95c-0.967 0.033-1.55-0.05-1.75-0.25l-0.35-0.25 0.5 0.05c0.333 0.033 0.583 0 0.75-0.1l0.6-0.25c-0.133-0.6-0.333-1.217-0.6-1.85l-0.9-2.05 0.35 0.45c0.3 0.4 0.55 0.833 0.75 1.3l0.95 2.05c0.267-0.2 0.434-0.583 0.5-1.15l0.1-2.15 0.15 0.85z" clip-rule="evenodd" fill="url(#cj)" fill-rule="evenodd"/>
<linearGradient id="ck" x1="17.884" x2="22.436" y1="19.51" y2="26.934" gradientUnits="userSpaceOnUse">
	<stop stop-color="#4C7A00" offset=".0118"/>
	<stop stop-color="#4E7C00" offset=".498"/>
	<stop stop-color="#558202" offset=".6745"/>
	<stop stop-color="#608D04" offset=".8"/>
	<stop stop-color="#719D07" offset=".902"/>
	<stop stop-color="#87B10B" offset=".9882"/>
	<stop stop-color="#8BB50C" offset="1"/>
</linearGradient>
<path d="m21.1 20.55l0.4 0.3c0.3 0.233 0.483 0.467 0.55 0.7l0.4 1.05c0.033 0.067 0.033 0.101 0 0.101 0 0.066 0.167 0.3 0.5 0.7 0.533 0.666 1.066 1.416 1.6 2.25-0.333-0.134-0.583-0.334-0.75-0.601l-1.3-1.65c-0.233-0.301-0.467-0.483-0.7-0.551l-0.65-0.149 0.45-0.15c-0.4-0.6-0.917-1.017-1.55-1.25-0.4-0.167-0.733-0.25-1-0.25l-0.3 0.05c-0.133 0.566-0.3 0.933-0.5 1.1l-0.45 0.4c0.4-0.533 0.583-0.883 0.55-1.05l-0.2-0.5c-0.333 0.1-0.683 0.2-1.05 0.3-0.35 0.133-0.625 0.25-0.825 0.35l0.825-0.55 0.8-0.3c-0.066-0.333-0.283-0.517-0.65-0.55l-0.6-0.05 0.55-0.15c0.4-0.067 0.7-0.033 0.9 0.1l0.5 0.35h0.5c0.4 0.034 0.8 0.15 1.2 0.35 0.633 0.333 1.133 0.717 1.5 1.15 0.034-0.033-0.05-0.25-0.25-0.65l-0.45-0.85z" clip-rule="evenodd" fill="url(#ck)" fill-rule="evenodd"/>
<linearGradient id="cl" x1="41.72" x2="42.748" y1="40.072" y2="41.746" gradientUnits="userSpaceOnUse">
	<stop stop-color="#B58C22" offset=".0118"/>
	<stop stop-color="#B89028" offset=".1804"/>
	<stop stop-color="#C19D38" offset=".4039"/>
	<stop stop-color="#CFB253" offset=".6549"/>
	<stop stop-color="#E2CE79" offset=".9255"/>
	<stop stop-color="#E8D784" offset="1"/>
</linearGradient>
<path d="m41.7 42.2c-0.4-0.033-0.684-0.2-0.851-0.5-0.199-0.334-0.1-0.7 0.301-1.101 0.466-0.5 0.966-0.833 1.5-1 0.566-0.133 0.833 0.034 0.8 0.5-0.033 0.4-0.184 0.817-0.45 1.25-0.366 0.568-0.8 0.851-1.3 0.851z" clip-rule="evenodd" fill="url(#cl)" fill-rule="evenodd"/>
<use transform="matrix(1 0 0 -1 16.45 12.85)" x="-0.004" y="-29.138" width="23.993" height="29.138" enable-background="new" opacity=".6211" xlink:href="#ct"/>
<linearGradient id="cm" x1="17.323" x2="42.356" y1="9.3228" y2="9.3228" gradientTransform="matrix(.8249 .5653 -.5653 .8249 .00020915 -.00012517)" gradientUnits="userSpaceOnUse">
	<stop stop-color="#1C4200" offset="0"/>
	<stop stop-color="#1E4400" offset=".4392"/>
	<stop stop-color="#244B01" offset=".5961"/>
	<stop stop-color="#305602" offset=".7059"/>
	<stop stop-color="#406704" offset=".7961"/>
	<stop stop-color="#557D06" offset=".8745"/>
	<stop stop-color="#6F9809" offset=".9451"/>
	<stop stop-color="#8BB50C" offset="1"/>
</linearGradient>
<path d="m15.55 17.5l-0.65 1.05c0.5 0.267 1.783 0.917 3.85 1.95 2.033 1.033 3.55 1.967 4.55 2.8 2.034 1.7 4.017 3.9 5.95 6.601 0.867 1.233 0.733 1.916-0.4 2.05-0.233 0.033-1.533-0.033-3.9-0.2-1.167-0.1-2.167-0.417-3-0.95-1.133-0.934-2.184-1.8-3.15-2.6-2.333-1.7-4.15-3.017-5.45-3.95-2.367-1.733-3.9-3.2-4.6-4.4-0.833-1.367-0.283-2.3 1.65-2.8 1.833-0.434 3.55-0.284 5.15 0.449z" clip-rule="evenodd" fill="url(#cm)" fill-rule="evenodd"/>
<linearGradient id="cn" x1="10.282" x2="35.224" y1="3.8896" y2="3.8896" gradientTransform="matrix(.8249 .5653 -.5653 .8249 5.6803e-5 1.6987e-5)" gradientUnits="userSpaceOnUse">
	<stop stop-color="#255700" offset="0"/>
	<stop stop-color="#275900" offset=".4471"/>
	<stop stop-color="#2E5F01" offset=".6078"/>
	<stop stop-color="#396A02" offset=".7255"/>
	<stop stop-color="#4A7904" offset=".8157"/>
	<stop stop-color="#608E07" offset=".898"/>
	<stop stop-color="#7BA60A" offset=".9647"/>
	<stop stop-color="#8BB50C" offset="1"/>
</linearGradient>
<path d="m17.35 12.65c1.033 1.5 1.783 3 2.25 4.5 0.5 1.667 1.6 4.15 3.3 7.45 1.633 1.233 2.133 1.884 1.5 1.95-0.4 0.033-1.733-1.033-4-3.2-1.633-1.566-3.233-3.183-4.8-4.85-0.167-0.167-1.733-1.417-4.7-3.75-2.267-1.767-3.683-3.267-4.25-4.5-0.667-1.5-0.066-2.4 1.8-2.7 1.767-0.3 3.45 0.083 5.05 1.15 1.433 0.967 2.717 2.283 3.85 3.95z" clip-rule="evenodd" fill="url(#cn)" fill-rule="evenodd"/>
<linearGradient id="co" x1="10.462" x2="31.396" y1="12.996" y2="12.996" gradientTransform="matrix(.8246 .5657 -.5657 .8246 .00014454 .00014335)" gradientUnits="userSpaceOnUse">
	<stop stop-color="#255700" offset="0"/>
	<stop stop-color="#275900" offset=".4471"/>
	<stop stop-color="#2E5F01" offset=".6078"/>
	<stop stop-color="#396A02" offset=".7255"/>
	<stop stop-color="#4A7904" offset=".8157"/>
	<stop stop-color="#608E07" offset=".898"/>
	<stop stop-color="#7BA60A" offset=".9647"/>
	<stop stop-color="#8BB50C" offset="1"/>
</linearGradient>
<path d="m2.95 22.55c-1.633-0.5-2.567-1.25-2.8-2.25-0.267-1.133-0.15-1.967 0.35-2.5s1.233-0.533 2.2 0c0.7 0.367 2 0.684 3.9 0.95 2.333 0.333 3.95 0.633 4.85 0.9 1.566 0.5 2.833 1 3.8 1.5 1 0.533 2.017 1.267 3.05 2.2 2.034 1.834 2.567 2.7 1.6 2.601-0.433-0.033-1.7-0.467-3.8-1.3l-0.85-0.351c-0.833-0.3-1.917-0.517-3.25-0.65-1.7-0.101-3.1-0.217-4.2-0.351-2.333-0.266-3.95-0.516-4.85-0.749z" clip-rule="evenodd" fill="url(#co)" fill-rule="evenodd"/>
<linearGradient id="cp" x1="21.454" x2="33.79" y1="14.644" y2="14.644" gradientTransform="matrix(.8248 .5654 -.5654 .8248 .00015926 -.00056428)" gradientUnits="userSpaceOnUse">
	<stop stop-color="#255700" offset="0"/>
	<stop stop-color="#275900" offset=".4471"/>
	<stop stop-color="#2E5F01" offset=".6078"/>
	<stop stop-color="#396A02" offset=".7255"/>
	<stop stop-color="#4A7904" offset=".8157"/>
	<stop stop-color="#608E07" offset=".898"/>
	<stop stop-color="#7BA60A" offset=".9647"/>
	<stop stop-color="#8BB50C" offset="1"/>
</linearGradient>
<path d="m9.2 24.55l1.95-0.45c1.434-0.233 2.583-0.233 3.45 0 0.933 0.267 2.117 1.067 3.55 2.4 1.2 1.1 2.017 1.983 2.45 2.65 0.267 0.399 0.117 0.517-0.45 0.35-1.1-0.4-2.15-0.767-3.15-1.1-1.233-0.4-2.017-0.417-2.35-0.051-0.167 0.2-0.217 0.434-0.15 0.7-0.267 0.167-0.65 0.283-1.15 0.351-0.967 0.1-1.967-0.117-3-0.65-2-1.066-2.383-2.467-1.15-4.2z" clip-rule="evenodd" fill="url(#cp)" fill-rule="evenodd"/>
<linearGradient id="cq" x1="8.9692" x2="17.653" y1="-28.482" y2="-28.482" gradientTransform="matrix(-.2044 .9789 -.9789 -.2044 -.00058636 -5.88e-5)" gradientUnits="userSpaceOnUse">
	<stop stop-color="#255700" offset="0"/>
	<stop stop-color="#275900" offset=".4471"/>
	<stop stop-color="#2E5F01" offset=".6078"/>
	<stop stop-color="#396A02" offset=".7255"/>
	<stop stop-color="#4A7904" offset=".8157"/>
	<stop stop-color="#608E07" offset=".898"/>
	<stop stop-color="#7BA60A" offset=".9647"/>
	<stop stop-color="#8BB50C" offset="1"/>
</linearGradient>
<path d="m24.6 20.15c-0.2 0.5-0.217 1.267-0.05 2.3 0.133 0.6 0.383 1.684 0.75 3.25-2-2.733-3.183-4.633-3.55-5.7-0.533-1.533-0.417-2.867 0.35-4 1.033-1.433 2.733-1.75 5.1-0.95 1.033 0.333 1.7 0.85 2 1.55 0.167 0.333 0.233 0.633 0.2 0.9-1.133-0.5-2.1-0.517-2.9-0.05-0.533 0.3-0.933 0.683-1.2 1.15-0.133 0.2-0.367 0.717-0.7 1.55z" clip-rule="evenodd" fill="url(#cq)" fill-rule="evenodd"/>
<linearGradient id="cs" x1="32.73" x2="36.849" y1="4.1567" y2="4.1567" gradientTransform="matrix(.8255 .5645 -.5645 .8255 -8.3566e-5 .00012112)" gradientUnits="userSpaceOnUse">
	<stop stop-color="#255700" offset="0"/>
	<stop stop-color="#275900" offset=".4471"/>
	<stop stop-color="#2E5F01" offset=".6078"/>
	<stop stop-color="#396A02" offset=".7255"/>
	<stop stop-color="#4A7904" offset=".8157"/>
	<stop stop-color="#608E07" offset=".898"/>
	<stop stop-color="#7BA60A" offset=".9647"/>
	<stop stop-color="#8BB50C" offset="1"/>
</linearGradient>
<path d="m26.05 27.15c-1.333-2.267-1.95-3.617-1.85-4.051 0.066-0.366 0.417-1.033 1.05-2 0.667-1.033 1.2-1.6 1.6-1.7 0.566-0.133 1.133 0.4 1.7 1.6-0.233-0.067-0.533-0.017-0.9 0.15-0.5 0.233-0.967 0.6-1.4 1.1-0.4 0.467-0.567 1.15-0.5 2.05 0.033 0.534 0.133 1.484 0.3 2.851z" clip-rule="evenodd" fill="url(#cs)" fill-rule="evenodd"/>
<linearGradient id="ax" x1="18.583" x2="29.033" y1=".7959" y2=".7959" gradientTransform="matrix(.8254 .5646 -.5646 .8254 -.00019652 .00016224)" gradientUnits="userSpaceOnUse">
	<stop stop-color="#255700" offset="0"/>
	<stop stop-color="#275900" offset=".4471"/>
	<stop stop-color="#2E5F01" offset=".6078"/>
	<stop stop-color="#396A02" offset=".7255"/>
	<stop stop-color="#4A7904" offset=".8157"/>
	<stop stop-color="#608E07" offset=".898"/>
	<stop stop-color="#7BA60A" offset=".9647"/>
	<stop stop-color="#8BB50C" offset="1"/>
</linearGradient>
<path d="m20.25 10.6c1.2 1.066 1.8 2.917 1.8 5.55-0.033 1.033-0.133 2.167-0.3 3.4-0.033 0.767-1.05 0.117-3.05-1.95-0.9-0.934-1.633-2.117-2.2-3.55-0.633-1.6-0.833-2.95-0.6-4.05 0.233-1.033 0.817-1.4 1.75-1.1 0.633 0.2 1.5 0.767 2.6 1.7z" clip-rule="evenodd" fill="url(#ax)" fill-rule="evenodd"/>
<linearGradient id="ay" x1="30.966" x2="41.09" y1="14.703" y2="14.703" gradientTransform="matrix(.8248 .5655 -.5655 .8248 6.8843e-5 -.00014693)" gradientUnits="userSpaceOnUse">
	<stop stop-color="#255700" offset="0"/>
	<stop stop-color="#275900" offset=".4471"/>
	<stop stop-color="#2E5F01" offset=".6078"/>
	<stop stop-color="#396A02" offset=".7255"/>
	<stop stop-color="#4A7904" offset=".8157"/>
	<stop stop-color="#608E07" offset=".898"/>
	<stop stop-color="#7BA60A" offset=".9647"/>
	<stop stop-color="#8BB50C" offset="1"/>
</linearGradient>
<path d="m17.05 30.15c-0.066-0.9 0.767-1.15 2.5-0.75 1.733 0.433 3.35 1.233 4.85 2.399 1.3 1 1.934 1.783 1.9 2.351-0.033 0.6-0.383 0.6-1.05 0-0.867-0.767-2.017-1.117-3.45-1.051-0.2 0-0.617 0.134-1.25 0.4-0.466 0.167-0.983 0.167-1.55 0-1.167-0.332-1.817-1.449-1.95-3.349z" clip-rule="evenodd" fill="url(#ay)" fill-rule="evenodd"/>
<linearGradient id="az" x1="14.972" x2="42.408" y1="2.9063" y2="2.9063" gradientTransform="matrix(.7499 .6615 -.6615 .7499 9.5129e-5 -.00023407)" gradientUnits="userSpaceOnUse">
	<stop stop-color="#2F7000" offset="0"/>
	<stop stop-color="#317100" offset=".4588"/>
	<stop stop-color="#387601" offset=".6235"/>
	<stop stop-color="#437F03" offset=".7412"/>
	<stop stop-color="#548C05" offset=".8353"/>
	<stop stop-color="#6A9D08" offset=".9176"/>
	<stop stop-color="#85B00B" offset=".9882"/>
	<stop stop-color="#8BB50C" offset="1"/>
</linearGradient>
<path d="m23.6 15.85c-0.033 5.3-0.467 7.7-1.3 7.2-0.6-0.366-1.017-0.066-1.25 0.9-0.2 0.899-0.183 1.833 0.05 2.8 0.2 0.733-0.267 1.116-1.4 1.15-1.5-0.101-2.567-0.167-3.2-0.2-0.6 0-1.3 0.083-2.1 0.25-0.767 0.2-1.467 0.283-2.1 0.25-1.2-0.066-2.816-0.851-4.85-2.351l2.25-0.699c0.466-0.134 1.083-0.417 1.85-0.851 0.767-0.333 1.784-0.399 3.05-0.2l1.05 0.15c0-0.033-0.267-0.1-0.8-0.2-1.733-0.366-2.917-0.666-3.55-0.899-1.333-0.434-2.05-0.684-2.15-0.75-0.6-0.301-1.417-1.017-2.45-2.15l-3.15-3.4c0.9 0 1.883-0.417 2.95-1.25 0.833-0.633 1.917-0.767 3.25-0.4 1.433 0.367 2.917 1.233 4.45 2.6 1.3 1.167 1.8 1.034 1.5-0.4l-0.85-2.55c-0.733-1.833-1.1-3.317-1.1-4.45 0-0.7 0.2-1.4 0.6-2.1 0.167-0.367 0.35-0.65 0.55-0.85l0.8 1.05c0.6 0.833 1 1.567 1.2 2.2 0.2 0.667 0.733 1.9 1.6 3.7 1.433 3 1.617 3.35 0.55 1.05-0.4-0.867-0.466-1.65-0.2-2.35 0.533-0.934 1-1.767 1.4-2.5 0.533-0.9 1.167-1.467 1.9-1.7 0.367-0.1 0.684-0.117 0.95-0.05l0.35 1.45c0.267 1 0.317 2.85 0.15 5.55z" clip-rule="evenodd" fill="url(#az)" fill-rule="evenodd"/>
<linearGradient id="ba" x1="18.127" x2="44.802" y1="8.7949" y2="8.7949" gradientTransform="matrix(.8249 .5653 -.5653 .8249 .0001415 -9.5844e-5)" gradientUnits="userSpaceOnUse">
	<stop stop-color="#376E00" offset=".0118"/>
	<stop stop-color="#396E00" offset=".7333"/>
	<stop stop-color="#407002" offset=".9922"/>
	<stop stop-color="#407002" offset="1"/>
</linearGradient>
<path d="m21.1 16.15c0.9 1.033 1.217 1.8 0.95 2.3-0.167 0.333-0.517 0.883-1.05 1.65-0.167 0.667-0.1 1.033 0.2 1.1 0.733 0.133 1.15 0.233 1.25 0.3 0.333 0.2 0.716 0.217 1.15 0.05 0.533-0.233 1.1-0.283 1.7-0.15 0.767 0.167 1.333 0.533 1.7 1.1 0.167 0.3 0.35 0.816 0.55 1.55 0.1 0.434-0.066 0.617-0.5 0.55-0.1 0-0.683-0.149-1.75-0.449-0.633-0.167-0.75 0.116-0.35 0.85 0.267 0.467 0.9 1.333 1.9 2.6 1.067 1.333 2.15 2.099 3.25 2.299l1.35 2.199c0.433 0.767 0.333 1.15-0.3 1.15-0.633-0.033-1.3-0.35-2-0.95-0.733-0.633-1.5-1.033-2.3-1.2-0.934-0.199-1.567 0.017-1.9 0.65-0.467 0.866-2.6 0.467-6.4-1.2-0.333-0.133-1.2-0.116-2.6 0.05-1.233 0.167-2.383-0.083-3.45-0.75-1.2-0.767-1.067-1.6 0.4-2.5 0.767-0.5 2.117-1.083 4.05-1.75-0.434-0.366-0.85-0.75-1.25-1.149-0.733-0.767-0.95-1.184-0.65-1.25 0.4-0.066 0.417-0.434 0.05-1.101-0.4-0.7-1.1-1.45-2.1-2.25-0.933-0.8-1.5-1.434-1.7-1.9-0.066-0.167-0.117-0.767-0.15-1.8-0.033-0.7 0.383-0.867 1.25-0.5 0.467 0.167 1.117 0.45 1.95 0.85 0.4 0.067 0.717-0.15 0.95-0.65 0.2-0.434 0.267-0.85 0.2-1.25s0.05-0.767 0.35-1.1c0.4-0.433 1-0.7 1.8-0.8 0.7-0.1 1.217 0.117 1.55 0.65 0.833 1.368 1.467 2.301 1.9 2.801z" clip-rule="evenodd" fill="url(#ba)" fill-rule="evenodd"/>
<linearGradient id="bb" x1="18.329" x2="55.366" y1="8.8359" y2="8.8359" gradientTransform="matrix(.8247 .5656 -.5656 .8247 .00016242 -.00030965)" gradientUnits="userSpaceOnUse">
	<stop stop-color="#8BB50C" offset="0"/>
	<stop stop-color="#89B30C" offset=".5137"/>
	<stop stop-color="#82AD0B" offset=".702"/>
	<stop stop-color="#77A309" offset=".8314"/>
	<stop stop-color="#669307" offset=".9373"/>
	<stop stop-color="#588705" offset="1"/>
</linearGradient>
<path d="m21.8 23.45c-0.333-0.566-0.816-1.633-1.45-3.2-0.333-0.9-0.9-1.817-1.7-2.75l-1.15-1.1 1.1-0.65 0.85 0.75c0.633 0.6 1.1 1.167 1.4 1.7 0.233 0.466 0.667 1.417 1.3 2.85 0.733 1.434 1.617 2.684 2.65 3.75 0.833 0.9 2.25 2.134 4.25 3.7 2.4 1.9 4.317 3.533 5.75 4.9 1.867 1.767 2.917 2.816 3.15 3.149 0.1 0.167 0.017 0.167-0.25 0l0.75 2.101 0.5 2.449c-0.367 0.2-0.816 0.384-1.351 0.551-1.1 0.3-2.1 0.3-3 0-1.167-0.367-2.733-1.284-4.7-2.75-2.066-1.534-3.483-2.884-4.25-4.051-0.733-1.133-2.4-2.833-5-5.1-2.367-2.1-4.417-3.75-6.15-4.95-1.3-0.899-2.517-1.55-3.65-1.95l-1.3-0.35 0.25-1h0.9c0.7 0.067 1.333 0.267 1.9 0.6 0.033 0 0.816 0.434 2.35 1.301 1.066 0.6 1.917 1.149 2.55 1.649 0.567 0.434 1.633 1.384 3.2 2.851 1.633 1.5 2.733 2.466 3.3 2.899 1.167 0.9 4.5 4.101 10 9.601 0.2 0.166-0.033-0.233-0.7-1.2-0.7-1.066-1.5-2.167-2.4-3.3-1.3-1.667-4.117-4.15-8.45-7.45-2.034-1.601-4.133-4.017-6.3-7.25-0.6-0.9-1.683-1.867-3.25-2.9l-2.199-1.3 0.45-0.85 1.85 0.95c1.367 0.833 2.417 1.7 3.15 2.6 0.633 0.733 1.55 1.85 2.75 3.35 1.1 1.334 2.067 2.334 2.9 3 0.7 0.566 1.8 1.434 3.3 2.601 1.433 1.166 2.783 2.383 4.05 3.649 1.067 1.033 2.6 2.55 4.6 4.55 1.667 1.601 2.817 2.667 3.45 3.2 0.7 0.601 1.033 0.767 1 0.5 0-0.066-0.2-0.616-0.601-1.649-0.267-0.733-0.716-1.434-1.35-2.101-0.5-0.5-1.367-1.25-2.6-2.25-4.533-4-7.617-6.666-9.25-8-1.066-0.866-1.932-1.9-2.599-3.1z" clip-rule="evenodd" fill="url(#bb)" fill-rule="evenodd"/>
<linearGradient id="bc" x1="9.0703" x2="23.925" y1="7.9502" y2="7.9502" gradientTransform="matrix(.8247 .5655 -.5655 .8247 -.00010049 -.00022578)" gradientUnits="userSpaceOnUse">
	<stop stop-color="#255700" offset="0"/>
	<stop stop-color="#275900" offset=".4471"/>
	<stop stop-color="#2E5F01" offset=".6078"/>
	<stop stop-color="#396A02" offset=".7255"/>
	<stop stop-color="#4A7904" offset=".8157"/>
	<stop stop-color="#608E07" offset=".898"/>
	<stop stop-color="#7BA60A" offset=".9647"/>
	<stop stop-color="#8BB50C" offset="1"/>
</linearGradient>
<path d="m6.35 10.9c1.167 0.3 2.4 1.017 3.7 2.15 1.6 1.367 3.333 3.267 5.2 5.7 0.3 0.433 0.383 0.733 0.25 0.9-0.133 0.233-0.5 0.083-1.1-0.45-0.8-0.7-1.55-1.217-2.25-1.55-0.633-0.267-1.45-0.5-2.45-0.7-0.367-0.067-1.3-0.083-2.8-0.05-1.066 0.033-1.9-0.183-2.5-0.65-0.867-0.667-1.45-1.433-1.75-2.3-0.367-1.034-0.167-1.883 0.6-2.55 0.833-0.667 1.867-0.833 3.1-0.5z" clip-rule="evenodd" fill="url(#bc)" fill-rule="evenodd"/>
<linearGradient id="bd" x1="12.742" x2="32.11" y1="4.3203" y2="4.3203" gradientTransform="matrix(.8248 .5654 -.5654 .8248 9.1672e-5 .00014502)" gradientUnits="userSpaceOnUse">
	<stop stop-color="#2C6900" offset="0"/>
	<stop stop-color="#2E6A00" offset=".4549"/>
	<stop stop-color="#357001" offset=".6196"/>
	<stop stop-color="#407903" offset=".7333"/>
	<stop stop-color="#518705" offset=".8275"/>
	<stop stop-color="#679807" offset=".9098"/>
	<stop stop-color="#82AE0B" offset=".9804"/>
	<stop stop-color="#8BB50C" offset="1"/>
</linearGradient>
<path d="m22.45 21.5c0.7 1.5 0.816 2.017 0.35 1.55-1.833-1.733-3.6-2.9-5.3-3.5-1.433-0.5-3.183-1.367-5.25-2.6-2.167-1.333-3.55-2.4-4.15-3.2-0.633-0.833-0.617-1.867 0.05-3.1 0.667-1.2 1.367-1.483 2.1-0.85 0.7 0.6 1.417 1.1 2.15 1.5 0.533 0.3 1.35 0.65 2.45 1.05 0.9 0.333 1.883 0.917 2.95 1.75 0.934 0.767 1.7 1.533 2.3 2.3 0.433 0.6 0.85 1.35 1.25 2.25 0.233 0.533 0.6 1.483 1.1 2.85z" clip-rule="evenodd" fill="url(#bd)" fill-rule="evenodd"/>
<linearGradient id="be" x1="11.827" x2="27.02" y1="14.649" y2="14.649" gradientTransform="matrix(.8244 .566 -.566 .8244 .00020993 -.00019866)" gradientUnits="userSpaceOnUse">
	<stop stop-color="#2C6900" offset="0"/>
	<stop stop-color="#2E6A00" offset=".4549"/>
	<stop stop-color="#357001" offset=".6196"/>
	<stop stop-color="#407903" offset=".7333"/>
	<stop stop-color="#518705" offset=".8275"/>
	<stop stop-color="#679807" offset=".9098"/>
	<stop stop-color="#82AE0B" offset=".9804"/>
	<stop stop-color="#8BB50C" offset="1"/>
</linearGradient>
<path d="m14 22.9c1.267 0.866 1.85 1.483 1.75 1.85-0.067 0.366-0.433 0.333-1.1-0.1-0.433-0.301-0.917-0.384-1.45-0.25-1.434 0.366-2.184 0.55-2.25 0.55-1.534 0.399-2.767 0.616-3.7 0.649-1.633 0.101-3.117-0.382-4.45-1.449-1.4-1.1-2.1-2.25-2.1-3.45 0.033-0.9 0.383-1.633 1.05-2.2 0.367-0.333 1.2-0.2 2.5 0.4 2.267 1.033 3.65 1.633 4.15 1.8 1.033 0.333 2.133 0.683 3.3 1.05 0.767 0.267 1.533 0.65 2.3 1.15z" clip-rule="evenodd" fill="url(#be)" fill-rule="evenodd"/>
<linearGradient id="bf" x1="23.053" x2="39.727" y1="4.5176" y2="4.5176" gradientTransform="matrix(.7707 .6372 -.6372 .7707 .00023109 -.00058824)" gradientUnits="userSpaceOnUse">
	<stop stop-color="#378200" offset="0"/>
	<stop stop-color="#398300" offset=".4706"/>
	<stop stop-color="#408701" offset=".6392"/>
	<stop stop-color="#4B8E03" offset=".7569"/>
	<stop stop-color="#5C9806" offset=".8549"/>
	<stop stop-color="#72A509" offset=".9373"/>
	<stop stop-color="#88B20C" offset="1"/>
</linearGradient>
<path d="m20.8 23.45c0.58 0.275 1.213 0.676 1.9 1.2-0.478-0.513-0.777-0.88-0.9-1.101-0.2-0.366-0.367-1.066-0.5-2.1-0.1-0.934 0.184-1.75 0.85-2.45 0.5-0.533 1.1-0.917 1.8-1.15 0.7-0.2 1.683 0.133 2.95 1l-0.8 0.35c-0.434 0.233-0.717 0.5-0.85 0.8-0.233 0.4-0.383 1.083-0.45 2.05-0.066 0.834 0.267 1.667 1 2.5 1.034 1.2 1.65 2.017 1.85 2.45l0.6 0.55c0.367 0.434 0.483 0.9 0.35 1.4-0.2 0.767-0.833 0.55-1.9-0.65l0.05 0.45c0.067 0.366 0.2 0.767 0.4 1.2 0.233 0.5 0.3 0.833 0.2 1-0.067 0.1-0.45 0.267-1.15 0.5-0.495 0.186-0.861 0.186-1.1 0l0.65 0.95c-1.5 0-2.833-0.434-4-1.301-0.7-0.533-1.467-0.85-2.3-0.949-0.967-0.134-1.483-0.217-1.55-0.25-0.4-0.233-0.5-0.65-0.3-1.25 0.2-0.634 0.65-1.017 1.35-1.15 0.966-0.233 2.65 0.866 5.05 3.3-0.267-0.899-1.25-2-2.95-3.3-1.433-0.967-2.4-1.65-2.9-2.05-0.833-0.566-1.517-1.351-2.05-2.351s-0.5-2.033 0.1-3.1l1.1-1.3 0.2 0.85c0.133 0.6 0.45 1.25 0.95 1.95 0.633 0.868 1.417 1.519 2.35 1.952z" clip-rule="evenodd" fill="url(#bf)" fill-rule="evenodd"/>
<linearGradient id="bh" x1="20.569" x2="56.429" y1="8.2402" y2="8.2402" gradientTransform="matrix(.825 .5651 -.5651 .825 3.8207e-5 -.00029814)" gradientUnits="userSpaceOnUse">
	<stop stop-color="#A2CF1B" offset="0"/>
	<stop stop-color="#A3CF1D" offset=".4157"/>
	<stop stop-color="#A6D124" offset=".5647"/>
	<stop stop-color="#ABD32F" offset=".6706"/>
	<stop stop-color="#B3D640" offset=".7569"/>
	<stop stop-color="#BCDB56" offset=".8275"/>
	<stop stop-color="#C8E072" offset=".8941"/>
	<stop stop-color="#D6E691" offset=".9529"/>
	<stop stop-color="#E5EDB2" offset="1"/>
</linearGradient>
<path d="m29 24.35c1.133 1.733 1.95 2.917 2.45 3.551 0.933 1.233 1.9 2.216 2.9 2.949 1.066 0.834 2.233 2.267 3.5 4.301 1.233 1.933 1.884 3.3 1.95 4.1 0.033 0.5 0.101 1.116 0.2 1.85-0.033 0.567-0.384 1.034-1.05 1.4-0.601 0.366-1.184 0.5-1.75 0.4-0.867-0.134-1.983-0.733-3.35-1.801-0.767-0.633-2.184-2.083-4.25-4.35-1.833-2-3.5-3.517-5-4.55-2.067-1.434-4.133-2.7-6.2-3.8-2.2-1.134-3.85-1.817-4.95-2.051l-2.3-0.5 0.1-0.899 1.8 0.2c1.467 0.267 2.85 0.716 4.15 1.35 3.667 1.833 7.216 4.1 10.65 6.8 1.3 1.033 2.633 2.3 4 3.8 1.3 1.467 2.2 2.384 2.7 2.75 0.767 0.601 1.434 0.851 2 0.75 0.434-0.066 0.65-0.25 0.65-0.55 0-0.033-0.101-0.133-0.3-0.3-0.566-0.467-1.467-1.45-2.7-2.95-1.3-1.566-2.25-2.816-2.85-3.75-0.833-1.3-1.75-2.666-2.75-4.1-1.533-2.267-2.684-3.834-3.45-4.7-0.867-1-2.183-2.167-3.95-3.5-1.534-1.167-3.017-2.55-4.45-4.15l-1.75-2.1 1.8 0.05 1 1.7c1 1.367 2.3 2.633 3.9 3.8 1.966 1.434 3.233 2.434 3.8 3 0.633 0.601 1.567 1.684 2.8 3.25 0.534 0.7 1.817 2.634 3.85 5.8 1.567 2.4 2.7 3.884 3.4 4.45l1.9 1.45c0.166-0.733 0-1.5-0.5-2.3-0.367-0.634-2-2.617-4.9-5.95-0.966-1.066-1.65-1.9-2.05-2.5-0.567-0.833-1.217-1.75-1.95-2.75-2.167-2.967-4.1-5.1-5.8-6.4l-1.25-0.95 0.2-0.35c0.233-0.167 0.533-0.133 0.9 0.1 0.5 0.333 1.55 1.35 3.15 3.05 1.7 1.8 2.95 3.267 3.75 4.4z" clip-rule="evenodd" fill="url(#bh)" fill-rule="evenodd"/>
<linearGradient id="bi" x1="13.769" x2="32.726" y1="4.1348" y2="4.1348" gradientTransform="matrix(.8249 .5653 -.5653 .8249 .00021362 -5.4061e-5)" gradientUnits="userSpaceOnUse">
	<stop stop-color="#4E8A00" offset="0"/>
	<stop stop-color="#508B00" offset=".498"/>
	<stop stop-color="#579002" offset=".6745"/>
	<stop stop-color="#629804" offset=".8039"/>
	<stop stop-color="#73A407" offset=".9059"/>
	<stop stop-color="#89B30C" offset=".9922"/>
	<stop stop-color="#8BB50C" offset="1"/>
</linearGradient>
<path d="m23.55 21.2c0.633 0.8 0.85 1.267 0.65 1.399-0.167 0.134-0.5 0-1-0.399-0.934-0.667-3.383-1.633-7.35-2.9-1.967-0.6-3.6-1.617-4.9-3.05-1.2-1.367-1.833-2.717-1.9-4.05-0.033-1.167 0.333-1.817 1.1-1.95 0.533-0.1 1.633 0.05 3.3 0.45 1.3 0.333 2.367 0.933 3.2 1.8 0.7 0.733 1.35 1.817 1.95 3.25 0.433 1.033 1.233 2.067 2.4 3.1 1.5 1.267 2.35 2.05 2.55 2.35z" clip-rule="evenodd" fill="url(#bi)" fill-rule="evenodd"/>
<linearGradient id="bj" x1="15.786" x2="33.703" y1="11.963" y2="11.963" gradientTransform="matrix(.8249 .5653 -.5653 .8249 5.4061e-5 .00024599)" gradientUnits="userSpaceOnUse">
	<stop stop-color="#4E8A00" offset="0"/>
	<stop stop-color="#508B00" offset=".498"/>
	<stop stop-color="#579002" offset=".6745"/>
	<stop stop-color="#629804" offset=".8039"/>
	<stop stop-color="#73A407" offset=".9059"/>
	<stop stop-color="#89B30C" offset=".9922"/>
	<stop stop-color="#8BB50C" offset="1"/>
</linearGradient>
<path d="m13 19.85c1.1 0.833 2.867 2 5.3 3.5 1.2 0.801 1.934 1.317 2.2 1.551 0.2 0.199 0.517 0.533 0.95 1 0.7 0.733 0.95 1.183 0.75 1.35-0.133 0.134-0.4 0.066-0.8-0.2-0.167-0.133-0.983-0.267-2.45-0.399-2.034-0.167-3.434-0.317-4.2-0.45-1.667-0.267-3.4-0.834-5.2-1.7-2.1-1-3.35-2-3.75-3-0.367-1.033-0.25-1.85 0.35-2.45 0.533-0.566 1.2-0.733 2-0.5 0.467 0.133 1.25 0.233 2.35 0.3 1 0.131 1.833 0.465 2.5 0.998z" clip-rule="evenodd" fill="url(#bj)" fill-rule="evenodd"/>
<linearGradient id="bk" x1="25.7" x2="32.946" y1="14.85" y2="14.85" gradientTransform="matrix(.8245 .5658 -.5658 .8245 -9.1791e-5 .00024748)" gradientUnits="userSpaceOnUse">
	<stop stop-color="#4E8A00" offset="0"/>
	<stop stop-color="#508B00" offset=".498"/>
	<stop stop-color="#579002" offset=".6745"/>
	<stop stop-color="#629804" offset=".8039"/>
	<stop stop-color="#73A407" offset=".9059"/>
	<stop stop-color="#89B30C" offset=".9922"/>
	<stop stop-color="#8BB50C" offset="1"/>
</linearGradient>
<path d="m19.3 28c1 0.7 1.1 1.033 0.3 1-1.167-0.167-1.934-0.25-2.3-0.25-1.066 0.033-2.133 0.517-3.2 1.45-0.533 0.434-1.117 0.184-1.75-0.75-0.6-0.934-0.55-1.634 0.15-2.101 0.733-0.466 1.867-0.616 3.4-0.449 1.467 0.166 2.6 0.534 3.4 1.1z" clip-rule="evenodd" fill="url(#bk)" fill-rule="evenodd"/>
<linearGradient id="bl" x1="20.759" x2="31.244" y1="-1.0986" y2="-1.0986" gradientTransform="matrix(.825 .5651 -.5651 .825 .00016689 .00012934)" gradientUnits="userSpaceOnUse">
	<stop stop-color="#4E8A00" offset="0"/>
	<stop stop-color="#508B00" offset=".498"/>
	<stop stop-color="#579002" offset=".6745"/>
	<stop stop-color="#629804" offset=".8039"/>
	<stop stop-color="#73A407" offset=".9059"/>
	<stop stop-color="#89B30C" offset=".9922"/>
	<stop stop-color="#8BB50C" offset="1"/>
</linearGradient>
<path d="m23.75 18.35c1.1 0.833 1.25 1.167 0.45 1-0.833-0.167-1.9-0.65-3.2-1.45-1.167-0.733-1.967-2.033-2.4-3.9-0.4-1.8-0.317-3.333 0.25-4.6 0.5-1.1 0.983-1.617 1.45-1.55 0.233 0.033 0.767 0.367 1.6 1 0.467 0.367 0.55 1.1 0.25 2.2-0.433 1.6-0.65 2.534-0.65 2.8 0 1 0.117 1.767 0.35 2.3 0.3 0.733 0.933 1.467 1.9 2.2z" clip-rule="evenodd" fill="url(#bl)" fill-rule="evenodd"/>
<linearGradient id="bm" x1="14.947" x2="32.629" y1="4.1768" y2="4.1768" gradientTransform="matrix(.8246 .5657 -.5657 .8246 6.479e-5 .0003264)" gradientUnits="userSpaceOnUse">
	<stop stop-color="#69AB00" offset="0"/>
	<stop stop-color="#6BAC01" offset=".5569"/>
	<stop stop-color="#72AE03" offset=".7608"/>
	<stop stop-color="#7DB107" offset=".902"/>
	<stop stop-color="#8BB50C" offset="1"/>
</linearGradient>
<path d="m23.6 21.6c0.467 0.333 0.633 0.633 0.5 0.9-1.133-0.833-2.167-1.633-3.1-2.4-0.567-0.467-1.183-0.9-1.85-1.3l-0.85-0.5c-0.4 0.133-0.966 0.2-1.7 0.2-0.467 0.033-0.983-0.017-1.55-0.15l-0.75-0.15 0.6-0.1c0.467-0.033 0.9-0.017 1.3 0.05 0.667 0.067 1.15-0.033 1.45-0.3l-2.95-2.4c-0.4 0.233-0.983 0.367-1.75 0.4-0.467 0.033-0.883-0.017-1.25-0.15l-0.45-0.2 1.25 0.1c0.633-0.067 1.167-0.233 1.6-0.5-0.333-0.233-0.833-0.684-1.5-1.35l-2.5-2.1 4.25 2.9c0.3-0.833 0.417-1.417 0.35-1.75l-0.55-1.35 0.45 0.35c0.233 0.133 0.417 0.784 0.55 1.95 0.067 0.533 0.05 0.983-0.05 1.35l1.2 1c0.4 0.367 0.967 0.733 1.7 1.1l0.25-1.45 0.3 1.1c0.1 0.467 0.2 0.8 0.3 1l4.75 3.75z" clip-rule="evenodd" fill="url(#bm)" fill-rule="evenodd"/>
<linearGradient id="bn" x1="17.021" x2="33.095" y1="11.854" y2="11.854" gradientTransform="matrix(.8243 .5661 -.5661 .8243 .00022298 -.00027931)" gradientUnits="userSpaceOnUse">
	<stop stop-color="#69AB00" offset="0"/>
	<stop stop-color="#6BAC01" offset=".5569"/>
	<stop stop-color="#72AE03" offset=".7608"/>
	<stop stop-color="#7DB107" offset=".902"/>
	<stop stop-color="#8BB50C" offset="1"/>
</linearGradient>
<path d="m7.2 19.55l1.9 1.25c0.6 0.367 1.2 0.667 1.8 0.9l0.2-0.7c0.1-0.2 0.133-0.5 0.1-0.9l-0.05-0.55 0.25 0.45c0.167 0.267 0.25 0.95 0.25 2.05l0.5 0.351c0.434 0.267 0.883 0.5 1.35 0.699 0.7 0.301 1.367 0.534 2 0.7 0.167-0.333 0.2-0.649 0.1-0.95l-0.55-1.2 0.4 0.5c0.3 0.366 0.517 0.683 0.65 0.949 0.2 0.434 0.283 0.834 0.25 1.2l0.5 0.101c0.133 0 0.65 0.133 1.55 0.399 1 0.3 1.667 0.533 2 0.7 0.533 0.233 0.983 0.634 1.35 1.2-0.467-0.3-1.45-0.717-2.95-1.25l-2.8-0.649-1.65 0.25c-0.367 0.033-0.8 0.017-1.3-0.05l-0.65-0.1 1.25-0.15c0.434-0.066 0.967-0.217 1.6-0.45l-1.75-0.5c-0.467-0.133-0.967-0.35-1.5-0.649l-0.65-0.45c-0.567 0.366-1.1 0.55-1.6 0.55-0.3-1e-3 -0.75-0.084-1.35-0.251l-0.75-0.3 2 0.05c0.567 0 0.934-0.15 1.1-0.45l-1.95-1.3c-0.433-0.267-0.833-0.583-1.2-0.95l-0.4-0.5z" clip-rule="evenodd" fill="url(#bn)" fill-rule="evenodd"/>
<linearGradient id="bo" x1="21.672" x2="31.311" y1="-.7207" y2="-.7207" gradientTransform="matrix(.8248 .5654 -.5654 .8248 8.8811e-6 3.0577e-5)" gradientUnits="userSpaceOnUse">
	<stop stop-color="#4C7A00" offset=".0118"/>
	<stop stop-color="#4E7C00" offset=".498"/>
	<stop stop-color="#558202" offset=".6745"/>
	<stop stop-color="#608D04" offset=".8"/>
	<stop stop-color="#719D07" offset=".902"/>
	<stop stop-color="#87B10B" offset=".9882"/>
	<stop stop-color="#8BB50C" offset="1"/>
</linearGradient>
<path d="m20.825 9.625c-0.109 0.233-0.234 0.592-0.375 1.075-0.1 0.4-0.2 0.783-0.3 1.15l0.5 0.3c0.133 0.033 0.45-0.15 0.95-0.55l-0.35 0.5c-0.1 0.133-0.3 0.25-0.6 0.35l-0.45 0.1-0.05 0.35c0 0.3 0.067 0.684 0.2 1.15 0.233 0.767 0.633 1.417 1.2 1.95l0.15-0.55 0.15 0.8c0.033 0.267 0.2 0.55 0.5 0.85l1.55 1.65c0.233 0.233 0.434 0.55 0.6 0.95-0.8-0.733-1.517-1.434-2.15-2.1-0.4-0.4-0.633-0.617-0.7-0.65 0 0.033-0.017 0.033-0.05 0l-1-0.55c-0.2-0.133-0.417-0.367-0.65-0.7l-0.3-0.5 0.8 0.6c0.367 0.3 0.583 0.417 0.65 0.35-0.434-0.467-0.8-1.083-1.1-1.85-0.2-0.466-0.3-0.933-0.3-1.4v-0.55l-0.35-0.65c-0.133-0.233-0.167-0.583-0.1-1.05l0.15-0.6 0.05 0.65c0.033 0.466 0.2 0.75 0.5 0.85l0.3-0.95 0.575-0.975z" clip-rule="evenodd" fill="url(#bo)" fill-rule="evenodd"/>
<linearGradient id="bp" x1="54.535" x2="56.532" y1="12.496" y2="12.496" gradientTransform="matrix(.8262 .5633 -.5633 .8262 -.00024188 .00052971)" gradientUnits="userSpaceOnUse">
	<stop stop-color="#B58C22" offset=".0118"/>
	<stop stop-color="#B89028" offset=".1804"/>
	<stop stop-color="#C19D38" offset=".4039"/>
	<stop stop-color="#CFB253" offset=".6549"/>
	<stop stop-color="#E2CE79" offset=".9255"/>
	<stop stop-color="#E8D784" offset="1"/>
</linearGradient>
<path d="m40.05 41.15c0 0.566-0.283 1.017-0.85 1.35-0.367 0.267-0.75 0.417-1.15 0.45-0.467 0-0.616-0.316-0.45-0.95 0.167-0.634 0.483-1.184 0.95-1.65 0.4-0.399 0.75-0.483 1.05-0.25s0.45 0.584 0.45 1.05z" clip-rule="evenodd" fill="url(#bp)" fill-rule="evenodd"/>
</svg>
