<?xml version="1.0" encoding="UTF-8"?>
<svg viewBox="0 0 195.00006 367.70395" xmlns="http://www.w3.org/2000/svg">
 <defs>
  <filter id="a">
   <feGaussianBlur stdDeviation=".27263"/>
  </filter>
  <filter id="g" x="-.02116" y="-.12057" width="1.0423" height="1.2411">
   <feGaussianBlur stdDeviation="1.62328"/>
  </filter>
  <filter id="f" x="-.00813" y="-.15456" width="1.0163" height="1.3091">
   <feGaussianBlur stdDeviation=".65052"/>
  </filter>
  <filter id="e" x="-.02846" y="-.15308" width="1.0569" height="1.3062">
   <feGaussianBlur stdDeviation="2.14306"/>
  </filter>
  <linearGradient id="d" x1="611.34" x2="608.45" y1="-142.1" y2="29.056" gradientUnits="userSpaceOnUse">
   <stop stop-color="#fff" offset="0"/>
   <stop stop-color="#fff" stop-opacity="0" offset="1"/>
  </linearGradient>
  <linearGradient id="c" x1="319.78" x2="97.851" gradientUnits="userSpaceOnUse">
   <stop stop-color="#fff" offset="0"/>
   <stop stop-color="#d4d4d4" stop-opacity=".27778" offset="1"/>
  </linearGradient>
  <radialGradient id="b" cx="159.04" cy="469.76" r="92.062" gradientTransform="matrix(1.2761 .03278 -.00768 .29896 -40.299 248.42)" gradientUnits="userSpaceOnUse">
   <stop stop-color="#a4a0d6" stop-opacity=".74444" offset="0"/>
   <stop stop-opacity="0" offset="1"/>
  </radialGradient>
 </defs>
 <g transform="translate(-540.3 -15.761)">
  <path d="m547.97 344.79c-0.57101 0.1096-0.47772 1.987-0.45866 2.9349 0 6.056 0.27702 4.2297 1.6152 6.3876s3.2034 4.0563 5.5512 5.8879c4.6955 3.6632 11.34 6.8932 19.528 9.5951 16.376 5.4036 38.891 8.7228 63.772 8.7228s47.397-3.3192 63.772-8.7228c8.1878-2.7018 14.833-5.9318 19.528-9.5951 2.3477-1.8316 4.213-3.73 5.5512-5.8879s1.3193-2.4479 1.1962-7.2661c0.0404-1.0398 0.45958-2.128-0.17191-2.128-4.0105 12.482-15.23 17.078-26.566 21.115-16.153 5.3303-38.554 8.6683-63.31 8.6683s-47.157-3.338-63.31-8.6683c-8.0766-2.6651-14.599-5.8348-19-9.268-4.7639-2.708-5.7098-7.6351-7.6989-11.776z" filter="url(#e)" opacity=".60185"/>
  <path d="m541.9 23.947 4.4886 308.31" fill="none" stroke="#000" stroke-width=".48498"/>
  <path d="m541.91 23.955 4.4735 328.8" fill="#0ff" opacity=".7037" stroke="#e6e6e6" stroke-width="2"/>
  <path d="m637.88 31.107c-52.902 0-95.812-3.1251-95.812-7 0-0.43963 0.6002-0.89528 1.6562-1.3125-0.4126 0.26436-0.65622 0.54005-0.65622 0.8125 0 3.8749 42.895 7.1562 95.797 7.1562 46.9 0 85.889-2.6148 94.141-5.875-5.4556 3.4954-45.943 6.2188-95.125 6.2188z"/>
  <path d="m638.43 16.254c52.902 0 95.812 3.1251 95.812 7 0 0.43963-0.6002 0.89528-1.6562 1.3125 0.4126-0.26436 0.65622-0.54005 0.65622-0.8125 0-3.8749-42.895-7.1562-95.797-7.1562-46.9 0-85.889 2.6148-94.141 5.875 5.4556-3.4954 45.943-6.2188 95.125-6.2188z" stroke="#fff" stroke-linecap="round" stroke-linejoin="round" stroke-width=".25"/>
  <path transform="matrix(.99815 0 0 1.3891 -440.99 333.47)" d="m1176.8-222.81c0 2.7895-42.965 5.0508-95.964 5.0508s-95.965-2.2613-95.965-5.0508 42.965-5.0508 95.965-5.0508 95.964 2.2613 95.964 5.0508z" fill="none" opacity=".77315" stroke="#e6e6e6" stroke-linecap="round" stroke-linejoin="round" stroke-width="2"/>
  <path d="m729.36 352.25c0 14.993-40.962 27.146-91.491 27.146s-91.491-12.154-91.491-27.146" fill="none" stroke="#e6e6e6" stroke-linecap="round" stroke-linejoin="round" stroke-width="2"/>
  <path transform="matrix(.98948 0 0 2.1701 -431.69 576.42)" d="m1176.8-222.81c0 2.7895-42.965 5.0508-95.964 5.0508s-95.965-2.2613-95.965-5.0508 42.965-5.0508 95.965-5.0508 95.964 2.2613 95.964 5.0508z" fill="#85ffff"/>
  <path transform="matrix(.98948 0 0 2.1701 -431.69 576.42)" d="m1176.8-222.81c0 2.7895-42.965 5.0508-95.964 5.0508s-95.965-2.2613-95.965-5.0508 42.965-5.0508 95.965-5.0508 95.964 2.2613 95.964 5.0508z" fill="none" filter="url(#f)" opacity=".123" stroke="#000" stroke-linecap="round" stroke-linejoin="round" stroke-width="1.3649"/>
  <path d="m733.67 23.947-4.3174 308.53" fill="none" stroke="#000" stroke-width=".48552"/>
  <path d="m733.66 23.955-4.3029 328.3" fill="none" opacity=".84259" stroke="#e6e6e6" stroke-width="2"/>
  <path transform="translate(474.61 -42.03)" d="m163.28 361.81c-50.842 0-92.062 4.9266-92.062 11.031h0.3125c1.1882 11.791 41.814 21.281 91.75 21.281s90.531-9.4905 91.719-21.281h0.34375c0-6.1046-41.22-11.031-92.062-11.031z" fill="url(#b)" filter="url(#g)"/>
  <path transform="translate(474.61 -42.03)" d="m255.75 136.06c0.78038-0.70011 1.1454-1.438 1.6241-2.1655v2.3423c-0.62239-0.62605-1.1149-0.34289-1.6241-0.17678z" fill="#d40000" opacity=".10185"/>
  <path transform="matrix(-1 0 0 1 800.52 -41.776)" d="m255.75 136.06c0.78038-0.70011 1.1454-1.438 1.6241-2.1655v2.3423c-0.62239-0.62605-1.1149-0.34289-1.6241-0.17678z" fill="#d40000" opacity=".20833"/>
  <path d="m618.33 351.6c-37.903-2.0428-67.996-9.7904-72.219-18.826-1.4376-3.0761-0.77801-16.259-2.1749-120.79-0.86317-64.59-1.353-120.31-1.0886-120.57s2.1124 3.1574 4.1716 4.2441c9.3118 4.9138 43.684 7.6835 90.811 7.2084 48.401-0.48787 81.665-2.833 90.311-7.2084 2.0774-1.0514 3.8889-4.6252 4.131-4.3831s-0.24619 56.277-1.0852 121.16c-1.3847 107.09-0.057 117.36-1.5688 120.05-6.8499 12.183-61.124 21.824-111.29 19.12z" fill="#00eded" fill-opacity=".68387"/>
  <g transform="matrix(1.1864 0 0 1.1864 -101.07 -23.077)">
   <path transform="translate(96.757 223.4)" d="m479-13.5c0 3.5898-2.9102 6.5-6.5 6.5s-6.5-2.9102-6.5-6.5 2.9102-6.5 6.5-6.5 6.5 2.9102 6.5 6.5z" fill="#0ff" opacity=".64398"/>
   <path d="m572.58 205.46c1.0903 2.1563-2.9971 1.5416-5.1534 2.6319s-2.6898 5.3165-3.7801 3.1602 0.21131-5.8194 2.3676-6.9097 5.4756-1.0387 6.566 1.1176z" fill="#fff" filter="url(#a)" opacity=".64398"/>
  </g>
  <g transform="matrix(.77049 0 0 .77049 185.13 21.128)" opacity=".91204">
   <path transform="translate(96.757 223.4)" d="m479-13.5c0 3.5898-2.9102 6.5-6.5 6.5s-6.5-2.9102-6.5-6.5 2.9102-6.5 6.5-6.5 6.5 2.9102 6.5 6.5z" fill="#0ff" opacity=".64398"/>
   <path d="m572.58 205.46c1.0903 2.1563-2.9971 1.5416-5.1534 2.6319s-2.6898 5.3165-3.7801 3.1602 0.21131-5.8194 2.3676-6.9097 5.4756-1.0387 6.566 1.1176z" fill="#fff" filter="url(#a)" opacity=".64398"/>
  </g>
  <g transform="matrix(.69595 0 0 .69595 202.06 13.759)" opacity=".7963">
   <path transform="translate(96.757 223.4)" d="m479-13.5c0 3.5898-2.9102 6.5-6.5 6.5s-6.5-2.9102-6.5-6.5 2.9102-6.5 6.5-6.5 6.5 2.9102 6.5 6.5z" fill="#0ff" opacity=".64398"/>
   <path d="m572.58 205.46c1.0903 2.1563-2.9971 1.5416-5.1534 2.6319s-2.6898 5.3165-3.7801 3.1602 0.21131-5.8194 2.3676-6.9097 5.4756-1.0387 6.566 1.1176z" fill="#fff" filter="url(#a)" opacity=".64398"/>
  </g>
  <g transform="matrix(1.1864 0 0 1.1864 6.1403 -58.543)" opacity=".51852">
   <path transform="translate(96.757 223.4)" d="m479-13.5c0 3.5898-2.9102 6.5-6.5 6.5s-6.5-2.9102-6.5-6.5 2.9102-6.5 6.5-6.5 6.5 2.9102 6.5 6.5z" fill="#0ff" opacity=".64398"/>
   <path d="m572.58 205.46c1.0903 2.1563-2.9971 1.5416-5.1534 2.6319s-2.6898 5.3165-3.7801 3.1602 0.21131-5.8194 2.3676-6.9097 5.4756-1.0387 6.566 1.1176z" fill="#fff" filter="url(#a)" opacity=".64398"/>
  </g>
  <g transform="matrix(.3122 0 0 .3122 426.41 269.58)">
   <path transform="translate(96.757 223.4)" d="m479-13.5c0 3.5898-2.9102 6.5-6.5 6.5s-6.5-2.9102-6.5-6.5 2.9102-6.5 6.5-6.5 6.5 2.9102 6.5 6.5z" fill="#0ff" opacity=".64398"/>
   <path d="m572.58 205.46c1.0903 2.1563-2.9971 1.5416-5.1534 2.6319s-2.6898 5.3165-3.7801 3.1602 0.21131-5.8194 2.3676-6.9097 5.4756-1.0387 6.566 1.1176z" fill="#fff" filter="url(#a)" opacity=".64398"/>
  </g>
  <path transform="translate(474.61 -42.03)" d="m144.06 420.06c-37.758-2.9853-63.924-11.014-70.069-21.5-1.2762-2.1776-1.334-2.6088-1.5729-11.719-0.24831-9.4706-0.08145-10.484 1.4272-8.6658 3.2432 3.9078 15.218 8.5204 29.813 11.484 16.782 3.4075 35.361 4.9488 59.652 4.9488 22.714 0 38.213-1.1374 54.75-4.0178 15.445-2.6903 28.967-7.3548 33.915-11.7 0.94426-0.82908 1.8685-1.5074 2.0539-1.5074s0.185 4.2188-1e-3 9.375c-0.38494 10.682-0.61072 11.479-4.2677 15.079-7.8263 7.704-29.298 14.244-56.95 17.345-6.9147 0.77558-42.041 1.4076-48.75 0.87721z" fill="#e6e6e6" opacity=".79167"/>
  <path transform="translate(96.757 223.4)" d="m626.42-151.06-70.9 4.2036c-4.3674 17.227 32.845 271.79-53.736 254.28 155.52 41.587 116.94-114.95 124.64-258.49z" fill="url(#d)" opacity=".56944"/>
  <path transform="translate(474.61 -42.03)" d="m252 379.65v17.25c-29.453 25.818-113.01 23.614-154.25 14.5 89.316 12.916 140.22-17.301 154.25-31.75z" fill="url(#c)"/>
 </g>
</svg>
