<?xml version="1.0" encoding="utf-8"?>
<!-- Generator: Adobe Illustrator 23.0.3, SVG Export Plug-In . SVG Version: 6.00 Build 0)  -->
<svg version="1.1" id="Layer_1" xmlns="http://www.w3.org/2000/svg" xmlns:xlink="http://www.w3.org/1999/xlink" x="0px" y="0px"
	 viewBox="0 0 1296 1728" style="enable-background:new 0 0 1296 1728;" xml:space="preserve">
<style type="text/css">
	.st0{fill:#400025;}
	.st1{fill:#009F0F;}
	.st2{fill:none;stroke:#400025;stroke-width:22;stroke-miterlimit:10;}
	.st3{fill:#C10C0C;}
	.st4{fill:#D63838;}
	.st5{fill:#00680F;}
</style>
<g>
	<g>
		<path class="st0" d="M-732.29,375.5c1.93,0,1.93-3,0-3C-734.22,372.5-734.22,375.5-732.29,375.5L-732.29,375.5z"/>
	</g>
</g>
<g>
	<g>
		<path class="st0" d="M1604.86,229.57c14.12,0,27.65-12.42,27-27c-0.66-14.63-11.86-27-27-27c-14.12,0-27.65,12.42-27,27
			C1578.51,217.2,1589.72,229.57,1604.86,229.57L1604.86,229.57z"/>
	</g>
</g>
<g>
	<g>
		<path class="st0" d="M473.43,361.21c1.93,0,1.93-3,0-3C471.5,358.21,471.5,361.21,473.43,361.21L473.43,361.21z"/>
	</g>
</g>
<path class="st1" d="M738.91,357.31c45.34-53.02,114.47-68.32,114.47-68.32s-4.39,70.66-49.73,123.69
	C758.31,465.69,689.19,481,689.19,481S693.57,410.33,738.91,357.31z"/>
<path class="st2" d="M648,576.86c0,0-55.71-210.38-102.28-190.34s-46.57,20.04-46.57,20.04l0,0"/>
<g>
	<path class="st3" d="M789.58,738.63c8.27,138.48-87.06,407.18-223.94,415.55c-136.88,8.37-263.48-246.77-271.75-385.26
		s95.99-257.53,232.87-265.89S781.31,600.15,789.58,738.63z"/>
	<path class="st3" d="M523.81,732.16c-11.96,138.21,76.16,409.41,212.77,421.51c136.61,12.1,269.97-239.49,281.93-377.69
		c11.96-138.21-89.09-260.05-225.69-272.15S535.77,593.96,523.81,732.16z"/>
</g>
<circle class="st4" cx="472.71" cy="661.86" r="85"/>
<circle class="st4" cx="391.29" cy="820.43" r="35"/>
<g>
	<path class="st5" d="M689.19,481c9.17-18.79,20.64-36.02,32.67-52.62c38.2-52.7,82.54-99.7,131.53-139.39"/>
	<g>
		<path class="st1" d="M690.75,481.91c14.89-30.2,35.39-57.63,56.48-83.74c20.53-25.41,42.71-49.49,66.43-71.96
			c13.2-12.5,26.89-24.48,41-35.95c1.81-1.47-0.77-4.02-2.56-2.56c-51.04,41.46-96.22,89.95-134.45,143.43
			c-11.15,15.6-21.54,31.73-30.03,48.95C686.6,482.16,689.72,484,690.75,481.91L690.75,481.91z"/>
	</g>
</g>
<g>
	<path class="st1" d="M821.06,340.52c-9.78,23.36-23.14,45.21-39.46,64.57"/>
	<g>
		<path class="st1" d="M819.76,339.76c-9.84,23.26-23.01,44.9-39.23,64.27c-1.23,1.47,0.88,3.6,2.12,2.12
			c16.38-19.57,29.75-41.36,39.7-64.87C823.1,339.52,820.51,337.98,819.76,339.76L819.76,339.76z"/>
	</g>
</g>
</svg>
