<?xml version="1.0" encoding="UTF-8"?>
<svg enable-background="new 0 0 300 300" viewBox="0 0 300 300" xmlns="http://www.w3.org/2000/svg">
 <path d="m46.41 68.192s5.768 10.994 13.25 19.67 81.02 42.017 124.35 42.239c43.334 0.226 84.48-14.171 85.789-12.305s4.232 7.616 3.953 9.204 3.965 33.427-42.074 49.586-160.6 10.03-183.81-50.364c-6.746-17.549 0.846-25.385 0.846-25.385s-9.339-17.12-16.929-20.149c-6.579-2.626-5.368-4.868-4.735-7.541s0.684-5.772 4.845-8.971 12.808-3.977 12.529-2.389 1.987 6.405 1.987 6.405z" fill="#ffc916" stroke="#000" stroke-width="3"/>
 <path d="m46.666 107.84s10.367 36.803 85.351 53.738c64.55 14.582 119.28 4.854 137.04-14.293 0 0-23.295 54.513-152.37 28.957-7.568-1.498-75.058-22.804-70.017-68.402z" fill="#bd6f00" opacity=".77"/>
 <path d="m41.473 62.745c4.187 2.137 13.926 24.208 23.755 27.893s-6.305 6.098-8.095 7.911-6.305 6.096-9.106 8.062 2.678-9.678-3.193-14.471-10.529-11.829-13.405-10.367 6.138-21.022 10.044-19.028z" fill="#9cc902" opacity=".5"/>
 <path d="m44.221 63.881s-3.885 1.611-4.517 4.284 5.113 10.06 8.59 12.633-8.166-2.903-10.763-3.031-7.991 1.709-7.991 1.709-1.361 1.234-2.318-1.715 0.232-8.797 1.667-9.527 5.802-6.021 5.802-6.021 7.186-3.652 9.53 1.668z" fill="#412800" opacity=".83"/>
 <path d="m273.16 131.22-6.641-12.773s-0.48-1.137 1.604-1.09 8.211 8.187 8.211 8.187 0.723 5.369-3.174 5.676z" fill="#412800"/>
 <path d="m269.01 129.77s-43.504 40.005-123.38 19.468-84.85-43.504-84.85-43.504 6.08-7.609 8.248-6.902 66.52 39.03 107.89 39.03c44.846-1e-3 81.455-13.72 84.908-14.752 3.455-1.031 7.889 4.493 7.18 6.66z" fill="#fff" opacity=".3"/>
 <path d="m263.965,140.833c-.227.104-1.402-.351-1.402-.351s.678-2.243 1.186-1.868c.503.376.954,1.883.216,2.219z" fill="#412800"/>
 <path d="m254.678,146.026c-.232-.09-.793-1.191-.793-1.191s1.938-.986 2.066-.396-.519,1.876-1.273,1.587z" fill="#412800"/>
 <path d="m121.997,120.75c.118-.166 1.109-.38 1.109-.38s.389,1.75-.106,1.726-1.388-.808-1.003-1.346z" fill="#412800"/>
 <path d="m262.861,148.188c-.541.317-1.754-1.191-1.168-1.858s1.15-1.48 1.605-1.185 .886,2.262-.437,3.043z" fill="#412800"/>
 <path d="m59.976,131.409c-.698.269-2.072-.688-1.294-1.203s1.544-1.13 2.084-.961 .911,1.51-.79,2.164z" fill="#412800"/>
 <path d="m118.829,121.586c-.411.223-1.302-.807-.86-1.271 .446-.467.876-1.029 1.214-.83s.643,1.552-.354,2.101z" fill="#412800"/>
 <path d="m216.818,134.878c-.025.376-1.104.545-1.227.042-.123-.506-.316-1.041-.037-1.187s1.323.228 1.264,1.145z" fill="#412800"/>
 <path d="m125.39 162.06s-3.123-3.656-4.99-2.348-4.688-0.33-4.688-0.33 1.692-5.923 3.002-4.058 9.049 5.349 9.049 5.349l-2.373 1.387z" fill="#412800" opacity=".76"/>
 <path d="m113.24 156.66s-2.544-3.228-4.989-2.346c-2.446 0.878-1.994 3.905-1.994 3.905l6.983-1.559z" fill="#412800" opacity=".76"/>
</svg>
