<svg height="512" viewBox="0 0 512 512" width="512" xmlns="http://www.w3.org/2000/svg"><g id="Filled_outline" data-name="Filled outline"><path d="m474.989 146.948a44.265 44.265 0 0 0 -13.309-9.164c-9.174-4.086-14.9-13.614-13.429-23.548a44.347 44.347 0 0 0 -12.525-37.961 44.347 44.347 0 0 0 -37.961-12.525c-9.934 1.474-19.462-4.255-23.548-13.429a44.265 44.265 0 0 0 -9.164-13.309 44.419 44.419 0 0 0 -62.82 0l-94.233 94.23 172.758 172.758 94.231-94.232a44.419 44.419 0 0 0 0-62.82z" fill="#809e39"/><path d="m470.86 272.57a215.477 215.477 0 0 1 -8.87 61.37v.01a213.592 213.592 0 0 1 -11.42 30.01v.01a215.154 215.154 0 0 1 -195.14 124.03q-9.24 0-18.29-.77c-110.43-9.28-197.14-101.84-197.14-214.66 0-113.04 87.05-205.74 197.79-214.71q8.715-.72 17.64-.72a214.717 214.717 0 0 1 150.68 61.46q5.73 5.61 11.01 11.61a215.758 215.758 0 0 1 29.81 43.58c2.6 5.04 5.02 10.19 7.22 15.45a213.382 213.382 0 0 1 14.5 52.37q1.5 10.365 1.98 21.03.225 4.935.23 9.93z" fill="#8bab43"/><path d="m216.77 361.71a54.835 54.835 0 0 0 -1.63 13.83c0 1.03.02 2.04.07 3.01.01.19.02.39.03.58 1.66 30.79 24.76 31.99 24.76 65.07 0 22.76-9.25 28.83-16.62 41.43a219.1 219.1 0 0 1 -98.1-32.69q-6.87-4.305-13.38-9.09a217.192 217.192 0 0 1 -42.6-41.37q-5.16-6.615-9.81-13.64a210.346 210.346 0 0 1 -27.61-61.04 204 204 0 0 1 -4.43-20.33 211.185 211.185 0 0 1 -2.88-34.9 215.6 215.6 0 0 1 4.09-41.95 211.4 211.4 0 0 1 8.02-29.43 216.048 216.048 0 0 1 107.89-121.8q6.405-3.18 13.06-5.93c24.37-8.03 10.94-49.46 10.94-49.46 40 0 63.14 16.57 51.18 54.98-1.87 6.01-4.61 12.52-4.61 21.95 0 1.91.08 3.7.22 5.41.12 1.44.3 2.81.51 4.12a44.767 44.767 0 0 0 2.51 9.27c.28.72.57 1.42.88 2.1 7.05 15.72 20.74 22.29 20.74 47.76a59.051 59.051 0 0 1 -.67 9.13 45.757 45.757 0 0 1 -1.18 5.5 47.517 47.517 0 0 1 -6.19 13.38c-.16.25-.32.5-.48.74-7.19 10.88-16.34 19.08-16.34 39.9a49.328 49.328 0 0 0 4.2 21.08c.16.35.32.7.49 1.04a79.356 79.356 0 0 0 7.54 11.93c.15.21.3.41.45.62 6.13 8.47 12.18 17.04 12.18 33.97 0 26.9-15.25 32.73-21.85 50.48l-.01.01a45.118 45.118 0 0 0 -1.37 4.34z" fill="#9bbc50"/><path d="m494.973 178.366c-.226-17.03-8.088-34.121-22.567-43.283-5.168-3.27-11.233-5.909-14.193-11.261s-1.969-11.9-2-18.013c-.152-26.715-24.986-50.757-51.692-50.045-4.228.112-8.571.744-12.608-.518-7.918-2.474-11.837-11.031-16.638-17.8-17.358-24.446-57.763-27.516-78.612-5.969l11.267 11.284c13.247-13.751 38.108-13.657 51.25.193 8.454 8.909 12.788 22.542 24.175 27.144 8.09 3.27 17.271.813 25.955 1.673a34.677 34.677 0 0 1 29.465 25.548c2.936 11.952-.545 25.656 6.035 36.058 5.368 8.484 15.818 12.055 23.349 18.693 15.022 13.242 15.019 39.886-.006 53.125a224.359 224.359 0 0 0 -57.135-92.976l10.639-10.562-11.314-11.314-11.133 11.208-55.258-34.141.048-19.41h-16l.053 13.236a223.4 223.4 0 0 0 -80.383-11.949l.551 15.923a218.906 218.906 0 0 1 85.27 14.84c4.278 1.669 8.75 3.671 11.285 7.5 1.867 2.82 2.437 6.276 2.962 9.616l5.869 37.3-110.633-44.3-5.945 14.864 36.436 14.57-24.9 4.527 3.187 16.463c32.968-14.866 72.125-5.067 103.96 12.091l4.851 77.914-101.808-37.334-5.5 15.037 37.805 13.84-33.234 4.949 2.733 16.836a133.308 133.308 0 0 1 100.041 3.386l-5.011 72.331c-14.56-1.538-27.217-11.355-35.633-23.336s-13.237-26.053-17.956-39.913l-15.235 7.028 17.035 36.021-36.887-14.4-5.818 14.9 92.24 35.947-14.854 66.564a146.316 146.316 0 0 1 -19.741-44.967l-15.236 5.63 10.735 28.9-71.174-29.473-6.122 14.784 40.7 16.853-23.732 6.427 4.611 16.19c22.994-13.173 53.1-12.873 75.824.754l-16.092 42.5c-1.438 3.8-2.988 7.759-6.066 10.407-2.855 2.457-6.654 3.456-10.329 4.283a210.409 210.409 0 0 1 -64.082 4.35 59.769 59.769 0 0 0 6.571-53.8c-6.869-18.362-23.08-34.4-21.33-53.924 1.411-15.747 14.215-27.814 20.619-42.269a54.951 54.951 0 0 0 1.01-41.549c-6.8-17.618-22.908-32.557-21.954-51.418.815-16.121 13.934-28.588 20.58-43.3a57.154 57.154 0 0 0 -1.265-48.961c-5.488-10.646-14.414-19.666-17.408-31.262-5.542-21.466 10.938-44.33 4.6-65.575-3.529-11.829-13.807-20.759-25.27-25.342-10.553-4.22-22.4-5.477-33.7-5.345-9.526.111-10.316 11.785-8.877 19.31 1.4 7.3 4.025 15.085.974 21.856-2.94 6.525-10.141 9.775-16.629 12.8-66.327 30.881-115.515 96.213-126.488 168.549s16.751 149.485 71.507 198.01c33.415 29.613 75.77 48.554 119.818 55.852 40.471 6.7 82.722 3.7 121.3-10.252a222.4 222.4 0 0 0 143.615-246.492c-.828-4.859-1.784-10.045.184-14.565 1.44-3.309 4.253-5.776 6.72-8.41 8.721-9.312 12.787-21.957 12.619-34.636zm-274.661-39.727a94.276 94.276 0 0 1 7.988 12.986 42.052 42.052 0 0 1 1.817 30.445c-42.583 11.979-81.322 28.654-115.534 49.758l13.906-37.015-14.978-5.626-21.733 57.848c-.188.136-.383.266-.571.4-26.276 18.988-44.647 37.551-56.527 51.495a206.431 206.431 0 0 1 4.341-78.006c19.17-19.057 47.519-41.952 87.319-62.456l44.4 19.836 6.528-14.608-32.09-14.336a465.987 465.987 0 0 1 66.745-24.16 118.248 118.248 0 0 0 8.389 13.439zm-66.519-54.49 1.243-.558c4.812-2.155 10.265-4.6 14.814-8.874 12.5-11.751 10.193-24.953 8.342-35.561-.423-2.426-.835-4.786-1.064-7.041a69.842 69.842 0 0 1 18.53 3.554c8.449 2.882 14.813 8.134 17.458 14.41 3.549 8.417.854 18.585-2 29.349-2.608 9.835-5.282 19.973-4 30.5-72.636 20.439-123.43 51.617-157.274 79.632 20.346-46.201 57.776-84.56 103.951-105.411zm-115.267 235.536a240.988 240.988 0 0 1 19.24-22.4l59.341 6.664 1.786-15.9-46.177-5.186a333.351 333.351 0 0 1 27.862-22.458c34.257-24.754 74.145-44.376 118.8-58.466a93.387 93.387 0 0 0 -8.7 16.482 56.551 56.551 0 0 0 -3.668 19.756 57.382 57.382 0 0 0 5.1 24.133c.139.3.288.6.431.9-74.746 38.255-120.793 84.06-147.722 119.081a205.479 205.479 0 0 1 -26.293-62.606zm35.908 76.415a342.658 342.658 0 0 1 23.927-28.67l-.3 2.513 68 8 1.87-15.89-57.731-6.79a407.334 407.334 0 0 1 40.666-34.908l51.982 7.562 2.3-15.834-35.434-5.154a486.084 486.084 0 0 1 51.086-29.965l.2.3a90.854 90.854 0 0 1 7.622 12.7 41.256 41.256 0 0 1 -.031 33.855 90.662 90.662 0 0 1 -7.555 12.566 105.028 105.028 0 0 0 -8.779 14.724 56.628 56.628 0 0 0 -4.289 13.709c-34.419 21.508-64.663 46.209-90.038 73.556a206.08 206.08 0 0 1 -43.496-42.274zm57.023 51.238a421.892 421.892 0 0 1 76.286-63.395 56.352 56.352 0 0 0 2.653 10.421c2.607 7.235 6.516 13.539 10.3 19.636 3.331 5.373 6.478 10.448 8.54 15.809a44.8 44.8 0 0 1 -8.24 44.955 7.554 7.554 0 0 1 -1.889 1.757 13.193 13.193 0 0 1 -3.118-.107 206.331 206.331 0 0 1 -84.532-29.074zm329.68-198.6-21.182 23.106 2.341-24.074-15.925-1.548-4.4 45.238-14.237 15.54q.633-17.883.3-35.225-.358-17.77-1.773-34.721l41.457-41.457a212.6 212.6 0 0 1 10.613 35.751q1.769 8.674 2.806 17.394zm-20.366-68.827-36.631 36.635a426.673 426.673 0 0 0 -12.083-61.289l19.368-19.368a204.488 204.488 0 0 1 29.346 44.026zm-40.347-55.652-13.642 13.641a332.906 332.906 0 0 0 -14.6-36.769 207.6 207.6 0 0 1 28.242 23.132zm-31.924 218.263c6.6-40.985 9.186-84.814 7.689-130.27-.911-27.665-3.2-52.411-5.787-72.891 13.385 38.93 20.64 83.343 21.639 132.732 1.327 65.678-8.892 128.522-17.994 170.643a205.185 205.185 0 0 1 -40.839 22.051c16.309-36.987 28.167-78.014 35.292-122.265zm25.036 84.826q1.932-9.936 3.6-19.761l37.765-30.9a206.779 206.779 0 0 1 -41.365 50.661zm56.949-84.08-49.652 40.62q3.717-26.316 5.547-51.738l56.226-61.333a204.243 204.243 0 0 1 -12.121 72.451z"/></g></svg>