<?xml version="1.0" encoding="UTF-8"?>
<svg width="51.01mm" height="65.85mm" version="1.1" viewBox="0 0 51.010015 65.850388" xmlns="http://www.w3.org/2000/svg">
 <g transform="translate(88.59 -105.02)" fill-rule="evenodd">
  <path d="m-66.732 124.03s2.2501 1.6715 3.1202 1.9972l0.87018 0.32561-2.7532-0.98792z" fill="#a40"/>
  <path d="m-58.047 114.28-1.9327 11.243 0.95173 0.39833 2.2917-12.048z" fill="#5aa02c"/>
  <path d="m-45.988 121.3-10.395 6.8252-0.72998-0.61428 11.06-7.4988z" fill="#5aa02c"/>
  <path d="m-47.407 120.2-9.8362 7.497-0.77598-0.56423 10.448-8.213z" fill="#5aa02c"/>
  <path d="m-56.411 114.8-2.8796 11.469 0.89352 0.38889 3.301-12.293z" fill="#5aa02c"/>
  <path d="m-50.168 117.47-8.298 8.9419 0.59761 0.72593 9.0847-9.4933z" fill="#5aa02c"/>
  <path d="m-52.498 115.89-5.4373 10.65-0.96253-0.20543 5.6599-11.538z" fill="#5aa02c"/>
  <path d="m-57.157 114.86c-0.70852 0.37098-1.5099 0.38481-1.6756-0.0947-0.16567-0.47952 0.80237-1.3739 0.80237-1.3739s-0.84113 0.43813-1.0976 0.0291c-0.2565-0.40905-0.3644-1.5057 0.23879-1.6519 0.60325-0.14621 1.0522 6e-3 1.0522 6e-3s-1.6251-0.6347-1.0931-1.3695c0.53204-0.73477 1.4459-1.0505 1.706-0.68008 0.2601 0.37046 0.02527-0.27 0.02527-0.27s-0.70756-0.98903-0.20805-1.3767c0.49951-0.38764 1.3557-0.0862 1.3557-0.0862s-1.4203-1.4733-0.64106-2.1495c0.77921-0.67623 1.3572-0.55245 1.5899-0.33959 0.94486-0.9709 1.6986-0.25389 0.61255 0.20425 0 0 1.3758 0.14855 1.1472 0.79094-0.22859 0.64238-0.71004 0.83717-0.71004 0.83717s1.205 0.17371 0.7638 0.83807c-0.44121 0.6643-0.92626 0.89765-0.92626 0.89765s1.5833 0.63137 0.82212 1.1148c-0.76113 0.48337-1.1791 0.45005-1.1791 0.45005s1.2365 1.1866 0.59146 1.3295c-0.64506 0.14289-0.96863 4.9e-4 -0.96863 4.9e-4s1.0254 0.74236 0.35149 1.1938c-0.67394 0.45145-1.141 0.49195-1.141 0.49195s0.91084 0.61666 0.32053 1.0748c-0.59034 0.45813-0.85766 0.16481-0.85766 0.16481s0.57206 1.6109-0.53167 1.6285c-1.234 0.0198-0.34995-1.66-0.34995-1.66z" fill="#71c837"/>
  <path d="m-47.335 108.19c-0.1541-0.73816-0.66292-1.3097-1.1657-1.1147-0.50283 0.19496-0.61168 1.455-0.61168 1.455s-0.18482-0.87483-0.68852-0.78934c-0.50369 0.0855-1.4778 0.72161-1.2068 1.2399 0.27106 0.51835 0.68813 0.73456 0.68813 0.73456s-1.5781-0.72869-1.8385 0.12175c-0.26039 0.85041 0.07257 1.6969 0.5468 1.639 0.47422-0.0579-0.20617 0.19302-0.20617 0.19302s-1.2746 0.14533-1.2699 0.74759c0.0046 0.60226 0.8089 1.0076 0.8089 1.0076s-2.1364-0.0405-2.1881 0.94534c-0.05164 0.98591 0.42558 1.3113 0.75213 1.3364-0.18702 1.2935 0.89329 1.3571 0.56603 0.29734 0 0 1.0155 0.86928 1.3967 0.29187 0.38116-0.57745 0.22921-1.0418 0.22921-1.0418s0.92539 0.73307 1.1867-8e-3c0.26122-0.7409 0.13872-1.2329 0.13872-1.2329s1.5482 0.70151 1.4526-0.14654c-0.09561-0.84803-0.39441-1.1198-0.39441-1.1198s1.7808 0.0976 1.4799-0.44785c-0.30095-0.54553-0.62837-0.68021-0.62837-0.68021s1.2776 0.23789 1.2123-0.5282c-0.06531-0.76613-0.33508-1.1202-0.33508-1.1202s1.0996 0.23911 1.094-0.47265c-0.0055-0.71175-0.42088-0.709-0.42088-0.709s1.6993-0.64413 0.99741-1.4303c-0.78472-0.87909-1.5956 0.83189-1.5956 0.83189z" fill="#69ba33"/>
  <path d="m-42.484 110.92c0.01567-0.75159-0.35316-1.4083-0.8889-1.3141-0.53578 0.0942-0.92631 1.3058-0.92631 1.3058s0.01645-0.89116-0.49551-0.90425c-0.51194-0.0124-1.6081 0.42215-1.4599 0.98116 0.14828 0.55903 0.50747 0.8506 0.50747 0.8506s-1.3793-1.0157-1.8257-0.23388c-0.44641 0.78181-0.31157 1.6737 0.16534 1.7081 0.4769 0.0345-0.24517 0.14921-0.24517 0.14921s-1.2795-0.10245-1.4107 0.48747c-0.13117 0.58997 0.56406 1.1408 0.56406 1.1408s-2.0805-0.44979-2.3533 0.50462c-0.27278 0.95443 0.12065 1.3643 0.43437 1.4516-0.47452 1.2293 0.56781 1.4988 0.48658 0.39951 0 0 0.79733 1.0452 1.3003 0.55359 0.50301-0.49163 0.45907-0.97504 0.45907-0.97504s0.73987 0.89468 1.1625 0.22011c0.42255-0.67455 0.41363-1.1793 0.41363-1.1793s1.3562 0.98338 1.4538 0.13553c0.09766-0.84783-0.13332-1.171-0.13332-1.171s1.7198 0.43742 1.5485-0.15396c-0.17138-0.59135-0.46127-0.78595-0.46127-0.78595s1.196 0.47795 1.3048-0.28394c0.10882-0.76188-0.07522-1.16-0.07522-1.16s1.0216 0.44495 1.1767-0.2523c0.15503-0.69725-0.25184-0.77429-0.25184-0.77429s1.8073-0.30383 1.298-1.2076c-0.56935-1.0105-1.7482 0.50739-1.7482 0.50739z" fill="#71c837"/>
  <path d="m-47.103 121.55c-0.18991 0.73101 0.01781 1.4454 0.56297 1.4594 0.54521 0.0141 1.2081-1.0922 1.2081-1.0922s-0.22308 0.86719 0.27393 0.98124c0.497 0.11402 1.6688-0.0942 1.6539-0.66957-0.01496-0.57538-0.29807-0.9312-0.29807-0.9312s1.1113 1.2649 1.7289 0.58956c0.61764-0.67533 0.69312-1.5731 0.23528-1.7011-0.4578-0.12795 0.27413-0.0972 0.27413-0.0972s1.2259 0.35323 1.4911-0.19709c0.26518-0.55032-0.28593-1.2259-0.28593-1.2259s1.9277 0.85088 2.4158-0.0274c0.48815-0.87827 0.19908-1.3564-0.08706-1.5038 0.74905-1.1068-0.20642-1.5763-0.38244-0.4865 0 0-0.53599-1.1786-1.1415-0.79789-0.60552 0.38072-0.6749 0.86156-0.6749 0.86156s-0.51486-1.0202-1.0843-0.44492c-0.56941 0.57528-0.67796 1.07-0.67796 1.07s-1.0962-1.2288-1.3886-0.41994c-0.29234 0.80879-0.14181 1.1702-0.14181 1.1702s-1.5783-0.76745-1.5483-0.15592c0.03002 0.61152 0.26797 0.85892 0.26797 0.85892s-1.0572-0.70337-1.3405 0.0193c-0.28328 0.72265-0.19602 1.148-0.19602 1.148s-0.89454-0.63665-1.2079 0.0138c-0.31341 0.65038 0.0661 0.80611 0.0661 0.80611s-1.8359-0.0607-1.5483 0.92275c0.32139 1.0996 1.8254-0.1498 1.8254-0.1498z" fill="#6abc34"/>
  <path d="m-47.972 119.49c-0.1988 0.52538-0.15887 0.99958 0.16416 0.95485 0.32305-0.0447 0.84754-0.87725 0.84754-0.87725s-0.23453 0.62305 0.04808 0.65243c0.28258 0.0294 1.0049-0.23188 1.0635-0.62898 0.05856-0.39711-0.06833-0.61535-0.06833-0.61535s0.5135 0.76535 0.9605 0.23583c0.44702-0.52952 0.59724-1.159 0.33957-1.202-0.25763-0.043 0.17465-0.0947 0.17465-0.0947s0.68868 0.12229 0.91112-0.28541c0.22246-0.40772-0.02655-0.82072-0.02655-0.82072s1.0482 0.39703 1.4419-0.26014c0.39369-0.6572 0.27758-0.95958 0.12446-1.0331 0.57592-0.84153 0.06189-1.0714-0.17072-0.29886 0 0-0.18102-0.76301-0.58626-0.43882-0.40525 0.3242-0.50295 0.66426-0.50295 0.66426s-0.187-0.65539-0.59358-0.2c-0.40656 0.4554-0.52921 0.80899-0.52921 0.80899s-0.50877-0.74183-0.77771-0.1523c-0.26894 0.5895-0.22164 0.82483-0.22164 0.82483s-0.84996-0.37406-0.90377 0.0466c-0.05383 0.42065 0.05887 0.56829 0.05887 0.56829s-0.5471-0.38178-0.80055 0.14715c-0.25344 0.52894-0.25133 0.81485-0.25133 0.81485s-0.45807-0.35178-0.72097 0.13002c-0.2629 0.48185-0.05513 0.55185-0.05513 0.55185s-1.0862 0.14121-1.0303 0.79385c0.06247 0.72971 1.1047-0.28603 1.1047-0.28603z" fill="#75ca3d"/>
  <path d="m-64.499 122.94c-6.9134 2.0218-8.3801 9.5728-10.67 17.25-8.0326 6.4217-9.1585 10.212-10.876 19.856-1.9974 3.3317-3.7406 5.4099-1.4774 10.784 5.1659-0.45756 6.7308-1.973 7.2572-7.5143 9.0838-3.825 10.964-7.2189 14.716-15.846 7.1404-3.5622 12.327-9.6071 12.722-17-1.8404-3.1924-5.1533-6.8562-11.671-7.5311z" fill="#f60"/>
  <path d="m-53.335 130.15-0.08651 0.0981s-1.3121 7.2794-3.9204 9.6621c-5.8764 5.3678-9.2999 6.8763-9.2999 6.8763s0.45908 3.9539-5.2201 10.007c-3.9486 4.2086-6.7843 4.3239-8.7211 6.514-0.86245 1.5173-0.99755 4.2198-3.3547 5.9319-1.1197 0.81325-1.6446 0.94797-3.5679 1.6215 5.1659-0.45756 5.5148-1.6926 8.0991-6.7662 7.6806-4.7604 10.964-7.4997 13.874-16.594 6.939-2.5332 12.137-9.6069 12.722-16.999l-1.3813-1.8677z" fill="#d45500"/>
  <path d="m-63.347 138.73s1.2645 1.1767 1.8208 1.2366l0.55636 0.0599-1.7692-0.13724z" fill="#a40"/>
  <path d="m-66.519 132.51s2.0804 1.8785 2.9155 2.2856l0.83515 0.40714-2.6465-1.246z" fill="#a40"/>
  <path d="m-81.243 156.66s1.0212 1.393 1.5565 1.5562l0.53525 0.16318-1.712-0.46676z" fill="#a40"/>
  <path d="m-86.911 163.84s1.0212 1.393 1.5565 1.5562l0.53525 0.16317-1.712-0.46675z" fill="#a40"/>
  <path d="m-71.133 147.79s1.0212 1.393 1.5565 1.5562l0.53524 0.16319-1.712-0.46676z" fill="#a40"/>
  <path d="m-74.842 152.84s2.2501 1.6715 3.1203 1.9971l0.87017 0.32563-2.7532-0.98793z" fill="#a40"/>
  <path d="m-76.991 143.85s2.2501 1.6715 3.1202 1.9972l0.87018 0.32561-2.7532-0.98792z" fill="#a40"/>
  <path d="m-82.016 150.49s2.2501 1.6715 3.1202 1.9972l0.87018 0.32561-2.7532-0.98792z" fill="#a40"/>
  <path d="m-67.372 141.01s2.2501 1.6715 3.1202 1.9972l0.87018 0.32561-2.7532-0.98792z" fill="#a40"/>
  <path d="m-59.335 134.86s2.2501 1.6715 3.1202 1.9972l0.87018 0.32561-2.7532-0.98792z" fill="#a40"/>
  <path d="m-72.501 133.94s2.2501 1.6715 3.1202 1.9972l0.87018 0.32562-2.7532-0.98793z" fill="#a40"/>
  <path d="m-62.787 122.95c-0.12886 6.0107 1.3614 9.5642 6.6848 14.682-1.8617 4.9179-10.094 8.1931-11.568 7.2751-2.5843 7.5412-9.6023 10.591-16.984 14.646 0.04385-8.2563 4.2146-14.979 10.665-18.087 0 0 0.24642-6.1844 1.4916-9.9101 2.1642-4.4973 4.5472-8.2701 9.7106-8.6063z" fill="#ffb380" opacity=".191"/>
  <path d="m-59.646 124.12 2.5053-9.0324-1.5823 9.0324 0.92302-3.5602-0.46151 3.758 2.5053-8.1094-2.1098 8.439 1.6482-3.8239-1.3186 4.1536 4.1536-7.7797-3.8899 7.9116 3.0987-3.4284-2.3735 3.3624 5.2744-5.0107-5.5381 5.8678 0.26372 0.19779 6.2633-5.0107-5.7359 5.4062 0.26372 0.32965 6.1974-3.2965-5.5381 3.8239z" opacity=".097"/>
  <path d="m-39.592 115.82c0.06904 0.11103 0.1114 0.19497 0.1114 0.19497 0.01076-0.063 0.02449-0.11988 0.04065-0.17173-0.04946-0.0155-0.10004-0.0246-0.15204-0.0232zm1.264 0.23387c-0.14977 0.0172-0.32027 0.19124-0.38437 0.56639 0 0-0.09839-0.19725-0.2529-0.39609-0.03885 0.0755-0.08393 0.15374-0.14401 0.23765 0.27784 0.13527 0.55831 0.5742 0.08429 1.3804-0.47401 0.80623-2.3459 0.0252-2.3459 0.0252s0.53549 0.62002 0.27799 1.1252c-0.2575 0.50517-1.4482 0.18073-1.4482 0.18073s-0.71048-0.0283-0.26595 0.0891c0.44457 0.11743 0.37093 0.9417-0.22882 1.5616-0.59975 0.61993-1.6785-0.54126-1.6785-0.54126s0.275 0.32664 0.28953 0.85482c0.01087 0.39599-0.62625 0.60262-1.1491 0.63707-0.01091 0.23476 0.03324 0.52272 0.31111 0.58301 0.4826 0.10466 1.6207-0.0867 1.6062-0.61479-0.01453-0.52818-0.28953-0.85482-0.28953-0.85482s1.0787 1.1612 1.6785 0.54126c0.59975-0.61992 0.67339-1.4442 0.22882-1.5616-0.44453-0.11745 0.26595-0.0891 0.26595-0.0891s1.1907 0.32444 1.4482-0.18074c0.2575-0.50517-0.27799-1.1257-0.27799-1.1257s1.8718 0.78109 2.3459-0.0252c0.474-0.80622 0.19354-1.2451-0.0843-1.3804 0.45459-0.63501 0.26266-1.0415 0.01305-1.0128zm-9.6885 4.461s-0.53613 0.41923-1.0282 0.52655c-5e-3 0.0658-0.0013 0.13608 0.02359 0.21631 0.16425 0.53128 0.64466 0.46261 1.0648 0.28083-0.14051-0.25637-0.16678-0.63552-0.06021-1.0237zm1.7196 0.3368s-0.51318 0.80797-1.0001 0.97198c0.0583 0.36269 0.26092 0.62755 0.59512 0.63565 0.33123 8e-3 0.70679-0.38613 0.94186-0.68261-0.10075-2e-3 -0.19541-8e-3 -0.27097-0.0242-0.4826-0.10469-0.26595-0.90083-0.26595-0.90083z" opacity=".097"/>
  <path d="m-42.266 114.77c-0.08617-0.0119-0.22772 0.1225-0.32035 0.43316 0 0-0.02546-0.10501-0.07715-0.21657-0.0063 0.15232-0.06966 0.36452-0.24085 0.65305-0.35838 0.60399-1.3125 0.2389-1.3125 0.2389s0.2265 0.37948 0.024 0.75421c-0.2025 0.3747-0.82934 0.26265-0.82934 0.26265s-0.39352 0.0474-0.159 0.0869c0.23455 0.0394 0.09786 0.61806-0.30907 1.1047-0.40691 0.48669-0.8745-0.21658-0.8745-0.21658s0.1154 0.20022 0.06209 0.5652c-0.05332 0.36496-0.71088 0.60502-0.96812 0.578-0.25726-0.027-0.04376-0.59938-0.04376-0.59938s-0.4774 0.76538-0.77148 0.80646c-0.20171 0.0282-0.27945-0.17028-0.25167-0.45215-0.26935 0.10012-0.57213 0.28583-0.54333 0.62503 0.05687 0.67065 1.0057-0.26265 1.0057-0.26265-0.18079 0.4827-0.14437 0.91834 0.14959 0.87724 0.29407-0.041 0.77148-0.80647 0.77148-0.80647s-0.21352 0.57286 0.04375 0.59985c0.25724 0.027 0.9148-0.21303 0.96812-0.57801 0.0533-0.36497-0.06209-0.56565-0.06209-0.56565s0.46712 0.70325 0.87403 0.21658c0.40693-0.48667 0.54362-1.0648 0.30906-1.1043-0.23453-0.0395 0.159-0.0874 0.159-0.0874s0.62685 0.11255 0.82934-0.26217c0.20251-0.37473-0.024-0.75421-0.024-0.75421s0.95408 0.36461 1.3125-0.23938c0.35838-0.60401 0.25276-0.88183 0.11337-0.94941 0.2949-0.43505 0.27591-0.69228 0.16512-0.70768z" opacity=".097"/>
  <path d="m-43.391 109.96c-0.02863 1.8e-4 -0.05766 3e-3 -0.08749 9e-3 -0.43248 0.082-0.74458 1.0056-0.80221 1.1864 0.10966-0.0252 0.21451-0.0419 0.29887-0.0398 0.45623 0.0126 0.44163 0.86942 0.44163 0.86942s0.33881-1.1315 0.80636-1.249c-0.09733-0.44759-0.33789-0.77746-0.65715-0.77553zm-1.3548 0.39447c-0.45621-0.0119-1.433 0.40601-1.3009 0.94344 0.13214 0.53745 0.45222 0.81776 0.45222 0.81776s-1.2287-0.97669-1.6265-0.22506c-0.39782 0.75163-0.27809 1.6089 0.1469 1.642 0.42499 0.0332-0.21828 0.14358-0.21828 0.14358s-1.1403-0.0987-1.2572 0.46849c-0.11689 0.5672 0.50288 1.097 0.50288 1.097s-1.8541-0.43267-2.0972 0.48489c-0.24309 0.91758 0.10726 1.3121 0.38683 1.396-0.40786 1.1398 0.4393 1.4176 0.43518 0.48787-0.13565-0.22024-0.2031-0.57695-0.05849-1.1228 0.24309-0.91756 2.0972-0.4854 2.0972-0.4854s-0.61931-0.52976-0.50242-1.097c0.1169-0.56715 1.2572-0.4685 1.2572-0.4685s0.64327-0.11042 0.21828-0.14358c-0.425-0.0331-0.54518-0.89033-0.14736-1.642 0.3978-0.75163 1.627 0.22505 1.627 0.22505s-0.32008-0.2803-0.45222-0.81775c-0.10574-0.43026 0.49669-0.77995 0.97629-0.89775-0.0029-0.15706-0.03675-0.79521-0.43933-0.80632zm3.1596 0.0557c-0.25686 3e-4 -0.53347 0.20886-0.74557 0.41584 0.22799 0.1751 0.37512 0.5518 0.40203 0.98319 0.07558-0.0242 0.15243-0.0542 0.23532-0.0894 0.15604-0.17095 0.37132-0.37533 0.59913-0.48042 0.06269-0.13923 0.0677-0.30225-0.03316-0.49532-0.12684-0.24287-0.28791-0.33405-0.45775-0.33386z" opacity=".097"/>
  <path d="m-48.293 107.67c-0.05586 2e-3 -0.11225 0.0127-0.16858 0.0351-0.3331 0.13236-0.4724 0.7974-0.52286 1.1362 0.27989 0.15981 0.38809 0.68442 0.38809 0.68442s0.0977-1.157 0.54833-1.3361c0.15811-0.0629 0.31672-0.0378 0.46219 0.0489-0.17316-0.34333-0.43319-0.57575-0.70718-0.56859zm1.9127 0.0654c-0.39788-0.0315-0.7483 0.47707-0.92067 0.77696 0.13576 0.1867 0.24264 0.43015 0.29778 0.70055 0 0 0.55216-1.1927 1.1596-0.96444-0.01548-0.0916-0.05857-0.18625-0.14356-0.28382-0.13186-0.15139-0.26462-0.21908-0.39319-0.22925zm-3.1649 0.57619c-0.026-2e-3 -0.05329-1.5e-4 -0.08151 5e-3 -0.4514 0.0785-1.3242 0.66305-1.0814 1.1391 0.14466 0.28349 0.32758 0.45811 0.45848 0.56148-0.01497-0.0259-0.03075-0.0496-0.04492-0.0774-0.24288-0.47605 0.62997-1.0601 1.0814-1.1386 0.04732-8e-3 0.09081-5e-3 0.13199 5e-3 -0.078-0.20776-0.22427-0.47912-0.46404-0.49361zm-1.57 1.5516c-0.28278-4e-3 -0.53631 0.0858-0.62382 0.37874-0.2165 0.72465 0.02476 1.4447 0.40013 1.5027-0.08551-0.28065-0.09734-0.6478 0.01343-1.0185 0.23334-0.78109 1.6473-0.11154 1.6473-0.11154s-0.29799-0.16056-0.5349-0.53442c-0.16392-0.0697-0.53264-0.21269-0.90215-0.2169zm-0.17876 2.001c-0.05878 0.0245-0.13986 0.0602-0.13986 0.0602s-1.1421 0.13316-1.1379 0.68631c0.0025 0.33537 0.26752 0.60299 0.47655 0.76272-0.03835-0.0862-0.06224-0.17921-0.06298-0.27813-0.0042-0.55315 1.1379-0.68678 1.1379-0.68678s0.60977-0.23022 0.18478-0.17703c-0.19252 0.024-0.35558-0.12745-0.45848-0.36737zm3.4372 0.49788s0.04639 0.0261 0.10791 0.0703c-0.01209-0.0207-0.02404-0.0415-0.03612-0.0607-0.02091-4e-3 -0.07178-0.01-0.07178-0.01zm-4.137 1.1785c-0.36138 5e-3 -1.7734 0.0696-1.814 0.86429-0.03769 0.73751 0.23854 1.0685 0.50063 1.1799-0.06405-0.17743-0.10209-0.40182-0.08707-0.69581 0.04628-0.90545 1.9608-0.86808 1.9608-0.86808s-0.34674-0.18366-0.56037-0.48032zm-1.1582 2.3295c-0.0085 0.54286 0.25066 0.7696 0.42606 0.69769-0.01725-0.12677-0.01928-0.27528 0.0056-0.45136-0.13552-0.0107-0.29866-0.0845-0.43162-0.24633z" opacity=".097"/>
  <path d="m-54.581 105.65c-0.17433-7e-3 -0.44168 0.11089-0.73083 0.44993-0.18993-0.19822-0.6613-0.31355-1.2972 0.31615-0.63588 0.62972 0.52292 2.0014 0.52292 2.0014s-0.69852-0.2806-1.1062 0.0804c-0.40764 0.36099 0.16953 1.282 0.16953 1.282s0.1916 0.59664-0.02066 0.25167c-0.21226-0.34498-0.9579-0.0509-1.3921 0.63328-0.43415 0.68422 0.89192 1.2752 0.89192 1.2752s-0.36631-0.14193-0.85861-6e-3c-0.49225 0.13616-0.40415 1.1575-0.19483 1.5384 0.14461 0.26315 0.51319 0.1501 0.72956 0.0548-0.14442-0.45547-0.15227-1.2299 0.27243-1.3474 0.4923-0.13616 0.85861 6e-3 0.85861 6e-3s-1.3261-0.59099-0.89192-1.2752c0.43418-0.68422 1.1798-0.97824 1.3921-0.63327 0.21226 0.34497 0.02066-0.2512 0.02066-0.2512s-0.57759-0.92097-0.16995-1.282c0.40763-0.36097 1.1066-0.0804 1.1066-0.0804s-1.1592-1.3721-0.52335-2.0018c0.48032-0.47567 0.86641-0.5256 1.1087-0.43648 0.42632-0.25668 0.38012-0.56365 0.1126-0.57504zm-3.2577 7.9525c-0.2195 0.26208-0.61662 0.79464-0.51744 1.1222 0.09359 0.30909 0.43722 0.39371 0.83078 0.30461-0.0086-0.019-0.01724-0.0376-0.02362-0.0587-0.1352-0.44653 0.65492-1.2796 0.65492-1.2796s-0.6864 0.40783-0.89572 0.027c-0.01778-0.0324-0.03316-0.0748-0.04892-0.11548zm1.6274 1.472c-0.33264 0.19136-0.68453 0.2707-0.94844 0.21847-0.12588 0.45826-0.18012 1.0771 0.45629 1.0654 0.12604-2e-3 0.22317-0.0359 0.30068-0.0881-0.11687-0.41679 0.15068-1.0468 0.19863-1.1554-0.0026-0.0131-0.0045-0.028-0.0072-0.0405z" opacity=".097"/>
 </g>
</svg>
