<?xml version="1.0" encoding="utf-8"?>
<!-- Generator: Adobe Illustrator 23.0.3, SVG Export Plug-In . SVG Version: 6.00 Build 0)  -->
<svg version="1.1" id="Layer_1" xmlns="http://www.w3.org/2000/svg" xmlns:xlink="http://www.w3.org/1999/xlink" x="0px" y="0px"
	 viewBox="0 0 1296 1728" style="enable-background:new 0 0 1296 1728;" xml:space="preserve">
<style type="text/css">
	.st0{fill:#7E1400;stroke:#D03D2F;stroke-width:0.7436;stroke-miterlimit:10;}
	.st1{fill:#A81A08;stroke:#000000;stroke-miterlimit:10;}
	.st2{fill:#B94833;}
	.st3{fill:none;}
	.st4{fill:none;stroke:#2E120D;stroke-width:10.7294;stroke-miterlimit:10;}
	.st5{fill:#009F0F;}
	.st6{fill:#00680F;}
</style>
<circle class="st0" cx="476.86" cy="504.71" r="82.86"/>
<circle class="st1" cx="648" cy="529.71" r="70"/>
<circle class="st2" cx="454.74" cy="479.71" r="25"/>
<circle class="st2" cx="612.57" cy="529.71" r="12.14"/>
<path class="st3" d="M729.44,277.67c4.64,0.82,44.61,8.67,76.82,53.41c33.22,46.15,29.42,91.58,28.96,96.21"/>
<path class="st3" d="M864.88,341.85c6.21-1.02,59.64-8.86,99.17,29.87c40.77,39.95,31.44,94.85,30.38,100.48"/>
<path class="st4" d="M483.04,431.07C495.94,325.95,549.6,261.07,584,265.66c34.96,4.65,75.57,84.41,64,194.06"/>
<g>
	<path class="st5" d="M392.69,383.1c-41.11-35.15-52.97-88.75-52.97-88.75s54.79,3.4,95.9,38.56s52.97,88.75,52.97,88.75
		S433.8,418.26,392.69,383.1z"/>
	<g>
		<path class="st6" d="M488.59,421.66c-14.57-7.11-27.93-16-40.8-25.33c-40.86-29.62-77.3-64-108.07-101.98"/>
		<g>
			<path class="st5" d="M489.3,420.45c-29.88-14.78-56.86-36.19-81.87-58.03c-24.15-21.08-46.49-44.19-66.71-69.06
				c-1.14-1.4-3.11,0.59-1.98,1.98c20.6,25.34,43.39,48.83,68.06,70.23c24.82,21.53,51.53,42.68,81.1,57.29
				C489.5,423.67,490.92,421.25,489.3,420.45L489.3,420.45z"/>
		</g>
	</g>
	<g>
		<path class="st5" d="M379.67,319.41c18.11,7.58,35.05,17.94,50.06,30.6"/>
		<g>
			<path class="st5" d="M379.09,320.42c18.04,7.65,34.79,17.85,49.83,30.42c1.14,0.95,2.8-0.68,1.64-1.64
				c-15.19-12.7-32.07-23.05-50.3-30.78C378.9,317.83,377.71,319.84,379.09,320.42L379.09,320.42z"/>
		</g>
	</g>
</g>
</svg>
