<svg id="Capa_1" enable-background="new 0 0 511.988 511.988" height="512" viewBox="0 0 511.988 511.988" width="512" xmlns="http://www.w3.org/2000/svg"><g><g><g><path d="m372.362 157.261h26.508c3.428 0 6.489-2.145 7.659-5.367l13.404-36.911c6.545-18.023 21.594-31.632 40.182-36.336 12.755-3.228 24.111 8.778 20.178 21.334l-38.103 121.63c-5.197 16.591-13.421 32.077-24.255 45.674l-4.783 6.004c-2.834 3.557-3.703 8.296-2.315 12.627l63.375 197.731c.737 2.298-.978 4.648-3.391 4.648h-154.808c-1.563 0-2.943-1.019-3.403-2.513l-37.261-122.383-77.487 7.524-34.745-138.565 179.319-90.425z" fill="#ffdfcf"/></g><g><path d="m214.88 50.222-21.336-20.963c-8.211-8.067-21.596-7.264-28.783 1.727-5.798 7.253-5.651 17.595.35 24.68l16.445 19.416 42.817 49.978 37.828-33.977z" fill="#ffdfcf"/></g><g><path d="m179.767 134.88-51.466-68.148c-5.562-7.364-4.368-17.796 2.713-23.714 7.259-6.066 18.044-5.182 24.217 1.987l26.625 30.918 45.162 52.194-32.273 28.569z" fill="#ffdfcf"/></g><g><path d="m179.767 134.88-32.845-43.49c-6.73-8.911-19.508-10.466-28.178-3.429-8.167 6.629-9.698 18.498-3.48 26.982l35.566 48.531 41.583 62.933 36.331-30.983z" fill="#ffdfcf"/></g><g><path d="m150.83 163.474-7.757-10.584c-5.82-7.941-17.083-9.433-24.77-3.281-7.115 5.695-8.593 15.933-3.379 23.408l55.31 82.545 22.179-18.404z" fill="#ffdfcf"/></g><g><path d="m308.451 73.369c1.308-3.344 1.922-7.035 1.666-10.898-.842-12.684-11.293-22.889-23.993-23.455-6.514-.29-12.512 1.895-17.134 5.693-1.705 1.401-4.217 1-5.357-.888-4.412-7.306-12.427-12.191-21.584-12.191-11.382 0-20.996 7.547-24.124 17.909-.454 1.505-1.89 2.459-3.462 2.457-.01 0-.019 0-.029 0-17.427 0-31.554 14.127-31.554 31.554 0 13.07 7.946 24.284 19.272 29.074l60.049 3.062s40.473-18.253 41.002-19.046c.529-.795 5.248-23.271 5.248-23.271z" fill="#f9f3f1"/><path d="m344.887 310.554c-1.824 0-3.637.119-5.605.372l-31.813 4.196c-8.83 1.165-14.837-8.716-9.738-16.019l99.028-141.843h-24.397l-29.926-15.328-179.319 90.425 34.745 138.565 77.487-7.524 37.261 122.383c.46 1.494 1.84 2.513 3.403 2.513h47.997l-19.333-62.853c-4.077-13.253 2.766-27.406 15.685-32.443 17.55-6.842 28.426-24.059 27.063-42.839-1.609-22.209-20.294-39.605-42.538-39.605z" fill="#ffcebf"/><path d="m363.462 170.009c17.053 3.977 29.761 19.263 29.761 37.528 0 19.146-13.962 35.024-32.258 38.025-2.821.463-4.782 3.085-4.304 5.903.278 1.638.424 3.324.424 5.044 0 17.15-14.442 30.928-31.828 29.834-13.158-.828-24.057-10.381-27.104-22.786l-14.543-59.523 48.977-40.814z" fill="#f9f3f1"/><g id="XMLID_226_"><g><path d="m311.407 166.584 41.47-49.13c3.8-4.5 9.28-6.9 14.85-6.9 3.21 0 6.46.8 9.43 2.45 10.06 5.59 13.08 18.66 6.49 28.1l-127.19 182.18c-5.52 7.91.98 18.61 10.54 17.35l74.9-9.88c1.01-.13 2-.2 2.99-.2 11.7 0 21.72 9.04 22.59 21.05.72 9.92-5.12 19.15-14.38 22.76l-141.46 55.15c-20.01 7.8-41.58 10.73-62.94 8.57l-11.35-1.16-75.451 46.202c-4.228 2.589-9.76.41-11.086-4.367l-41.962-151.189c-.816-2.939.24-6.079 2.665-7.928l25.345-19.328 5.79-17.01c4.4-12.91 11.76-24.61 21.49-34.17l176.65-174.55c3.37-3.33 7.77-5 12.19-5 4.12 0 8.24 1.46 11.54 4.4 7.33 6.54 7.77 17.85.97 24.93l-34.86 36.34 55.51-57.09c3.86-3.97 9-5.98 14.15-5.98 4.64 0 9.29 1.63 13.03 4.92 8.28 7.29 8.96 19.93 1.58 28.06l-46.27 49 46-48.7c.09-.1.18-.2.27-.3l20.94-22.17c3.4-3.59 7.99-5.42 12.6-5.42 3.99 0 7.99 1.37 11.24 4.15 7.19 6.15 8.11 16.94 2.07 24.21z" fill="#ffdfcf"/></g></g><g><path d="m13.642 344.841 31.539-23.303c3.284-2.427 5.749-5.798 7.065-9.664l3.769-11.073c4.4-12.91 11.76-24.61 21.49-34.17l176.65-174.55c3.37-3.33 7.77-5 12.19-5 1.325 0 2.661.175 3.958.478.179-4.968-1.769-9.991-5.785-13.575-3.3-2.94-7.42-4.4-11.54-4.4-4.42 0-8.82 1.67-12.19 5l-176.65 174.55c-9.73 9.56-17.09 21.26-21.49 34.17l-5.79 17.01-25.344 19.328c-2.425 1.85-3.481 4.989-2.665 7.928z" fill="#ffcebf"/></g><path d="m377.157 113.004c-2.97-1.65-6.22-2.45-9.43-2.45-5.57 0-11.05 2.4-15.029 7.23l-82.563 94.209c10.304 10.377 27.501 9.861 36.966-1.433l76.693-91.496c-1.647-2.429-3.877-4.527-6.637-6.06z" fill="#ffcebf"/><g fill="#f9f3f1"><circle cx="38.758" cy="167.092" r="16.55"/><circle cx="484.139" cy="239.634" r="20.349"/><circle cx="47.459" cy="61.564" r="25.517"/><path d="m455.056 352.26c.621-2.468.906-5.069.802-7.753-.534-13.849-11.686-25.287-25.519-26.143-15.85-.981-29.012 11.583-29.012 27.222 0 8.63 4.01 16.32 10.267 21.316 4.122 3.291 6.891 7.95 7.708 13.161.083.527.187 1.058.316 1.593 2.038 8.483 9.439 14.846 18.142 15.449 11.767.816 21.566-8.488 21.566-20.08 0-3.443-.868-6.68-2.396-9.51-2.526-4.68-3.171-10.098-1.874-15.255z"/></g></g><g><path d="m205.667 159.446c8.718 7.705 21.915 7.339 30.191-.839l69.151-68.329c3.37-3.33 7.77-5 12.19-5 .564 0 1.138.039 1.702.099-1.081-3.087-2.948-5.952-5.583-8.273-3.74-3.29-8.39-4.92-13.03-4.92-4.751 0-9.481 1.733-13.218 5.115l-2.317 2.29-54.124 55.665z" fill="#ffcebf"/></g><g><path d="m236.598 186.786c9.149 8.087 23.05 7.51 31.497-1.307l93.162-97.238c.686-.716 1.447-1.351 2.218-1.924-.964-1.694-2.233-3.254-3.798-4.593-3.25-2.78-7.25-4.15-11.24-4.15-4.006 0-7.994 1.385-11.202 4.103l-10.884 11.36-57.724 61.127 46.27-49c.187-.206-40.706 42.427-78.299 81.622z" fill="#ffcebf"/></g></g><g><path d="m363.92 329.846c-6.416-5.228-14.797-7.605-23.006-6.524l-74.899 9.875c-2.101.275-3.172-1.093-3.537-1.695s-1.085-2.188.124-3.92l10.33-14.796c2.371-3.396 1.54-8.072-1.856-10.443-3.396-2.372-8.072-1.54-10.442 1.856l-10.33 14.797c-4.28 6.131-4.526 13.909-.643 20.298 3.885 6.389 10.899 9.75 18.315 8.774l74.899-9.875c4.188-.551 8.296.614 11.569 3.281s5.245 6.457 5.55 10.668c.483 6.68-3.384 12.803-9.623 15.235l-141.463 55.146c-18.81 7.333-39.367 10.133-59.454 8.094l-11.354-1.152c-1.626-.163-3.273.209-4.673 1.066l-83.892 51.367c-3.533 2.163-4.644 6.78-2.48 10.313 1.415 2.311 3.879 3.584 6.403 3.584 1.336 0 2.688-.356 3.909-1.105l81.735-50.046 8.837.897c22.439 2.275 45.404-.851 66.415-9.042l67.177-26.187 24.683 80.189c.992 3.224 3.96 5.295 7.165 5.295.731 0 1.475-.108 2.209-.334 3.959-1.218 6.181-5.416 4.962-9.375l-25.006-81.238 60.274-23.496c12.406-4.837 20.097-17.011 19.136-30.293-.596-8.254-4.619-15.987-11.034-21.214z"/><path d="m69.41 254.47 11.354-11.219c2.946-2.912 2.975-7.66.063-10.606-2.913-2.947-7.659-2.975-10.606-.063l-11.336 11.202c-10.516 10.323-18.584 23.153-23.333 37.102l-5.056 14.85-27.543 21.006c-3.294 2.512-3.928 7.218-1.416 10.512 1.477 1.935 3.71 2.952 5.97 2.952 1.586 0 3.185-.501 4.542-1.537l29.359-22.392c1.185-.903 2.072-2.137 2.552-3.546l5.791-17.012c3.998-11.742 10.79-22.542 19.659-31.249z"/><path d="m462.404 422.234c-1.265-3.945-5.488-6.119-9.432-4.853-3.944 1.264-6.117 5.487-4.854 9.431l20.439 63.772c1.021 3.184 3.968 5.213 7.141 5.213.759 0 1.53-.116 2.291-.36 3.944-1.264 6.117-5.487 4.854-9.431z"/><path d="m423.8 271.959c11.455-14.378 20.05-30.563 25.546-48.105l20.318-64.857c1.238-3.953-.962-8.161-4.915-9.399-3.949-1.234-8.161.962-9.399 4.915l-20.318 64.857c-4.939 15.77-12.666 30.318-22.964 43.243l-4.782 6.003c-3.044 3.819-4.667 8.635-4.572 13.56v.001c.041 2.1.371 4.128.98 6.03l1.524 4.754c1.019 3.177 3.961 5.212 7.139 5.212.708 0 1.428-.101 2.141-.313l.356-.101c1.934-.552 3.564-1.856 4.527-3.622s1.176-3.844.592-5.768l-2.209-7.282c.124-1.148.546-2.237 1.253-3.124z"/><path d="m14.708 167.092c0 13.261 10.789 24.05 24.05 24.05 13.262 0 24.051-10.789 24.051-24.05 0-13.262-10.789-24.051-24.051-24.051-13.261.001-24.05 10.79-24.05 24.051zm33.1 0c0 4.99-4.061 9.05-9.051 9.05s-9.05-4.06-9.05-9.05c0-4.991 4.06-9.051 9.05-9.051s9.051 4.061 9.051 9.051z"/><path d="m484.139 211.785c-15.355 0-27.849 12.493-27.849 27.849s12.493 27.849 27.849 27.849 27.849-12.493 27.849-27.849-12.493-27.849-27.849-27.849zm0 40.698c-7.085 0-12.849-5.764-12.849-12.849s5.764-12.849 12.849-12.849 12.849 5.764 12.849 12.849-5.764 12.849-12.849 12.849z"/><path d="m47.459 94.581c18.205 0 33.017-14.811 33.017-33.017s-14.811-33.016-33.017-33.016-33.016 14.811-33.016 33.016 14.811 33.017 33.016 33.017zm0-51.033c9.935 0 18.017 8.082 18.017 18.017s-8.082 18.017-18.017 18.017-18.017-8.082-18.017-18.017 8.083-18.017 18.017-18.017z"/><path d="m375.194 166.305 1.079-1.545h22.598c6.559 0 12.469-4.142 14.708-10.307l13.404-36.911c5.701-15.703 18.775-27.526 34.973-31.625 3.318-.839 6.705.144 9.058 2.631 2.353 2.488 3.146 5.923 2.122 9.19l-8.206 26.195c-1.238 3.953.963 8.161 4.915 9.399 3.949 1.238 8.161-.962 9.399-4.915l8.206-26.195c2.671-8.525.601-17.491-5.539-23.982-6.139-6.491-14.976-9.057-23.636-6.865-21.022 5.32-37.991 20.666-45.392 41.047l-13.404 36.911c-.093.255-.337.427-.608.427h-12.126l3.049-4.368c4.354-6.235 5.869-14.062 4.157-21.471-1.712-7.41-6.506-13.778-13.153-17.472-2.881-1.601-5.956-2.611-9.075-3.075 3.406-9.446.853-20.483-7.17-27.345-10.065-8.607-25.071-7.807-34.162 1.819l-4.499 4.763c-1.534-4.244-4.121-8.058-7.616-11.135-.396-.349-.801-.68-1.211-1.001.543-2.773.728-5.615.536-8.501-1.104-16.618-14.492-29.708-31.143-30.451-6.688-.297-13.228 1.439-18.819 4.938-6.168-7.79-15.461-12.332-25.59-12.332-11.481 0-21.728 5.846-27.599 15.154l-15.65-15.374c-5.426-5.33-12.896-8.126-20.48-7.67-7.592.455-14.669 4.124-19.418 10.064-2.058 2.574-3.565 5.438-4.542 8.436-8.747-4.929-20.055-4.247-28.157 2.524-10.16 8.492-11.868 23.421-3.889 33.989l3.947 5.226c-4.441.807-8.629 2.726-12.245 5.66-11.283 9.159-13.394 25.516-4.804 37.239l14.331 19.555c-3.581.822-6.961 2.448-9.928 4.823-10.164 8.135-12.291 22.874-4.844 33.553l7.094 10.171-22.82 22.549c-2.946 2.912-2.975 7.66-.063 10.606 1.467 1.485 3.4 2.229 5.335 2.229 1.904 0 3.81-.721 5.271-2.165l142.473-140.78c3.686-3.642 9.6-3.791 13.465-.342 2.011 1.794 3.175 4.266 3.279 6.959.104 2.692-.865 5.246-2.73 7.19l-65.842 68.215c-2.887 2.97-2.82 7.718.15 10.605 1.457 1.417 3.343 2.122 5.227 2.122 1.955 0 3.908-.76 5.379-2.272l86.523-89.006c4.548-4.681 11.95-4.969 16.851-.654 2.513 2.212 3.981 5.272 4.136 8.616.153 3.345-1.027 6.527-3.326 8.961l-88.815 94.034c-2.845 3.011-2.709 7.758.303 10.603 1.449 1.369 3.3 2.047 5.148 2.047 1.991 0 3.979-.788 5.453-2.35l110.032-116.498c3.596-3.807 9.529-4.122 13.508-.719 4.051 3.464 4.576 9.619 1.172 13.72l-101.936 121.791c-2.672 3.166-2.271 7.897.895 10.569 3.164 2.672 7.897 2.271 10.568-.894l93.107-110.323c3.667-4.345 9.937-5.493 14.902-2.731 2.987 1.66 5.057 4.408 5.825 7.737.77 3.33.115 6.707-1.841 9.508l-98.559 141.175c-2.371 3.396-1.54 8.072 1.856 10.443 1.308.913 2.804 1.351 4.286 1.351 2.368 0 4.698-1.119 6.156-3.207l5.723-8.198c6.445 8.845 16.61 14.752 27.829 15.458.817.051 1.631.077 2.441.077 9.55 0 18.548-3.549 25.558-10.133 7.5-7.042 11.801-16.979 11.801-27.263 0-1.32-.07-2.646-.209-3.96 21.191-4.519 36.347-23.104 36.347-45.012.001-17.878-10.102-33.617-25.529-41.232zm-204.574-130.636c2.134-2.669 5.188-4.252 8.599-4.457 3.412-.205 6.632 1.001 9.069 3.396l12.548 12.328c-8.195 3.054-15.089 8.789-19.63 16.128l-10.371-12.246c-3.675-4.337-3.766-10.708-.215-15.149zm-43.928 141.112-5.617-8.054c-2.943-4.221-2.103-10.047 1.915-13.262 2.106-1.686 4.737-2.419 7.414-2.065 2.671.354 5.021 1.745 6.614 3.917l3.937 5.371zm25.049-24.752-30.428-41.519c-3.858-5.265-2.911-12.612 2.157-16.726 2.6-2.111 5.868-3.05 9.186-2.645 3.322.404 6.262 2.097 8.279 4.768l28.889 38.253zm28.848-28.505-26.34-34.877-1.342-1.776-18.622-24.658c-3.155-4.179-2.479-10.083 1.537-13.439 4.09-3.419 10.246-2.914 13.725 1.126l25.993 30.182c-.101 1.143-.16 2.298-.16 3.467 0 12.117 5.562 23.272 14.738 30.559zm100.167-50.591-4.684 4.818c-1.402-3.545-3.62-6.743-6.558-9.367-9.76-8.709-24.691-8.331-33.996.863l-34.602 34.19c-6.513-4.422-10.536-11.806-10.536-19.89 0-13.247 10.764-24.027 24.004-24.054h.082c4.957 0 9.232-3.13 10.638-7.791 2.235-7.404 9.202-12.576 16.944-12.576 6.255 0 11.924 3.203 15.164 8.569 1.663 2.754 4.431 4.645 7.592 5.188 3.178.544 6.439-.322 8.946-2.382 3.377-2.772 7.663-4.19 12.039-3.996 8.858.395 16.257 7.625 16.844 16.46.041.61.043 1.215.024 1.815-7.882-.684-15.977 2.06-21.901 8.153zm78.994 165.227c-3.381.555-6.335 2.39-8.318 5.168-1.958 2.741-2.727 6.076-2.165 9.393.212 1.245.319 2.52.319 3.788 0 6.25-2.511 12.048-7.068 16.329-4.554 4.276-10.508 6.417-16.79 6.02-8.562-.538-16.098-6.165-19.296-14.057l60.031-85.988c11.547 4.693 19.261 15.894 19.261 28.725 0 15.275-10.923 28.154-25.974 30.622z"/><path d="m466.826 377.024c0-4.558-1.14-9.078-3.296-13.073-1.619-2.999-2.045-6.5-1.2-9.861.808-3.211 1.152-6.533 1.023-9.873-.679-17.607-14.977-32.251-32.55-33.34-9.724-.601-18.95 2.725-26.013 9.365-6.967 6.548-10.962 15.785-10.962 25.342 0 10.631 4.771 20.537 13.087 27.177 2.692 2.149 4.46 5.154 4.977 8.453.112.719.258 1.454.434 2.191 2.797 11.647 13.043 20.357 24.916 21.18.666.046 1.328.069 1.988.069 7.02 0 13.638-2.599 18.812-7.427 5.583-5.206 8.784-12.571 8.784-20.203zm-19.017 9.238c-2.587 2.414-5.975 3.605-9.53 3.361-5.409-.375-10.083-4.372-11.366-9.713-.08-.336-.147-.669-.2-1.008-1.1-7.022-4.807-13.366-10.438-17.861-4.732-3.778-7.446-9.412-7.446-15.455 0-5.515 2.214-10.633 6.235-14.413 3.706-3.484 8.472-5.362 13.535-5.362.424 0 .85.013 1.276.04 9.981.618 18.103 8.94 18.489 18.946.073 1.912-.122 3.808-.582 5.634v.001c-1.763 7.007-.857 14.339 2.548 20.646.992 1.838 1.495 3.839 1.495 5.947.001 3.539-1.426 6.82-4.016 9.237z"/></g></g></svg>