<svg id="Layer_1" enable-background="new 0 0 511.995 511.995" height="512" viewBox="0 0 511.995 511.995" width="512" xmlns="http://www.w3.org/2000/svg"><g><g clip-rule="evenodd" fill-rule="evenodd"><path d="m39.954 162.715 190.038-109.719 190.038 109.719c9.537 5.524 21.747 2.271 27.271-7.267 5.524-9.537 2.271-21.747-7.267-27.271l-199.807-115.359c-6.017-3.586-13.745-3.894-20.237-.134l-200.04 115.493c-9.538 5.524-12.791 17.734-7.267 27.271s17.734 12.791 27.271 7.267z" fill="#e6dfe1"/><path d="m229.992 52.996-190.038 109.719v218.78h140.037v-140h100.001v140h24.105c9.458-45.396 49.694-79.5 97.897-79.5 6.158 0 12.185.556 18.036 1.622v-140.903zm0 78.498c16.568 0 30 13.431 30 30s-13.431 30-30 30-30-13.431-30-30 13.431-30 30-30z" fill="#fff"/><circle cx="229.992" cy="161.493" fill="#99ebfa" r="30"/><path d="m179.991 241.495h100.001v140h-100.001z" fill="#ffbecb"/><path d="m401.993 301.995c-48.202 0-88.439 34.104-97.897 79.5-1.379 6.617-2.103 13.474-2.103 20.5s.725 13.883 2.103 20.5c9.458 45.395 49.694 79.5 97.897 79.5 55.228 0 100-44.771 100-100 0-49.071-35.344-89.886-81.964-98.378-5.85-1.065-11.878-1.622-18.036-1.622z" fill="#e0ef9b"/><path d="m304.097 381.495h-24.105-100.001-140.037c-11.275 0-20.5 9.225-20.5 20.5s9.225 20.5 20.5 20.5h264.143c-1.379-6.617-2.103-13.474-2.103-20.5s.724-13.883 2.103-20.5z" fill="#e6dfe1"/><path d="m350.496 414.639c-7.809-7.809-7.809-20.472 0-28.281 7.809-7.81 20.472-7.81 28.281 0l11.761 11.761 34.671-34.671c7.809-7.809 20.472-7.809 28.281 0s7.809 20.472 0 28.281l-48.812 48.812c-7.809 7.809-20.472 7.809-28.281 0z" fill="#fff"/></g><g><path d="m430.029 295.621v-120.214c2.573-.004 5.163-.335 7.716-1.015 7.732-2.06 14.199-7.008 18.209-13.933 8.279-14.293 3.385-32.658-10.92-40.943l-199.755-115.328c-9.323-5.524-20.927-5.587-30.289-.165l-200.052 115.5c-14.294 8.279-19.187 26.643-10.909 40.937 4.01 6.924 10.477 11.873 18.209 13.933 2.553.68 5.143 1.017 7.715 1.021v197.774c-11.92 4.15-20.5 15.492-20.5 28.808 0 16.818 13.682 30.5 30.5 30.5h256.347c13.255 45.864 55.619 79.5 105.694 79.5 60.654 0 110-49.346 110-110 0-50.969-34.846-93.947-81.965-106.375zm-408.693-145.185c-2.751-4.751-1.125-10.854 3.614-13.599l200.052-115.5c3.124-1.809 6.996-1.783 10.105.071.04.023.08.047.12.07l199.795 115.352c4.75 2.751 6.377 8.855 3.625 13.606-1.333 2.301-3.482 3.945-6.052 4.63-2.57.684-5.252.327-7.566-1.012l-190.037-109.718c-3.094-1.786-6.906-1.786-10 0l-56.047 32.359c-4.783 2.761-6.422 8.877-3.66 13.66 2.761 4.783 8.876 6.421 13.66 3.66l51.047-29.472 180.038 103.945v123.802c-2.654-.193-5.333-.295-8.036-.295-50.075 0-92.439 33.636-105.694 79.5h-6.308v-130c0-5.523-4.477-10-10-10h-100.001c-5.523 0-10 4.477-10 10v130h-120.037v-203.007l51.04-29.468c4.783-2.761 6.422-8.877 3.66-13.66-2.761-4.784-8.877-6.422-13.66-3.66l-56.052 32.361c-2.301 1.333-4.982 1.69-7.554 1.005-2.57-.684-4.719-2.328-6.052-4.63zm248.656 221.059h-80.001v-120h80.001zm-230.038 41c-5.79 0-10.5-4.71-10.5-10.5s4.71-10.5 10.5-10.5h252.544c-.329 3.457-.504 6.958-.504 10.5s.175 7.043.504 10.5zm362.04 79.5c-49.626 0-90-40.374-90-90s40.374-90 90-90 90 40.374 90 90-40.374 90-90 90z"/><path d="m229.992 201.493c22.056 0 40-17.944 40-40s-17.944-40-40-40-40 17.944-40 40 17.944 40 40 40zm0-60c11.028 0 20 8.972 20 20s-8.972 20-20 20-20-8.972-20-20 8.972-20 20-20z"/><path d="m134.973 117.855c5.523 0 10-4.477 10-10s-4.477-10-10-10h-.007c-5.523 0-9.996 4.477-9.996 10s4.48 10 10.003 10z"/><path d="m460.562 356.377c-5.666-5.666-13.199-8.786-21.212-8.786s-15.546 3.121-21.212 8.786l-27.6 27.6-4.69-4.69c-5.666-5.666-13.199-8.786-21.212-8.786s-15.546 3.121-21.212 8.787c-11.695 11.696-11.695 30.727 0 42.423l25.902 25.902c5.666 5.666 13.199 8.786 21.212 8.786s15.546-3.121 21.212-8.786l48.812-48.812c5.666-5.666 8.786-13.199 8.786-21.212s-3.12-15.546-8.786-21.212zm-14.143 28.281-48.812 48.812c-1.888 1.888-4.398 2.928-7.069 2.928-2.67 0-5.181-1.04-7.069-2.928l-25.902-25.902c-3.898-3.898-3.898-10.241 0-14.139 1.888-1.889 4.399-2.928 7.07-2.928 2.67 0 5.181 1.04 7.069 2.928l11.761 11.761c3.905 3.905 10.237 3.905 14.143 0l34.671-34.671c3.897-3.898 10.24-3.899 14.139 0 1.888 1.888 2.928 4.398 2.928 7.069 0 2.672-1.04 5.182-2.929 7.07z"/></g></g></svg>