<svg id="Layer_1" data-name="Layer 1" xmlns="http://www.w3.org/2000/svg" viewBox="0 0 112 112"><defs><style>.cls-1,.cls-3{fill:#000e7e;}.cls-2{fill:#ff5e59;}.cls-2,.cls-3{fill-rule:evenodd;}</style></defs><path class="cls-1" d="M16.1,103.66A1.66,1.66,0,0,1,14.44,102a22.1,22.1,0,0,1,17-21.83l.3-.07-.66,3.51-.12,0A18.87,18.87,0,0,0,17.8,100l0,.25Z"/><path class="cls-2" d="M30.42,17.68a2.37,2.37,0,0,0-3.35,0h0l-3.28,3.26-3.28-3.26A2.37,2.37,0,0,0,17.16,21l3.28,3.3-3.28,3.25A2.38,2.38,0,1,0,20.51,31l3.28-3.31L27.06,31a2.38,2.38,0,0,0,3.36-3.38l-3.29-3.25L30.42,21a2.38,2.38,0,0,0,0-3.34"/><path class="cls-3" d="M23.8,43.22A18.76,18.76,0,0,1,5.08,24.44a18.78,18.78,0,0,1,18.7-18.8A18.58,18.58,0,0,1,37,11.15a18.88,18.88,0,0,1,0,26.58A18.57,18.57,0,0,1,23.8,43.22ZM23.75,9A15.28,15.28,0,0,0,12.86,13.5a15.53,15.53,0,0,0,0,21.82,15.34,15.34,0,0,0,21.81,0,15.52,15.52,0,0,0,0-21.86A15.26,15.26,0,0,0,23.75,9Z"/><path class="cls-1" d="M32.9,60A5.87,5.87,0,0,1,34,58.57V43.9l-.07.05c-2,1-2.9,1.44-3.26,1.58V64Z"/><path class="cls-1" d="M85.78,79.48,74.88,77.8l0-.14c-.45-1.69-.79-3.07-1-4.21L73.71,73l.4.16a24,24,0,0,0,5,1.45,42.26,42.26,0,0,0,7.4.69,1.68,1.68,0,0,0,1.63-1.7l-.35-36c0-14.94-15-26.1-28.37-26.1A29.39,29.39,0,0,0,44,16.38a10.9,10.9,0,0,1,1,3.31A26.49,26.49,0,0,1,59.42,15c14.33,0,25,12,25,22.69l.35,34.24h-.24a39,39,0,0,1-4.79-.54,14.26,14.26,0,0,1-6.39-2.51l-.18-.13.13-.18A36.93,36.93,0,0,0,79.2,55.64a3.22,3.22,0,0,0,0-.44V43.64a2.11,2.11,0,0,0-.31-1.07c-.64-.91-1.73-1.07-4.39-1.45a47.44,47.44,0,0,1-14.43-3.88,25.32,25.32,0,0,1-9.53-9.92,1.63,1.63,0,0,0-1.41-.92,1.89,1.89,0,0,0-1.51.82c-3.89,6.38-8,14.27-8,16.34V55.15s.5-.66,1.11-1.54l.8-1.44A7.44,7.44,0,0,1,43,50.34l0-6.67A81.91,81.91,0,0,1,49,31.8l.18-.3.2.3a25.76,25.76,0,0,0,9.34,8.59,50.51,50.51,0,0,0,15.35,4.14l1.82.26,0,10.3c-1.13,4.34-4.24,13.32-11.06,16.54L62.41,75.9a16,16,0,0,0,7.42-3.52l.29-.25.08.37c.43,2.06,1.09,5.07,1.81,7.45V80c-2.75,6.9-6.59,10-12.44,10a13.53,13.53,0,0,1-4.48-.94l-.42.76a10.45,10.45,0,0,1-1.43,2,16.64,16.64,0,0,0,6.38,1.38c9.48,0,13.33-6.74,15.4-11.81l.07-.17,10.2,1.57A18.89,18.89,0,0,1,101.07,100l0,.24H45.66l-1.93,3.44h59a1.66,1.66,0,0,0,1.67-1.66v-.39A22.14,22.14,0,0,0,85.78,79.48Z"/><path class="cls-1" d="M36.94,108a2.38,2.38,0,0,1-.72-.2,1.64,1.64,0,0,1-.64-2.24l7.19-12.82a9.6,9.6,0,0,1,3.66-3.66,7.68,7.68,0,0,1,1-.48c.11-.06.23-.11.34-.18a3.89,3.89,0,0,0,1.49-1.52l12.4-22.29a1,1,0,0,0,.09-.74,1,1,0,0,0-.7-.68l-.16,0a1.22,1.22,0,0,0-.55.16,1,1,0,0,0-.42.41l-4.13,7.41a1.55,1.55,0,0,1-.59.6,1.58,1.58,0,0,1-.77.2,1.65,1.65,0,0,1-.76-.19,1.59,1.59,0,0,1-.81-1,1.52,1.52,0,0,1,.13-1.18L58.7,59.23a1,1,0,0,0,.16-.49,1,1,0,0,0-.51-.89,1,1,0,0,0-.47-.12,1.12,1.12,0,0,0-.27,0l-.22.1a.94.94,0,0,0-.37.37L51.24,68.62a1.52,1.52,0,0,1-.59.59,1.46,1.46,0,0,1-.77.21,1.54,1.54,0,0,1-.76-.2,1.6,1.6,0,0,1-.81-1,1.48,1.48,0,0,1,.14-1.18L54.2,56.73a1.15,1.15,0,0,0,.16-.5,1,1,0,0,0-.74-1l-.16,0a1.16,1.16,0,0,0-.55.16,1.22,1.22,0,0,0-.43.41L46.74,66.12a1.52,1.52,0,0,1-.59.59,1.58,1.58,0,0,1-.77.2,1.53,1.53,0,0,1-.76-.19,1.56,1.56,0,0,1-.81-1,1.5,1.5,0,0,1,.13-1.17l4.69-8.43a1.13,1.13,0,0,0,.16-.77,1,1,0,0,0-.71-.75l-.16,0a1.23,1.23,0,0,0-.56.16,1,1,0,0,0-.42.41l-4.86,8.72a4.31,4.31,0,0,1-.39,3.37l-2.82,5.07a1.55,1.55,0,0,1-.59.6,1.59,1.59,0,0,1-.78.2,1.49,1.49,0,0,1-.75-.19,1.57,1.57,0,0,1-.81-1,1.52,1.52,0,0,1,.13-1.18l2.61-4.69a2.13,2.13,0,0,0-.53-2.83l-5.07,9.11a8.66,8.66,0,0,0-.75,6.88,13.55,13.55,0,0,1-.94,10.81l-9.07,16.11a1.57,1.57,0,0,1-2.11.6,1.61,1.61,0,0,1-.82-1,1.6,1.6,0,0,1,.14-1.19l9.06-16.1a9.73,9.73,0,0,0,.85-2l.37-2a10.72,10.72,0,0,0-.5-4.15,11.85,11.85,0,0,1,.94-9.41l5.27-9.46A2.84,2.84,0,0,1,38,60a2.86,2.86,0,0,1,1.38.35,5.21,5.21,0,0,1,.74.48l4-7.15A4.42,4.42,0,0,1,45.8,52a4.19,4.19,0,0,1,2.07-.55,4.12,4.12,0,0,1,1.27.2A4.36,4.36,0,0,1,51,52.8l.34-.22a4.17,4.17,0,0,1,.93-.39A4,4,0,0,1,53.37,52a4.27,4.27,0,0,1,2,.52,4.21,4.21,0,0,1,1.81,2,4.89,4.89,0,0,1,.66,0,3.87,3.87,0,0,1,.48,0,5.05,5.05,0,0,1,2.13.89,4.22,4.22,0,0,1,1.56,3.2,4,4,0,0,1-.23,1.42,4.48,4.48,0,0,1,1,.39A4.11,4.11,0,0,1,64.1,61.6,3.75,3.75,0,0,1,64.93,64a4,4,0,0,1-.52,2.13L52,88.37a7.15,7.15,0,0,1-2.7,2.78c-.2.12-.41.22-.62.32a6.52,6.52,0,0,0-.7.35,6.43,6.43,0,0,0-2.46,2.45l-7.24,12.9A1.59,1.59,0,0,1,37,108Z"/></svg>