<?xml version="1.0" encoding="UTF-8"?>
<svg width="84.573mm" height="75.059mm" version="1.1" viewBox="0 0 299.66813 265.95873" xmlns="http://www.w3.org/2000/svg">
 <g transform="translate(-25.705 -13.669)">
  <g transform="matrix(3.5569 0 0 3.5569 -517.5 -515.05)">
   <g transform="matrix(.74354 0 0 -.74354 -20.939 383.94)" fill="#ff6d00">
    <g fill="#ff6d00">
     <g fill="#ff6d00">
      <g fill="#ff6d00">
       <path d="m259.2 279.67c-6.161-21.936 6.627-44.717 28.555-50.879 21.931-6.16 44.699 6.638 50.862 28.564 6.16 21.932-6.622 44.696-28.552 50.857-3.729 1.047-7.483 1.547-11.176 1.547-18.016 0-34.576-11.891-39.689-30.089" fill="#ff6d00"/>
      </g>
     </g>
    </g>
   </g>
   <g transform="matrix(2.1244 0 0 2.1244 -169.85 -223.13)" fill="#51432f">
    <path transform="matrix(1.1555 0 0 1.1555 -47.078 55.792)" d="m196.03 108.58-0.97714-0.42708-0.80091 0.64934 0.42708-0.97714-0.64934-0.80092 0.97714 0.42708 0.80092-0.64934-0.42709 0.97714z"/>
    <path transform="matrix(.81705 .81705 -.81705 .81705 107 -67.075)" d="m196.03 108.58-0.97714-0.42708-0.80091 0.64934 0.42708-0.97714-0.64934-0.80092 0.97714 0.42708 0.80092-0.64934-0.42709 0.97714z"/>
   </g>
   <g transform="matrix(-.41926 -.23692 .23692 -.41926 291.87 556.71)" fill="#ff8e00">
    <g fill="#ff8e00">
     <g fill="#ff8e00">
      <g fill="#ff8e00">
       <path d="m558.88 494.93c42.674-9.4713 65.626 30.635 59.872 55.94l-105.73 0.019c0.164-31.159 19.579-51.142 45.861-55.959" fill="#ff8e00"/>
      </g>
     </g>
    </g>
   </g>
   <g transform="matrix(-.41926 -.23692 .23692 -.41926 179.44 201.34)" fill="#ffd506">
    <path d="m0 0c-36.423 0.01-58.405 16.42-50.414 28.247 7.837 11.999 30.035 18.074 50.268 18.32 20.232-0.199 42.477-6.222 50.389-18.203 8.068-11.808-13.827-28.27-50.243-28.364" fill="#ffd506"/>
   </g>
   <g transform="matrix(-.41926 -.23692 .23692 -.41926 177.07 177.1)" fill="#f4b700">
    <path d="m0 0c-8.94 2.97-18.729 4.635-29.178 4.631-10.452-0.02-20.228-1.709-29.147-4.699-8.782-3.012-16.722-7.338-19.981-13.31-3.241-5.931-0.505-12.594 8.403-18.065 8.755-5.449 23.775-9.453 40.865-9.41 17.092-3e-3 32.089 4.037 40.808 9.505 8.879 5.491 11.574 12.162 8.291 18.085-3.291 5.965-11.257 10.272-20.061 13.263m-29.182 5.174c20.774-0.18 42.777-5.735 50.911-18.001 8.353-12.066-14.448-28.683-51.75-28.659-37.246 0.165-58.852 16.527-50.57 28.574 8.163 12.247 30.663 17.834 51.409 18.086" fill="#f4b700"/>
   </g>
   <g transform="matrix(-.41926 -.23692 .23692 -.41926 187.73 192.46)" fill="#ff8600">
    <path d="m0 0c-0.569-0.563-30.799 7.018-31.287 7.655-1.145 0.08-3.508 1.601-5.733-0.156-2.235-1.76-4.419-5.596-4.552-7.177-0.145-1.573-0.292-4.101 1.982-5.514 2.802-2.178 38.486 1.921 39.038 2.676 1.231 0.061 3.639 1.556 0.552 2.516" fill="#ff8600"/>
   </g>
   <g transform="matrix(-.41926 -.23692 .23692 -.41926 187.24 193.41)" fill="#ff8600">
    <path d="m0 0c0.596-0.602-33.07-5.025-34.558-4.688-0.904-0.335-5.219 0.083-3.591-2.15 1.585-2.25 7.527-6.068 10.576-7.286 2.962-1.25 7.942-3.129 11.991-3.268 4.661-0.286 19.061 14.888 19.219 15.425 0.727 0.456 2.031 3.023-3.637 1.967" fill="#ff8600"/>
   </g>
   <g transform="matrix(-.41926 -.23692 .23692 -.41926 185.39 193.26)" fill="#ff8600">
    <path d="m0 0c0.495-0.083-12.671-14.701-13.004-15.157 0.187-0.547-2.901-1.864 2.531-2.739 5.445-0.914 16.368-1.034 20.441-0.605 4.084 0.35 10.518 1.131 12.893 2.49 1.706 1.171-17.678 15.125-17.169 15.844-0.264 0.536-3.443 2.761-5.692 0.167" fill="#ff8600"/>
   </g>
   <g transform="matrix(-.41926 -.23692 .23692 -.41926 183.29 192.06)" fill="#ff8600">
    <path d="m0 0c-0.661-0.166 17.892-13.561 19.779-13.591 1.195-0.222 2.272-1.973 6.977-0.494 4.738 1.467 11.119 5.188 12.737 6.768 1.701 1.559 4.133 4.082 3.148 5.507-1.426 0.644-37.92 2.511-38.457 3.549-1.01 0.272-6.792 0.781-4.184-1.739" fill="#ff8600"/>
   </g>
   <g transform="matrix(-.41926 -.23692 .23692 -.41926 182.26 190.56)" fill="#ff8600">
    <path d="m0 0c-0.413-0.662 34.499-2.641 36.034-1.636 1.176 0.275 4.966-0.204 5.4 2.052 0.431 2.247-1.4 6.156-2.689 7.518-1.298 1.363-3.363 3.519-6.086 4.084-1.894 0.044-30.448-9.903-32.43-9.484-1.137-0.119-4.048-1.888-0.229-2.534" fill="#ff8600"/>
   </g>
   <g transform="matrix(-.41926 -.23692 .23692 -.41926 182.87 189.67)" fill="#ff8600">
    <path d="m0 0c0.732-0.484 28.35 8.983 27.99 9.959 0.463 0.521 3.775 1.314 1.034 2.856-2.774 1.52-8.918 3.683-11.403 4.333-2.558 0.611-6.445 1.664-9.071 1.357-1.99-0.368-10.937-16.255-12.184-16.652-0.673-0.45 0.76-2.076 3.634-1.853" fill="#ff8600"/>
   </g>
   <g transform="matrix(-.41926 -.23692 .23692 -.41926 184.69 189.87)" fill="#ff8600">
    <path d="m0 0c0.498-0.05 8.946 15.219 8.204 15.787-0.218 0.538 1.422 2.059-2.216 2.523-3.624 0.44-10.488 0.496-13.118 0.319-2.631-0.225-6.836-0.474-8.773-1.516-2.642-1.119 9.603-16.496 10.532-16.93 0.134-0.548 3.288-2.828 5.371-0.183" fill="#ff8600"/>
   </g>
   <g transform="matrix(-.41926 -.23692 .23692 -.41926 186.67 191.01)" fill="#ff8600">
    <path d="m0 0c-0.674-0.107-13.171 14.5-13.194 14.969-0.751 0.383-0.807 2.165-4.404 1.465-3.568-0.717-9.8-2.782-11.99-3.757-2.124-1.009-5.664-2.543-6.091-4.057-1.201-2.071 29.88-10.491 31.497-10.21 0.95-0.362 6.614-0.987 4.182 1.59" fill="#ff8600"/>
   </g>
  </g>
 </g>
</svg>
