<?xml version="1.0" encoding="UTF-8"?>
<!DOCTYPE svg  PUBLIC '-//W3C//DTD SVG 1.1//EN'  'http://www.w3.org/Graphics/SVG/1.1/DTD/svg11.dtd'>
<svg enable-background="new 0 0 43.55 40" version="1.1" viewBox="0 0 43.55 40" xml:space="preserve" xmlns="http://www.w3.org/2000/svg" xmlns:xlink="http://www.w3.org/1999/xlink">
<symbol id="af" viewBox="-0.006 -1.238 1.097 1.232">
		<path d="m0.8-0.1c0.267-0.2 0.35-0.467 0.25-0.8-0.1-0.3-0.333-0.4-0.7-0.3s-0.45 0.35-0.25 0.75c0.2 0.433 0.433 0.55 0.7 0.35z" clip-rule="evenodd" fill="#fff" fill-rule="evenodd"/>
</symbol>
<symbol id="ag" viewBox="-0.034 -4.296 3.853 4.321">
		<path d="m3.65-1c0.267-0.733 0.217-1.367-0.15-1.9-0.5-0.667-1.017-1.1-1.55-1.3-0.467-0.167-0.85-0.117-1.15 0.15-0.733 0.633-0.983 1.45-0.75 2.45 0.233 0.9 0.683 1.417 1.35 1.55 1.133 0.233 1.883-0.083 2.25-0.95z" clip-rule="evenodd" fill="#fff" fill-rule="evenodd"/>
</symbol>
<symbol id="ah" viewBox="-0.059 -17.023 17.153 17.023">
		<path d="m10.85 0c1.533 0 2.883-0.533 4.05-1.6 1.267-1.133 1.983-2.617 2.15-4.45 0.233-2.767-0.466-5.2-2.1-7.3-1.767-2.267-4.117-3.483-7.05-3.65-3.133-0.2-5.4 0.883-6.8 3.25-1.333 2.233-1.517 4.8-0.55 7.7 0.767 2.233 2.367 3.867 4.8 4.9 1.733 0.767 3.567 1.15 5.5 1.15z" clip-rule="evenodd" fill="#F28457" fill-rule="evenodd"/>
</symbol>
<symbol id="ai" viewBox="0 -26.708 23.453 26.721">
		<path d="m23.2-8.25c0.667-3.667 0.017-7.283-1.95-10.85l-0.35-0.55-0.05-0.1c-0.667-0.933-1.2-1.6-1.6-2-1.733-1.733-4-3.033-6.8-3.9-3.1-0.767-6-1.117-8.7-1.05-1.2 0.067-2.267 0.184-3.2 0.35l-0.55 0.1c0.933-0.1 2.117-0.083 3.55 0.05 2.867 0.233 5.567 0.9 8.1 2 2.867 1.267 5.05 3.417 6.55 6.45 1.4 2.8 1.9 5.65 1.5 8.55-0.567 3.9-2.284 6.867-5.15 8.9 0.534 0.033 1.15 0.1 1.85 0.2 0.533 0.1 0.933 0.133 1.2 0.1 0.5-0.067 0.95-0.2 1.35-0.4 1.566-1.567 2.7-3.2 3.4-4.9 0.367-0.9 0.65-1.883 0.85-2.95z" clip-rule="evenodd" fill="#571B09" fill-rule="evenodd"/>
</symbol>
<symbol id="aj" viewBox="-0.001 -22.159 23.718 22.185">
		<path d="m14.25-0.15c2.967-0.467 5.4-1.95 7.3-4.45 2.434-3.167 2.817-6.583 1.15-10.25-1.6-3.533-4.3-5.8-8.1-6.8-3.767-0.934-7.1-0.583-10 1.05-3 1.667-4.533 4.167-4.6 7.5-0.033 3.167 0.567 5.817 1.8 7.95 1.067 1.833 2.517 3.133 4.35 3.9 2.8 1.167 5.5 1.533 8.1 1.1z" clip-rule="evenodd" fill="#F28457" fill-rule="evenodd"/>
</symbol>
	<rect x=".1" width="40" height="40" clip-rule="evenodd" fill-opacity="0"/>
		<radialGradient id="w" cx="15.533" cy="9.396" r="25.948" gradientTransform="matrix(.7631 .4344 .4344 -.7631 -4.4137 18.841)" gradientUnits="userSpaceOnUse">
		<stop stop-color="#FF280D" offset="0"/>
		<stop stop-color="#630000" offset="1"/>
	</radialGradient>
	<path d="m22.937 8.144c2.752-0.088 5.343 0.82 7.771 2.722 3.894 3.015 5.679 6.791 5.356 11.328-0.264 3.6-1.479 6.483-3.644 8.649-2.137 2.137-4.728 3.541-7.772 4.215-2.927 0.644-6.102 0.6-9.527-0.132-3.512-0.762-6.322-2.356-8.43-4.786-2.313-2.692-3.264-5.941-2.854-9.747 0.38-3.541 1.99-6.425 4.83-8.649 2.253-1.786 4.463-2.708 6.629-2.766 1.904-0.058 4.451-0.336 7.641-0.834z" clip-rule="evenodd" fill="url(#w)" fill-rule="evenodd"/>
		<use transform="matrix(.8781 0 0 -.8781 4.75 11.4)" x="-0.001" y="-22.159" width="23.718" height="22.185" enable-background="new" opacity=".0586" xlink:href="#aj"/>
		<use transform="matrix(.8781 0 0 -.8781 15.9 11.4)" y="-26.708" width="23.453" height="26.721" enable-background="new" opacity=".1211" xlink:href="#ai"/>
		<use transform="matrix(.8781 0 0 -.8781 6.1499 12.5)" x="-0.059" y="-17.023" width="17.153" height="17.023" enable-background="new" opacity=".0898" xlink:href="#ah"/>
		<use transform="matrix(.8781 0 0 -.8781 9.0498 16.3)" x="-0.034" y="-4.296" width="3.853" height="4.321" enable-background="new" opacity=".1797" xlink:href="#ag"/>
		<use transform="matrix(.8781 0 0 -.8781 9.3999 21)" x="-0.006" y="-1.238" width="1.097" height="1.232" enable-background="new" opacity=".1797" xlink:href="#af"/>
	<path d="m31.762 11.349c-0.233 0-0.863 0.059-1.888 0.176-0.702 0.059-1.552 0.029-2.547-0.088-1.083-0.117-2.078-0.322-2.985-0.614l-1.01-0.396 1.712 1.054c1.259 0.791 2.254 1.493 2.986 2.107 1.463 1.259 2.561 1.947 3.293 2.064 0.614 0.087 1.127 0.043 1.536-0.132-0.146 0.176-0.395 0.337-0.746 0.483-0.731 0.234-1.61 0.219-2.635-0.044-0.937-0.263-1.668-0.614-2.195-1.053-0.673-0.615-1.347-1.186-2.02-1.712-1.054-0.791-2.137-1.449-3.249-1.976l-1.361-0.57c-0.995 0.585-1.947 1.419-2.854 2.502-0.439 0.556-0.907 1.17-1.405 1.844-0.468 0.41-1.302 0.717-2.502 0.922-1.054 0.176-2.327-0.132-3.819-0.922l1.844 0.614c1.317 0.234 2.239-0.131 2.766-1.098 0.41-0.673 0.761-1.346 1.054-2.02 0.205-0.468 0.439-0.878 0.703-1.229 0.673-0.82 1.537-1.303 2.59-1.449 0.059-0.087-0.776-0.22-2.503-0.395-0.966-0.088-1.961 0.058-2.985 0.439-1.054 0.41-1.8 0.6-2.239 0.571-0.761-0.029-1.405-0.234-1.932-0.615-0.498-0.351-0.747-0.761-0.747-1.229l0.044-0.922 0.263 1.098c0.41 0.731 1.157 1.01 2.24 0.834 0.761-0.117 1.668-0.439 2.722-0.965 0.82-0.439 1.712-0.644 2.678-0.615 1.112 0.029 2.049 0.219 2.81 0.57 0.38 0.205 0.659 0.396 0.834 0.571l0.57-0.395c0.498-0.292 0.995-0.498 1.493-0.615 0.352-0.088 0.893-0.043 1.625 0.132 0.702 0.146 1.287 0.117 1.756-0.087 0.485-0.227 0.822-0.425 1.009-0.593-0.26 0.441-0.625 0.755-1.098 0.944-0.292 0.117-0.833 0.175-1.624 0.175-0.702 0-1.127 0.044-1.273 0.132l-0.438 0.307 0.834 0.088c0.702 0.146 1.449 0.351 2.239 0.615 1.874 0.644 3.703 0.981 5.488 1.01 1.346 0.059 2.971 0.468 4.873 1.229-1.523-0.498-2.824-0.747-3.907-0.747z" clip-rule="evenodd" fill="#5E9119" fill-rule="evenodd"/>
	<path d="m20.478 9.505c1.346 0.117 2.108 0.249 2.284 0.395 0.175 0.176 0.087 0.336-0.265 0.483-0.351 0.146-0.849 0.19-1.492 0.132-0.556-0.059-0.951-0.19-1.186-0.396l-0.175-0.307 0.834-0.307z" clip-rule="evenodd" fill="#31591E" fill-rule="evenodd"/>
		<linearGradient id="x" x1="-21.939" x2="-19.863" y1=".3789" y2=".3789" gradientTransform="matrix(-.8775 -.0317 .0317 -.8775 3.7504 4.4987)" gradientUnits="userSpaceOnUse">
		<stop stop-color="#599C00" offset="0"/>
		<stop stop-color="#425200" offset="1"/>
	</linearGradient>
	<path d="m21.444 5.115l-0.175-0.615h0.264c0.233 0 0.482 0.044 0.746 0.132 0.38 0.146 0.527 0.307 0.438 0.483-0.38 0.029-0.644 0.029-0.79 0h-0.483z" clip-rule="evenodd" fill="url(#x)" fill-rule="evenodd"/>
		<linearGradient id="y" x1="18.766" x2="23.514" y1="1.3477" y2="1.3477" gradientTransform="matrix(.8737 .0878 -.0878 .8737 3.75 4.4997)" gradientUnits="userSpaceOnUse">
		<stop stop-color="#599C00" offset="0"/>
		<stop stop-color="#425200" offset="1"/>
	</linearGradient>
	<path d="m22.322 5.115h0.439c-0.1 0.017-0.202 0.061-0.308 0.132-0.322 0.234-0.513 0.747-0.571 1.537-0.088 1.288 0 2.341 0.264 3.161-0.176 0.263-0.629 0.395-1.361 0.395-0.41 0-0.717-0.088-0.922-0.263l-0.219-0.264c0.263-1.786 0.6-3.117 1.01-3.995l0.615-1.318 0.307 0.308c0.234 0.204 0.483 0.307 0.746 0.307z" clip-rule="evenodd" fill="url(#y)" fill-rule="evenodd"/>
			<linearGradient id="z" x1="18.1" x2="21.6" y1="3.4746" y2="3.4746" gradientTransform="matrix(.8781 0 0 .8781 3.7501 4.5002)" gradientUnits="userSpaceOnUse">
			<stop stop-color="#599C00" offset="0"/>
			<stop stop-color="#425200" offset="1"/>
		</linearGradient>
		<path d="m21.532 7.178c0.088-1.054 0.248-1.639 0.482-1.756-0.088 0.03-0.19 0.117-0.307 0.264l-0.307 0.921 0.088-0.659c0.204-0.41 0.277-0.673 0.22-0.79l-0.22-0.396c0.234 0.236 0.512 0.353 0.834 0.353h0.395c-0.497 0.087-0.775 0.644-0.834 1.668-0.088 1.288 0 2.341 0.264 3.161-0.176 0.263-0.629 0.395-1.361 0.395-0.41 0-0.717-0.088-0.922-0.263l-0.197-0.242c0.09 0.103 0.346 0.154 0.768 0.154 0.146 0 0.22-0.132 0.22-0.396l0.307-0.746v0.395c0 0.205 0.044 0.424 0.132 0.659l0.044-0.527 0.176-0.966v1.405c0.059 0.205 0.146 0.19 0.263-0.044-0.089-0.672-0.104-1.536-0.045-2.59z" clip-rule="evenodd" fill="url(#z)" fill-rule="evenodd"/>
	<path d="m21.269 5.466c0.029 0.088 0.103 0.117 0.22 0.088l-0.396 0.834c-0.38 1.025-0.644 1.859-0.79 2.503-0.117 0.527-0.059 0.015 0.175-1.537 0.439-1.581 0.703-2.21 0.791-1.888z" clip-rule="evenodd" fill="#67A614" fill-rule="evenodd"/>
		<linearGradient id="aa" x1="-14.05" x2="-11.21" y1="-7.1943" y2="-7.1943" gradientTransform="matrix(-.8657 .1469 -.1469 -.8657 3.7509 4.5003)" gradientUnits="userSpaceOnUse">
		<stop stop-color="#97C41B" offset="0"/>
		<stop stop-color="#CDFF00" stop-opacity="0" offset="1"/>
	</linearGradient>
	<path d="m17.932 8.627l-0.791-0.132c-0.322-0.029-0.585-0.029-0.79 0l-0.22 0.088 0.615 0.132 0.395 0.176h-0.966l0.834 0.176c0.351 0.087 0.6 0.175 0.746 0.263-0.468-0.117-1.127-0.176-1.976-0.176-0.556 0-1.054 0.073-1.493 0.22l-0.526 0.175 0.308-0.132c0.205-0.117 0.644-0.249 1.317-0.396l-0.615 0.089-1.141 0.308 0.527-0.176c0.263-0.117 0.629-0.234 1.098-0.351l-1.054 0.176c-0.205 0.058-0.542 0.161-1.009 0.307-0.264 0.059-0.6 0.117-1.01 0.176l2.151-0.703c0.498-0.146 0.864-0.292 1.098-0.439l-1.317 0.263 0.527-0.263c0.41-0.205 0.775-0.307 1.098-0.307l1.229 0.131h-0.834c-0.205 0-0.351 0.029-0.439 0.088l-0.088 0.088h1.054c0.408 0 0.832 0.072 1.272 0.219z" clip-rule="evenodd" fill="url(#aa)" fill-rule="evenodd"/>
		<linearGradient id="ab" x1="-2.7612" x2="-.514" y1="-17.956" y2="-17.956" gradientTransform="matrix(-.4689 .7424 -.7424 -.4689 3.7494 4.4999)" gradientUnits="userSpaceOnUse">
		<stop stop-color="#97C41B" offset="0"/>
		<stop stop-color="#CDFF00" stop-opacity="0" offset="1"/>
	</linearGradient>
	<path d="m16.482 13.632l0.22-0.308 1.493-2.283-0.659 0.395-0.615 0.79 0.043-0.219 0.527-0.922-0.614 0.615c-0.205 0.175-0.381 0.468-0.527 0.878-0.088 0.205-0.146 0.38-0.176 0.527 0.059-0.322 0.19-0.717 0.395-1.185 0.117-0.322 0.249-0.542 0.395-0.659 0.087-0.087 0.146-0.131 0.176-0.132-0.088 0-0.161 0.044-0.219 0.132l-0.483 0.439 0.263-0.396c0.176-0.292 0.351-0.498 0.527-0.615l0.395-0.131-0.395 0.483 0.351-0.219c0.088-0.088 0.293-0.19 0.615-0.308l-0.308 0.263-0.132 0.351 0.307-0.263c0.146-0.117 0.366-0.219 0.659-0.307l-0.22 0.176-0.219 0.482 0.439-0.482-0.263 0.351-0.308 0.527 0.351-0.308c0.147-0.176 0.352-0.307 0.615-0.395l-0.439 0.439-0.351 0.483 0.659-0.439c0.175-0.176 0.424-0.322 0.747-0.439l-1.186 1.01-0.659 0.703 0.22-0.352 0.175-0.395c-0.059 0.029-0.132 0.087-0.22 0.175-0.146 0.146-0.263 0.307-0.351 0.483-0.175 0.292-0.424 0.6-0.747 0.922l0.878-1.668-0.571 0.79c-0.231 0.353-0.495 0.689-0.788 1.011z" clip-rule="evenodd" fill="url(#ab)" fill-rule="evenodd"/>
		<linearGradient id="ac" x1="7.3232" x2="10.789" y1="1.812" y2="1.812" gradientTransform="matrix(.7854 .3927 -.3927 .7854 3.7504 4.5001)" gradientUnits="userSpaceOnUse">
		<stop stop-color="#58730F" offset="0"/>
		<stop stop-color="#576B00" stop-opacity="0" offset="1"/>
	</linearGradient>
	<path d="m9.677 9.9c-0.409-0.205-0.702-0.57-0.878-1.097l-0.132-0.702 0.132 0.395c0.117 0.293 0.249 0.513 0.395 0.659 0.234 0.234 0.629 0.396 1.185 0.483 0.293 0.048 0.644 0.048 1.054 0l-1.229 0.175 0.571 0.087c0.322 0.029 0.776 0 1.361-0.088-0.058 0.088-0.439 0.146-1.141 0.176-0.439 0.029-0.776 0-1.01-0.088l0.219 0.131c0.263 0.117 0.673 0.162 1.229 0.132-0.468 0.118-1.054 0.03-1.756-0.263z" clip-rule="evenodd" fill="url(#ac)" fill-rule="evenodd"/>
		<linearGradient id="ad" x1="15.026" x2="17.486" y1="5.21" y2="5.21" gradientTransform="matrix(.7854 .3927 -.3927 .7854 3.7504 4.5004)" gradientUnits="userSpaceOnUse">
		<stop stop-color="#58730F" offset="0"/>
		<stop stop-color="#576B00" stop-opacity="0" offset="1"/>
	</linearGradient>
	<path d="m14.639 15.125c0.117 0.029 0.278-0.103 0.483-0.396l0.571-0.878c-0.117 0.41-0.264 0.731-0.439 0.966l-0.483 0.527 0.352-0.131 0.395-0.264c-0.175 0.205-0.351 0.352-0.527 0.439l-0.307 0.176c0 0.088 0.175 0.043 0.526-0.132l0.703-0.307c-0.234 0.322-0.805 0.527-1.713 0.614-0.585 0.059-1.039 0.073-1.361 0.044l-0.307-0.044 0.263-0.044c0.527 0.088 0.951-0.015 1.273-0.307s0.629-0.644 0.922-1.054l-0.351 0.791z" clip-rule="evenodd" fill="url(#ad)" fill-rule="evenodd"/>
		<linearGradient id="ae" x1="29.091" x2="33.116" y1="-2.082" y2="-2.082" gradientTransform="matrix(.7854 .3927 -.3927 .7854 3.7502 4.4999)" gradientUnits="userSpaceOnUse">
		<stop stop-color="#58730F" offset="0"/>
		<stop stop-color="#576B00" stop-opacity="0" offset="1"/>
	</linearGradient>
	<path d="m26.888 14.291l0.483 0.395c0.176 0.175 0.425 0.337 0.746 0.483-0.117-0.058-0.233-0.161-0.352-0.308l-0.526-0.702 0.526 0.571c0.205 0.205 0.47 0.336 0.791 0.396l-0.307-0.22-0.439-0.396 0.351 0.264 0.396 0.132-0.307-0.22-0.659-0.834 0.79 0.658c0.352 0.322 0.513 0.396 0.482 0.22l-0.526-0.702 1.098 0.878c0.557 0.38 0.85 0.542 0.878 0.483 0.088 0.059 0.073 0.088-0.043 0.088l-0.791-0.22 0.396 0.22c0.176 0.088 0.438 0.176 0.79 0.263l-0.527-0.044-0.878-0.176 0.702 0.308c0.273 0.096 0.5 0.162 0.682 0.198-0.432-0.049-1.024-0.174-1.779-0.373-0.613-0.176-1.126-0.454-1.536-0.834l-0.441-0.528z" clip-rule="evenodd" fill="url(#ae)" fill-rule="evenodd"/>
		<linearGradient id="s" x1="27.057" x2="30.858" y1="-6.1602" y2="-6.1602" gradientTransform="matrix(.7854 .3927 -.3927 .7854 3.7504 4.5004)" gradientUnits="userSpaceOnUse">
		<stop stop-color="#58730F" offset="0"/>
		<stop stop-color="#576B00" stop-opacity="0" offset="1"/>
	</linearGradient>
	<path d="m29.522 10.91h-0.22l-0.307 0.088 1.668 0.044-1.316 0.175h1.844l-2.239 0.22c-0.497 0.029-0.907 0-1.229-0.088l-0.352-0.132c0.469 0.088 0.819 0.088 1.054 0l-1.361-0.263 0.483 0.044c0.233 0.029 0.498 0.015 0.79-0.044h-0.702c-0.176 0-0.381-0.059-0.615-0.176l-0.307-0.175 0.834 0.22c0.409 0.087 0.673 0.103 0.79 0.043h-0.22l-0.352-0.219 1.757 0.263z" clip-rule="evenodd" fill="url(#s)" fill-rule="evenodd"/>
		<linearGradient id="t" x1="22.845" x2="24.097" y1="-6.4971" y2="-6.4971" gradientTransform="matrix(.7889 .3857 -.3857 .7889 3.7498 4.5003)" gradientUnits="userSpaceOnUse">
		<stop stop-color="#58730F" offset="0"/>
		<stop stop-color="#576B00" stop-opacity="0" offset="1"/>
	</linearGradient>
	<path d="m24.034 8.32c0.234 0.117 0.542 0.175 0.923 0.175 0.292 0 0.482-0.029 0.57-0.087-0.146 0.117-0.351 0.19-0.615 0.22-0.264 0.029-0.468 0.015-0.614-0.044l-0.264-0.264z" clip-rule="evenodd" fill="url(#t)" fill-rule="evenodd"/>
		<linearGradient id="u" x1="24.121" x2="27.169" y1="-9.4082" y2="-9.4082" gradientTransform="matrix(.6626 .5762 -.5762 .6626 3.7499 4.5003)" gradientUnits="userSpaceOnUse">
		<stop stop-color="#97C41B" offset="0"/>
		<stop stop-color="#CDFF00" stop-opacity="0" offset="1"/>
	</linearGradient>
	<path d="m27.063 13.281l-0.263-0.088 0.263 0.264c0.118 0.087 0.22 0.205 0.308 0.351l-0.394-0.308-0.483-0.176 0.088 0.044 0.263 0.395c-0.058 0-0.189-0.088-0.395-0.264-0.117-0.117-0.205-0.161-0.264-0.131v0.088l0.176 0.526-0.264-0.395-0.658-0.483 0.615 0.219v-0.131l-0.089-0.175 0.352 0.131-0.438-0.439 0.396 0.175c0.175 0.117 0.307 0.161 0.394 0.132l-0.482-0.483 0.658 0.351c0.176 0.117 0.469 0.381 0.879 0.791l-0.703-0.571 0.308 0.307-0.267-0.13z" clip-rule="evenodd" fill="url(#u)" fill-rule="evenodd"/>
		<linearGradient id="v" x1="23.839" x2="26.585" y1="2.1768" y2="2.1768" gradientTransform="matrix(.8634 .1599 -.1599 .8634 3.7499 4.4995)" gradientUnits="userSpaceOnUse">
		<stop stop-color="#97C41B" offset="0"/>
		<stop stop-color="#CDFF00" stop-opacity="0" offset="1"/>
	</linearGradient>
	<path d="m25.527 10.778l0.088 0.088c0.088 0.059 0.205 0.103 0.351 0.132l0.483 0.088-1.142-0.176-0.659-0.175 0.879-0.044-0.966-0.439h0.878l-0.308-0.22-0.351-0.087-0.044-0.088 0.614 0.175 0.395 0.176-0.438-0.088 0.79 0.483-0.658-0.176h-0.176l0.966 0.351c-0.234 0.029-0.409 0.029-0.526 0h-0.176z" clip-rule="evenodd" fill="url(#v)" fill-rule="evenodd"/>
</svg>
