<svg height="512" viewBox="0 0 64 64" width="512" xmlns="http://www.w3.org/2000/svg"><g id="flat"><rect fill="#87cee9" height="36" rx="4" width="24" x="33" y="25"/><path d="m33 29h24v18h-24z" fill="#f4f4e6"/><path d="m11 47v-2h-6v2l-2 2v12h10v-12z" fill="#87cee9"/><path d="m37 21h16v4h-16z" fill="#50b3c9"/><path d="m35 15h20v6h-20z" fill="#f9bb4b"/><path d="m38 15h2v3h-2z" fill="#ffd782"/><path d="m42 15h2v3h-2z" fill="#ffd782"/><path d="m46 15h2v3h-2z" fill="#ffd782"/><path d="m50 15h2v3h-2z" fill="#ffd782"/><path d="m50 36h-3v-3h-4v3h-3v4h3v3h4v-3h3z" fill="#dd3e46"/><path d="m19 20h8v26h-8z" fill="#87cee9" transform="matrix(-1 0 0 -1 46 66)"/><path d="m22 2h2v11h-2z" fill="#2d75bb"/><path d="m21 12h4a0 0 0 0 1 0 0v2a2 2 0 0 1 -2 2 2 2 0 0 1 -2-2v-2a0 0 0 0 1 0 0z" fill="#87cee9" transform="matrix(-1 0 0 -1 46 28)"/><path d="m21 16h4l2 4h-8z" fill="#50b3c9"/><path d="m17 46h12v4h-12z" fill="#50b3c9" transform="matrix(-1 0 0 -1 46 96)"/><rect fill="#50b3c9" height="4" rx="2" transform="matrix(-1 0 0 -1 46 118)" width="10" x="18" y="57"/><path d="m21 50h4v7h-4z" fill="#87cee9" transform="matrix(-1 0 0 -1 46 107)"/><g fill="#195c85"><path d="m19 32h3v2h-3z"/><path d="m19 28h3v2h-3z"/><path d="m19 40h3v2h-3z"/><path d="m19 36h3v2h-3z"/><path d="m19 24h3v2h-3z"/><path d="m3 41h10v4h-10z"/></g><path d="m3 51h10v6h-10z" fill="#f9bb4b"/><path d="m54 54h10v4h-10z" fill="#195c85" transform="matrix(0 1 -1 0 115 -3)"/><path d="m54 59h3v-6h-3l-2-2h-12v10h12z" fill="#cdeef6"/><path d="m42 53h10v6h-10z" fill="#f9bb4b" transform="matrix(0 1 -1 0 103 9)"/><path d="m36 56h2v2h-2z" fill="#f4f4e6"/><path d="m36 52h2v2h-2z" fill="#f4f4e6"/></g></svg>