<svg height="512" viewBox="0 0 64 64" width="512" xmlns="http://www.w3.org/2000/svg"><g id="flat"><circle cx="32" cy="32" fill="#195c85" r="29"/><circle cx="32" cy="32" fill="#87cee9" r="25"/><path d="m39.265 25.406-1.097-1.961 2.606-3.908 1.962.662z" fill="#6f1d48"/><path d="m23 27.414-4.238-4.238 1.238-1.59 4.414 4.414z" fill="#6f1d48"/><path d="m18.762 42.237-1.075-1.698 7.077-3.539v2.236z" fill="#6f1d48"/><path d="m37.593 47.422-2.9-5.8 1.694-1.083 3.231 6.461z" fill="#6f1d48"/><circle cx="42" cy="19" fill="#b459a1" r="2"/><circle cx="39" cy="49" fill="#b459a1" r="3"/><circle cx="17" cy="43" fill="#b459a1" r="3"/><circle cx="18" cy="21" fill="#b459a1" r="3"/><circle cx="32" cy="32" fill="#da1c4b" r="11"/><path d="m31 16h2v9h-2z" fill="#6f1d48"/><path d="m16.313 33h8.688v2h-8.688z" fill="#6f1d48"/><path d="m27.388 48-1.693-1.248 2.356-7.068 1.898.632z" fill="#6f1d48"/><path d="m47 40.539-10.406-4.625.812-1.828 10.392 4.619z" fill="#6f1d48"/><path d="m42.196 31.52-.718-1.877 6.522-3.261.322 2.075z" fill="#6f1d48"/><circle cx="27" cy="30" fill="#dc93bf" r="2"/><circle cx="36" cy="29" fill="#dc93bf" r="3"/><circle cx="31" cy="37" fill="#dc93bf" r="2"/><g fill="#f4f4e6"><path d="m16 27h2v2h-2z"/><path d="m24 17h2v2h-2z"/><path d="m38 12h2v2h-2z"/><path d="m46 32h2v2h-2z"/><path d="m41 42h2v2h-2z"/><path d="m31 46h2v2h-2z"/><path d="m29 52h2v2h-2z"/><path d="m47 18h2v2h-2z"/><path d="m21 13h2v2h-2z"/></g><circle cx="26" cy="48" fill="#b459a1" r="2"/><circle cx="48" cy="40" fill="#b459a1" r="2"/><circle cx="50" cy="27" fill="#b459a1" r="3"/><circle cx="15" cy="34" fill="#b459a1" r="2"/><circle cx="32" cy="14" fill="#b459a1" r="3"/></g></svg>